%TF.GenerationSoftware,KiCad,Pcbnew,(5.1.6)-1*%
%TF.CreationDate,2020-09-14T17:11:37+02:00*%
%TF.ProjectId,STM32_blue_pill_4_layers,53544d33-325f-4626-9c75-655f70696c6c,rev?*%
%TF.SameCoordinates,Original*%
%TF.FileFunction,Copper,L1,Top*%
%TF.FilePolarity,Positive*%
%FSLAX46Y46*%
G04 Gerber Fmt 4.6, Leading zero omitted, Abs format (unit mm)*
G04 Created by KiCad (PCBNEW (5.1.6)-1) date 2020-09-14 17:11:37*
%MOMM*%
%LPD*%
G01*
G04 APERTURE LIST*
%TA.AperFunction,SMDPad,CuDef*%
%ADD10R,1.000000X1.900000*%
%TD*%
%TA.AperFunction,SMDPad,CuDef*%
%ADD11R,1.800000X1.900000*%
%TD*%
%TA.AperFunction,SMDPad,CuDef*%
%ADD12R,1.650000X1.300000*%
%TD*%
%TA.AperFunction,SMDPad,CuDef*%
%ADD13R,1.425000X1.550000*%
%TD*%
%TA.AperFunction,SMDPad,CuDef*%
%ADD14R,0.450000X1.380000*%
%TD*%
%TA.AperFunction,SMDPad,CuDef*%
%ADD15R,1.000000X0.900000*%
%TD*%
%TA.AperFunction,SMDPad,CuDef*%
%ADD16R,1.100000X1.050000*%
%TD*%
%TA.AperFunction,SMDPad,CuDef*%
%ADD17R,1.900000X2.500000*%
%TD*%
%TA.AperFunction,ComponentPad*%
%ADD18O,1.700000X1.700000*%
%TD*%
%TA.AperFunction,ComponentPad*%
%ADD19R,1.700000X1.700000*%
%TD*%
%TA.AperFunction,ViaPad*%
%ADD20C,0.800000*%
%TD*%
%TA.AperFunction,Conductor*%
%ADD21C,0.250000*%
%TD*%
G04 APERTURE END LIST*
D10*
%TO.P,J3,6*%
%TO.N,Net-(J3-Pad6)*%
X128880000Y-62410000D03*
D11*
X131580000Y-62410000D03*
D12*
X127055000Y-62410000D03*
X133805000Y-62410000D03*
D13*
X127942500Y-64985000D03*
X132917500Y-64985000D03*
D14*
%TO.P,J3,5*%
%TO.N,GND*%
X129130000Y-65070000D03*
%TO.P,J3,4*%
X129780000Y-65070000D03*
%TO.P,J3,3*%
%TO.N,Net-(J3-Pad3)*%
X130430000Y-65070000D03*
%TO.P,J3,2*%
%TO.N,Net-(J3-Pad2)*%
X131080000Y-65070000D03*
%TO.P,J3,1*%
%TO.N,/5V*%
X131730000Y-65070000D03*
%TD*%
D15*
%TO.P,SW1,2*%
%TO.N,GND*%
X129000000Y-70240000D03*
%TO.P,SW1,1*%
X127400000Y-70240000D03*
%TO.P,SW1,2*%
X129000000Y-74340000D03*
%TO.P,SW1,1*%
X127400000Y-74340000D03*
%TD*%
D16*
%TO.P,Y2,2*%
%TO.N,/PC15*%
X133260000Y-104810000D03*
%TO.P,Y2,1*%
%TO.N,/PC14*%
X133260000Y-106660000D03*
%TD*%
D17*
%TO.P,Y1,2*%
%TO.N,/OSCOUT*%
X128310000Y-97370000D03*
%TO.P,Y1,1*%
%TO.N,/OSCIN*%
X132710000Y-97370000D03*
%TD*%
%TO.P,U1,48*%
%TO.N,/3V3*%
%TA.AperFunction,SMDPad,CuDef*%
G36*
G01*
X129546948Y-91407608D02*
X128610032Y-92344524D01*
G75*
G02*
X128503966Y-92344524I-53033J53033D01*
G01*
X128397900Y-92238458D01*
G75*
G02*
X128397900Y-92132392I53033J53033D01*
G01*
X129334816Y-91195476D01*
G75*
G02*
X129440882Y-91195476I53033J-53033D01*
G01*
X129546948Y-91301542D01*
G75*
G02*
X129546948Y-91407608I-53033J-53033D01*
G01*
G37*
%TD.AperFunction*%
%TO.P,U1,47*%
%TO.N,GND*%
%TA.AperFunction,SMDPad,CuDef*%
G36*
G01*
X129193394Y-91054054D02*
X128256478Y-91990970D01*
G75*
G02*
X128150412Y-91990970I-53033J53033D01*
G01*
X128044346Y-91884904D01*
G75*
G02*
X128044346Y-91778838I53033J53033D01*
G01*
X128981262Y-90841922D01*
G75*
G02*
X129087328Y-90841922I53033J-53033D01*
G01*
X129193394Y-90947988D01*
G75*
G02*
X129193394Y-91054054I-53033J-53033D01*
G01*
G37*
%TD.AperFunction*%
%TO.P,U1,46*%
%TO.N,/PB9*%
%TA.AperFunction,SMDPad,CuDef*%
G36*
G01*
X128839841Y-90700501D02*
X127902925Y-91637417D01*
G75*
G02*
X127796859Y-91637417I-53033J53033D01*
G01*
X127690793Y-91531351D01*
G75*
G02*
X127690793Y-91425285I53033J53033D01*
G01*
X128627709Y-90488369D01*
G75*
G02*
X128733775Y-90488369I53033J-53033D01*
G01*
X128839841Y-90594435D01*
G75*
G02*
X128839841Y-90700501I-53033J-53033D01*
G01*
G37*
%TD.AperFunction*%
%TO.P,U1,45*%
%TO.N,/PB8*%
%TA.AperFunction,SMDPad,CuDef*%
G36*
G01*
X128486287Y-90346947D02*
X127549371Y-91283863D01*
G75*
G02*
X127443305Y-91283863I-53033J53033D01*
G01*
X127337239Y-91177797D01*
G75*
G02*
X127337239Y-91071731I53033J53033D01*
G01*
X128274155Y-90134815D01*
G75*
G02*
X128380221Y-90134815I53033J-53033D01*
G01*
X128486287Y-90240881D01*
G75*
G02*
X128486287Y-90346947I-53033J-53033D01*
G01*
G37*
%TD.AperFunction*%
%TO.P,U1,44*%
%TO.N,/BOOT0*%
%TA.AperFunction,SMDPad,CuDef*%
G36*
G01*
X128132734Y-89993394D02*
X127195818Y-90930310D01*
G75*
G02*
X127089752Y-90930310I-53033J53033D01*
G01*
X126983686Y-90824244D01*
G75*
G02*
X126983686Y-90718178I53033J53033D01*
G01*
X127920602Y-89781262D01*
G75*
G02*
X128026668Y-89781262I53033J-53033D01*
G01*
X128132734Y-89887328D01*
G75*
G02*
X128132734Y-89993394I-53033J-53033D01*
G01*
G37*
%TD.AperFunction*%
%TO.P,U1,43*%
%TO.N,/PB7*%
%TA.AperFunction,SMDPad,CuDef*%
G36*
G01*
X127779181Y-89639841D02*
X126842265Y-90576757D01*
G75*
G02*
X126736199Y-90576757I-53033J53033D01*
G01*
X126630133Y-90470691D01*
G75*
G02*
X126630133Y-90364625I53033J53033D01*
G01*
X127567049Y-89427709D01*
G75*
G02*
X127673115Y-89427709I53033J-53033D01*
G01*
X127779181Y-89533775D01*
G75*
G02*
X127779181Y-89639841I-53033J-53033D01*
G01*
G37*
%TD.AperFunction*%
%TO.P,U1,42*%
%TO.N,/PB6*%
%TA.AperFunction,SMDPad,CuDef*%
G36*
G01*
X127425627Y-89286287D02*
X126488711Y-90223203D01*
G75*
G02*
X126382645Y-90223203I-53033J53033D01*
G01*
X126276579Y-90117137D01*
G75*
G02*
X126276579Y-90011071I53033J53033D01*
G01*
X127213495Y-89074155D01*
G75*
G02*
X127319561Y-89074155I53033J-53033D01*
G01*
X127425627Y-89180221D01*
G75*
G02*
X127425627Y-89286287I-53033J-53033D01*
G01*
G37*
%TD.AperFunction*%
%TO.P,U1,41*%
%TO.N,/PB5*%
%TA.AperFunction,SMDPad,CuDef*%
G36*
G01*
X127072074Y-88932734D02*
X126135158Y-89869650D01*
G75*
G02*
X126029092Y-89869650I-53033J53033D01*
G01*
X125923026Y-89763584D01*
G75*
G02*
X125923026Y-89657518I53033J53033D01*
G01*
X126859942Y-88720602D01*
G75*
G02*
X126966008Y-88720602I53033J-53033D01*
G01*
X127072074Y-88826668D01*
G75*
G02*
X127072074Y-88932734I-53033J-53033D01*
G01*
G37*
%TD.AperFunction*%
%TO.P,U1,40*%
%TO.N,/PB4*%
%TA.AperFunction,SMDPad,CuDef*%
G36*
G01*
X126718521Y-88579181D02*
X125781605Y-89516097D01*
G75*
G02*
X125675539Y-89516097I-53033J53033D01*
G01*
X125569473Y-89410031D01*
G75*
G02*
X125569473Y-89303965I53033J53033D01*
G01*
X126506389Y-88367049D01*
G75*
G02*
X126612455Y-88367049I53033J-53033D01*
G01*
X126718521Y-88473115D01*
G75*
G02*
X126718521Y-88579181I-53033J-53033D01*
G01*
G37*
%TD.AperFunction*%
%TO.P,U1,39*%
%TO.N,/PB3*%
%TA.AperFunction,SMDPad,CuDef*%
G36*
G01*
X126364967Y-88225627D02*
X125428051Y-89162543D01*
G75*
G02*
X125321985Y-89162543I-53033J53033D01*
G01*
X125215919Y-89056477D01*
G75*
G02*
X125215919Y-88950411I53033J53033D01*
G01*
X126152835Y-88013495D01*
G75*
G02*
X126258901Y-88013495I53033J-53033D01*
G01*
X126364967Y-88119561D01*
G75*
G02*
X126364967Y-88225627I-53033J-53033D01*
G01*
G37*
%TD.AperFunction*%
%TO.P,U1,38*%
%TO.N,/PA15*%
%TA.AperFunction,SMDPad,CuDef*%
G36*
G01*
X126011414Y-87872074D02*
X125074498Y-88808990D01*
G75*
G02*
X124968432Y-88808990I-53033J53033D01*
G01*
X124862366Y-88702924D01*
G75*
G02*
X124862366Y-88596858I53033J53033D01*
G01*
X125799282Y-87659942D01*
G75*
G02*
X125905348Y-87659942I53033J-53033D01*
G01*
X126011414Y-87766008D01*
G75*
G02*
X126011414Y-87872074I-53033J-53033D01*
G01*
G37*
%TD.AperFunction*%
%TO.P,U1,37*%
%TO.N,/SWCLK*%
%TA.AperFunction,SMDPad,CuDef*%
G36*
G01*
X125657860Y-87518520D02*
X124720944Y-88455436D01*
G75*
G02*
X124614878Y-88455436I-53033J53033D01*
G01*
X124508812Y-88349370D01*
G75*
G02*
X124508812Y-88243304I53033J53033D01*
G01*
X125445728Y-87306388D01*
G75*
G02*
X125551794Y-87306388I53033J-53033D01*
G01*
X125657860Y-87412454D01*
G75*
G02*
X125657860Y-87518520I-53033J-53033D01*
G01*
G37*
%TD.AperFunction*%
%TO.P,U1,36*%
%TO.N,/3V3*%
%TA.AperFunction,SMDPad,CuDef*%
G36*
G01*
X125657860Y-86351794D02*
X125551794Y-86457860D01*
G75*
G02*
X125445728Y-86457860I-53033J53033D01*
G01*
X124508812Y-85520944D01*
G75*
G02*
X124508812Y-85414878I53033J53033D01*
G01*
X124614878Y-85308812D01*
G75*
G02*
X124720944Y-85308812I53033J-53033D01*
G01*
X125657860Y-86245728D01*
G75*
G02*
X125657860Y-86351794I-53033J-53033D01*
G01*
G37*
%TD.AperFunction*%
%TO.P,U1,35*%
%TO.N,GND*%
%TA.AperFunction,SMDPad,CuDef*%
G36*
G01*
X126011414Y-85998240D02*
X125905348Y-86104306D01*
G75*
G02*
X125799282Y-86104306I-53033J53033D01*
G01*
X124862366Y-85167390D01*
G75*
G02*
X124862366Y-85061324I53033J53033D01*
G01*
X124968432Y-84955258D01*
G75*
G02*
X125074498Y-84955258I53033J-53033D01*
G01*
X126011414Y-85892174D01*
G75*
G02*
X126011414Y-85998240I-53033J-53033D01*
G01*
G37*
%TD.AperFunction*%
%TO.P,U1,34*%
%TO.N,/SWIO*%
%TA.AperFunction,SMDPad,CuDef*%
G36*
G01*
X126364967Y-85644687D02*
X126258901Y-85750753D01*
G75*
G02*
X126152835Y-85750753I-53033J53033D01*
G01*
X125215919Y-84813837D01*
G75*
G02*
X125215919Y-84707771I53033J53033D01*
G01*
X125321985Y-84601705D01*
G75*
G02*
X125428051Y-84601705I53033J-53033D01*
G01*
X126364967Y-85538621D01*
G75*
G02*
X126364967Y-85644687I-53033J-53033D01*
G01*
G37*
%TD.AperFunction*%
%TO.P,U1,33*%
%TO.N,/PA12*%
%TA.AperFunction,SMDPad,CuDef*%
G36*
G01*
X126718521Y-85291133D02*
X126612455Y-85397199D01*
G75*
G02*
X126506389Y-85397199I-53033J53033D01*
G01*
X125569473Y-84460283D01*
G75*
G02*
X125569473Y-84354217I53033J53033D01*
G01*
X125675539Y-84248151D01*
G75*
G02*
X125781605Y-84248151I53033J-53033D01*
G01*
X126718521Y-85185067D01*
G75*
G02*
X126718521Y-85291133I-53033J-53033D01*
G01*
G37*
%TD.AperFunction*%
%TO.P,U1,32*%
%TO.N,/PA11*%
%TA.AperFunction,SMDPad,CuDef*%
G36*
G01*
X127072074Y-84937580D02*
X126966008Y-85043646D01*
G75*
G02*
X126859942Y-85043646I-53033J53033D01*
G01*
X125923026Y-84106730D01*
G75*
G02*
X125923026Y-84000664I53033J53033D01*
G01*
X126029092Y-83894598D01*
G75*
G02*
X126135158Y-83894598I53033J-53033D01*
G01*
X127072074Y-84831514D01*
G75*
G02*
X127072074Y-84937580I-53033J-53033D01*
G01*
G37*
%TD.AperFunction*%
%TO.P,U1,31*%
%TO.N,/PA10*%
%TA.AperFunction,SMDPad,CuDef*%
G36*
G01*
X127425627Y-84584027D02*
X127319561Y-84690093D01*
G75*
G02*
X127213495Y-84690093I-53033J53033D01*
G01*
X126276579Y-83753177D01*
G75*
G02*
X126276579Y-83647111I53033J53033D01*
G01*
X126382645Y-83541045D01*
G75*
G02*
X126488711Y-83541045I53033J-53033D01*
G01*
X127425627Y-84477961D01*
G75*
G02*
X127425627Y-84584027I-53033J-53033D01*
G01*
G37*
%TD.AperFunction*%
%TO.P,U1,30*%
%TO.N,/PA9*%
%TA.AperFunction,SMDPad,CuDef*%
G36*
G01*
X127779181Y-84230473D02*
X127673115Y-84336539D01*
G75*
G02*
X127567049Y-84336539I-53033J53033D01*
G01*
X126630133Y-83399623D01*
G75*
G02*
X126630133Y-83293557I53033J53033D01*
G01*
X126736199Y-83187491D01*
G75*
G02*
X126842265Y-83187491I53033J-53033D01*
G01*
X127779181Y-84124407D01*
G75*
G02*
X127779181Y-84230473I-53033J-53033D01*
G01*
G37*
%TD.AperFunction*%
%TO.P,U1,29*%
%TO.N,/PA8*%
%TA.AperFunction,SMDPad,CuDef*%
G36*
G01*
X128132734Y-83876920D02*
X128026668Y-83982986D01*
G75*
G02*
X127920602Y-83982986I-53033J53033D01*
G01*
X126983686Y-83046070D01*
G75*
G02*
X126983686Y-82940004I53033J53033D01*
G01*
X127089752Y-82833938D01*
G75*
G02*
X127195818Y-82833938I53033J-53033D01*
G01*
X128132734Y-83770854D01*
G75*
G02*
X128132734Y-83876920I-53033J-53033D01*
G01*
G37*
%TD.AperFunction*%
%TO.P,U1,28*%
%TO.N,/PB15*%
%TA.AperFunction,SMDPad,CuDef*%
G36*
G01*
X128486287Y-83523367D02*
X128380221Y-83629433D01*
G75*
G02*
X128274155Y-83629433I-53033J53033D01*
G01*
X127337239Y-82692517D01*
G75*
G02*
X127337239Y-82586451I53033J53033D01*
G01*
X127443305Y-82480385D01*
G75*
G02*
X127549371Y-82480385I53033J-53033D01*
G01*
X128486287Y-83417301D01*
G75*
G02*
X128486287Y-83523367I-53033J-53033D01*
G01*
G37*
%TD.AperFunction*%
%TO.P,U1,27*%
%TO.N,/PB14*%
%TA.AperFunction,SMDPad,CuDef*%
G36*
G01*
X128839841Y-83169813D02*
X128733775Y-83275879D01*
G75*
G02*
X128627709Y-83275879I-53033J53033D01*
G01*
X127690793Y-82338963D01*
G75*
G02*
X127690793Y-82232897I53033J53033D01*
G01*
X127796859Y-82126831D01*
G75*
G02*
X127902925Y-82126831I53033J-53033D01*
G01*
X128839841Y-83063747D01*
G75*
G02*
X128839841Y-83169813I-53033J-53033D01*
G01*
G37*
%TD.AperFunction*%
%TO.P,U1,26*%
%TO.N,/PB13*%
%TA.AperFunction,SMDPad,CuDef*%
G36*
G01*
X129193394Y-82816260D02*
X129087328Y-82922326D01*
G75*
G02*
X128981262Y-82922326I-53033J53033D01*
G01*
X128044346Y-81985410D01*
G75*
G02*
X128044346Y-81879344I53033J53033D01*
G01*
X128150412Y-81773278D01*
G75*
G02*
X128256478Y-81773278I53033J-53033D01*
G01*
X129193394Y-82710194D01*
G75*
G02*
X129193394Y-82816260I-53033J-53033D01*
G01*
G37*
%TD.AperFunction*%
%TO.P,U1,25*%
%TO.N,/PB12*%
%TA.AperFunction,SMDPad,CuDef*%
G36*
G01*
X129546948Y-82462706D02*
X129440882Y-82568772D01*
G75*
G02*
X129334816Y-82568772I-53033J53033D01*
G01*
X128397900Y-81631856D01*
G75*
G02*
X128397900Y-81525790I53033J53033D01*
G01*
X128503966Y-81419724D01*
G75*
G02*
X128610032Y-81419724I53033J-53033D01*
G01*
X129546948Y-82356640D01*
G75*
G02*
X129546948Y-82462706I-53033J-53033D01*
G01*
G37*
%TD.AperFunction*%
%TO.P,U1,24*%
%TO.N,/3V3*%
%TA.AperFunction,SMDPad,CuDef*%
G36*
G01*
X131544524Y-81631856D02*
X130607608Y-82568772D01*
G75*
G02*
X130501542Y-82568772I-53033J53033D01*
G01*
X130395476Y-82462706D01*
G75*
G02*
X130395476Y-82356640I53033J53033D01*
G01*
X131332392Y-81419724D01*
G75*
G02*
X131438458Y-81419724I53033J-53033D01*
G01*
X131544524Y-81525790D01*
G75*
G02*
X131544524Y-81631856I-53033J-53033D01*
G01*
G37*
%TD.AperFunction*%
%TO.P,U1,23*%
%TO.N,GND*%
%TA.AperFunction,SMDPad,CuDef*%
G36*
G01*
X131898078Y-81985410D02*
X130961162Y-82922326D01*
G75*
G02*
X130855096Y-82922326I-53033J53033D01*
G01*
X130749030Y-82816260D01*
G75*
G02*
X130749030Y-82710194I53033J53033D01*
G01*
X131685946Y-81773278D01*
G75*
G02*
X131792012Y-81773278I53033J-53033D01*
G01*
X131898078Y-81879344D01*
G75*
G02*
X131898078Y-81985410I-53033J-53033D01*
G01*
G37*
%TD.AperFunction*%
%TO.P,U1,22*%
%TO.N,/PB11*%
%TA.AperFunction,SMDPad,CuDef*%
G36*
G01*
X132251631Y-82338963D02*
X131314715Y-83275879D01*
G75*
G02*
X131208649Y-83275879I-53033J53033D01*
G01*
X131102583Y-83169813D01*
G75*
G02*
X131102583Y-83063747I53033J53033D01*
G01*
X132039499Y-82126831D01*
G75*
G02*
X132145565Y-82126831I53033J-53033D01*
G01*
X132251631Y-82232897D01*
G75*
G02*
X132251631Y-82338963I-53033J-53033D01*
G01*
G37*
%TD.AperFunction*%
%TO.P,U1,21*%
%TO.N,/PB10*%
%TA.AperFunction,SMDPad,CuDef*%
G36*
G01*
X132605185Y-82692517D02*
X131668269Y-83629433D01*
G75*
G02*
X131562203Y-83629433I-53033J53033D01*
G01*
X131456137Y-83523367D01*
G75*
G02*
X131456137Y-83417301I53033J53033D01*
G01*
X132393053Y-82480385D01*
G75*
G02*
X132499119Y-82480385I53033J-53033D01*
G01*
X132605185Y-82586451D01*
G75*
G02*
X132605185Y-82692517I-53033J-53033D01*
G01*
G37*
%TD.AperFunction*%
%TO.P,U1,20*%
%TO.N,/BOOT1*%
%TA.AperFunction,SMDPad,CuDef*%
G36*
G01*
X132958738Y-83046070D02*
X132021822Y-83982986D01*
G75*
G02*
X131915756Y-83982986I-53033J53033D01*
G01*
X131809690Y-83876920D01*
G75*
G02*
X131809690Y-83770854I53033J53033D01*
G01*
X132746606Y-82833938D01*
G75*
G02*
X132852672Y-82833938I53033J-53033D01*
G01*
X132958738Y-82940004D01*
G75*
G02*
X132958738Y-83046070I-53033J-53033D01*
G01*
G37*
%TD.AperFunction*%
%TO.P,U1,19*%
%TO.N,/PB1*%
%TA.AperFunction,SMDPad,CuDef*%
G36*
G01*
X133312291Y-83399623D02*
X132375375Y-84336539D01*
G75*
G02*
X132269309Y-84336539I-53033J53033D01*
G01*
X132163243Y-84230473D01*
G75*
G02*
X132163243Y-84124407I53033J53033D01*
G01*
X133100159Y-83187491D01*
G75*
G02*
X133206225Y-83187491I53033J-53033D01*
G01*
X133312291Y-83293557D01*
G75*
G02*
X133312291Y-83399623I-53033J-53033D01*
G01*
G37*
%TD.AperFunction*%
%TO.P,U1,18*%
%TO.N,/PB0*%
%TA.AperFunction,SMDPad,CuDef*%
G36*
G01*
X133665845Y-83753177D02*
X132728929Y-84690093D01*
G75*
G02*
X132622863Y-84690093I-53033J53033D01*
G01*
X132516797Y-84584027D01*
G75*
G02*
X132516797Y-84477961I53033J53033D01*
G01*
X133453713Y-83541045D01*
G75*
G02*
X133559779Y-83541045I53033J-53033D01*
G01*
X133665845Y-83647111D01*
G75*
G02*
X133665845Y-83753177I-53033J-53033D01*
G01*
G37*
%TD.AperFunction*%
%TO.P,U1,17*%
%TO.N,/PA7*%
%TA.AperFunction,SMDPad,CuDef*%
G36*
G01*
X134019398Y-84106730D02*
X133082482Y-85043646D01*
G75*
G02*
X132976416Y-85043646I-53033J53033D01*
G01*
X132870350Y-84937580D01*
G75*
G02*
X132870350Y-84831514I53033J53033D01*
G01*
X133807266Y-83894598D01*
G75*
G02*
X133913332Y-83894598I53033J-53033D01*
G01*
X134019398Y-84000664D01*
G75*
G02*
X134019398Y-84106730I-53033J-53033D01*
G01*
G37*
%TD.AperFunction*%
%TO.P,U1,16*%
%TO.N,/PA6*%
%TA.AperFunction,SMDPad,CuDef*%
G36*
G01*
X134372951Y-84460283D02*
X133436035Y-85397199D01*
G75*
G02*
X133329969Y-85397199I-53033J53033D01*
G01*
X133223903Y-85291133D01*
G75*
G02*
X133223903Y-85185067I53033J53033D01*
G01*
X134160819Y-84248151D01*
G75*
G02*
X134266885Y-84248151I53033J-53033D01*
G01*
X134372951Y-84354217D01*
G75*
G02*
X134372951Y-84460283I-53033J-53033D01*
G01*
G37*
%TD.AperFunction*%
%TO.P,U1,15*%
%TO.N,/PA5*%
%TA.AperFunction,SMDPad,CuDef*%
G36*
G01*
X134726505Y-84813837D02*
X133789589Y-85750753D01*
G75*
G02*
X133683523Y-85750753I-53033J53033D01*
G01*
X133577457Y-85644687D01*
G75*
G02*
X133577457Y-85538621I53033J53033D01*
G01*
X134514373Y-84601705D01*
G75*
G02*
X134620439Y-84601705I53033J-53033D01*
G01*
X134726505Y-84707771D01*
G75*
G02*
X134726505Y-84813837I-53033J-53033D01*
G01*
G37*
%TD.AperFunction*%
%TO.P,U1,14*%
%TO.N,/PA4*%
%TA.AperFunction,SMDPad,CuDef*%
G36*
G01*
X135080058Y-85167390D02*
X134143142Y-86104306D01*
G75*
G02*
X134037076Y-86104306I-53033J53033D01*
G01*
X133931010Y-85998240D01*
G75*
G02*
X133931010Y-85892174I53033J53033D01*
G01*
X134867926Y-84955258D01*
G75*
G02*
X134973992Y-84955258I53033J-53033D01*
G01*
X135080058Y-85061324D01*
G75*
G02*
X135080058Y-85167390I-53033J-53033D01*
G01*
G37*
%TD.AperFunction*%
%TO.P,U1,13*%
%TO.N,/PA3*%
%TA.AperFunction,SMDPad,CuDef*%
G36*
G01*
X135433612Y-85520944D02*
X134496696Y-86457860D01*
G75*
G02*
X134390630Y-86457860I-53033J53033D01*
G01*
X134284564Y-86351794D01*
G75*
G02*
X134284564Y-86245728I53033J53033D01*
G01*
X135221480Y-85308812D01*
G75*
G02*
X135327546Y-85308812I53033J-53033D01*
G01*
X135433612Y-85414878D01*
G75*
G02*
X135433612Y-85520944I-53033J-53033D01*
G01*
G37*
%TD.AperFunction*%
%TO.P,U1,12*%
%TO.N,/PA2*%
%TA.AperFunction,SMDPad,CuDef*%
G36*
G01*
X135433612Y-88349370D02*
X135327546Y-88455436D01*
G75*
G02*
X135221480Y-88455436I-53033J53033D01*
G01*
X134284564Y-87518520D01*
G75*
G02*
X134284564Y-87412454I53033J53033D01*
G01*
X134390630Y-87306388D01*
G75*
G02*
X134496696Y-87306388I53033J-53033D01*
G01*
X135433612Y-88243304D01*
G75*
G02*
X135433612Y-88349370I-53033J-53033D01*
G01*
G37*
%TD.AperFunction*%
%TO.P,U1,11*%
%TO.N,/PA1*%
%TA.AperFunction,SMDPad,CuDef*%
G36*
G01*
X135080058Y-88702924D02*
X134973992Y-88808990D01*
G75*
G02*
X134867926Y-88808990I-53033J53033D01*
G01*
X133931010Y-87872074D01*
G75*
G02*
X133931010Y-87766008I53033J53033D01*
G01*
X134037076Y-87659942D01*
G75*
G02*
X134143142Y-87659942I53033J-53033D01*
G01*
X135080058Y-88596858D01*
G75*
G02*
X135080058Y-88702924I-53033J-53033D01*
G01*
G37*
%TD.AperFunction*%
%TO.P,U1,10*%
%TO.N,/PA0*%
%TA.AperFunction,SMDPad,CuDef*%
G36*
G01*
X134726505Y-89056477D02*
X134620439Y-89162543D01*
G75*
G02*
X134514373Y-89162543I-53033J53033D01*
G01*
X133577457Y-88225627D01*
G75*
G02*
X133577457Y-88119561I53033J53033D01*
G01*
X133683523Y-88013495D01*
G75*
G02*
X133789589Y-88013495I53033J-53033D01*
G01*
X134726505Y-88950411D01*
G75*
G02*
X134726505Y-89056477I-53033J-53033D01*
G01*
G37*
%TD.AperFunction*%
%TO.P,U1,9*%
%TO.N,/3V3*%
%TA.AperFunction,SMDPad,CuDef*%
G36*
G01*
X134372951Y-89410031D02*
X134266885Y-89516097D01*
G75*
G02*
X134160819Y-89516097I-53033J53033D01*
G01*
X133223903Y-88579181D01*
G75*
G02*
X133223903Y-88473115I53033J53033D01*
G01*
X133329969Y-88367049D01*
G75*
G02*
X133436035Y-88367049I53033J-53033D01*
G01*
X134372951Y-89303965D01*
G75*
G02*
X134372951Y-89410031I-53033J-53033D01*
G01*
G37*
%TD.AperFunction*%
%TO.P,U1,8*%
%TO.N,GND*%
%TA.AperFunction,SMDPad,CuDef*%
G36*
G01*
X134019398Y-89763584D02*
X133913332Y-89869650D01*
G75*
G02*
X133807266Y-89869650I-53033J53033D01*
G01*
X132870350Y-88932734D01*
G75*
G02*
X132870350Y-88826668I53033J53033D01*
G01*
X132976416Y-88720602D01*
G75*
G02*
X133082482Y-88720602I53033J-53033D01*
G01*
X134019398Y-89657518D01*
G75*
G02*
X134019398Y-89763584I-53033J-53033D01*
G01*
G37*
%TD.AperFunction*%
%TO.P,U1,7*%
%TO.N,/RESET*%
%TA.AperFunction,SMDPad,CuDef*%
G36*
G01*
X133665845Y-90117137D02*
X133559779Y-90223203D01*
G75*
G02*
X133453713Y-90223203I-53033J53033D01*
G01*
X132516797Y-89286287D01*
G75*
G02*
X132516797Y-89180221I53033J53033D01*
G01*
X132622863Y-89074155D01*
G75*
G02*
X132728929Y-89074155I53033J-53033D01*
G01*
X133665845Y-90011071D01*
G75*
G02*
X133665845Y-90117137I-53033J-53033D01*
G01*
G37*
%TD.AperFunction*%
%TO.P,U1,6*%
%TO.N,/OSCOUT*%
%TA.AperFunction,SMDPad,CuDef*%
G36*
G01*
X133312291Y-90470691D02*
X133206225Y-90576757D01*
G75*
G02*
X133100159Y-90576757I-53033J53033D01*
G01*
X132163243Y-89639841D01*
G75*
G02*
X132163243Y-89533775I53033J53033D01*
G01*
X132269309Y-89427709D01*
G75*
G02*
X132375375Y-89427709I53033J-53033D01*
G01*
X133312291Y-90364625D01*
G75*
G02*
X133312291Y-90470691I-53033J-53033D01*
G01*
G37*
%TD.AperFunction*%
%TO.P,U1,5*%
%TO.N,/OSCIN*%
%TA.AperFunction,SMDPad,CuDef*%
G36*
G01*
X132958738Y-90824244D02*
X132852672Y-90930310D01*
G75*
G02*
X132746606Y-90930310I-53033J53033D01*
G01*
X131809690Y-89993394D01*
G75*
G02*
X131809690Y-89887328I53033J53033D01*
G01*
X131915756Y-89781262D01*
G75*
G02*
X132021822Y-89781262I53033J-53033D01*
G01*
X132958738Y-90718178D01*
G75*
G02*
X132958738Y-90824244I-53033J-53033D01*
G01*
G37*
%TD.AperFunction*%
%TO.P,U1,4*%
%TO.N,/PC15*%
%TA.AperFunction,SMDPad,CuDef*%
G36*
G01*
X132605185Y-91177797D02*
X132499119Y-91283863D01*
G75*
G02*
X132393053Y-91283863I-53033J53033D01*
G01*
X131456137Y-90346947D01*
G75*
G02*
X131456137Y-90240881I53033J53033D01*
G01*
X131562203Y-90134815D01*
G75*
G02*
X131668269Y-90134815I53033J-53033D01*
G01*
X132605185Y-91071731D01*
G75*
G02*
X132605185Y-91177797I-53033J-53033D01*
G01*
G37*
%TD.AperFunction*%
%TO.P,U1,3*%
%TO.N,/PC14*%
%TA.AperFunction,SMDPad,CuDef*%
G36*
G01*
X132251631Y-91531351D02*
X132145565Y-91637417D01*
G75*
G02*
X132039499Y-91637417I-53033J53033D01*
G01*
X131102583Y-90700501D01*
G75*
G02*
X131102583Y-90594435I53033J53033D01*
G01*
X131208649Y-90488369D01*
G75*
G02*
X131314715Y-90488369I53033J-53033D01*
G01*
X132251631Y-91425285D01*
G75*
G02*
X132251631Y-91531351I-53033J-53033D01*
G01*
G37*
%TD.AperFunction*%
%TO.P,U1,2*%
%TO.N,/PC13*%
%TA.AperFunction,SMDPad,CuDef*%
G36*
G01*
X131898078Y-91884904D02*
X131792012Y-91990970D01*
G75*
G02*
X131685946Y-91990970I-53033J53033D01*
G01*
X130749030Y-91054054D01*
G75*
G02*
X130749030Y-90947988I53033J53033D01*
G01*
X130855096Y-90841922D01*
G75*
G02*
X130961162Y-90841922I53033J-53033D01*
G01*
X131898078Y-91778838D01*
G75*
G02*
X131898078Y-91884904I-53033J-53033D01*
G01*
G37*
%TD.AperFunction*%
%TO.P,U1,1*%
%TO.N,/VBAT*%
%TA.AperFunction,SMDPad,CuDef*%
G36*
G01*
X131544524Y-92238458D02*
X131438458Y-92344524D01*
G75*
G02*
X131332392Y-92344524I-53033J53033D01*
G01*
X130395476Y-91407608D01*
G75*
G02*
X130395476Y-91301542I53033J53033D01*
G01*
X130501542Y-91195476D01*
G75*
G02*
X130607608Y-91195476I53033J-53033D01*
G01*
X131544524Y-92132392D01*
G75*
G02*
X131544524Y-92238458I-53033J-53033D01*
G01*
G37*
%TD.AperFunction*%
%TD*%
D18*
%TO.P,J5,4*%
%TO.N,GND*%
X126550000Y-110170000D03*
%TO.P,J5,3*%
%TO.N,/SWCLK*%
X129090000Y-110170000D03*
%TO.P,J5,2*%
%TO.N,/SWIO*%
X131630000Y-110170000D03*
D19*
%TO.P,J5,1*%
%TO.N,/3V3*%
X134170000Y-110170000D03*
%TD*%
D18*
%TO.P,J4,6*%
%TO.N,GND*%
X134210000Y-74260000D03*
%TO.P,J4,5*%
X131670000Y-74260000D03*
%TO.P,J4,4*%
%TO.N,Net-(J4-Pad4)*%
X134210000Y-71720000D03*
%TO.P,J4,3*%
%TO.N,Net-(J4-Pad3)*%
X131670000Y-71720000D03*
%TO.P,J4,2*%
%TO.N,/3V3*%
X134210000Y-69180000D03*
D19*
%TO.P,J4,1*%
X131670000Y-69180000D03*
%TD*%
D18*
%TO.P,J2,20*%
%TO.N,/PB12*%
X121950000Y-62090000D03*
%TO.P,J2,19*%
%TO.N,/PB13*%
X121950000Y-64630000D03*
%TO.P,J2,18*%
%TO.N,/PB14*%
X121950000Y-67170000D03*
%TO.P,J2,17*%
%TO.N,/PB15*%
X121950000Y-69710000D03*
%TO.P,J2,16*%
%TO.N,/PA8*%
X121950000Y-72250000D03*
%TO.P,J2,15*%
%TO.N,/PA9*%
X121950000Y-74790000D03*
%TO.P,J2,14*%
%TO.N,/PA10*%
X121950000Y-77330000D03*
%TO.P,J2,13*%
%TO.N,/PA11*%
X121950000Y-79870000D03*
%TO.P,J2,12*%
%TO.N,/PA12*%
X121950000Y-82410000D03*
%TO.P,J2,11*%
%TO.N,/PA15*%
X121950000Y-84950000D03*
%TO.P,J2,10*%
%TO.N,/PB3*%
X121950000Y-87490000D03*
%TO.P,J2,9*%
%TO.N,/PB4*%
X121950000Y-90030000D03*
%TO.P,J2,8*%
%TO.N,/PB5*%
X121950000Y-92570000D03*
%TO.P,J2,7*%
%TO.N,/PB6*%
X121950000Y-95110000D03*
%TO.P,J2,6*%
%TO.N,/PB7*%
X121950000Y-97650000D03*
%TO.P,J2,5*%
%TO.N,/PB8*%
X121950000Y-100190000D03*
%TO.P,J2,4*%
%TO.N,/PB9*%
X121950000Y-102730000D03*
%TO.P,J2,3*%
%TO.N,/5V*%
X121950000Y-105270000D03*
%TO.P,J2,2*%
%TO.N,GND*%
X121950000Y-107810000D03*
D19*
%TO.P,J2,1*%
%TO.N,/3V3*%
X121950000Y-110350000D03*
%TD*%
D18*
%TO.P,J1,20*%
%TO.N,GND*%
X138320000Y-62130000D03*
%TO.P,J1,19*%
X138320000Y-64670000D03*
%TO.P,J1,18*%
%TO.N,/3V3*%
X138320000Y-67210000D03*
%TO.P,J1,17*%
%TO.N,/RESET*%
X138320000Y-69750000D03*
%TO.P,J1,16*%
%TO.N,/PB11*%
X138320000Y-72290000D03*
%TO.P,J1,15*%
%TO.N,/PB10*%
X138320000Y-74830000D03*
%TO.P,J1,14*%
%TO.N,/PB1*%
X138320000Y-77370000D03*
%TO.P,J1,13*%
%TO.N,/PB0*%
X138320000Y-79910000D03*
%TO.P,J1,12*%
%TO.N,/PA7*%
X138320000Y-82450000D03*
%TO.P,J1,11*%
%TO.N,/PA6*%
X138320000Y-84990000D03*
%TO.P,J1,10*%
%TO.N,/PA5*%
X138320000Y-87530000D03*
%TO.P,J1,9*%
%TO.N,/PA4*%
X138320000Y-90070000D03*
%TO.P,J1,8*%
%TO.N,/PA3*%
X138320000Y-92610000D03*
%TO.P,J1,7*%
%TO.N,/PA2*%
X138320000Y-95150000D03*
%TO.P,J1,6*%
%TO.N,/PA1*%
X138320000Y-97690000D03*
%TO.P,J1,5*%
%TO.N,/PA0*%
X138320000Y-100230000D03*
%TO.P,J1,4*%
%TO.N,/PC15*%
X138320000Y-102770000D03*
%TO.P,J1,3*%
%TO.N,/PC14*%
X138320000Y-105310000D03*
%TO.P,J1,2*%
%TO.N,/PC13*%
X138320000Y-107850000D03*
D19*
%TO.P,J1,1*%
%TO.N,/VBAT*%
X138320000Y-110390000D03*
%TD*%
%TO.P,D2,2*%
%TO.N,/3V3*%
%TA.AperFunction,SMDPad,CuDef*%
G36*
G01*
X128023750Y-102480000D02*
X128936250Y-102480000D01*
G75*
G02*
X129180000Y-102723750I0J-243750D01*
G01*
X129180000Y-103211250D01*
G75*
G02*
X128936250Y-103455000I-243750J0D01*
G01*
X128023750Y-103455000D01*
G75*
G02*
X127780000Y-103211250I0J243750D01*
G01*
X127780000Y-102723750D01*
G75*
G02*
X128023750Y-102480000I243750J0D01*
G01*
G37*
%TD.AperFunction*%
%TO.P,D2,1*%
%TO.N,Net-(D2-Pad1)*%
%TA.AperFunction,SMDPad,CuDef*%
G36*
G01*
X128023750Y-100605000D02*
X128936250Y-100605000D01*
G75*
G02*
X129180000Y-100848750I0J-243750D01*
G01*
X129180000Y-101336250D01*
G75*
G02*
X128936250Y-101580000I-243750J0D01*
G01*
X128023750Y-101580000D01*
G75*
G02*
X127780000Y-101336250I0J243750D01*
G01*
X127780000Y-100848750D01*
G75*
G02*
X128023750Y-100605000I243750J0D01*
G01*
G37*
%TD.AperFunction*%
%TD*%
%TO.P,D1,2*%
%TO.N,/3V3*%
%TA.AperFunction,SMDPad,CuDef*%
G36*
G01*
X130103750Y-102477500D02*
X131016250Y-102477500D01*
G75*
G02*
X131260000Y-102721250I0J-243750D01*
G01*
X131260000Y-103208750D01*
G75*
G02*
X131016250Y-103452500I-243750J0D01*
G01*
X130103750Y-103452500D01*
G75*
G02*
X129860000Y-103208750I0J243750D01*
G01*
X129860000Y-102721250D01*
G75*
G02*
X130103750Y-102477500I243750J0D01*
G01*
G37*
%TD.AperFunction*%
%TO.P,D1,1*%
%TO.N,Net-(D1-Pad1)*%
%TA.AperFunction,SMDPad,CuDef*%
G36*
G01*
X130103750Y-100602500D02*
X131016250Y-100602500D01*
G75*
G02*
X131260000Y-100846250I0J-243750D01*
G01*
X131260000Y-101333750D01*
G75*
G02*
X131016250Y-101577500I-243750J0D01*
G01*
X130103750Y-101577500D01*
G75*
G02*
X129860000Y-101333750I0J243750D01*
G01*
X129860000Y-100846250D01*
G75*
G02*
X130103750Y-100602500I243750J0D01*
G01*
G37*
%TD.AperFunction*%
%TD*%
D20*
%TO.N,GND*%
X125360000Y-98770000D03*
X130070000Y-83440000D03*
X132460000Y-88270000D03*
X128890000Y-66920000D03*
X125810000Y-70120000D03*
X129675012Y-87025009D03*
X133030000Y-86320000D03*
X128663425Y-76683985D03*
X126331193Y-86466484D03*
X129798621Y-88977480D03*
%TO.N,/RESET*%
X134582660Y-91047340D03*
%TO.N,/3V3*%
X128529417Y-93987900D03*
X125743463Y-73193146D03*
X128422379Y-77674437D03*
X124235587Y-86276785D03*
X127050000Y-101880000D03*
X133484990Y-78487102D03*
%TO.N,/OSCIN*%
X130670000Y-92840000D03*
%TO.N,/OSCOUT*%
X127740865Y-96060865D03*
X129930000Y-96420000D03*
X135367898Y-93072579D03*
%TO.N,/PC14*%
X134761883Y-104747819D03*
X135304990Y-98335534D03*
%TO.N,/PC15*%
X131204568Y-106860010D03*
X132170000Y-104830000D03*
%TO.N,/5V*%
X129430000Y-79380000D03*
%TO.N,Net-(D1-Pad1)*%
X132770182Y-102585618D03*
%TO.N,Net-(D2-Pad1)*%
X125410000Y-101080000D03*
%TO.N,Net-(J3-Pad3)*%
X130006683Y-66908381D03*
%TO.N,Net-(J3-Pad2)*%
X131004990Y-66850000D03*
%TO.N,Net-(J4-Pad4)*%
X133310000Y-79960000D03*
%TO.N,/SWCLK*%
X124010000Y-88630000D03*
%TO.N,/SWIO*%
X127800000Y-88460000D03*
%TO.N,/BOOT0*%
X129630000Y-75740000D03*
%TO.N,/BOOT1*%
X131850000Y-85120000D03*
%TD*%
D21*
%TO.N,GND*%
X131323554Y-82347802D02*
X130231356Y-83440000D01*
X130231356Y-83440000D02*
X130070000Y-83440000D01*
X133444874Y-89295126D02*
X132460000Y-88310252D01*
X132460000Y-88310252D02*
X132460000Y-88270000D01*
X127400000Y-74340000D02*
X129000000Y-74340000D01*
X127400000Y-70240000D02*
X129000000Y-70240000D01*
X129130000Y-65070000D02*
X129780000Y-65070000D01*
X129130000Y-65070000D02*
X129130000Y-66990000D01*
X129130000Y-66990000D02*
X129060000Y-66920000D01*
X129060000Y-66920000D02*
X128890000Y-66920000D01*
X127400000Y-70240000D02*
X125970000Y-70240000D01*
X125970000Y-70240000D02*
X125850000Y-70120000D01*
X125850000Y-70120000D02*
X125810000Y-70120000D01*
X128663425Y-74676575D02*
X128663425Y-76683985D01*
X129000000Y-74340000D02*
X128663425Y-74676575D01*
X125436890Y-85529782D02*
X126331193Y-86424085D01*
X126331193Y-86424085D02*
X126331193Y-86466484D01*
X128618870Y-91381106D02*
X129186818Y-90813158D01*
X129186818Y-89589283D02*
X129798621Y-88977480D01*
X129186818Y-90813158D02*
X129186818Y-89589283D01*
X128618870Y-91416446D02*
X128618870Y-91381106D01*
%TO.N,/RESET*%
X134489982Y-91047340D02*
X134582660Y-91047340D01*
X133091321Y-89648679D02*
X134489982Y-91047340D01*
%TO.N,/3V3*%
X128482500Y-102965000D02*
X128480000Y-102967500D01*
X130560000Y-102965000D02*
X128482500Y-102965000D01*
X128972424Y-93544893D02*
X128529417Y-93987900D01*
X128972424Y-91770000D02*
X128972424Y-93544893D01*
X124629036Y-85883336D02*
X124235587Y-86276785D01*
X125083336Y-85883336D02*
X124629036Y-85883336D01*
X128480000Y-102967500D02*
X127392500Y-101880000D01*
X127392500Y-101880000D02*
X127050000Y-101880000D01*
X133230480Y-88373626D02*
X133230480Y-87670480D01*
X129598488Y-91143936D02*
X128972424Y-91770000D01*
X129598488Y-91002483D02*
X129598488Y-91143936D01*
X130546172Y-90054800D02*
X129598488Y-91002483D01*
X130546172Y-88713828D02*
X130546172Y-90054800D01*
X132690000Y-87130000D02*
X132130000Y-87130000D01*
X132130000Y-87130000D02*
X130546172Y-88713828D01*
X133230480Y-87670480D02*
X132690000Y-87130000D01*
X133798427Y-88941573D02*
X133230480Y-88373626D01*
X130970000Y-81002092D02*
X133484990Y-78487102D01*
X130970000Y-81994248D02*
X130970000Y-81002092D01*
%TO.N,/OSCIN*%
X131449544Y-89787838D02*
X131816266Y-89787838D01*
X130048499Y-91188883D02*
X131449544Y-89787838D01*
X131816266Y-89787838D02*
X132384214Y-90355786D01*
X132710000Y-97370000D02*
X130048499Y-94708499D01*
X130096998Y-92840000D02*
X130048499Y-92791501D01*
X130670000Y-92840000D02*
X130096998Y-92840000D01*
X130048499Y-94708499D02*
X130048499Y-92791501D01*
X130048499Y-92791501D02*
X130048499Y-91188883D01*
%TO.N,/OSCOUT*%
X127740865Y-96800865D02*
X127740865Y-96060865D01*
X128310000Y-97370000D02*
X127740865Y-96800865D01*
X128310000Y-97370000D02*
X128980000Y-97370000D01*
X128980000Y-97370000D02*
X129930000Y-96420000D01*
X133305715Y-90570181D02*
X133305715Y-91010396D01*
X133305715Y-91010396D02*
X135367898Y-93072579D01*
X132737767Y-90002233D02*
X133305715Y-90570181D01*
%TO.N,/PC14*%
X138320000Y-105310000D02*
X138320000Y-105210000D01*
X134761883Y-105158117D02*
X134761883Y-104747819D01*
X133260000Y-106660000D02*
X134761883Y-105158117D01*
X138320000Y-105310000D02*
X135304990Y-102294990D01*
X133804998Y-93190784D02*
X133804998Y-93408001D01*
X133804998Y-93408001D02*
X135035022Y-94638025D01*
X135304990Y-102294990D02*
X135304990Y-98335534D01*
X131677107Y-91062893D02*
X133804998Y-93190784D01*
X135035022Y-98065566D02*
X135304990Y-98335534D01*
X135035022Y-94638025D02*
X135035022Y-98065566D01*
%TO.N,/PC15*%
X133254578Y-104810000D02*
X131204568Y-106860010D01*
X133260000Y-104810000D02*
X133254578Y-104810000D01*
X133240000Y-104830000D02*
X133260000Y-104810000D01*
X132170000Y-104830000D02*
X133240000Y-104830000D01*
X137144999Y-101594999D02*
X138320000Y-102770000D01*
X135485032Y-94451625D02*
X135485032Y-97442574D01*
X134255008Y-92933686D02*
X134255008Y-93221601D01*
X132030661Y-90709339D02*
X134255008Y-92933686D01*
X135485032Y-97442574D02*
X137144999Y-99102541D01*
X134255008Y-93221601D02*
X135485032Y-94451625D01*
X137144999Y-99102541D02*
X137144999Y-101594999D01*
%TO.N,/5V*%
X132845001Y-68069999D02*
X132845001Y-75964999D01*
X131730000Y-66954998D02*
X132845001Y-68069999D01*
X131730000Y-65070000D02*
X131730000Y-66954998D01*
X132845001Y-75964999D02*
X129430000Y-79380000D01*
%TO.N,Net-(D1-Pad1)*%
X130560000Y-101090000D02*
X132055618Y-102585618D01*
X132055618Y-102585618D02*
X132770182Y-102585618D01*
%TO.N,Net-(D2-Pad1)*%
X125410000Y-101080000D02*
X128467500Y-101080000D01*
X128467500Y-101080000D02*
X128480000Y-101092500D01*
%TO.N,/PB11*%
X138320000Y-72290000D02*
X136694988Y-73915012D01*
X136694988Y-73915012D02*
X136694988Y-77683474D01*
X136694988Y-77683474D02*
X131677107Y-82701355D01*
%TO.N,/PB10*%
X137144999Y-77940571D02*
X132030661Y-83054909D01*
X137144999Y-76005001D02*
X137144999Y-77940571D01*
X138320000Y-74830000D02*
X137144999Y-76005001D01*
%TO.N,/PB1*%
X138320000Y-78179782D02*
X132737767Y-83762015D01*
X138320000Y-77370000D02*
X138320000Y-78179782D01*
%TO.N,/PB0*%
X137296890Y-79910000D02*
X133091321Y-84115569D01*
X138320000Y-79910000D02*
X137296890Y-79910000D01*
%TO.N,/PA7*%
X135463996Y-82450000D02*
X133444874Y-84469122D01*
X138320000Y-82450000D02*
X135463996Y-82450000D01*
%TO.N,/PA6*%
X138320000Y-84990000D02*
X136710000Y-83380000D01*
X135241102Y-83380000D02*
X133798427Y-84822675D01*
X136710000Y-83380000D02*
X135241102Y-83380000D01*
%TO.N,/PA5*%
X134816386Y-84511824D02*
X134151981Y-85176229D01*
X135626605Y-84511824D02*
X134816386Y-84511824D01*
X136230600Y-85115819D02*
X135626605Y-84511824D01*
X136230600Y-85960599D02*
X136230600Y-85115819D01*
X137800000Y-87530000D02*
X136230600Y-85960599D01*
X138320000Y-87530000D02*
X137800000Y-87530000D01*
%TO.N,/PA4*%
X138320000Y-90070000D02*
X138320000Y-89269002D01*
X135440205Y-84961835D02*
X135073481Y-84961835D01*
X135073481Y-84961835D02*
X134505534Y-85529782D01*
X135780589Y-86729591D02*
X135780589Y-85302220D01*
X135780589Y-85302220D02*
X135440205Y-84961835D01*
X138320000Y-89269002D02*
X135780589Y-86729591D01*
%TO.N,/PA3*%
X137144999Y-88730411D02*
X134859088Y-86444500D01*
X137144999Y-90634001D02*
X137144999Y-88730411D01*
X138320000Y-92610000D02*
X138320000Y-91809002D01*
X134859088Y-86444500D02*
X134859088Y-85883336D01*
X138320000Y-91809002D02*
X137144999Y-90634001D01*
%TO.N,/PA2*%
X137144999Y-91270411D02*
X136694988Y-90820401D01*
X136694988Y-90820401D02*
X136694988Y-89716812D01*
X136694988Y-89716812D02*
X134859088Y-87880912D01*
X137144999Y-93974999D02*
X137144999Y-91270411D01*
X138320000Y-95150000D02*
X137144999Y-93974999D01*
%TO.N,/PA1*%
X136694988Y-91456811D02*
X136244977Y-91006800D01*
X138320000Y-97690000D02*
X138320000Y-96937181D01*
X136244977Y-89973910D02*
X134505534Y-88234466D01*
X138320000Y-96937181D02*
X136694988Y-95312169D01*
X136244977Y-91006800D02*
X136244977Y-89973910D01*
X136694988Y-95312169D02*
X136694988Y-91456811D01*
%TO.N,/PA0*%
X138320000Y-99641131D02*
X136244977Y-97566108D01*
X135794966Y-91193201D02*
X135794966Y-90231004D01*
X136244977Y-91643211D02*
X135794966Y-91193201D01*
X136244977Y-97566108D02*
X136244977Y-91643211D01*
X135794966Y-90231004D02*
X134151981Y-88588019D01*
X138320000Y-100230000D02*
X138320000Y-99641131D01*
%TO.N,/PC13*%
X133354987Y-93447879D02*
X133354987Y-93594401D01*
X133354987Y-93594401D02*
X134579988Y-94819402D01*
X135936896Y-104213417D02*
X135936896Y-105466896D01*
X134579988Y-94819402D02*
X134579988Y-102856509D01*
X135936896Y-105466896D02*
X138320000Y-107850000D01*
X134579988Y-102856509D02*
X135936896Y-104213417D01*
X131323554Y-91416446D02*
X133354987Y-93447879D01*
%TO.N,/VBAT*%
X134129977Y-103042909D02*
X134129977Y-95142109D01*
X138320000Y-110390000D02*
X135486885Y-107556885D01*
X130970000Y-91982132D02*
X130970000Y-91770000D01*
X134129977Y-95142109D02*
X130970000Y-91982132D01*
X135486885Y-104399817D02*
X134129977Y-103042909D01*
X135486885Y-107556885D02*
X135486885Y-104399817D01*
%TO.N,/PB12*%
X128972424Y-81782116D02*
X126880000Y-79689692D01*
X128972424Y-81994248D02*
X128972424Y-81782116D01*
X126880000Y-75750000D02*
X124930001Y-73800001D01*
X126880000Y-79689692D02*
X126880000Y-75750000D01*
X124930001Y-65070001D02*
X121950000Y-62090000D01*
X124930001Y-73800001D02*
X124930001Y-65070001D01*
%TO.N,/PB13*%
X128618870Y-82347802D02*
X126429989Y-80158921D01*
X126429989Y-80158921D02*
X126429989Y-76186399D01*
X124479991Y-74236401D02*
X124479991Y-67159991D01*
X126429989Y-76186399D02*
X124479991Y-74236401D01*
X124479991Y-67159991D02*
X121950000Y-64630000D01*
%TO.N,/PB14*%
X125969989Y-80406027D02*
X125969989Y-76432810D01*
X125969989Y-76432810D02*
X124029980Y-74492801D01*
X124029980Y-69249980D02*
X121950000Y-67170000D01*
X128265317Y-82701355D02*
X125969989Y-80406027D01*
X124029980Y-74492801D02*
X124029980Y-69249980D01*
%TO.N,/PB15*%
X123579969Y-71339969D02*
X121950000Y-69710000D01*
X123579969Y-74729200D02*
X123579969Y-71339969D01*
X125519978Y-76669209D02*
X123579969Y-74729200D01*
X127911763Y-83054909D02*
X125519978Y-80663124D01*
X125519978Y-80663124D02*
X125519978Y-76669209D01*
%TO.N,/PA8*%
X127558210Y-83408462D02*
X125069967Y-80920219D01*
X123129958Y-74915600D02*
X123129958Y-73429958D01*
X123129958Y-73429958D02*
X121950000Y-72250000D01*
X125069967Y-76855609D02*
X123129958Y-74915600D01*
X125069967Y-80920219D02*
X125069967Y-76855609D01*
%TO.N,/PA9*%
X127204657Y-83762015D02*
X126232686Y-82790044D01*
X124619956Y-81345600D02*
X124619956Y-77459956D01*
X124619956Y-77459956D02*
X121950000Y-74790000D01*
X126232686Y-82790044D02*
X126064400Y-82790044D01*
X126064400Y-82790044D02*
X124619956Y-81345600D01*
%TO.N,/PA10*%
X124169945Y-79549945D02*
X121950000Y-77330000D01*
X124169945Y-81532000D02*
X124169945Y-79549945D01*
X125878000Y-83240055D02*
X124169945Y-81532000D01*
X126851103Y-84115569D02*
X125975589Y-83240055D01*
X125975589Y-83240055D02*
X125878000Y-83240055D01*
%TO.N,/PA11*%
X126497550Y-84469122D02*
X126470656Y-84469122D01*
X126470656Y-84469122D02*
X121950000Y-79948466D01*
X121950000Y-79948466D02*
X121950000Y-79870000D01*
%TO.N,/PA12*%
X123794728Y-84254728D02*
X121950000Y-82410000D01*
X125576050Y-84254728D02*
X123794728Y-84254728D01*
X126143997Y-84822675D02*
X125576050Y-84254728D01*
%TO.N,/PA15*%
X123661998Y-89355002D02*
X123125001Y-88818005D01*
X124316354Y-89355002D02*
X123661998Y-89355002D01*
X123125001Y-88818005D02*
X123125001Y-86125001D01*
X125436890Y-88234466D02*
X124316354Y-89355002D01*
X123125001Y-86125001D02*
X121950000Y-84950000D01*
%TO.N,/PB3*%
X124573449Y-89805013D02*
X123475598Y-89805013D01*
X123475598Y-89805013D02*
X121950000Y-88279415D01*
X125790443Y-88588019D02*
X124573449Y-89805013D01*
X121950000Y-88279415D02*
X121950000Y-87490000D01*
%TO.N,/PB4*%
X124205571Y-90879999D02*
X122799999Y-90879999D01*
X126143997Y-88941573D02*
X124205571Y-90879999D01*
X122799999Y-90879999D02*
X121950000Y-90030000D01*
%TO.N,/PB5*%
X123222676Y-92570000D02*
X121950000Y-92570000D01*
X126497550Y-89295126D02*
X123222676Y-92570000D01*
%TO.N,/PB6*%
X121950000Y-94549782D02*
X121950000Y-95110000D01*
X126851103Y-89648679D02*
X121950000Y-94549782D01*
%TO.N,/PB7*%
X126636709Y-92963291D02*
X121950000Y-97650000D01*
X126636709Y-90570181D02*
X126636709Y-92963291D01*
X127204657Y-90002233D02*
X126636709Y-90570181D01*
%TO.N,/PB8*%
X127247358Y-94892642D02*
X121950000Y-100190000D01*
X127247358Y-91373744D02*
X127247358Y-94892642D01*
X127911763Y-90709339D02*
X127247358Y-91373744D01*
%TO.N,/PB9*%
X124020000Y-98756410D02*
X124020000Y-100660000D01*
X128265317Y-91062893D02*
X127697369Y-91630841D01*
X124020000Y-100660000D02*
X121950000Y-102730000D01*
X127697369Y-91630841D02*
X127697369Y-95079042D01*
X127697369Y-95079042D02*
X124020000Y-98756410D01*
%TO.N,Net-(J3-Pad6)*%
X133805000Y-62410000D02*
X127055000Y-62410000D01*
X133805000Y-63869998D02*
X133805000Y-62410000D01*
X132917500Y-64757498D02*
X133805000Y-63869998D01*
X132917500Y-64985000D02*
X132917500Y-64757498D01*
X127942500Y-63347500D02*
X128880000Y-62410000D01*
X127942500Y-64985000D02*
X127942500Y-63347500D01*
%TO.N,Net-(J3-Pad3)*%
X130430000Y-66351988D02*
X130006683Y-66775305D01*
X130430000Y-65070000D02*
X130430000Y-66351988D01*
X130006683Y-66775305D02*
X130006683Y-66908381D01*
%TO.N,Net-(J3-Pad2)*%
X131080000Y-65070000D02*
X131080000Y-66774990D01*
X131080000Y-66774990D02*
X131004990Y-66850000D01*
%TO.N,Net-(J4-Pad4)*%
X135385001Y-72895001D02*
X134210000Y-71720000D01*
X135385001Y-77884999D02*
X135385001Y-72895001D01*
X133310000Y-79960000D02*
X135385001Y-77884999D01*
%TO.N,/SWCLK*%
X125083336Y-87880912D02*
X124759088Y-87880912D01*
X124759088Y-87880912D02*
X124010000Y-88630000D01*
%TO.N,/SWIO*%
X126393732Y-85744176D02*
X126914176Y-85744176D01*
X125790443Y-85176229D02*
X125825785Y-85176229D01*
X127800000Y-86630000D02*
X127800000Y-88460000D01*
X125825785Y-85176229D02*
X126393732Y-85744176D01*
X126914176Y-85744176D02*
X127800000Y-86630000D01*
%TO.N,/BOOT0*%
X129630000Y-77976996D02*
X129630000Y-75740000D01*
X127558210Y-90355786D02*
X128830011Y-89083985D01*
X128830011Y-89083985D02*
X128830011Y-83639279D01*
X129912307Y-80935311D02*
X128674998Y-79698002D01*
X128674998Y-79698002D02*
X128674998Y-78931998D01*
X128674998Y-78931998D02*
X129630000Y-77976996D01*
X128830011Y-83639279D02*
X129912307Y-82556983D01*
X129912307Y-82556983D02*
X129912307Y-80935311D01*
%TO.N,/BOOT1*%
X131816266Y-85086266D02*
X131850000Y-85120000D01*
X132384214Y-83408462D02*
X131816266Y-83976410D01*
X131816266Y-83976410D02*
X131816266Y-85086266D01*
%TD*%
M02*
