%TF.GenerationSoftware,KiCad,Pcbnew,(5.1.6)-1*%
%TF.CreationDate,2020-09-14T17:11:37+02:00*%
%TF.ProjectId,STM32_blue_pill_4_layers,53544d33-325f-4626-9c75-655f70696c6c,rev?*%
%TF.SameCoordinates,Original*%
%TF.FileFunction,Copper,L4,Bot*%
%TF.FilePolarity,Positive*%
%FSLAX46Y46*%
G04 Gerber Fmt 4.6, Leading zero omitted, Abs format (unit mm)*
G04 Created by KiCad (PCBNEW (5.1.6)-1) date 2020-09-14 17:11:37*
%MOMM*%
%LPD*%
G01*
G04 APERTURE LIST*
%TA.AperFunction,SMDPad,CuDef*%
%ADD10R,0.670000X1.170000*%
%TD*%
%TA.AperFunction,ComponentPad*%
%ADD11O,1.700000X1.700000*%
%TD*%
%TA.AperFunction,ComponentPad*%
%ADD12R,1.700000X1.700000*%
%TD*%
%TA.AperFunction,ViaPad*%
%ADD13C,0.800000*%
%TD*%
%TA.AperFunction,Conductor*%
%ADD14C,0.250000*%
%TD*%
G04 APERTURE END LIST*
D10*
%TO.P,U2,1*%
%TO.N,/5V*%
X130620000Y-87210000D03*
%TO.P,U2,2*%
%TO.N,GND*%
X129680000Y-87210000D03*
%TO.P,U2,3*%
%TO.N,/5V*%
X128740000Y-87210000D03*
%TO.P,U2,4*%
%TO.N,/3V3*%
X128740000Y-84770000D03*
%TO.P,U2,5*%
X130620000Y-84770000D03*
%TD*%
%TO.P,R9,2*%
%TO.N,/BOOT1*%
%TA.AperFunction,SMDPad,CuDef*%
G36*
G01*
X132853750Y-82310000D02*
X133766250Y-82310000D01*
G75*
G02*
X134010000Y-82553750I0J-243750D01*
G01*
X134010000Y-83041250D01*
G75*
G02*
X133766250Y-83285000I-243750J0D01*
G01*
X132853750Y-83285000D01*
G75*
G02*
X132610000Y-83041250I0J243750D01*
G01*
X132610000Y-82553750D01*
G75*
G02*
X132853750Y-82310000I243750J0D01*
G01*
G37*
%TD.AperFunction*%
%TO.P,R9,1*%
%TO.N,Net-(J4-Pad4)*%
%TA.AperFunction,SMDPad,CuDef*%
G36*
G01*
X132853750Y-80435000D02*
X133766250Y-80435000D01*
G75*
G02*
X134010000Y-80678750I0J-243750D01*
G01*
X134010000Y-81166250D01*
G75*
G02*
X133766250Y-81410000I-243750J0D01*
G01*
X132853750Y-81410000D01*
G75*
G02*
X132610000Y-81166250I0J243750D01*
G01*
X132610000Y-80678750D01*
G75*
G02*
X132853750Y-80435000I243750J0D01*
G01*
G37*
%TD.AperFunction*%
%TD*%
%TO.P,R8,2*%
%TO.N,Net-(J4-Pad3)*%
%TA.AperFunction,SMDPad,CuDef*%
G36*
G01*
X129846250Y-72130000D02*
X128933750Y-72130000D01*
G75*
G02*
X128690000Y-71886250I0J243750D01*
G01*
X128690000Y-71398750D01*
G75*
G02*
X128933750Y-71155000I243750J0D01*
G01*
X129846250Y-71155000D01*
G75*
G02*
X130090000Y-71398750I0J-243750D01*
G01*
X130090000Y-71886250D01*
G75*
G02*
X129846250Y-72130000I-243750J0D01*
G01*
G37*
%TD.AperFunction*%
%TO.P,R8,1*%
%TO.N,/BOOT0*%
%TA.AperFunction,SMDPad,CuDef*%
G36*
G01*
X129846250Y-74005000D02*
X128933750Y-74005000D01*
G75*
G02*
X128690000Y-73761250I0J243750D01*
G01*
X128690000Y-73273750D01*
G75*
G02*
X128933750Y-73030000I243750J0D01*
G01*
X129846250Y-73030000D01*
G75*
G02*
X130090000Y-73273750I0J-243750D01*
G01*
X130090000Y-73761250D01*
G75*
G02*
X129846250Y-74005000I-243750J0D01*
G01*
G37*
%TD.AperFunction*%
%TD*%
%TO.P,R7,2*%
%TO.N,/5V*%
%TA.AperFunction,SMDPad,CuDef*%
G36*
G01*
X124353750Y-82202500D02*
X125266250Y-82202500D01*
G75*
G02*
X125510000Y-82446250I0J-243750D01*
G01*
X125510000Y-82933750D01*
G75*
G02*
X125266250Y-83177500I-243750J0D01*
G01*
X124353750Y-83177500D01*
G75*
G02*
X124110000Y-82933750I0J243750D01*
G01*
X124110000Y-82446250D01*
G75*
G02*
X124353750Y-82202500I243750J0D01*
G01*
G37*
%TD.AperFunction*%
%TO.P,R7,1*%
%TO.N,/PA12*%
%TA.AperFunction,SMDPad,CuDef*%
G36*
G01*
X124353750Y-80327500D02*
X125266250Y-80327500D01*
G75*
G02*
X125510000Y-80571250I0J-243750D01*
G01*
X125510000Y-81058750D01*
G75*
G02*
X125266250Y-81302500I-243750J0D01*
G01*
X124353750Y-81302500D01*
G75*
G02*
X124110000Y-81058750I0J243750D01*
G01*
X124110000Y-80571250D01*
G75*
G02*
X124353750Y-80327500I243750J0D01*
G01*
G37*
%TD.AperFunction*%
%TD*%
%TO.P,R6,2*%
%TO.N,/PA11*%
%TA.AperFunction,SMDPad,CuDef*%
G36*
G01*
X126843750Y-63740000D02*
X127756250Y-63740000D01*
G75*
G02*
X128000000Y-63983750I0J-243750D01*
G01*
X128000000Y-64471250D01*
G75*
G02*
X127756250Y-64715000I-243750J0D01*
G01*
X126843750Y-64715000D01*
G75*
G02*
X126600000Y-64471250I0J243750D01*
G01*
X126600000Y-63983750D01*
G75*
G02*
X126843750Y-63740000I243750J0D01*
G01*
G37*
%TD.AperFunction*%
%TO.P,R6,1*%
%TO.N,Net-(J3-Pad2)*%
%TA.AperFunction,SMDPad,CuDef*%
G36*
G01*
X126843750Y-61865000D02*
X127756250Y-61865000D01*
G75*
G02*
X128000000Y-62108750I0J-243750D01*
G01*
X128000000Y-62596250D01*
G75*
G02*
X127756250Y-62840000I-243750J0D01*
G01*
X126843750Y-62840000D01*
G75*
G02*
X126600000Y-62596250I0J243750D01*
G01*
X126600000Y-62108750D01*
G75*
G02*
X126843750Y-61865000I243750J0D01*
G01*
G37*
%TD.AperFunction*%
%TD*%
%TO.P,R5,2*%
%TO.N,/PA12*%
%TA.AperFunction,SMDPad,CuDef*%
G36*
G01*
X124423750Y-63737500D02*
X125336250Y-63737500D01*
G75*
G02*
X125580000Y-63981250I0J-243750D01*
G01*
X125580000Y-64468750D01*
G75*
G02*
X125336250Y-64712500I-243750J0D01*
G01*
X124423750Y-64712500D01*
G75*
G02*
X124180000Y-64468750I0J243750D01*
G01*
X124180000Y-63981250D01*
G75*
G02*
X124423750Y-63737500I243750J0D01*
G01*
G37*
%TD.AperFunction*%
%TO.P,R5,1*%
%TO.N,Net-(J3-Pad3)*%
%TA.AperFunction,SMDPad,CuDef*%
G36*
G01*
X124423750Y-61862500D02*
X125336250Y-61862500D01*
G75*
G02*
X125580000Y-62106250I0J-243750D01*
G01*
X125580000Y-62593750D01*
G75*
G02*
X125336250Y-62837500I-243750J0D01*
G01*
X124423750Y-62837500D01*
G75*
G02*
X124180000Y-62593750I0J243750D01*
G01*
X124180000Y-62106250D01*
G75*
G02*
X124423750Y-61862500I243750J0D01*
G01*
G37*
%TD.AperFunction*%
%TD*%
%TO.P,R4,2*%
%TO.N,Net-(D2-Pad1)*%
%TA.AperFunction,SMDPad,CuDef*%
G36*
G01*
X134946250Y-106622500D02*
X134033750Y-106622500D01*
G75*
G02*
X133790000Y-106378750I0J243750D01*
G01*
X133790000Y-105891250D01*
G75*
G02*
X134033750Y-105647500I243750J0D01*
G01*
X134946250Y-105647500D01*
G75*
G02*
X135190000Y-105891250I0J-243750D01*
G01*
X135190000Y-106378750D01*
G75*
G02*
X134946250Y-106622500I-243750J0D01*
G01*
G37*
%TD.AperFunction*%
%TO.P,R4,1*%
%TO.N,/PC13*%
%TA.AperFunction,SMDPad,CuDef*%
G36*
G01*
X134946250Y-108497500D02*
X134033750Y-108497500D01*
G75*
G02*
X133790000Y-108253750I0J243750D01*
G01*
X133790000Y-107766250D01*
G75*
G02*
X134033750Y-107522500I243750J0D01*
G01*
X134946250Y-107522500D01*
G75*
G02*
X135190000Y-107766250I0J-243750D01*
G01*
X135190000Y-108253750D01*
G75*
G02*
X134946250Y-108497500I-243750J0D01*
G01*
G37*
%TD.AperFunction*%
%TD*%
%TO.P,R3,2*%
%TO.N,Net-(D1-Pad1)*%
%TA.AperFunction,SMDPad,CuDef*%
G36*
G01*
X132123750Y-100977500D02*
X133036250Y-100977500D01*
G75*
G02*
X133280000Y-101221250I0J-243750D01*
G01*
X133280000Y-101708750D01*
G75*
G02*
X133036250Y-101952500I-243750J0D01*
G01*
X132123750Y-101952500D01*
G75*
G02*
X131880000Y-101708750I0J243750D01*
G01*
X131880000Y-101221250D01*
G75*
G02*
X132123750Y-100977500I243750J0D01*
G01*
G37*
%TD.AperFunction*%
%TO.P,R3,1*%
%TO.N,GND*%
%TA.AperFunction,SMDPad,CuDef*%
G36*
G01*
X132123750Y-99102500D02*
X133036250Y-99102500D01*
G75*
G02*
X133280000Y-99346250I0J-243750D01*
G01*
X133280000Y-99833750D01*
G75*
G02*
X133036250Y-100077500I-243750J0D01*
G01*
X132123750Y-100077500D01*
G75*
G02*
X131880000Y-99833750I0J243750D01*
G01*
X131880000Y-99346250D01*
G75*
G02*
X132123750Y-99102500I243750J0D01*
G01*
G37*
%TD.AperFunction*%
%TD*%
%TO.P,R2,2*%
%TO.N,/OSCOUT*%
%TA.AperFunction,SMDPad,CuDef*%
G36*
G01*
X129626250Y-91002500D02*
X128713750Y-91002500D01*
G75*
G02*
X128470000Y-90758750I0J243750D01*
G01*
X128470000Y-90271250D01*
G75*
G02*
X128713750Y-90027500I243750J0D01*
G01*
X129626250Y-90027500D01*
G75*
G02*
X129870000Y-90271250I0J-243750D01*
G01*
X129870000Y-90758750D01*
G75*
G02*
X129626250Y-91002500I-243750J0D01*
G01*
G37*
%TD.AperFunction*%
%TO.P,R2,1*%
%TO.N,/OSCIN*%
%TA.AperFunction,SMDPad,CuDef*%
G36*
G01*
X129626250Y-92877500D02*
X128713750Y-92877500D01*
G75*
G02*
X128470000Y-92633750I0J243750D01*
G01*
X128470000Y-92146250D01*
G75*
G02*
X128713750Y-91902500I243750J0D01*
G01*
X129626250Y-91902500D01*
G75*
G02*
X129870000Y-92146250I0J-243750D01*
G01*
X129870000Y-92633750D01*
G75*
G02*
X129626250Y-92877500I-243750J0D01*
G01*
G37*
%TD.AperFunction*%
%TD*%
%TO.P,R1,2*%
%TO.N,/3V3*%
%TA.AperFunction,SMDPad,CuDef*%
G36*
G01*
X135886250Y-81390000D02*
X134973750Y-81390000D01*
G75*
G02*
X134730000Y-81146250I0J243750D01*
G01*
X134730000Y-80658750D01*
G75*
G02*
X134973750Y-80415000I243750J0D01*
G01*
X135886250Y-80415000D01*
G75*
G02*
X136130000Y-80658750I0J-243750D01*
G01*
X136130000Y-81146250D01*
G75*
G02*
X135886250Y-81390000I-243750J0D01*
G01*
G37*
%TD.AperFunction*%
%TO.P,R1,1*%
%TO.N,/RESET*%
%TA.AperFunction,SMDPad,CuDef*%
G36*
G01*
X135886250Y-83265000D02*
X134973750Y-83265000D01*
G75*
G02*
X134730000Y-83021250I0J243750D01*
G01*
X134730000Y-82533750D01*
G75*
G02*
X134973750Y-82290000I243750J0D01*
G01*
X135886250Y-82290000D01*
G75*
G02*
X136130000Y-82533750I0J-243750D01*
G01*
X136130000Y-83021250D01*
G75*
G02*
X135886250Y-83265000I-243750J0D01*
G01*
G37*
%TD.AperFunction*%
%TD*%
D11*
%TO.P,J5,4*%
%TO.N,GND*%
X126550000Y-110170000D03*
%TO.P,J5,3*%
%TO.N,/SWCLK*%
X129090000Y-110170000D03*
%TO.P,J5,2*%
%TO.N,/SWIO*%
X131630000Y-110170000D03*
D12*
%TO.P,J5,1*%
%TO.N,/3V3*%
X134170000Y-110170000D03*
%TD*%
D11*
%TO.P,J4,6*%
%TO.N,GND*%
X134210000Y-74260000D03*
%TO.P,J4,5*%
X131670000Y-74260000D03*
%TO.P,J4,4*%
%TO.N,Net-(J4-Pad4)*%
X134210000Y-71720000D03*
%TO.P,J4,3*%
%TO.N,Net-(J4-Pad3)*%
X131670000Y-71720000D03*
%TO.P,J4,2*%
%TO.N,/3V3*%
X134210000Y-69180000D03*
D12*
%TO.P,J4,1*%
X131670000Y-69180000D03*
%TD*%
D11*
%TO.P,J2,20*%
%TO.N,/PB12*%
X121950000Y-62090000D03*
%TO.P,J2,19*%
%TO.N,/PB13*%
X121950000Y-64630000D03*
%TO.P,J2,18*%
%TO.N,/PB14*%
X121950000Y-67170000D03*
%TO.P,J2,17*%
%TO.N,/PB15*%
X121950000Y-69710000D03*
%TO.P,J2,16*%
%TO.N,/PA8*%
X121950000Y-72250000D03*
%TO.P,J2,15*%
%TO.N,/PA9*%
X121950000Y-74790000D03*
%TO.P,J2,14*%
%TO.N,/PA10*%
X121950000Y-77330000D03*
%TO.P,J2,13*%
%TO.N,/PA11*%
X121950000Y-79870000D03*
%TO.P,J2,12*%
%TO.N,/PA12*%
X121950000Y-82410000D03*
%TO.P,J2,11*%
%TO.N,/PA15*%
X121950000Y-84950000D03*
%TO.P,J2,10*%
%TO.N,/PB3*%
X121950000Y-87490000D03*
%TO.P,J2,9*%
%TO.N,/PB4*%
X121950000Y-90030000D03*
%TO.P,J2,8*%
%TO.N,/PB5*%
X121950000Y-92570000D03*
%TO.P,J2,7*%
%TO.N,/PB6*%
X121950000Y-95110000D03*
%TO.P,J2,6*%
%TO.N,/PB7*%
X121950000Y-97650000D03*
%TO.P,J2,5*%
%TO.N,/PB8*%
X121950000Y-100190000D03*
%TO.P,J2,4*%
%TO.N,/PB9*%
X121950000Y-102730000D03*
%TO.P,J2,3*%
%TO.N,/5V*%
X121950000Y-105270000D03*
%TO.P,J2,2*%
%TO.N,GND*%
X121950000Y-107810000D03*
D12*
%TO.P,J2,1*%
%TO.N,/3V3*%
X121950000Y-110350000D03*
%TD*%
D11*
%TO.P,J1,20*%
%TO.N,GND*%
X138320000Y-62130000D03*
%TO.P,J1,19*%
X138320000Y-64670000D03*
%TO.P,J1,18*%
%TO.N,/3V3*%
X138320000Y-67210000D03*
%TO.P,J1,17*%
%TO.N,/RESET*%
X138320000Y-69750000D03*
%TO.P,J1,16*%
%TO.N,/PB11*%
X138320000Y-72290000D03*
%TO.P,J1,15*%
%TO.N,/PB10*%
X138320000Y-74830000D03*
%TO.P,J1,14*%
%TO.N,/PB1*%
X138320000Y-77370000D03*
%TO.P,J1,13*%
%TO.N,/PB0*%
X138320000Y-79910000D03*
%TO.P,J1,12*%
%TO.N,/PA7*%
X138320000Y-82450000D03*
%TO.P,J1,11*%
%TO.N,/PA6*%
X138320000Y-84990000D03*
%TO.P,J1,10*%
%TO.N,/PA5*%
X138320000Y-87530000D03*
%TO.P,J1,9*%
%TO.N,/PA4*%
X138320000Y-90070000D03*
%TO.P,J1,8*%
%TO.N,/PA3*%
X138320000Y-92610000D03*
%TO.P,J1,7*%
%TO.N,/PA2*%
X138320000Y-95150000D03*
%TO.P,J1,6*%
%TO.N,/PA1*%
X138320000Y-97690000D03*
%TO.P,J1,5*%
%TO.N,/PA0*%
X138320000Y-100230000D03*
%TO.P,J1,4*%
%TO.N,/PC15*%
X138320000Y-102770000D03*
%TO.P,J1,3*%
%TO.N,/PC14*%
X138320000Y-105310000D03*
%TO.P,J1,2*%
%TO.N,/PC13*%
X138320000Y-107850000D03*
D12*
%TO.P,J1,1*%
%TO.N,/VBAT*%
X138320000Y-110390000D03*
%TD*%
%TO.P,C15,2*%
%TO.N,GND*%
%TA.AperFunction,SMDPad,CuDef*%
G36*
G01*
X129016250Y-100032500D02*
X128103750Y-100032500D01*
G75*
G02*
X127860000Y-99788750I0J243750D01*
G01*
X127860000Y-99301250D01*
G75*
G02*
X128103750Y-99057500I243750J0D01*
G01*
X129016250Y-99057500D01*
G75*
G02*
X129260000Y-99301250I0J-243750D01*
G01*
X129260000Y-99788750D01*
G75*
G02*
X129016250Y-100032500I-243750J0D01*
G01*
G37*
%TD.AperFunction*%
%TO.P,C15,1*%
%TO.N,/3V3*%
%TA.AperFunction,SMDPad,CuDef*%
G36*
G01*
X129016250Y-101907500D02*
X128103750Y-101907500D01*
G75*
G02*
X127860000Y-101663750I0J243750D01*
G01*
X127860000Y-101176250D01*
G75*
G02*
X128103750Y-100932500I243750J0D01*
G01*
X129016250Y-100932500D01*
G75*
G02*
X129260000Y-101176250I0J-243750D01*
G01*
X129260000Y-101663750D01*
G75*
G02*
X129016250Y-101907500I-243750J0D01*
G01*
G37*
%TD.AperFunction*%
%TD*%
%TO.P,C14,2*%
%TO.N,GND*%
%TA.AperFunction,SMDPad,CuDef*%
G36*
G01*
X125106250Y-72197500D02*
X124193750Y-72197500D01*
G75*
G02*
X123950000Y-71953750I0J243750D01*
G01*
X123950000Y-71466250D01*
G75*
G02*
X124193750Y-71222500I243750J0D01*
G01*
X125106250Y-71222500D01*
G75*
G02*
X125350000Y-71466250I0J-243750D01*
G01*
X125350000Y-71953750D01*
G75*
G02*
X125106250Y-72197500I-243750J0D01*
G01*
G37*
%TD.AperFunction*%
%TO.P,C14,1*%
%TO.N,/3V3*%
%TA.AperFunction,SMDPad,CuDef*%
G36*
G01*
X125106250Y-74072500D02*
X124193750Y-74072500D01*
G75*
G02*
X123950000Y-73828750I0J243750D01*
G01*
X123950000Y-73341250D01*
G75*
G02*
X124193750Y-73097500I243750J0D01*
G01*
X125106250Y-73097500D01*
G75*
G02*
X125350000Y-73341250I0J-243750D01*
G01*
X125350000Y-73828750D01*
G75*
G02*
X125106250Y-74072500I-243750J0D01*
G01*
G37*
%TD.AperFunction*%
%TD*%
%TO.P,C13,2*%
%TO.N,GND*%
%TA.AperFunction,SMDPad,CuDef*%
G36*
G01*
X136046250Y-77357500D02*
X135133750Y-77357500D01*
G75*
G02*
X134890000Y-77113750I0J243750D01*
G01*
X134890000Y-76626250D01*
G75*
G02*
X135133750Y-76382500I243750J0D01*
G01*
X136046250Y-76382500D01*
G75*
G02*
X136290000Y-76626250I0J-243750D01*
G01*
X136290000Y-77113750D01*
G75*
G02*
X136046250Y-77357500I-243750J0D01*
G01*
G37*
%TD.AperFunction*%
%TO.P,C13,1*%
%TO.N,/3V3*%
%TA.AperFunction,SMDPad,CuDef*%
G36*
G01*
X136046250Y-79232500D02*
X135133750Y-79232500D01*
G75*
G02*
X134890000Y-78988750I0J243750D01*
G01*
X134890000Y-78501250D01*
G75*
G02*
X135133750Y-78257500I243750J0D01*
G01*
X136046250Y-78257500D01*
G75*
G02*
X136290000Y-78501250I0J-243750D01*
G01*
X136290000Y-78988750D01*
G75*
G02*
X136046250Y-79232500I-243750J0D01*
G01*
G37*
%TD.AperFunction*%
%TD*%
%TO.P,C12,2*%
%TO.N,GND*%
%TA.AperFunction,SMDPad,CuDef*%
G36*
G01*
X127486250Y-72197500D02*
X126573750Y-72197500D01*
G75*
G02*
X126330000Y-71953750I0J243750D01*
G01*
X126330000Y-71466250D01*
G75*
G02*
X126573750Y-71222500I243750J0D01*
G01*
X127486250Y-71222500D01*
G75*
G02*
X127730000Y-71466250I0J-243750D01*
G01*
X127730000Y-71953750D01*
G75*
G02*
X127486250Y-72197500I-243750J0D01*
G01*
G37*
%TD.AperFunction*%
%TO.P,C12,1*%
%TO.N,/3V3*%
%TA.AperFunction,SMDPad,CuDef*%
G36*
G01*
X127486250Y-74072500D02*
X126573750Y-74072500D01*
G75*
G02*
X126330000Y-73828750I0J243750D01*
G01*
X126330000Y-73341250D01*
G75*
G02*
X126573750Y-73097500I243750J0D01*
G01*
X127486250Y-73097500D01*
G75*
G02*
X127730000Y-73341250I0J-243750D01*
G01*
X127730000Y-73828750D01*
G75*
G02*
X127486250Y-74072500I-243750J0D01*
G01*
G37*
%TD.AperFunction*%
%TD*%
%TO.P,C11,2*%
%TO.N,GND*%
%TA.AperFunction,SMDPad,CuDef*%
G36*
G01*
X135856250Y-85702500D02*
X134943750Y-85702500D01*
G75*
G02*
X134700000Y-85458750I0J243750D01*
G01*
X134700000Y-84971250D01*
G75*
G02*
X134943750Y-84727500I243750J0D01*
G01*
X135856250Y-84727500D01*
G75*
G02*
X136100000Y-84971250I0J-243750D01*
G01*
X136100000Y-85458750D01*
G75*
G02*
X135856250Y-85702500I-243750J0D01*
G01*
G37*
%TD.AperFunction*%
%TO.P,C11,1*%
%TO.N,/5V*%
%TA.AperFunction,SMDPad,CuDef*%
G36*
G01*
X135856250Y-87577500D02*
X134943750Y-87577500D01*
G75*
G02*
X134700000Y-87333750I0J243750D01*
G01*
X134700000Y-86846250D01*
G75*
G02*
X134943750Y-86602500I243750J0D01*
G01*
X135856250Y-86602500D01*
G75*
G02*
X136100000Y-86846250I0J-243750D01*
G01*
X136100000Y-87333750D01*
G75*
G02*
X135856250Y-87577500I-243750J0D01*
G01*
G37*
%TD.AperFunction*%
%TD*%
%TO.P,C10,2*%
%TO.N,GND*%
%TA.AperFunction,SMDPad,CuDef*%
G36*
G01*
X124903750Y-96762500D02*
X125816250Y-96762500D01*
G75*
G02*
X126060000Y-97006250I0J-243750D01*
G01*
X126060000Y-97493750D01*
G75*
G02*
X125816250Y-97737500I-243750J0D01*
G01*
X124903750Y-97737500D01*
G75*
G02*
X124660000Y-97493750I0J243750D01*
G01*
X124660000Y-97006250D01*
G75*
G02*
X124903750Y-96762500I243750J0D01*
G01*
G37*
%TD.AperFunction*%
%TO.P,C10,1*%
%TO.N,/5V*%
%TA.AperFunction,SMDPad,CuDef*%
G36*
G01*
X124903750Y-94887500D02*
X125816250Y-94887500D01*
G75*
G02*
X126060000Y-95131250I0J-243750D01*
G01*
X126060000Y-95618750D01*
G75*
G02*
X125816250Y-95862500I-243750J0D01*
G01*
X124903750Y-95862500D01*
G75*
G02*
X124660000Y-95618750I0J243750D01*
G01*
X124660000Y-95131250D01*
G75*
G02*
X124903750Y-94887500I243750J0D01*
G01*
G37*
%TD.AperFunction*%
%TD*%
%TO.P,C9,2*%
%TO.N,GND*%
%TA.AperFunction,SMDPad,CuDef*%
G36*
G01*
X134046250Y-77357500D02*
X133133750Y-77357500D01*
G75*
G02*
X132890000Y-77113750I0J243750D01*
G01*
X132890000Y-76626250D01*
G75*
G02*
X133133750Y-76382500I243750J0D01*
G01*
X134046250Y-76382500D01*
G75*
G02*
X134290000Y-76626250I0J-243750D01*
G01*
X134290000Y-77113750D01*
G75*
G02*
X134046250Y-77357500I-243750J0D01*
G01*
G37*
%TD.AperFunction*%
%TO.P,C9,1*%
%TO.N,/3V3*%
%TA.AperFunction,SMDPad,CuDef*%
G36*
G01*
X134046250Y-79232500D02*
X133133750Y-79232500D01*
G75*
G02*
X132890000Y-78988750I0J243750D01*
G01*
X132890000Y-78501250D01*
G75*
G02*
X133133750Y-78257500I243750J0D01*
G01*
X134046250Y-78257500D01*
G75*
G02*
X134290000Y-78501250I0J-243750D01*
G01*
X134290000Y-78988750D01*
G75*
G02*
X134046250Y-79232500I-243750J0D01*
G01*
G37*
%TD.AperFunction*%
%TD*%
%TO.P,C8,2*%
%TO.N,GND*%
%TA.AperFunction,SMDPad,CuDef*%
G36*
G01*
X126516250Y-76860000D02*
X125603750Y-76860000D01*
G75*
G02*
X125360000Y-76616250I0J243750D01*
G01*
X125360000Y-76128750D01*
G75*
G02*
X125603750Y-75885000I243750J0D01*
G01*
X126516250Y-75885000D01*
G75*
G02*
X126760000Y-76128750I0J-243750D01*
G01*
X126760000Y-76616250D01*
G75*
G02*
X126516250Y-76860000I-243750J0D01*
G01*
G37*
%TD.AperFunction*%
%TO.P,C8,1*%
%TO.N,/3V3*%
%TA.AperFunction,SMDPad,CuDef*%
G36*
G01*
X126516250Y-78735000D02*
X125603750Y-78735000D01*
G75*
G02*
X125360000Y-78491250I0J243750D01*
G01*
X125360000Y-78003750D01*
G75*
G02*
X125603750Y-77760000I243750J0D01*
G01*
X126516250Y-77760000D01*
G75*
G02*
X126760000Y-78003750I0J-243750D01*
G01*
X126760000Y-78491250D01*
G75*
G02*
X126516250Y-78735000I-243750J0D01*
G01*
G37*
%TD.AperFunction*%
%TD*%
%TO.P,C7,2*%
%TO.N,GND*%
%TA.AperFunction,SMDPad,CuDef*%
G36*
G01*
X131066250Y-100047500D02*
X130153750Y-100047500D01*
G75*
G02*
X129910000Y-99803750I0J243750D01*
G01*
X129910000Y-99316250D01*
G75*
G02*
X130153750Y-99072500I243750J0D01*
G01*
X131066250Y-99072500D01*
G75*
G02*
X131310000Y-99316250I0J-243750D01*
G01*
X131310000Y-99803750D01*
G75*
G02*
X131066250Y-100047500I-243750J0D01*
G01*
G37*
%TD.AperFunction*%
%TO.P,C7,1*%
%TO.N,/3V3*%
%TA.AperFunction,SMDPad,CuDef*%
G36*
G01*
X131066250Y-101922500D02*
X130153750Y-101922500D01*
G75*
G02*
X129910000Y-101678750I0J243750D01*
G01*
X129910000Y-101191250D01*
G75*
G02*
X130153750Y-100947500I243750J0D01*
G01*
X131066250Y-100947500D01*
G75*
G02*
X131310000Y-101191250I0J-243750D01*
G01*
X131310000Y-101678750D01*
G75*
G02*
X131066250Y-101922500I-243750J0D01*
G01*
G37*
%TD.AperFunction*%
%TD*%
%TO.P,C6,2*%
%TO.N,/PC15*%
%TA.AperFunction,SMDPad,CuDef*%
G36*
G01*
X127073750Y-107392500D02*
X127986250Y-107392500D01*
G75*
G02*
X128230000Y-107636250I0J-243750D01*
G01*
X128230000Y-108123750D01*
G75*
G02*
X127986250Y-108367500I-243750J0D01*
G01*
X127073750Y-108367500D01*
G75*
G02*
X126830000Y-108123750I0J243750D01*
G01*
X126830000Y-107636250D01*
G75*
G02*
X127073750Y-107392500I243750J0D01*
G01*
G37*
%TD.AperFunction*%
%TO.P,C6,1*%
%TO.N,GND*%
%TA.AperFunction,SMDPad,CuDef*%
G36*
G01*
X127073750Y-105517500D02*
X127986250Y-105517500D01*
G75*
G02*
X128230000Y-105761250I0J-243750D01*
G01*
X128230000Y-106248750D01*
G75*
G02*
X127986250Y-106492500I-243750J0D01*
G01*
X127073750Y-106492500D01*
G75*
G02*
X126830000Y-106248750I0J243750D01*
G01*
X126830000Y-105761250D01*
G75*
G02*
X127073750Y-105517500I243750J0D01*
G01*
G37*
%TD.AperFunction*%
%TD*%
%TO.P,C5,2*%
%TO.N,GND*%
%TA.AperFunction,SMDPad,CuDef*%
G36*
G01*
X136496250Y-95712500D02*
X135583750Y-95712500D01*
G75*
G02*
X135340000Y-95468750I0J243750D01*
G01*
X135340000Y-94981250D01*
G75*
G02*
X135583750Y-94737500I243750J0D01*
G01*
X136496250Y-94737500D01*
G75*
G02*
X136740000Y-94981250I0J-243750D01*
G01*
X136740000Y-95468750D01*
G75*
G02*
X136496250Y-95712500I-243750J0D01*
G01*
G37*
%TD.AperFunction*%
%TO.P,C5,1*%
%TO.N,/PC14*%
%TA.AperFunction,SMDPad,CuDef*%
G36*
G01*
X136496250Y-97587500D02*
X135583750Y-97587500D01*
G75*
G02*
X135340000Y-97343750I0J243750D01*
G01*
X135340000Y-96856250D01*
G75*
G02*
X135583750Y-96612500I243750J0D01*
G01*
X136496250Y-96612500D01*
G75*
G02*
X136740000Y-96856250I0J-243750D01*
G01*
X136740000Y-97343750D01*
G75*
G02*
X136496250Y-97587500I-243750J0D01*
G01*
G37*
%TD.AperFunction*%
%TD*%
%TO.P,C4,2*%
%TO.N,/OSCOUT*%
%TA.AperFunction,SMDPad,CuDef*%
G36*
G01*
X126653750Y-91932500D02*
X127566250Y-91932500D01*
G75*
G02*
X127810000Y-92176250I0J-243750D01*
G01*
X127810000Y-92663750D01*
G75*
G02*
X127566250Y-92907500I-243750J0D01*
G01*
X126653750Y-92907500D01*
G75*
G02*
X126410000Y-92663750I0J243750D01*
G01*
X126410000Y-92176250D01*
G75*
G02*
X126653750Y-91932500I243750J0D01*
G01*
G37*
%TD.AperFunction*%
%TO.P,C4,1*%
%TO.N,Net-(C3-Pad2)*%
%TA.AperFunction,SMDPad,CuDef*%
G36*
G01*
X126653750Y-90057500D02*
X127566250Y-90057500D01*
G75*
G02*
X127810000Y-90301250I0J-243750D01*
G01*
X127810000Y-90788750D01*
G75*
G02*
X127566250Y-91032500I-243750J0D01*
G01*
X126653750Y-91032500D01*
G75*
G02*
X126410000Y-90788750I0J243750D01*
G01*
X126410000Y-90301250D01*
G75*
G02*
X126653750Y-90057500I243750J0D01*
G01*
G37*
%TD.AperFunction*%
%TD*%
%TO.P,C3,2*%
%TO.N,Net-(C3-Pad2)*%
%TA.AperFunction,SMDPad,CuDef*%
G36*
G01*
X131716250Y-91032500D02*
X130803750Y-91032500D01*
G75*
G02*
X130560000Y-90788750I0J243750D01*
G01*
X130560000Y-90301250D01*
G75*
G02*
X130803750Y-90057500I243750J0D01*
G01*
X131716250Y-90057500D01*
G75*
G02*
X131960000Y-90301250I0J-243750D01*
G01*
X131960000Y-90788750D01*
G75*
G02*
X131716250Y-91032500I-243750J0D01*
G01*
G37*
%TD.AperFunction*%
%TO.P,C3,1*%
%TO.N,/OSCIN*%
%TA.AperFunction,SMDPad,CuDef*%
G36*
G01*
X131716250Y-92907500D02*
X130803750Y-92907500D01*
G75*
G02*
X130560000Y-92663750I0J243750D01*
G01*
X130560000Y-92176250D01*
G75*
G02*
X130803750Y-91932500I243750J0D01*
G01*
X131716250Y-91932500D01*
G75*
G02*
X131960000Y-92176250I0J-243750D01*
G01*
X131960000Y-92663750D01*
G75*
G02*
X131716250Y-92907500I-243750J0D01*
G01*
G37*
%TD.AperFunction*%
%TD*%
%TO.P,C2,2*%
%TO.N,GND*%
%TA.AperFunction,SMDPad,CuDef*%
G36*
G01*
X125076250Y-106577500D02*
X124163750Y-106577500D01*
G75*
G02*
X123920000Y-106333750I0J243750D01*
G01*
X123920000Y-105846250D01*
G75*
G02*
X124163750Y-105602500I243750J0D01*
G01*
X125076250Y-105602500D01*
G75*
G02*
X125320000Y-105846250I0J-243750D01*
G01*
X125320000Y-106333750D01*
G75*
G02*
X125076250Y-106577500I-243750J0D01*
G01*
G37*
%TD.AperFunction*%
%TO.P,C2,1*%
%TO.N,/3V3*%
%TA.AperFunction,SMDPad,CuDef*%
G36*
G01*
X125076250Y-108452500D02*
X124163750Y-108452500D01*
G75*
G02*
X123920000Y-108208750I0J243750D01*
G01*
X123920000Y-107721250D01*
G75*
G02*
X124163750Y-107477500I243750J0D01*
G01*
X125076250Y-107477500D01*
G75*
G02*
X125320000Y-107721250I0J-243750D01*
G01*
X125320000Y-108208750D01*
G75*
G02*
X125076250Y-108452500I-243750J0D01*
G01*
G37*
%TD.AperFunction*%
%TD*%
%TO.P,C1,2*%
%TO.N,GND*%
%TA.AperFunction,SMDPad,CuDef*%
G36*
G01*
X132016250Y-77380000D02*
X131103750Y-77380000D01*
G75*
G02*
X130860000Y-77136250I0J243750D01*
G01*
X130860000Y-76648750D01*
G75*
G02*
X131103750Y-76405000I243750J0D01*
G01*
X132016250Y-76405000D01*
G75*
G02*
X132260000Y-76648750I0J-243750D01*
G01*
X132260000Y-77136250D01*
G75*
G02*
X132016250Y-77380000I-243750J0D01*
G01*
G37*
%TD.AperFunction*%
%TO.P,C1,1*%
%TO.N,/RESET*%
%TA.AperFunction,SMDPad,CuDef*%
G36*
G01*
X132016250Y-79255000D02*
X131103750Y-79255000D01*
G75*
G02*
X130860000Y-79011250I0J243750D01*
G01*
X130860000Y-78523750D01*
G75*
G02*
X131103750Y-78280000I243750J0D01*
G01*
X132016250Y-78280000D01*
G75*
G02*
X132260000Y-78523750I0J-243750D01*
G01*
X132260000Y-79011250D01*
G75*
G02*
X132016250Y-79255000I-243750J0D01*
G01*
G37*
%TD.AperFunction*%
%TD*%
D13*
%TO.N,GND*%
X125360000Y-98770000D03*
X130070000Y-83440000D03*
X132460000Y-88270000D03*
X128890000Y-66920000D03*
X125810000Y-70120000D03*
X129675012Y-87025009D03*
X133030000Y-86320000D03*
X128663425Y-76683985D03*
X126331193Y-86466484D03*
X129798621Y-88977480D03*
%TO.N,/RESET*%
X134582660Y-91047340D03*
%TO.N,/3V3*%
X128529417Y-93987900D03*
X125743463Y-73193146D03*
X128422379Y-77674437D03*
X124235587Y-86276785D03*
X127050000Y-101880000D03*
X133484990Y-78487102D03*
%TO.N,/OSCIN*%
X130670000Y-92840000D03*
%TO.N,/OSCOUT*%
X127740865Y-96060865D03*
X129930000Y-96420000D03*
X135367898Y-93072579D03*
%TO.N,/PC14*%
X134761883Y-104747819D03*
X135304990Y-98335534D03*
%TO.N,/PC15*%
X131204568Y-106860010D03*
X132170000Y-104830000D03*
%TO.N,/5V*%
X129430000Y-79380000D03*
%TO.N,Net-(D1-Pad1)*%
X132770182Y-102585618D03*
%TO.N,Net-(D2-Pad1)*%
X125410000Y-101080000D03*
%TO.N,Net-(J3-Pad3)*%
X130006683Y-66908381D03*
%TO.N,Net-(J3-Pad2)*%
X131004990Y-66850000D03*
%TO.N,Net-(J4-Pad4)*%
X133310000Y-79960000D03*
%TO.N,/SWCLK*%
X124010000Y-88630000D03*
%TO.N,/SWIO*%
X127800000Y-88460000D03*
%TO.N,/BOOT0*%
X129630000Y-75740000D03*
%TO.N,/BOOT1*%
X131850000Y-85120000D03*
%TD*%
D14*
%TO.N,GND*%
X123670000Y-106090000D02*
X121950000Y-107810000D01*
X124620000Y-106090000D02*
X123670000Y-106090000D01*
X124705000Y-106005000D02*
X124620000Y-106090000D01*
X127530000Y-106005000D02*
X124705000Y-106005000D01*
X130640000Y-99590000D02*
X130610000Y-99560000D01*
X132580000Y-99590000D02*
X130640000Y-99590000D01*
X128575000Y-99560000D02*
X128560000Y-99545000D01*
X130610000Y-99560000D02*
X128575000Y-99560000D01*
X127655000Y-99545000D02*
X125360000Y-97250000D01*
X128560000Y-99545000D02*
X127655000Y-99545000D01*
X132580000Y-99055650D02*
X136040000Y-95595650D01*
X136040000Y-95595650D02*
X136040000Y-95225000D01*
X132580000Y-99590000D02*
X132580000Y-99055650D01*
X125360000Y-97250000D02*
X125360000Y-98770000D01*
X124650000Y-71710000D02*
X127030000Y-71710000D01*
X133567500Y-76892500D02*
X133590000Y-76870000D01*
X131560000Y-76892500D02*
X133567500Y-76892500D01*
X133590000Y-76870000D02*
X135590000Y-76870000D01*
X126060000Y-76372500D02*
X125360000Y-76372500D01*
X125360000Y-76372500D02*
X123624990Y-74637490D01*
X123624990Y-72735010D02*
X124650000Y-71710000D01*
X123624990Y-74637490D02*
X123624990Y-72735010D01*
X129680000Y-87210000D02*
X129680000Y-87029997D01*
X129680000Y-87029997D02*
X129675012Y-87025009D01*
X135400000Y-85215000D02*
X134295000Y-86320000D01*
X134295000Y-86320000D02*
X133030000Y-86320000D01*
X128871940Y-76892500D02*
X128663425Y-76683985D01*
X126060000Y-76372500D02*
X128351940Y-76372500D01*
X131560000Y-76892500D02*
X128871940Y-76892500D01*
X128351940Y-76372500D02*
X128663425Y-76683985D01*
%TO.N,/RESET*%
X132868140Y-81984990D02*
X131560000Y-80676850D01*
X131560000Y-80676850D02*
X131560000Y-78767500D01*
X134637490Y-81984990D02*
X132868140Y-81984990D01*
X135430000Y-82777500D02*
X134637490Y-81984990D01*
X136615010Y-71454990D02*
X138320000Y-69750000D01*
X135430000Y-82777500D02*
X136615010Y-81592490D01*
X136615010Y-81592490D02*
X136615010Y-71454990D01*
X136425010Y-83772510D02*
X136425010Y-89204990D01*
X136425010Y-89204990D02*
X134582660Y-91047340D01*
X135430000Y-82777500D02*
X136425010Y-83772510D01*
%TO.N,/3V3*%
X127030000Y-73585000D02*
X124650000Y-73585000D01*
X135590000Y-78745000D02*
X133590000Y-78745000D01*
X135590000Y-80742500D02*
X135430000Y-80902500D01*
X130620000Y-84770000D02*
X128740000Y-84770000D01*
X128575000Y-101435000D02*
X128560000Y-101420000D01*
X130610000Y-101435000D02*
X128575000Y-101435000D01*
X122235000Y-110350000D02*
X121950000Y-110350000D01*
X124620000Y-107965000D02*
X122235000Y-110350000D01*
X135590000Y-78745000D02*
X135590000Y-79830000D01*
X135590000Y-79830000D02*
X135590000Y-80742500D01*
X125351609Y-73585000D02*
X125743463Y-73193146D01*
X124650000Y-73585000D02*
X125351609Y-73585000D01*
X127849316Y-78247500D02*
X128422379Y-77674437D01*
X126060000Y-78247500D02*
X127849316Y-78247500D01*
X128740000Y-84770000D02*
X125742372Y-84770000D01*
X125742372Y-84770000D02*
X124235587Y-86276785D01*
X128560000Y-101420000D02*
X127510000Y-101420000D01*
X127510000Y-101420000D02*
X127050000Y-101880000D01*
X135590000Y-79830000D02*
X134247102Y-78487102D01*
X134247102Y-78487102D02*
X133484990Y-78487102D01*
%TO.N,Net-(C3-Pad2)*%
X130417490Y-89702490D02*
X127952510Y-89702490D01*
X131260000Y-90545000D02*
X130417490Y-89702490D01*
X127952510Y-89702490D02*
X127110000Y-90545000D01*
%TO.N,/OSCIN*%
X131230000Y-92390000D02*
X131260000Y-92420000D01*
X129170000Y-92390000D02*
X131230000Y-92390000D01*
X131260000Y-92420000D02*
X131090000Y-92420000D01*
X131090000Y-92420000D02*
X130670000Y-92840000D01*
%TO.N,/OSCOUT*%
X129015000Y-90515000D02*
X129170000Y-90515000D01*
X127110000Y-92420000D02*
X129015000Y-90515000D01*
X127110000Y-92420000D02*
X127110000Y-95430000D01*
X127110000Y-95430000D02*
X127740865Y-96060865D01*
X129930000Y-96420000D02*
X133277421Y-93072579D01*
X133277421Y-93072579D02*
X135367898Y-93072579D01*
%TO.N,/PC14*%
X134761883Y-104747819D02*
X137757819Y-104747819D01*
X137757819Y-104747819D02*
X138320000Y-105310000D01*
X136040000Y-97600524D02*
X135304990Y-98335534D01*
X136040000Y-97100000D02*
X136040000Y-97600524D01*
%TO.N,/PC15*%
X127530000Y-107880000D02*
X130184578Y-107880000D01*
X130184578Y-107880000D02*
X131204568Y-106860010D01*
X138320000Y-102770000D02*
X134230000Y-102770000D01*
X134230000Y-102770000D02*
X132170000Y-104830000D01*
%TO.N,/5V*%
X128740000Y-86375000D02*
X128740000Y-87210000D01*
X130544999Y-86299999D02*
X128815001Y-86299999D01*
X128815001Y-86299999D02*
X128740000Y-86375000D01*
X130620000Y-87210000D02*
X130620000Y-86375000D01*
X130620000Y-86375000D02*
X130544999Y-86299999D01*
X130740000Y-87090000D02*
X130620000Y-87210000D01*
X135400000Y-87090000D02*
X130740000Y-87090000D01*
X123919999Y-93934999D02*
X125360000Y-95375000D01*
X121575997Y-93934999D02*
X123919999Y-93934999D01*
X120774999Y-89465999D02*
X120774999Y-93134001D01*
X121385999Y-88854999D02*
X120774999Y-89465999D01*
X122324003Y-88854999D02*
X121385999Y-88854999D01*
X120774999Y-93134001D02*
X121575997Y-93934999D01*
X123125001Y-88054001D02*
X122324003Y-88854999D01*
X123125001Y-84374999D02*
X123125001Y-88054001D01*
X124810000Y-82690000D02*
X123125001Y-84374999D01*
X124660000Y-95375000D02*
X125360000Y-95375000D01*
X123884979Y-96150021D02*
X124660000Y-95375000D01*
X121950000Y-105270000D02*
X123884979Y-103335021D01*
X123884979Y-103335021D02*
X123884979Y-96150021D01*
X127185681Y-86684998D02*
X126660679Y-87210000D01*
X128214998Y-86684998D02*
X127185681Y-86684998D01*
X123969002Y-87210000D02*
X123125001Y-88054001D01*
X126660679Y-87210000D02*
X123969002Y-87210000D01*
X128740000Y-87210000D02*
X128214998Y-86684998D01*
X126120000Y-82690000D02*
X124810000Y-82690000D01*
X129430000Y-79380000D02*
X126120000Y-82690000D01*
%TO.N,Net-(D1-Pad1)*%
X132925000Y-101465000D02*
X132925000Y-102430800D01*
X132925000Y-102430800D02*
X132770182Y-102585618D01*
%TO.N,Net-(D2-Pad1)*%
X130025000Y-106135000D02*
X125410000Y-101520000D01*
X134490000Y-106135000D02*
X130025000Y-106135000D01*
X125410000Y-101520000D02*
X125410000Y-101080000D01*
%TO.N,/PC13*%
X138160000Y-108010000D02*
X138320000Y-107850000D01*
X134490000Y-108010000D02*
X138160000Y-108010000D01*
%TO.N,/PA11*%
X127300000Y-64227500D02*
X127300000Y-66735412D01*
X127300000Y-66735412D02*
X123174980Y-70860432D01*
X123174980Y-70860432D02*
X123174980Y-78645020D01*
X123174980Y-78645020D02*
X121950000Y-79870000D01*
%TO.N,/PA12*%
X122324003Y-71074999D02*
X121385999Y-71074999D01*
X124880000Y-68519002D02*
X122324003Y-71074999D01*
X120774999Y-81234999D02*
X121950000Y-82410000D01*
X120774999Y-71685999D02*
X120774999Y-81234999D01*
X121385999Y-71074999D02*
X120774999Y-71685999D01*
X124880000Y-64225000D02*
X124880000Y-68519002D01*
X123545000Y-80815000D02*
X121950000Y-82410000D01*
X124810000Y-80815000D02*
X123545000Y-80815000D01*
%TO.N,Net-(J3-Pad3)*%
X130006683Y-65429833D02*
X130006683Y-66908381D01*
X125695010Y-63165010D02*
X127741860Y-63165010D01*
X127741860Y-63165010D02*
X130006683Y-65429833D01*
X124880000Y-62350000D02*
X125695010Y-63165010D01*
%TO.N,Net-(J3-Pad2)*%
X131004990Y-65357490D02*
X131004990Y-66850000D01*
X127300000Y-62352500D02*
X128000000Y-62352500D01*
X128000000Y-62352500D02*
X131004990Y-65357490D01*
%TO.N,Net-(J4-Pad4)*%
X133310000Y-80922500D02*
X133310000Y-79960000D01*
%TO.N,Net-(J4-Pad3)*%
X129467500Y-71720000D02*
X129390000Y-71642500D01*
X131670000Y-71720000D02*
X129467500Y-71720000D01*
%TO.N,/SWCLK*%
X128289002Y-110170000D02*
X129090000Y-110170000D01*
X126504990Y-108385988D02*
X128289002Y-110170000D01*
X126504990Y-107400660D02*
X126504990Y-108385988D01*
X128555010Y-106484340D02*
X127971860Y-107067490D01*
X124334990Y-101305640D02*
X128555010Y-105525660D01*
X127971860Y-107067490D02*
X126838160Y-107067490D01*
X126385010Y-95854340D02*
X125801860Y-96437490D01*
X124334990Y-96770660D02*
X124334990Y-101305640D01*
X128555010Y-105525660D02*
X128555010Y-106484340D01*
X125801860Y-96437490D02*
X124668160Y-96437490D01*
X124668160Y-96437490D02*
X124334990Y-96770660D01*
X126838160Y-107067490D02*
X126504990Y-107400660D01*
X124010000Y-90824350D02*
X126385010Y-93199360D01*
X126385010Y-93199360D02*
X126385010Y-95854340D01*
X124010000Y-88630000D02*
X124010000Y-90824350D01*
%TO.N,/SWIO*%
X137144999Y-93776678D02*
X135703319Y-92334998D01*
X137293490Y-106947510D02*
X137755999Y-106485001D01*
X135703319Y-92334998D02*
X134654348Y-92334998D01*
X131630000Y-108967919D02*
X133650409Y-106947510D01*
X134654348Y-92334998D02*
X130571829Y-88252479D01*
X128007521Y-88252479D02*
X127800000Y-88460000D01*
X137755999Y-106485001D02*
X138884001Y-106485001D01*
X130571829Y-88252479D02*
X128007521Y-88252479D01*
X138644351Y-96325001D02*
X137755999Y-96325001D01*
X137144999Y-95714001D02*
X137144999Y-93776678D01*
X138884001Y-106485001D02*
X139520000Y-105849002D01*
X139520000Y-97200650D02*
X138644351Y-96325001D01*
X139520000Y-105849002D02*
X139520000Y-97200650D01*
X137755999Y-96325001D02*
X137144999Y-95714001D01*
X133650409Y-106947510D02*
X137293490Y-106947510D01*
X131630000Y-110170000D02*
X131630000Y-108967919D01*
%TO.N,/BOOT0*%
X129390000Y-73517500D02*
X129390000Y-75500000D01*
X129390000Y-75500000D02*
X129630000Y-75740000D01*
%TO.N,/BOOT1*%
X133310000Y-83660000D02*
X133310000Y-82797500D01*
X131850000Y-85120000D02*
X133310000Y-83660000D01*
%TD*%
M02*
