M48
; DRILL file {KiCad (5.1.6)-1} date 09/14/20 14:29:34
; FORMAT={-:-/ absolute / metric / decimal}
; #@! TF.CreationDate,2020-09-14T14:29:34+02:00
; #@! TF.GenerationSoftware,Kicad,Pcbnew,(5.1.6)-1
; #@! TF.FileFunction,Plated,1,2,PTH
FMAT,2
METRIC
T1C0.400
T2C1.000
%
G90
G05
T1
X123.845Y-86.841
X123.977Y-84.244
X125.475Y-103.666
X126.44Y-95.45
X127.03Y-101.07
X127.049Y-75.39
X127.325Y-87.94
X127.59Y-76.4
X128.51Y-66.63
X128.795Y-85.651
X129.95Y-66.55
X130.588Y-94.545
X130.8Y-80.96
X130.896Y-106.074
X131.15Y-66.566
X131.96Y-84.96
X132.01Y-104.79
X132.04Y-75.88
X132.346Y-106.387
X132.8Y-95.27
X133.69Y-100.66
X134.47Y-91.288
X134.62Y-104.77
X134.947Y-90.408
X135.07Y-92.97
X136.2Y-100.65
X136.23Y-101.84
X137.09Y-70.98
T2
X138.32Y-62.13
X138.32Y-64.67
X138.32Y-67.21
X138.32Y-69.75
X138.32Y-72.29
X138.32Y-74.83
X138.32Y-77.37
X138.32Y-79.91
X138.32Y-82.45
X138.32Y-84.99
X138.32Y-87.53
X138.32Y-90.07
X138.32Y-92.61
X138.32Y-95.15
X138.32Y-97.69
X138.32Y-100.23
X138.32Y-102.77
X138.32Y-105.31
X138.32Y-107.85
X138.32Y-110.39
X126.55Y-110.17
X129.09Y-110.17
X131.63Y-110.17
X134.17Y-110.17
X121.95Y-62.09
X121.95Y-64.63
X121.95Y-67.17
X121.95Y-69.71
X121.95Y-72.25
X121.95Y-74.79
X121.95Y-77.33
X121.95Y-79.87
X121.95Y-82.41
X121.95Y-84.95
X121.95Y-87.49
X121.95Y-90.03
X121.95Y-92.57
X121.95Y-95.11
X121.95Y-97.65
X121.95Y-100.19
X121.95Y-102.73
X121.95Y-105.27
X121.95Y-107.81
X121.95Y-110.35
X131.67Y-69.18
X131.67Y-71.72
X131.67Y-74.26
X134.21Y-69.18
X134.21Y-71.72
X134.21Y-74.26
T0
M30
