%TF.GenerationSoftware,KiCad,Pcbnew,(5.1.6)-1*%
%TF.CreationDate,2020-09-14T14:29:29+02:00*%
%TF.ProjectId,STM32_blue_pill,53544d33-325f-4626-9c75-655f70696c6c,rev?*%
%TF.SameCoordinates,Original*%
%TF.FileFunction,Paste,Bot*%
%TF.FilePolarity,Positive*%
%FSLAX46Y46*%
G04 Gerber Fmt 4.6, Leading zero omitted, Abs format (unit mm)*
G04 Created by KiCad (PCBNEW (5.1.6)-1) date 2020-09-14 14:29:29*
%MOMM*%
%LPD*%
G01*
G04 APERTURE LIST*
%ADD10R,0.670000X1.170000*%
G04 APERTURE END LIST*
D10*
%TO.C,U2*%
X130620000Y-87210000D03*
X129680000Y-87210000D03*
X128740000Y-87210000D03*
X128740000Y-84770000D03*
X130620000Y-84770000D03*
%TD*%
%TO.C,R9*%
G36*
G01*
X132853750Y-82310000D02*
X133766250Y-82310000D01*
G75*
G02*
X134010000Y-82553750I0J-243750D01*
G01*
X134010000Y-83041250D01*
G75*
G02*
X133766250Y-83285000I-243750J0D01*
G01*
X132853750Y-83285000D01*
G75*
G02*
X132610000Y-83041250I0J243750D01*
G01*
X132610000Y-82553750D01*
G75*
G02*
X132853750Y-82310000I243750J0D01*
G01*
G37*
G36*
G01*
X132853750Y-80435000D02*
X133766250Y-80435000D01*
G75*
G02*
X134010000Y-80678750I0J-243750D01*
G01*
X134010000Y-81166250D01*
G75*
G02*
X133766250Y-81410000I-243750J0D01*
G01*
X132853750Y-81410000D01*
G75*
G02*
X132610000Y-81166250I0J243750D01*
G01*
X132610000Y-80678750D01*
G75*
G02*
X132853750Y-80435000I243750J0D01*
G01*
G37*
%TD*%
%TO.C,R8*%
G36*
G01*
X129846250Y-72130000D02*
X128933750Y-72130000D01*
G75*
G02*
X128690000Y-71886250I0J243750D01*
G01*
X128690000Y-71398750D01*
G75*
G02*
X128933750Y-71155000I243750J0D01*
G01*
X129846250Y-71155000D01*
G75*
G02*
X130090000Y-71398750I0J-243750D01*
G01*
X130090000Y-71886250D01*
G75*
G02*
X129846250Y-72130000I-243750J0D01*
G01*
G37*
G36*
G01*
X129846250Y-74005000D02*
X128933750Y-74005000D01*
G75*
G02*
X128690000Y-73761250I0J243750D01*
G01*
X128690000Y-73273750D01*
G75*
G02*
X128933750Y-73030000I243750J0D01*
G01*
X129846250Y-73030000D01*
G75*
G02*
X130090000Y-73273750I0J-243750D01*
G01*
X130090000Y-73761250D01*
G75*
G02*
X129846250Y-74005000I-243750J0D01*
G01*
G37*
%TD*%
%TO.C,R7*%
G36*
G01*
X124353750Y-82202500D02*
X125266250Y-82202500D01*
G75*
G02*
X125510000Y-82446250I0J-243750D01*
G01*
X125510000Y-82933750D01*
G75*
G02*
X125266250Y-83177500I-243750J0D01*
G01*
X124353750Y-83177500D01*
G75*
G02*
X124110000Y-82933750I0J243750D01*
G01*
X124110000Y-82446250D01*
G75*
G02*
X124353750Y-82202500I243750J0D01*
G01*
G37*
G36*
G01*
X124353750Y-80327500D02*
X125266250Y-80327500D01*
G75*
G02*
X125510000Y-80571250I0J-243750D01*
G01*
X125510000Y-81058750D01*
G75*
G02*
X125266250Y-81302500I-243750J0D01*
G01*
X124353750Y-81302500D01*
G75*
G02*
X124110000Y-81058750I0J243750D01*
G01*
X124110000Y-80571250D01*
G75*
G02*
X124353750Y-80327500I243750J0D01*
G01*
G37*
%TD*%
%TO.C,R6*%
G36*
G01*
X126843750Y-63740000D02*
X127756250Y-63740000D01*
G75*
G02*
X128000000Y-63983750I0J-243750D01*
G01*
X128000000Y-64471250D01*
G75*
G02*
X127756250Y-64715000I-243750J0D01*
G01*
X126843750Y-64715000D01*
G75*
G02*
X126600000Y-64471250I0J243750D01*
G01*
X126600000Y-63983750D01*
G75*
G02*
X126843750Y-63740000I243750J0D01*
G01*
G37*
G36*
G01*
X126843750Y-61865000D02*
X127756250Y-61865000D01*
G75*
G02*
X128000000Y-62108750I0J-243750D01*
G01*
X128000000Y-62596250D01*
G75*
G02*
X127756250Y-62840000I-243750J0D01*
G01*
X126843750Y-62840000D01*
G75*
G02*
X126600000Y-62596250I0J243750D01*
G01*
X126600000Y-62108750D01*
G75*
G02*
X126843750Y-61865000I243750J0D01*
G01*
G37*
%TD*%
%TO.C,R5*%
G36*
G01*
X124423750Y-63737500D02*
X125336250Y-63737500D01*
G75*
G02*
X125580000Y-63981250I0J-243750D01*
G01*
X125580000Y-64468750D01*
G75*
G02*
X125336250Y-64712500I-243750J0D01*
G01*
X124423750Y-64712500D01*
G75*
G02*
X124180000Y-64468750I0J243750D01*
G01*
X124180000Y-63981250D01*
G75*
G02*
X124423750Y-63737500I243750J0D01*
G01*
G37*
G36*
G01*
X124423750Y-61862500D02*
X125336250Y-61862500D01*
G75*
G02*
X125580000Y-62106250I0J-243750D01*
G01*
X125580000Y-62593750D01*
G75*
G02*
X125336250Y-62837500I-243750J0D01*
G01*
X124423750Y-62837500D01*
G75*
G02*
X124180000Y-62593750I0J243750D01*
G01*
X124180000Y-62106250D01*
G75*
G02*
X124423750Y-61862500I243750J0D01*
G01*
G37*
%TD*%
%TO.C,R4*%
G36*
G01*
X134946250Y-106622500D02*
X134033750Y-106622500D01*
G75*
G02*
X133790000Y-106378750I0J243750D01*
G01*
X133790000Y-105891250D01*
G75*
G02*
X134033750Y-105647500I243750J0D01*
G01*
X134946250Y-105647500D01*
G75*
G02*
X135190000Y-105891250I0J-243750D01*
G01*
X135190000Y-106378750D01*
G75*
G02*
X134946250Y-106622500I-243750J0D01*
G01*
G37*
G36*
G01*
X134946250Y-108497500D02*
X134033750Y-108497500D01*
G75*
G02*
X133790000Y-108253750I0J243750D01*
G01*
X133790000Y-107766250D01*
G75*
G02*
X134033750Y-107522500I243750J0D01*
G01*
X134946250Y-107522500D01*
G75*
G02*
X135190000Y-107766250I0J-243750D01*
G01*
X135190000Y-108253750D01*
G75*
G02*
X134946250Y-108497500I-243750J0D01*
G01*
G37*
%TD*%
%TO.C,R3*%
G36*
G01*
X132123750Y-100977500D02*
X133036250Y-100977500D01*
G75*
G02*
X133280000Y-101221250I0J-243750D01*
G01*
X133280000Y-101708750D01*
G75*
G02*
X133036250Y-101952500I-243750J0D01*
G01*
X132123750Y-101952500D01*
G75*
G02*
X131880000Y-101708750I0J243750D01*
G01*
X131880000Y-101221250D01*
G75*
G02*
X132123750Y-100977500I243750J0D01*
G01*
G37*
G36*
G01*
X132123750Y-99102500D02*
X133036250Y-99102500D01*
G75*
G02*
X133280000Y-99346250I0J-243750D01*
G01*
X133280000Y-99833750D01*
G75*
G02*
X133036250Y-100077500I-243750J0D01*
G01*
X132123750Y-100077500D01*
G75*
G02*
X131880000Y-99833750I0J243750D01*
G01*
X131880000Y-99346250D01*
G75*
G02*
X132123750Y-99102500I243750J0D01*
G01*
G37*
%TD*%
%TO.C,R2*%
G36*
G01*
X129626250Y-91002500D02*
X128713750Y-91002500D01*
G75*
G02*
X128470000Y-90758750I0J243750D01*
G01*
X128470000Y-90271250D01*
G75*
G02*
X128713750Y-90027500I243750J0D01*
G01*
X129626250Y-90027500D01*
G75*
G02*
X129870000Y-90271250I0J-243750D01*
G01*
X129870000Y-90758750D01*
G75*
G02*
X129626250Y-91002500I-243750J0D01*
G01*
G37*
G36*
G01*
X129626250Y-92877500D02*
X128713750Y-92877500D01*
G75*
G02*
X128470000Y-92633750I0J243750D01*
G01*
X128470000Y-92146250D01*
G75*
G02*
X128713750Y-91902500I243750J0D01*
G01*
X129626250Y-91902500D01*
G75*
G02*
X129870000Y-92146250I0J-243750D01*
G01*
X129870000Y-92633750D01*
G75*
G02*
X129626250Y-92877500I-243750J0D01*
G01*
G37*
%TD*%
%TO.C,R1*%
G36*
G01*
X135886250Y-81390000D02*
X134973750Y-81390000D01*
G75*
G02*
X134730000Y-81146250I0J243750D01*
G01*
X134730000Y-80658750D01*
G75*
G02*
X134973750Y-80415000I243750J0D01*
G01*
X135886250Y-80415000D01*
G75*
G02*
X136130000Y-80658750I0J-243750D01*
G01*
X136130000Y-81146250D01*
G75*
G02*
X135886250Y-81390000I-243750J0D01*
G01*
G37*
G36*
G01*
X135886250Y-83265000D02*
X134973750Y-83265000D01*
G75*
G02*
X134730000Y-83021250I0J243750D01*
G01*
X134730000Y-82533750D01*
G75*
G02*
X134973750Y-82290000I243750J0D01*
G01*
X135886250Y-82290000D01*
G75*
G02*
X136130000Y-82533750I0J-243750D01*
G01*
X136130000Y-83021250D01*
G75*
G02*
X135886250Y-83265000I-243750J0D01*
G01*
G37*
%TD*%
%TO.C,C15*%
G36*
G01*
X129016250Y-100032500D02*
X128103750Y-100032500D01*
G75*
G02*
X127860000Y-99788750I0J243750D01*
G01*
X127860000Y-99301250D01*
G75*
G02*
X128103750Y-99057500I243750J0D01*
G01*
X129016250Y-99057500D01*
G75*
G02*
X129260000Y-99301250I0J-243750D01*
G01*
X129260000Y-99788750D01*
G75*
G02*
X129016250Y-100032500I-243750J0D01*
G01*
G37*
G36*
G01*
X129016250Y-101907500D02*
X128103750Y-101907500D01*
G75*
G02*
X127860000Y-101663750I0J243750D01*
G01*
X127860000Y-101176250D01*
G75*
G02*
X128103750Y-100932500I243750J0D01*
G01*
X129016250Y-100932500D01*
G75*
G02*
X129260000Y-101176250I0J-243750D01*
G01*
X129260000Y-101663750D01*
G75*
G02*
X129016250Y-101907500I-243750J0D01*
G01*
G37*
%TD*%
%TO.C,C14*%
G36*
G01*
X125106250Y-72197500D02*
X124193750Y-72197500D01*
G75*
G02*
X123950000Y-71953750I0J243750D01*
G01*
X123950000Y-71466250D01*
G75*
G02*
X124193750Y-71222500I243750J0D01*
G01*
X125106250Y-71222500D01*
G75*
G02*
X125350000Y-71466250I0J-243750D01*
G01*
X125350000Y-71953750D01*
G75*
G02*
X125106250Y-72197500I-243750J0D01*
G01*
G37*
G36*
G01*
X125106250Y-74072500D02*
X124193750Y-74072500D01*
G75*
G02*
X123950000Y-73828750I0J243750D01*
G01*
X123950000Y-73341250D01*
G75*
G02*
X124193750Y-73097500I243750J0D01*
G01*
X125106250Y-73097500D01*
G75*
G02*
X125350000Y-73341250I0J-243750D01*
G01*
X125350000Y-73828750D01*
G75*
G02*
X125106250Y-74072500I-243750J0D01*
G01*
G37*
%TD*%
%TO.C,C13*%
G36*
G01*
X136046250Y-77357500D02*
X135133750Y-77357500D01*
G75*
G02*
X134890000Y-77113750I0J243750D01*
G01*
X134890000Y-76626250D01*
G75*
G02*
X135133750Y-76382500I243750J0D01*
G01*
X136046250Y-76382500D01*
G75*
G02*
X136290000Y-76626250I0J-243750D01*
G01*
X136290000Y-77113750D01*
G75*
G02*
X136046250Y-77357500I-243750J0D01*
G01*
G37*
G36*
G01*
X136046250Y-79232500D02*
X135133750Y-79232500D01*
G75*
G02*
X134890000Y-78988750I0J243750D01*
G01*
X134890000Y-78501250D01*
G75*
G02*
X135133750Y-78257500I243750J0D01*
G01*
X136046250Y-78257500D01*
G75*
G02*
X136290000Y-78501250I0J-243750D01*
G01*
X136290000Y-78988750D01*
G75*
G02*
X136046250Y-79232500I-243750J0D01*
G01*
G37*
%TD*%
%TO.C,C12*%
G36*
G01*
X127486250Y-72197500D02*
X126573750Y-72197500D01*
G75*
G02*
X126330000Y-71953750I0J243750D01*
G01*
X126330000Y-71466250D01*
G75*
G02*
X126573750Y-71222500I243750J0D01*
G01*
X127486250Y-71222500D01*
G75*
G02*
X127730000Y-71466250I0J-243750D01*
G01*
X127730000Y-71953750D01*
G75*
G02*
X127486250Y-72197500I-243750J0D01*
G01*
G37*
G36*
G01*
X127486250Y-74072500D02*
X126573750Y-74072500D01*
G75*
G02*
X126330000Y-73828750I0J243750D01*
G01*
X126330000Y-73341250D01*
G75*
G02*
X126573750Y-73097500I243750J0D01*
G01*
X127486250Y-73097500D01*
G75*
G02*
X127730000Y-73341250I0J-243750D01*
G01*
X127730000Y-73828750D01*
G75*
G02*
X127486250Y-74072500I-243750J0D01*
G01*
G37*
%TD*%
%TO.C,C11*%
G36*
G01*
X135856250Y-85702500D02*
X134943750Y-85702500D01*
G75*
G02*
X134700000Y-85458750I0J243750D01*
G01*
X134700000Y-84971250D01*
G75*
G02*
X134943750Y-84727500I243750J0D01*
G01*
X135856250Y-84727500D01*
G75*
G02*
X136100000Y-84971250I0J-243750D01*
G01*
X136100000Y-85458750D01*
G75*
G02*
X135856250Y-85702500I-243750J0D01*
G01*
G37*
G36*
G01*
X135856250Y-87577500D02*
X134943750Y-87577500D01*
G75*
G02*
X134700000Y-87333750I0J243750D01*
G01*
X134700000Y-86846250D01*
G75*
G02*
X134943750Y-86602500I243750J0D01*
G01*
X135856250Y-86602500D01*
G75*
G02*
X136100000Y-86846250I0J-243750D01*
G01*
X136100000Y-87333750D01*
G75*
G02*
X135856250Y-87577500I-243750J0D01*
G01*
G37*
%TD*%
%TO.C,C10*%
G36*
G01*
X124903750Y-96762500D02*
X125816250Y-96762500D01*
G75*
G02*
X126060000Y-97006250I0J-243750D01*
G01*
X126060000Y-97493750D01*
G75*
G02*
X125816250Y-97737500I-243750J0D01*
G01*
X124903750Y-97737500D01*
G75*
G02*
X124660000Y-97493750I0J243750D01*
G01*
X124660000Y-97006250D01*
G75*
G02*
X124903750Y-96762500I243750J0D01*
G01*
G37*
G36*
G01*
X124903750Y-94887500D02*
X125816250Y-94887500D01*
G75*
G02*
X126060000Y-95131250I0J-243750D01*
G01*
X126060000Y-95618750D01*
G75*
G02*
X125816250Y-95862500I-243750J0D01*
G01*
X124903750Y-95862500D01*
G75*
G02*
X124660000Y-95618750I0J243750D01*
G01*
X124660000Y-95131250D01*
G75*
G02*
X124903750Y-94887500I243750J0D01*
G01*
G37*
%TD*%
%TO.C,C9*%
G36*
G01*
X134046250Y-77357500D02*
X133133750Y-77357500D01*
G75*
G02*
X132890000Y-77113750I0J243750D01*
G01*
X132890000Y-76626250D01*
G75*
G02*
X133133750Y-76382500I243750J0D01*
G01*
X134046250Y-76382500D01*
G75*
G02*
X134290000Y-76626250I0J-243750D01*
G01*
X134290000Y-77113750D01*
G75*
G02*
X134046250Y-77357500I-243750J0D01*
G01*
G37*
G36*
G01*
X134046250Y-79232500D02*
X133133750Y-79232500D01*
G75*
G02*
X132890000Y-78988750I0J243750D01*
G01*
X132890000Y-78501250D01*
G75*
G02*
X133133750Y-78257500I243750J0D01*
G01*
X134046250Y-78257500D01*
G75*
G02*
X134290000Y-78501250I0J-243750D01*
G01*
X134290000Y-78988750D01*
G75*
G02*
X134046250Y-79232500I-243750J0D01*
G01*
G37*
%TD*%
%TO.C,C8*%
G36*
G01*
X126516250Y-76860000D02*
X125603750Y-76860000D01*
G75*
G02*
X125360000Y-76616250I0J243750D01*
G01*
X125360000Y-76128750D01*
G75*
G02*
X125603750Y-75885000I243750J0D01*
G01*
X126516250Y-75885000D01*
G75*
G02*
X126760000Y-76128750I0J-243750D01*
G01*
X126760000Y-76616250D01*
G75*
G02*
X126516250Y-76860000I-243750J0D01*
G01*
G37*
G36*
G01*
X126516250Y-78735000D02*
X125603750Y-78735000D01*
G75*
G02*
X125360000Y-78491250I0J243750D01*
G01*
X125360000Y-78003750D01*
G75*
G02*
X125603750Y-77760000I243750J0D01*
G01*
X126516250Y-77760000D01*
G75*
G02*
X126760000Y-78003750I0J-243750D01*
G01*
X126760000Y-78491250D01*
G75*
G02*
X126516250Y-78735000I-243750J0D01*
G01*
G37*
%TD*%
%TO.C,C7*%
G36*
G01*
X131066250Y-100047500D02*
X130153750Y-100047500D01*
G75*
G02*
X129910000Y-99803750I0J243750D01*
G01*
X129910000Y-99316250D01*
G75*
G02*
X130153750Y-99072500I243750J0D01*
G01*
X131066250Y-99072500D01*
G75*
G02*
X131310000Y-99316250I0J-243750D01*
G01*
X131310000Y-99803750D01*
G75*
G02*
X131066250Y-100047500I-243750J0D01*
G01*
G37*
G36*
G01*
X131066250Y-101922500D02*
X130153750Y-101922500D01*
G75*
G02*
X129910000Y-101678750I0J243750D01*
G01*
X129910000Y-101191250D01*
G75*
G02*
X130153750Y-100947500I243750J0D01*
G01*
X131066250Y-100947500D01*
G75*
G02*
X131310000Y-101191250I0J-243750D01*
G01*
X131310000Y-101678750D01*
G75*
G02*
X131066250Y-101922500I-243750J0D01*
G01*
G37*
%TD*%
%TO.C,C6*%
G36*
G01*
X127073750Y-107392500D02*
X127986250Y-107392500D01*
G75*
G02*
X128230000Y-107636250I0J-243750D01*
G01*
X128230000Y-108123750D01*
G75*
G02*
X127986250Y-108367500I-243750J0D01*
G01*
X127073750Y-108367500D01*
G75*
G02*
X126830000Y-108123750I0J243750D01*
G01*
X126830000Y-107636250D01*
G75*
G02*
X127073750Y-107392500I243750J0D01*
G01*
G37*
G36*
G01*
X127073750Y-105517500D02*
X127986250Y-105517500D01*
G75*
G02*
X128230000Y-105761250I0J-243750D01*
G01*
X128230000Y-106248750D01*
G75*
G02*
X127986250Y-106492500I-243750J0D01*
G01*
X127073750Y-106492500D01*
G75*
G02*
X126830000Y-106248750I0J243750D01*
G01*
X126830000Y-105761250D01*
G75*
G02*
X127073750Y-105517500I243750J0D01*
G01*
G37*
%TD*%
%TO.C,C5*%
G36*
G01*
X136496250Y-95712500D02*
X135583750Y-95712500D01*
G75*
G02*
X135340000Y-95468750I0J243750D01*
G01*
X135340000Y-94981250D01*
G75*
G02*
X135583750Y-94737500I243750J0D01*
G01*
X136496250Y-94737500D01*
G75*
G02*
X136740000Y-94981250I0J-243750D01*
G01*
X136740000Y-95468750D01*
G75*
G02*
X136496250Y-95712500I-243750J0D01*
G01*
G37*
G36*
G01*
X136496250Y-97587500D02*
X135583750Y-97587500D01*
G75*
G02*
X135340000Y-97343750I0J243750D01*
G01*
X135340000Y-96856250D01*
G75*
G02*
X135583750Y-96612500I243750J0D01*
G01*
X136496250Y-96612500D01*
G75*
G02*
X136740000Y-96856250I0J-243750D01*
G01*
X136740000Y-97343750D01*
G75*
G02*
X136496250Y-97587500I-243750J0D01*
G01*
G37*
%TD*%
%TO.C,C4*%
G36*
G01*
X126653750Y-91932500D02*
X127566250Y-91932500D01*
G75*
G02*
X127810000Y-92176250I0J-243750D01*
G01*
X127810000Y-92663750D01*
G75*
G02*
X127566250Y-92907500I-243750J0D01*
G01*
X126653750Y-92907500D01*
G75*
G02*
X126410000Y-92663750I0J243750D01*
G01*
X126410000Y-92176250D01*
G75*
G02*
X126653750Y-91932500I243750J0D01*
G01*
G37*
G36*
G01*
X126653750Y-90057500D02*
X127566250Y-90057500D01*
G75*
G02*
X127810000Y-90301250I0J-243750D01*
G01*
X127810000Y-90788750D01*
G75*
G02*
X127566250Y-91032500I-243750J0D01*
G01*
X126653750Y-91032500D01*
G75*
G02*
X126410000Y-90788750I0J243750D01*
G01*
X126410000Y-90301250D01*
G75*
G02*
X126653750Y-90057500I243750J0D01*
G01*
G37*
%TD*%
%TO.C,C3*%
G36*
G01*
X131716250Y-91032500D02*
X130803750Y-91032500D01*
G75*
G02*
X130560000Y-90788750I0J243750D01*
G01*
X130560000Y-90301250D01*
G75*
G02*
X130803750Y-90057500I243750J0D01*
G01*
X131716250Y-90057500D01*
G75*
G02*
X131960000Y-90301250I0J-243750D01*
G01*
X131960000Y-90788750D01*
G75*
G02*
X131716250Y-91032500I-243750J0D01*
G01*
G37*
G36*
G01*
X131716250Y-92907500D02*
X130803750Y-92907500D01*
G75*
G02*
X130560000Y-92663750I0J243750D01*
G01*
X130560000Y-92176250D01*
G75*
G02*
X130803750Y-91932500I243750J0D01*
G01*
X131716250Y-91932500D01*
G75*
G02*
X131960000Y-92176250I0J-243750D01*
G01*
X131960000Y-92663750D01*
G75*
G02*
X131716250Y-92907500I-243750J0D01*
G01*
G37*
%TD*%
%TO.C,C2*%
G36*
G01*
X125076250Y-106577500D02*
X124163750Y-106577500D01*
G75*
G02*
X123920000Y-106333750I0J243750D01*
G01*
X123920000Y-105846250D01*
G75*
G02*
X124163750Y-105602500I243750J0D01*
G01*
X125076250Y-105602500D01*
G75*
G02*
X125320000Y-105846250I0J-243750D01*
G01*
X125320000Y-106333750D01*
G75*
G02*
X125076250Y-106577500I-243750J0D01*
G01*
G37*
G36*
G01*
X125076250Y-108452500D02*
X124163750Y-108452500D01*
G75*
G02*
X123920000Y-108208750I0J243750D01*
G01*
X123920000Y-107721250D01*
G75*
G02*
X124163750Y-107477500I243750J0D01*
G01*
X125076250Y-107477500D01*
G75*
G02*
X125320000Y-107721250I0J-243750D01*
G01*
X125320000Y-108208750D01*
G75*
G02*
X125076250Y-108452500I-243750J0D01*
G01*
G37*
%TD*%
%TO.C,C1*%
G36*
G01*
X132016250Y-77380000D02*
X131103750Y-77380000D01*
G75*
G02*
X130860000Y-77136250I0J243750D01*
G01*
X130860000Y-76648750D01*
G75*
G02*
X131103750Y-76405000I243750J0D01*
G01*
X132016250Y-76405000D01*
G75*
G02*
X132260000Y-76648750I0J-243750D01*
G01*
X132260000Y-77136250D01*
G75*
G02*
X132016250Y-77380000I-243750J0D01*
G01*
G37*
G36*
G01*
X132016250Y-79255000D02*
X131103750Y-79255000D01*
G75*
G02*
X130860000Y-79011250I0J243750D01*
G01*
X130860000Y-78523750D01*
G75*
G02*
X131103750Y-78280000I243750J0D01*
G01*
X132016250Y-78280000D01*
G75*
G02*
X132260000Y-78523750I0J-243750D01*
G01*
X132260000Y-79011250D01*
G75*
G02*
X132016250Y-79255000I-243750J0D01*
G01*
G37*
%TD*%
M02*
