M48
; DRILL file {KiCad (5.1.6)-1} date 09/14/20 17:11:41
; FORMAT={-:-/ absolute / metric / decimal}
; #@! TF.CreationDate,2020-09-14T17:11:41+02:00
; #@! TF.GenerationSoftware,Kicad,Pcbnew,(5.1.6)-1
; #@! TF.FileFunction,Plated,1,4,PTH
FMAT,2
METRIC
T1C0.400
T2C1.000
%
G90
G05
T1
X124.01Y-88.63
X124.236Y-86.277
X125.36Y-98.77
X125.41Y-101.08
X125.743Y-73.193
X125.81Y-70.12
X126.331Y-86.466
X127.05Y-101.88
X127.741Y-96.061
X127.8Y-88.46
X128.422Y-77.674
X128.529Y-93.988
X128.663Y-76.684
X128.89Y-66.92
X129.43Y-79.38
X129.63Y-75.74
X129.675Y-87.025
X129.799Y-88.977
X129.93Y-96.42
X130.007Y-66.908
X130.07Y-83.44
X130.67Y-92.84
X131.005Y-66.85
X131.205Y-106.86
X131.85Y-85.12
X132.17Y-104.83
X132.46Y-88.27
X132.77Y-102.586
X133.03Y-86.32
X133.31Y-79.96
X133.485Y-78.487
X134.583Y-91.047
X134.762Y-104.748
X135.305Y-98.336
X135.368Y-93.073
T2
X138.32Y-62.13
X138.32Y-64.67
X138.32Y-67.21
X138.32Y-69.75
X138.32Y-72.29
X138.32Y-74.83
X138.32Y-77.37
X138.32Y-79.91
X138.32Y-82.45
X138.32Y-84.99
X138.32Y-87.53
X138.32Y-90.07
X138.32Y-92.61
X138.32Y-95.15
X138.32Y-97.69
X138.32Y-100.23
X138.32Y-102.77
X138.32Y-105.31
X138.32Y-107.85
X138.32Y-110.39
X131.67Y-69.18
X131.67Y-71.72
X131.67Y-74.26
X134.21Y-69.18
X134.21Y-71.72
X134.21Y-74.26
X126.55Y-110.17
X129.09Y-110.17
X131.63Y-110.17
X134.17Y-110.17
X121.95Y-62.09
X121.95Y-64.63
X121.95Y-67.17
X121.95Y-69.71
X121.95Y-72.25
X121.95Y-74.79
X121.95Y-77.33
X121.95Y-79.87
X121.95Y-82.41
X121.95Y-84.95
X121.95Y-87.49
X121.95Y-90.03
X121.95Y-92.57
X121.95Y-95.11
X121.95Y-97.65
X121.95Y-100.19
X121.95Y-102.73
X121.95Y-105.27
X121.95Y-107.81
X121.95Y-110.35
T0
M30
