%TF.GenerationSoftware,KiCad,Pcbnew,(5.1.6)-1*%
%TF.CreationDate,2020-09-14T14:29:29+02:00*%
%TF.ProjectId,STM32_blue_pill,53544d33-325f-4626-9c75-655f70696c6c,rev?*%
%TF.SameCoordinates,Original*%
%TF.FileFunction,Legend,Bot*%
%TF.FilePolarity,Positive*%
%FSLAX46Y46*%
G04 Gerber Fmt 4.6, Leading zero omitted, Abs format (unit mm)*
G04 Created by KiCad (PCBNEW (5.1.6)-1) date 2020-09-14 14:29:29*
%MOMM*%
%LPD*%
G01*
G04 APERTURE LIST*
%ADD10C,0.140000*%
%ADD11C,0.120000*%
%ADD12C,0.015000*%
%ADD13C,0.150000*%
G04 APERTURE END LIST*
D10*
%TO.C,U2*%
X131350000Y-87390000D02*
G75*
G03*
X131350000Y-87390000I-70000J0D01*
G01*
D11*
%TO.C,R9*%
X132600000Y-81601422D02*
X132600000Y-82118578D01*
X134020000Y-81601422D02*
X134020000Y-82118578D01*
%TO.C,R8*%
X130100000Y-72838578D02*
X130100000Y-72321422D01*
X128680000Y-72838578D02*
X128680000Y-72321422D01*
%TO.C,R7*%
X124100000Y-81493922D02*
X124100000Y-82011078D01*
X125520000Y-81493922D02*
X125520000Y-82011078D01*
%TO.C,R6*%
X126590000Y-63031422D02*
X126590000Y-63548578D01*
X128010000Y-63031422D02*
X128010000Y-63548578D01*
%TO.C,R5*%
X124170000Y-63028922D02*
X124170000Y-63546078D01*
X125590000Y-63028922D02*
X125590000Y-63546078D01*
%TO.C,R4*%
X135200000Y-107331078D02*
X135200000Y-106813922D01*
X133780000Y-107331078D02*
X133780000Y-106813922D01*
%TO.C,R3*%
X131870000Y-100268922D02*
X131870000Y-100786078D01*
X133290000Y-100268922D02*
X133290000Y-100786078D01*
%TO.C,R2*%
X129880000Y-91711078D02*
X129880000Y-91193922D01*
X128460000Y-91711078D02*
X128460000Y-91193922D01*
%TO.C,R1*%
X136140000Y-82098578D02*
X136140000Y-81581422D01*
X134720000Y-82098578D02*
X134720000Y-81581422D01*
%TO.C,J2*%
X120620000Y-60760000D02*
X123280000Y-60760000D01*
X120620000Y-109080000D02*
X120620000Y-60760000D01*
X123280000Y-109080000D02*
X123280000Y-60760000D01*
X120620000Y-109080000D02*
X123280000Y-109080000D01*
X120620000Y-110350000D02*
X120620000Y-111680000D01*
X120620000Y-111680000D02*
X121950000Y-111680000D01*
%TO.C,J1*%
X136990000Y-60800000D02*
X139650000Y-60800000D01*
X136990000Y-109120000D02*
X136990000Y-60800000D01*
X139650000Y-109120000D02*
X139650000Y-60800000D01*
X136990000Y-109120000D02*
X139650000Y-109120000D01*
X136990000Y-110390000D02*
X136990000Y-111720000D01*
X136990000Y-111720000D02*
X138320000Y-111720000D01*
%TO.C,C15*%
X129270000Y-100741078D02*
X129270000Y-100223922D01*
X127850000Y-100741078D02*
X127850000Y-100223922D01*
%TO.C,C14*%
X125360000Y-72906078D02*
X125360000Y-72388922D01*
X123940000Y-72906078D02*
X123940000Y-72388922D01*
%TO.C,C13*%
X136300000Y-78066078D02*
X136300000Y-77548922D01*
X134880000Y-78066078D02*
X134880000Y-77548922D01*
%TO.C,C12*%
X127740000Y-72906078D02*
X127740000Y-72388922D01*
X126320000Y-72906078D02*
X126320000Y-72388922D01*
%TO.C,C11*%
X136110000Y-86411078D02*
X136110000Y-85893922D01*
X134690000Y-86411078D02*
X134690000Y-85893922D01*
%TO.C,C10*%
X124650000Y-96053922D02*
X124650000Y-96571078D01*
X126070000Y-96053922D02*
X126070000Y-96571078D01*
%TO.C,C9*%
X134300000Y-78066078D02*
X134300000Y-77548922D01*
X132880000Y-78066078D02*
X132880000Y-77548922D01*
%TO.C,C8*%
X126770000Y-77568578D02*
X126770000Y-77051422D01*
X125350000Y-77568578D02*
X125350000Y-77051422D01*
%TO.C,C7*%
X131320000Y-100756078D02*
X131320000Y-100238922D01*
X129900000Y-100756078D02*
X129900000Y-100238922D01*
%TO.C,C6*%
X126820000Y-106683922D02*
X126820000Y-107201078D01*
X128240000Y-106683922D02*
X128240000Y-107201078D01*
%TO.C,C5*%
X136750000Y-96421078D02*
X136750000Y-95903922D01*
X135330000Y-96421078D02*
X135330000Y-95903922D01*
%TO.C,C4*%
X126400000Y-91223922D02*
X126400000Y-91741078D01*
X127820000Y-91223922D02*
X127820000Y-91741078D01*
%TO.C,C3*%
X131970000Y-91741078D02*
X131970000Y-91223922D01*
X130550000Y-91741078D02*
X130550000Y-91223922D01*
%TO.C,C2*%
X125330000Y-107286078D02*
X125330000Y-106768922D01*
X123910000Y-107286078D02*
X123910000Y-106768922D01*
%TO.C,C1*%
X132270000Y-78088578D02*
X132270000Y-77571422D01*
X130850000Y-78088578D02*
X130850000Y-77571422D01*
%TO.C,U2*%
D12*
X131921003Y-85939885D02*
X132240656Y-85939885D01*
X132278262Y-85958688D01*
X132297065Y-85977491D01*
X132315868Y-86015097D01*
X132315868Y-86090310D01*
X132297065Y-86127916D01*
X132278262Y-86146719D01*
X132240656Y-86165522D01*
X131921003Y-86165522D01*
X131958609Y-86334750D02*
X131939806Y-86353553D01*
X131921003Y-86391159D01*
X131921003Y-86485175D01*
X131939806Y-86522781D01*
X131958609Y-86541584D01*
X131996215Y-86560387D01*
X132033821Y-86560387D01*
X132090231Y-86541584D01*
X132315868Y-86315947D01*
X132315868Y-86560387D01*
%TO.C,R9*%
D13*
X132112380Y-81693333D02*
X131636190Y-81360000D01*
X132112380Y-81121904D02*
X131112380Y-81121904D01*
X131112380Y-81502857D01*
X131160000Y-81598095D01*
X131207619Y-81645714D01*
X131302857Y-81693333D01*
X131445714Y-81693333D01*
X131540952Y-81645714D01*
X131588571Y-81598095D01*
X131636190Y-81502857D01*
X131636190Y-81121904D01*
X132112380Y-82169523D02*
X132112380Y-82360000D01*
X132064761Y-82455238D01*
X132017142Y-82502857D01*
X131874285Y-82598095D01*
X131683809Y-82645714D01*
X131302857Y-82645714D01*
X131207619Y-82598095D01*
X131160000Y-82550476D01*
X131112380Y-82455238D01*
X131112380Y-82264761D01*
X131160000Y-82169523D01*
X131207619Y-82121904D01*
X131302857Y-82074285D01*
X131540952Y-82074285D01*
X131636190Y-82121904D01*
X131683809Y-82169523D01*
X131731428Y-82264761D01*
X131731428Y-82455238D01*
X131683809Y-82550476D01*
X131636190Y-82598095D01*
X131540952Y-82645714D01*
%TO.C,R8*%
X131492380Y-72413333D02*
X131016190Y-72080000D01*
X131492380Y-71841904D02*
X130492380Y-71841904D01*
X130492380Y-72222857D01*
X130540000Y-72318095D01*
X130587619Y-72365714D01*
X130682857Y-72413333D01*
X130825714Y-72413333D01*
X130920952Y-72365714D01*
X130968571Y-72318095D01*
X131016190Y-72222857D01*
X131016190Y-71841904D01*
X130920952Y-72984761D02*
X130873333Y-72889523D01*
X130825714Y-72841904D01*
X130730476Y-72794285D01*
X130682857Y-72794285D01*
X130587619Y-72841904D01*
X130540000Y-72889523D01*
X130492380Y-72984761D01*
X130492380Y-73175238D01*
X130540000Y-73270476D01*
X130587619Y-73318095D01*
X130682857Y-73365714D01*
X130730476Y-73365714D01*
X130825714Y-73318095D01*
X130873333Y-73270476D01*
X130920952Y-73175238D01*
X130920952Y-72984761D01*
X130968571Y-72889523D01*
X131016190Y-72841904D01*
X131111428Y-72794285D01*
X131301904Y-72794285D01*
X131397142Y-72841904D01*
X131444761Y-72889523D01*
X131492380Y-72984761D01*
X131492380Y-73175238D01*
X131444761Y-73270476D01*
X131397142Y-73318095D01*
X131301904Y-73365714D01*
X131111428Y-73365714D01*
X131016190Y-73318095D01*
X130968571Y-73270476D01*
X130920952Y-73175238D01*
%TO.C,R7*%
X123612380Y-81585833D02*
X123136190Y-81252500D01*
X123612380Y-81014404D02*
X122612380Y-81014404D01*
X122612380Y-81395357D01*
X122660000Y-81490595D01*
X122707619Y-81538214D01*
X122802857Y-81585833D01*
X122945714Y-81585833D01*
X123040952Y-81538214D01*
X123088571Y-81490595D01*
X123136190Y-81395357D01*
X123136190Y-81014404D01*
X122612380Y-81919166D02*
X122612380Y-82585833D01*
X123612380Y-82157261D01*
%TO.C,R6*%
X126102380Y-63123333D02*
X125626190Y-62790000D01*
X126102380Y-62551904D02*
X125102380Y-62551904D01*
X125102380Y-62932857D01*
X125150000Y-63028095D01*
X125197619Y-63075714D01*
X125292857Y-63123333D01*
X125435714Y-63123333D01*
X125530952Y-63075714D01*
X125578571Y-63028095D01*
X125626190Y-62932857D01*
X125626190Y-62551904D01*
X125102380Y-63980476D02*
X125102380Y-63790000D01*
X125150000Y-63694761D01*
X125197619Y-63647142D01*
X125340476Y-63551904D01*
X125530952Y-63504285D01*
X125911904Y-63504285D01*
X126007142Y-63551904D01*
X126054761Y-63599523D01*
X126102380Y-63694761D01*
X126102380Y-63885238D01*
X126054761Y-63980476D01*
X126007142Y-64028095D01*
X125911904Y-64075714D01*
X125673809Y-64075714D01*
X125578571Y-64028095D01*
X125530952Y-63980476D01*
X125483333Y-63885238D01*
X125483333Y-63694761D01*
X125530952Y-63599523D01*
X125578571Y-63551904D01*
X125673809Y-63504285D01*
%TO.C,R5*%
X123682380Y-63120833D02*
X123206190Y-62787500D01*
X123682380Y-62549404D02*
X122682380Y-62549404D01*
X122682380Y-62930357D01*
X122730000Y-63025595D01*
X122777619Y-63073214D01*
X122872857Y-63120833D01*
X123015714Y-63120833D01*
X123110952Y-63073214D01*
X123158571Y-63025595D01*
X123206190Y-62930357D01*
X123206190Y-62549404D01*
X122682380Y-64025595D02*
X122682380Y-63549404D01*
X123158571Y-63501785D01*
X123110952Y-63549404D01*
X123063333Y-63644642D01*
X123063333Y-63882738D01*
X123110952Y-63977976D01*
X123158571Y-64025595D01*
X123253809Y-64073214D01*
X123491904Y-64073214D01*
X123587142Y-64025595D01*
X123634761Y-63977976D01*
X123682380Y-63882738D01*
X123682380Y-63644642D01*
X123634761Y-63549404D01*
X123587142Y-63501785D01*
%TO.C,R4*%
X136592380Y-106905833D02*
X136116190Y-106572500D01*
X136592380Y-106334404D02*
X135592380Y-106334404D01*
X135592380Y-106715357D01*
X135640000Y-106810595D01*
X135687619Y-106858214D01*
X135782857Y-106905833D01*
X135925714Y-106905833D01*
X136020952Y-106858214D01*
X136068571Y-106810595D01*
X136116190Y-106715357D01*
X136116190Y-106334404D01*
X135925714Y-107762976D02*
X136592380Y-107762976D01*
X135544761Y-107524880D02*
X136259047Y-107286785D01*
X136259047Y-107905833D01*
%TO.C,R3*%
X131382380Y-100360833D02*
X130906190Y-100027500D01*
X131382380Y-99789404D02*
X130382380Y-99789404D01*
X130382380Y-100170357D01*
X130430000Y-100265595D01*
X130477619Y-100313214D01*
X130572857Y-100360833D01*
X130715714Y-100360833D01*
X130810952Y-100313214D01*
X130858571Y-100265595D01*
X130906190Y-100170357D01*
X130906190Y-99789404D01*
X130382380Y-100694166D02*
X130382380Y-101313214D01*
X130763333Y-100979880D01*
X130763333Y-101122738D01*
X130810952Y-101217976D01*
X130858571Y-101265595D01*
X130953809Y-101313214D01*
X131191904Y-101313214D01*
X131287142Y-101265595D01*
X131334761Y-101217976D01*
X131382380Y-101122738D01*
X131382380Y-100837023D01*
X131334761Y-100741785D01*
X131287142Y-100694166D01*
%TO.C,R2*%
X131272380Y-91285833D02*
X130796190Y-90952500D01*
X131272380Y-90714404D02*
X130272380Y-90714404D01*
X130272380Y-91095357D01*
X130320000Y-91190595D01*
X130367619Y-91238214D01*
X130462857Y-91285833D01*
X130605714Y-91285833D01*
X130700952Y-91238214D01*
X130748571Y-91190595D01*
X130796190Y-91095357D01*
X130796190Y-90714404D01*
X130367619Y-91666785D02*
X130320000Y-91714404D01*
X130272380Y-91809642D01*
X130272380Y-92047738D01*
X130320000Y-92142976D01*
X130367619Y-92190595D01*
X130462857Y-92238214D01*
X130558095Y-92238214D01*
X130700952Y-92190595D01*
X131272380Y-91619166D01*
X131272380Y-92238214D01*
%TO.C,R1*%
X137532380Y-81673333D02*
X137056190Y-81340000D01*
X137532380Y-81101904D02*
X136532380Y-81101904D01*
X136532380Y-81482857D01*
X136580000Y-81578095D01*
X136627619Y-81625714D01*
X136722857Y-81673333D01*
X136865714Y-81673333D01*
X136960952Y-81625714D01*
X137008571Y-81578095D01*
X137056190Y-81482857D01*
X137056190Y-81101904D01*
X137532380Y-82625714D02*
X137532380Y-82054285D01*
X137532380Y-82340000D02*
X136532380Y-82340000D01*
X136675238Y-82244761D01*
X136770476Y-82149523D01*
X136818095Y-82054285D01*
%TO.C,J2*%
X122283333Y-112132380D02*
X122283333Y-112846666D01*
X122330952Y-112989523D01*
X122426190Y-113084761D01*
X122569047Y-113132380D01*
X122664285Y-113132380D01*
X121854761Y-112227619D02*
X121807142Y-112180000D01*
X121711904Y-112132380D01*
X121473809Y-112132380D01*
X121378571Y-112180000D01*
X121330952Y-112227619D01*
X121283333Y-112322857D01*
X121283333Y-112418095D01*
X121330952Y-112560952D01*
X121902380Y-113132380D01*
X121283333Y-113132380D01*
%TO.C,J1*%
X138653333Y-112172380D02*
X138653333Y-112886666D01*
X138700952Y-113029523D01*
X138796190Y-113124761D01*
X138939047Y-113172380D01*
X139034285Y-113172380D01*
X137653333Y-113172380D02*
X138224761Y-113172380D01*
X137939047Y-113172380D02*
X137939047Y-112172380D01*
X138034285Y-112315238D01*
X138129523Y-112410476D01*
X138224761Y-112458095D01*
%TO.C,C15*%
X130567142Y-99839642D02*
X130614761Y-99792023D01*
X130662380Y-99649166D01*
X130662380Y-99553928D01*
X130614761Y-99411071D01*
X130519523Y-99315833D01*
X130424285Y-99268214D01*
X130233809Y-99220595D01*
X130090952Y-99220595D01*
X129900476Y-99268214D01*
X129805238Y-99315833D01*
X129710000Y-99411071D01*
X129662380Y-99553928D01*
X129662380Y-99649166D01*
X129710000Y-99792023D01*
X129757619Y-99839642D01*
X130662380Y-100792023D02*
X130662380Y-100220595D01*
X130662380Y-100506309D02*
X129662380Y-100506309D01*
X129805238Y-100411071D01*
X129900476Y-100315833D01*
X129948095Y-100220595D01*
X129662380Y-101696785D02*
X129662380Y-101220595D01*
X130138571Y-101172976D01*
X130090952Y-101220595D01*
X130043333Y-101315833D01*
X130043333Y-101553928D01*
X130090952Y-101649166D01*
X130138571Y-101696785D01*
X130233809Y-101744404D01*
X130471904Y-101744404D01*
X130567142Y-101696785D01*
X130614761Y-101649166D01*
X130662380Y-101553928D01*
X130662380Y-101315833D01*
X130614761Y-101220595D01*
X130567142Y-101172976D01*
%TO.C,C14*%
X126657142Y-72004642D02*
X126704761Y-71957023D01*
X126752380Y-71814166D01*
X126752380Y-71718928D01*
X126704761Y-71576071D01*
X126609523Y-71480833D01*
X126514285Y-71433214D01*
X126323809Y-71385595D01*
X126180952Y-71385595D01*
X125990476Y-71433214D01*
X125895238Y-71480833D01*
X125800000Y-71576071D01*
X125752380Y-71718928D01*
X125752380Y-71814166D01*
X125800000Y-71957023D01*
X125847619Y-72004642D01*
X126752380Y-72957023D02*
X126752380Y-72385595D01*
X126752380Y-72671309D02*
X125752380Y-72671309D01*
X125895238Y-72576071D01*
X125990476Y-72480833D01*
X126038095Y-72385595D01*
X126085714Y-73814166D02*
X126752380Y-73814166D01*
X125704761Y-73576071D02*
X126419047Y-73337976D01*
X126419047Y-73957023D01*
%TO.C,C13*%
X137597142Y-77164642D02*
X137644761Y-77117023D01*
X137692380Y-76974166D01*
X137692380Y-76878928D01*
X137644761Y-76736071D01*
X137549523Y-76640833D01*
X137454285Y-76593214D01*
X137263809Y-76545595D01*
X137120952Y-76545595D01*
X136930476Y-76593214D01*
X136835238Y-76640833D01*
X136740000Y-76736071D01*
X136692380Y-76878928D01*
X136692380Y-76974166D01*
X136740000Y-77117023D01*
X136787619Y-77164642D01*
X137692380Y-78117023D02*
X137692380Y-77545595D01*
X137692380Y-77831309D02*
X136692380Y-77831309D01*
X136835238Y-77736071D01*
X136930476Y-77640833D01*
X136978095Y-77545595D01*
X136692380Y-78450357D02*
X136692380Y-79069404D01*
X137073333Y-78736071D01*
X137073333Y-78878928D01*
X137120952Y-78974166D01*
X137168571Y-79021785D01*
X137263809Y-79069404D01*
X137501904Y-79069404D01*
X137597142Y-79021785D01*
X137644761Y-78974166D01*
X137692380Y-78878928D01*
X137692380Y-78593214D01*
X137644761Y-78497976D01*
X137597142Y-78450357D01*
%TO.C,C12*%
X129037142Y-72004642D02*
X129084761Y-71957023D01*
X129132380Y-71814166D01*
X129132380Y-71718928D01*
X129084761Y-71576071D01*
X128989523Y-71480833D01*
X128894285Y-71433214D01*
X128703809Y-71385595D01*
X128560952Y-71385595D01*
X128370476Y-71433214D01*
X128275238Y-71480833D01*
X128180000Y-71576071D01*
X128132380Y-71718928D01*
X128132380Y-71814166D01*
X128180000Y-71957023D01*
X128227619Y-72004642D01*
X129132380Y-72957023D02*
X129132380Y-72385595D01*
X129132380Y-72671309D02*
X128132380Y-72671309D01*
X128275238Y-72576071D01*
X128370476Y-72480833D01*
X128418095Y-72385595D01*
X128227619Y-73337976D02*
X128180000Y-73385595D01*
X128132380Y-73480833D01*
X128132380Y-73718928D01*
X128180000Y-73814166D01*
X128227619Y-73861785D01*
X128322857Y-73909404D01*
X128418095Y-73909404D01*
X128560952Y-73861785D01*
X129132380Y-73290357D01*
X129132380Y-73909404D01*
%TO.C,C11*%
X137407142Y-85509642D02*
X137454761Y-85462023D01*
X137502380Y-85319166D01*
X137502380Y-85223928D01*
X137454761Y-85081071D01*
X137359523Y-84985833D01*
X137264285Y-84938214D01*
X137073809Y-84890595D01*
X136930952Y-84890595D01*
X136740476Y-84938214D01*
X136645238Y-84985833D01*
X136550000Y-85081071D01*
X136502380Y-85223928D01*
X136502380Y-85319166D01*
X136550000Y-85462023D01*
X136597619Y-85509642D01*
X137502380Y-86462023D02*
X137502380Y-85890595D01*
X137502380Y-86176309D02*
X136502380Y-86176309D01*
X136645238Y-86081071D01*
X136740476Y-85985833D01*
X136788095Y-85890595D01*
X137502380Y-87414404D02*
X137502380Y-86842976D01*
X137502380Y-87128690D02*
X136502380Y-87128690D01*
X136645238Y-87033452D01*
X136740476Y-86938214D01*
X136788095Y-86842976D01*
%TO.C,C10*%
X124067142Y-95669642D02*
X124114761Y-95622023D01*
X124162380Y-95479166D01*
X124162380Y-95383928D01*
X124114761Y-95241071D01*
X124019523Y-95145833D01*
X123924285Y-95098214D01*
X123733809Y-95050595D01*
X123590952Y-95050595D01*
X123400476Y-95098214D01*
X123305238Y-95145833D01*
X123210000Y-95241071D01*
X123162380Y-95383928D01*
X123162380Y-95479166D01*
X123210000Y-95622023D01*
X123257619Y-95669642D01*
X124162380Y-96622023D02*
X124162380Y-96050595D01*
X124162380Y-96336309D02*
X123162380Y-96336309D01*
X123305238Y-96241071D01*
X123400476Y-96145833D01*
X123448095Y-96050595D01*
X123162380Y-97241071D02*
X123162380Y-97336309D01*
X123210000Y-97431547D01*
X123257619Y-97479166D01*
X123352857Y-97526785D01*
X123543333Y-97574404D01*
X123781428Y-97574404D01*
X123971904Y-97526785D01*
X124067142Y-97479166D01*
X124114761Y-97431547D01*
X124162380Y-97336309D01*
X124162380Y-97241071D01*
X124114761Y-97145833D01*
X124067142Y-97098214D01*
X123971904Y-97050595D01*
X123781428Y-97002976D01*
X123543333Y-97002976D01*
X123352857Y-97050595D01*
X123257619Y-97098214D01*
X123210000Y-97145833D01*
X123162380Y-97241071D01*
%TO.C,C9*%
X135597142Y-77640833D02*
X135644761Y-77593214D01*
X135692380Y-77450357D01*
X135692380Y-77355119D01*
X135644761Y-77212261D01*
X135549523Y-77117023D01*
X135454285Y-77069404D01*
X135263809Y-77021785D01*
X135120952Y-77021785D01*
X134930476Y-77069404D01*
X134835238Y-77117023D01*
X134740000Y-77212261D01*
X134692380Y-77355119D01*
X134692380Y-77450357D01*
X134740000Y-77593214D01*
X134787619Y-77640833D01*
X135692380Y-78117023D02*
X135692380Y-78307500D01*
X135644761Y-78402738D01*
X135597142Y-78450357D01*
X135454285Y-78545595D01*
X135263809Y-78593214D01*
X134882857Y-78593214D01*
X134787619Y-78545595D01*
X134740000Y-78497976D01*
X134692380Y-78402738D01*
X134692380Y-78212261D01*
X134740000Y-78117023D01*
X134787619Y-78069404D01*
X134882857Y-78021785D01*
X135120952Y-78021785D01*
X135216190Y-78069404D01*
X135263809Y-78117023D01*
X135311428Y-78212261D01*
X135311428Y-78402738D01*
X135263809Y-78497976D01*
X135216190Y-78545595D01*
X135120952Y-78593214D01*
%TO.C,C8*%
X128067142Y-77143333D02*
X128114761Y-77095714D01*
X128162380Y-76952857D01*
X128162380Y-76857619D01*
X128114761Y-76714761D01*
X128019523Y-76619523D01*
X127924285Y-76571904D01*
X127733809Y-76524285D01*
X127590952Y-76524285D01*
X127400476Y-76571904D01*
X127305238Y-76619523D01*
X127210000Y-76714761D01*
X127162380Y-76857619D01*
X127162380Y-76952857D01*
X127210000Y-77095714D01*
X127257619Y-77143333D01*
X127590952Y-77714761D02*
X127543333Y-77619523D01*
X127495714Y-77571904D01*
X127400476Y-77524285D01*
X127352857Y-77524285D01*
X127257619Y-77571904D01*
X127210000Y-77619523D01*
X127162380Y-77714761D01*
X127162380Y-77905238D01*
X127210000Y-78000476D01*
X127257619Y-78048095D01*
X127352857Y-78095714D01*
X127400476Y-78095714D01*
X127495714Y-78048095D01*
X127543333Y-78000476D01*
X127590952Y-77905238D01*
X127590952Y-77714761D01*
X127638571Y-77619523D01*
X127686190Y-77571904D01*
X127781428Y-77524285D01*
X127971904Y-77524285D01*
X128067142Y-77571904D01*
X128114761Y-77619523D01*
X128162380Y-77714761D01*
X128162380Y-77905238D01*
X128114761Y-78000476D01*
X128067142Y-78048095D01*
X127971904Y-78095714D01*
X127781428Y-78095714D01*
X127686190Y-78048095D01*
X127638571Y-78000476D01*
X127590952Y-77905238D01*
%TO.C,C7*%
X132617142Y-100330833D02*
X132664761Y-100283214D01*
X132712380Y-100140357D01*
X132712380Y-100045119D01*
X132664761Y-99902261D01*
X132569523Y-99807023D01*
X132474285Y-99759404D01*
X132283809Y-99711785D01*
X132140952Y-99711785D01*
X131950476Y-99759404D01*
X131855238Y-99807023D01*
X131760000Y-99902261D01*
X131712380Y-100045119D01*
X131712380Y-100140357D01*
X131760000Y-100283214D01*
X131807619Y-100330833D01*
X131712380Y-100664166D02*
X131712380Y-101330833D01*
X132712380Y-100902261D01*
%TO.C,C6*%
X126237142Y-106775833D02*
X126284761Y-106728214D01*
X126332380Y-106585357D01*
X126332380Y-106490119D01*
X126284761Y-106347261D01*
X126189523Y-106252023D01*
X126094285Y-106204404D01*
X125903809Y-106156785D01*
X125760952Y-106156785D01*
X125570476Y-106204404D01*
X125475238Y-106252023D01*
X125380000Y-106347261D01*
X125332380Y-106490119D01*
X125332380Y-106585357D01*
X125380000Y-106728214D01*
X125427619Y-106775833D01*
X125332380Y-107632976D02*
X125332380Y-107442500D01*
X125380000Y-107347261D01*
X125427619Y-107299642D01*
X125570476Y-107204404D01*
X125760952Y-107156785D01*
X126141904Y-107156785D01*
X126237142Y-107204404D01*
X126284761Y-107252023D01*
X126332380Y-107347261D01*
X126332380Y-107537738D01*
X126284761Y-107632976D01*
X126237142Y-107680595D01*
X126141904Y-107728214D01*
X125903809Y-107728214D01*
X125808571Y-107680595D01*
X125760952Y-107632976D01*
X125713333Y-107537738D01*
X125713333Y-107347261D01*
X125760952Y-107252023D01*
X125808571Y-107204404D01*
X125903809Y-107156785D01*
%TO.C,C5*%
X138047142Y-95995833D02*
X138094761Y-95948214D01*
X138142380Y-95805357D01*
X138142380Y-95710119D01*
X138094761Y-95567261D01*
X137999523Y-95472023D01*
X137904285Y-95424404D01*
X137713809Y-95376785D01*
X137570952Y-95376785D01*
X137380476Y-95424404D01*
X137285238Y-95472023D01*
X137190000Y-95567261D01*
X137142380Y-95710119D01*
X137142380Y-95805357D01*
X137190000Y-95948214D01*
X137237619Y-95995833D01*
X137142380Y-96900595D02*
X137142380Y-96424404D01*
X137618571Y-96376785D01*
X137570952Y-96424404D01*
X137523333Y-96519642D01*
X137523333Y-96757738D01*
X137570952Y-96852976D01*
X137618571Y-96900595D01*
X137713809Y-96948214D01*
X137951904Y-96948214D01*
X138047142Y-96900595D01*
X138094761Y-96852976D01*
X138142380Y-96757738D01*
X138142380Y-96519642D01*
X138094761Y-96424404D01*
X138047142Y-96376785D01*
%TO.C,C4*%
X125817142Y-91315833D02*
X125864761Y-91268214D01*
X125912380Y-91125357D01*
X125912380Y-91030119D01*
X125864761Y-90887261D01*
X125769523Y-90792023D01*
X125674285Y-90744404D01*
X125483809Y-90696785D01*
X125340952Y-90696785D01*
X125150476Y-90744404D01*
X125055238Y-90792023D01*
X124960000Y-90887261D01*
X124912380Y-91030119D01*
X124912380Y-91125357D01*
X124960000Y-91268214D01*
X125007619Y-91315833D01*
X125245714Y-92172976D02*
X125912380Y-92172976D01*
X124864761Y-91934880D02*
X125579047Y-91696785D01*
X125579047Y-92315833D01*
%TO.C,C3*%
X133267142Y-91315833D02*
X133314761Y-91268214D01*
X133362380Y-91125357D01*
X133362380Y-91030119D01*
X133314761Y-90887261D01*
X133219523Y-90792023D01*
X133124285Y-90744404D01*
X132933809Y-90696785D01*
X132790952Y-90696785D01*
X132600476Y-90744404D01*
X132505238Y-90792023D01*
X132410000Y-90887261D01*
X132362380Y-91030119D01*
X132362380Y-91125357D01*
X132410000Y-91268214D01*
X132457619Y-91315833D01*
X132362380Y-91649166D02*
X132362380Y-92268214D01*
X132743333Y-91934880D01*
X132743333Y-92077738D01*
X132790952Y-92172976D01*
X132838571Y-92220595D01*
X132933809Y-92268214D01*
X133171904Y-92268214D01*
X133267142Y-92220595D01*
X133314761Y-92172976D01*
X133362380Y-92077738D01*
X133362380Y-91792023D01*
X133314761Y-91696785D01*
X133267142Y-91649166D01*
%TO.C,C2*%
X126627142Y-106860833D02*
X126674761Y-106813214D01*
X126722380Y-106670357D01*
X126722380Y-106575119D01*
X126674761Y-106432261D01*
X126579523Y-106337023D01*
X126484285Y-106289404D01*
X126293809Y-106241785D01*
X126150952Y-106241785D01*
X125960476Y-106289404D01*
X125865238Y-106337023D01*
X125770000Y-106432261D01*
X125722380Y-106575119D01*
X125722380Y-106670357D01*
X125770000Y-106813214D01*
X125817619Y-106860833D01*
X125817619Y-107241785D02*
X125770000Y-107289404D01*
X125722380Y-107384642D01*
X125722380Y-107622738D01*
X125770000Y-107717976D01*
X125817619Y-107765595D01*
X125912857Y-107813214D01*
X126008095Y-107813214D01*
X126150952Y-107765595D01*
X126722380Y-107194166D01*
X126722380Y-107813214D01*
%TO.C,C1*%
X133567142Y-77663333D02*
X133614761Y-77615714D01*
X133662380Y-77472857D01*
X133662380Y-77377619D01*
X133614761Y-77234761D01*
X133519523Y-77139523D01*
X133424285Y-77091904D01*
X133233809Y-77044285D01*
X133090952Y-77044285D01*
X132900476Y-77091904D01*
X132805238Y-77139523D01*
X132710000Y-77234761D01*
X132662380Y-77377619D01*
X132662380Y-77472857D01*
X132710000Y-77615714D01*
X132757619Y-77663333D01*
X133662380Y-78615714D02*
X133662380Y-78044285D01*
X133662380Y-78330000D02*
X132662380Y-78330000D01*
X132805238Y-78234761D01*
X132900476Y-78139523D01*
X132948095Y-78044285D01*
%TD*%
M02*
