%TF.GenerationSoftware,KiCad,Pcbnew,(5.1.6)-1*%
%TF.CreationDate,2020-09-14T14:29:29+02:00*%
%TF.ProjectId,STM32_blue_pill,53544d33-325f-4626-9c75-655f70696c6c,rev?*%
%TF.SameCoordinates,Original*%
%TF.FileFunction,Copper,L1,Top*%
%TF.FilePolarity,Positive*%
%FSLAX46Y46*%
G04 Gerber Fmt 4.6, Leading zero omitted, Abs format (unit mm)*
G04 Created by KiCad (PCBNEW (5.1.6)-1) date 2020-09-14 14:29:29*
%MOMM*%
%LPD*%
G01*
G04 APERTURE LIST*
%TA.AperFunction,SMDPad,CuDef*%
%ADD10R,1.000000X1.900000*%
%TD*%
%TA.AperFunction,SMDPad,CuDef*%
%ADD11R,1.800000X1.900000*%
%TD*%
%TA.AperFunction,SMDPad,CuDef*%
%ADD12R,1.650000X1.300000*%
%TD*%
%TA.AperFunction,SMDPad,CuDef*%
%ADD13R,1.425000X1.550000*%
%TD*%
%TA.AperFunction,SMDPad,CuDef*%
%ADD14R,0.450000X1.380000*%
%TD*%
%TA.AperFunction,SMDPad,CuDef*%
%ADD15R,1.000000X0.900000*%
%TD*%
%TA.AperFunction,SMDPad,CuDef*%
%ADD16R,1.100000X1.050000*%
%TD*%
%TA.AperFunction,SMDPad,CuDef*%
%ADD17R,1.900000X2.500000*%
%TD*%
%TA.AperFunction,ComponentPad*%
%ADD18O,1.700000X1.700000*%
%TD*%
%TA.AperFunction,ComponentPad*%
%ADD19R,1.700000X1.700000*%
%TD*%
%TA.AperFunction,ViaPad*%
%ADD20C,0.800000*%
%TD*%
%TA.AperFunction,Conductor*%
%ADD21C,0.250000*%
%TD*%
G04 APERTURE END LIST*
D10*
%TO.P,J3,6*%
%TO.N,Net-(J3-Pad6)*%
X128880000Y-62410000D03*
D11*
X131580000Y-62410000D03*
D12*
X127055000Y-62410000D03*
X133805000Y-62410000D03*
D13*
X127942500Y-64985000D03*
X132917500Y-64985000D03*
D14*
%TO.P,J3,5*%
%TO.N,GND*%
X129130000Y-65070000D03*
%TO.P,J3,4*%
X129780000Y-65070000D03*
%TO.P,J3,3*%
%TO.N,Net-(J3-Pad3)*%
X130430000Y-65070000D03*
%TO.P,J3,2*%
%TO.N,Net-(J3-Pad2)*%
X131080000Y-65070000D03*
%TO.P,J3,1*%
%TO.N,/5V*%
X131730000Y-65070000D03*
%TD*%
D15*
%TO.P,SW1,2*%
%TO.N,GND*%
X129000000Y-70240000D03*
%TO.P,SW1,1*%
X127400000Y-70240000D03*
%TO.P,SW1,2*%
X129000000Y-74340000D03*
%TO.P,SW1,1*%
X127400000Y-74340000D03*
%TD*%
D16*
%TO.P,Y2,2*%
%TO.N,/PC15*%
X133260000Y-104810000D03*
%TO.P,Y2,1*%
%TO.N,/PC14*%
X133260000Y-106660000D03*
%TD*%
D17*
%TO.P,Y1,2*%
%TO.N,/OSCOUT*%
X128310000Y-97370000D03*
%TO.P,Y1,1*%
%TO.N,/OSCIN*%
X132710000Y-97370000D03*
%TD*%
%TO.P,U1,48*%
%TO.N,/3V3*%
%TA.AperFunction,SMDPad,CuDef*%
G36*
G01*
X129546948Y-91407608D02*
X128610032Y-92344524D01*
G75*
G02*
X128503966Y-92344524I-53033J53033D01*
G01*
X128397900Y-92238458D01*
G75*
G02*
X128397900Y-92132392I53033J53033D01*
G01*
X129334816Y-91195476D01*
G75*
G02*
X129440882Y-91195476I53033J-53033D01*
G01*
X129546948Y-91301542D01*
G75*
G02*
X129546948Y-91407608I-53033J-53033D01*
G01*
G37*
%TD.AperFunction*%
%TO.P,U1,47*%
%TO.N,GND*%
%TA.AperFunction,SMDPad,CuDef*%
G36*
G01*
X129193394Y-91054054D02*
X128256478Y-91990970D01*
G75*
G02*
X128150412Y-91990970I-53033J53033D01*
G01*
X128044346Y-91884904D01*
G75*
G02*
X128044346Y-91778838I53033J53033D01*
G01*
X128981262Y-90841922D01*
G75*
G02*
X129087328Y-90841922I53033J-53033D01*
G01*
X129193394Y-90947988D01*
G75*
G02*
X129193394Y-91054054I-53033J-53033D01*
G01*
G37*
%TD.AperFunction*%
%TO.P,U1,46*%
%TO.N,/PB9*%
%TA.AperFunction,SMDPad,CuDef*%
G36*
G01*
X128839841Y-90700501D02*
X127902925Y-91637417D01*
G75*
G02*
X127796859Y-91637417I-53033J53033D01*
G01*
X127690793Y-91531351D01*
G75*
G02*
X127690793Y-91425285I53033J53033D01*
G01*
X128627709Y-90488369D01*
G75*
G02*
X128733775Y-90488369I53033J-53033D01*
G01*
X128839841Y-90594435D01*
G75*
G02*
X128839841Y-90700501I-53033J-53033D01*
G01*
G37*
%TD.AperFunction*%
%TO.P,U1,45*%
%TO.N,/PB8*%
%TA.AperFunction,SMDPad,CuDef*%
G36*
G01*
X128486287Y-90346947D02*
X127549371Y-91283863D01*
G75*
G02*
X127443305Y-91283863I-53033J53033D01*
G01*
X127337239Y-91177797D01*
G75*
G02*
X127337239Y-91071731I53033J53033D01*
G01*
X128274155Y-90134815D01*
G75*
G02*
X128380221Y-90134815I53033J-53033D01*
G01*
X128486287Y-90240881D01*
G75*
G02*
X128486287Y-90346947I-53033J-53033D01*
G01*
G37*
%TD.AperFunction*%
%TO.P,U1,44*%
%TO.N,/BOOT0*%
%TA.AperFunction,SMDPad,CuDef*%
G36*
G01*
X128132734Y-89993394D02*
X127195818Y-90930310D01*
G75*
G02*
X127089752Y-90930310I-53033J53033D01*
G01*
X126983686Y-90824244D01*
G75*
G02*
X126983686Y-90718178I53033J53033D01*
G01*
X127920602Y-89781262D01*
G75*
G02*
X128026668Y-89781262I53033J-53033D01*
G01*
X128132734Y-89887328D01*
G75*
G02*
X128132734Y-89993394I-53033J-53033D01*
G01*
G37*
%TD.AperFunction*%
%TO.P,U1,43*%
%TO.N,/PB7*%
%TA.AperFunction,SMDPad,CuDef*%
G36*
G01*
X127779181Y-89639841D02*
X126842265Y-90576757D01*
G75*
G02*
X126736199Y-90576757I-53033J53033D01*
G01*
X126630133Y-90470691D01*
G75*
G02*
X126630133Y-90364625I53033J53033D01*
G01*
X127567049Y-89427709D01*
G75*
G02*
X127673115Y-89427709I53033J-53033D01*
G01*
X127779181Y-89533775D01*
G75*
G02*
X127779181Y-89639841I-53033J-53033D01*
G01*
G37*
%TD.AperFunction*%
%TO.P,U1,42*%
%TO.N,/PB6*%
%TA.AperFunction,SMDPad,CuDef*%
G36*
G01*
X127425627Y-89286287D02*
X126488711Y-90223203D01*
G75*
G02*
X126382645Y-90223203I-53033J53033D01*
G01*
X126276579Y-90117137D01*
G75*
G02*
X126276579Y-90011071I53033J53033D01*
G01*
X127213495Y-89074155D01*
G75*
G02*
X127319561Y-89074155I53033J-53033D01*
G01*
X127425627Y-89180221D01*
G75*
G02*
X127425627Y-89286287I-53033J-53033D01*
G01*
G37*
%TD.AperFunction*%
%TO.P,U1,41*%
%TO.N,/PB5*%
%TA.AperFunction,SMDPad,CuDef*%
G36*
G01*
X127072074Y-88932734D02*
X126135158Y-89869650D01*
G75*
G02*
X126029092Y-89869650I-53033J53033D01*
G01*
X125923026Y-89763584D01*
G75*
G02*
X125923026Y-89657518I53033J53033D01*
G01*
X126859942Y-88720602D01*
G75*
G02*
X126966008Y-88720602I53033J-53033D01*
G01*
X127072074Y-88826668D01*
G75*
G02*
X127072074Y-88932734I-53033J-53033D01*
G01*
G37*
%TD.AperFunction*%
%TO.P,U1,40*%
%TO.N,/PB4*%
%TA.AperFunction,SMDPad,CuDef*%
G36*
G01*
X126718521Y-88579181D02*
X125781605Y-89516097D01*
G75*
G02*
X125675539Y-89516097I-53033J53033D01*
G01*
X125569473Y-89410031D01*
G75*
G02*
X125569473Y-89303965I53033J53033D01*
G01*
X126506389Y-88367049D01*
G75*
G02*
X126612455Y-88367049I53033J-53033D01*
G01*
X126718521Y-88473115D01*
G75*
G02*
X126718521Y-88579181I-53033J-53033D01*
G01*
G37*
%TD.AperFunction*%
%TO.P,U1,39*%
%TO.N,/PB3*%
%TA.AperFunction,SMDPad,CuDef*%
G36*
G01*
X126364967Y-88225627D02*
X125428051Y-89162543D01*
G75*
G02*
X125321985Y-89162543I-53033J53033D01*
G01*
X125215919Y-89056477D01*
G75*
G02*
X125215919Y-88950411I53033J53033D01*
G01*
X126152835Y-88013495D01*
G75*
G02*
X126258901Y-88013495I53033J-53033D01*
G01*
X126364967Y-88119561D01*
G75*
G02*
X126364967Y-88225627I-53033J-53033D01*
G01*
G37*
%TD.AperFunction*%
%TO.P,U1,38*%
%TO.N,/PA15*%
%TA.AperFunction,SMDPad,CuDef*%
G36*
G01*
X126011414Y-87872074D02*
X125074498Y-88808990D01*
G75*
G02*
X124968432Y-88808990I-53033J53033D01*
G01*
X124862366Y-88702924D01*
G75*
G02*
X124862366Y-88596858I53033J53033D01*
G01*
X125799282Y-87659942D01*
G75*
G02*
X125905348Y-87659942I53033J-53033D01*
G01*
X126011414Y-87766008D01*
G75*
G02*
X126011414Y-87872074I-53033J-53033D01*
G01*
G37*
%TD.AperFunction*%
%TO.P,U1,37*%
%TO.N,/SWCLK*%
%TA.AperFunction,SMDPad,CuDef*%
G36*
G01*
X125657860Y-87518520D02*
X124720944Y-88455436D01*
G75*
G02*
X124614878Y-88455436I-53033J53033D01*
G01*
X124508812Y-88349370D01*
G75*
G02*
X124508812Y-88243304I53033J53033D01*
G01*
X125445728Y-87306388D01*
G75*
G02*
X125551794Y-87306388I53033J-53033D01*
G01*
X125657860Y-87412454D01*
G75*
G02*
X125657860Y-87518520I-53033J-53033D01*
G01*
G37*
%TD.AperFunction*%
%TO.P,U1,36*%
%TO.N,/3V3*%
%TA.AperFunction,SMDPad,CuDef*%
G36*
G01*
X125657860Y-86351794D02*
X125551794Y-86457860D01*
G75*
G02*
X125445728Y-86457860I-53033J53033D01*
G01*
X124508812Y-85520944D01*
G75*
G02*
X124508812Y-85414878I53033J53033D01*
G01*
X124614878Y-85308812D01*
G75*
G02*
X124720944Y-85308812I53033J-53033D01*
G01*
X125657860Y-86245728D01*
G75*
G02*
X125657860Y-86351794I-53033J-53033D01*
G01*
G37*
%TD.AperFunction*%
%TO.P,U1,35*%
%TO.N,GND*%
%TA.AperFunction,SMDPad,CuDef*%
G36*
G01*
X126011414Y-85998240D02*
X125905348Y-86104306D01*
G75*
G02*
X125799282Y-86104306I-53033J53033D01*
G01*
X124862366Y-85167390D01*
G75*
G02*
X124862366Y-85061324I53033J53033D01*
G01*
X124968432Y-84955258D01*
G75*
G02*
X125074498Y-84955258I53033J-53033D01*
G01*
X126011414Y-85892174D01*
G75*
G02*
X126011414Y-85998240I-53033J-53033D01*
G01*
G37*
%TD.AperFunction*%
%TO.P,U1,34*%
%TO.N,/SWIO*%
%TA.AperFunction,SMDPad,CuDef*%
G36*
G01*
X126364967Y-85644687D02*
X126258901Y-85750753D01*
G75*
G02*
X126152835Y-85750753I-53033J53033D01*
G01*
X125215919Y-84813837D01*
G75*
G02*
X125215919Y-84707771I53033J53033D01*
G01*
X125321985Y-84601705D01*
G75*
G02*
X125428051Y-84601705I53033J-53033D01*
G01*
X126364967Y-85538621D01*
G75*
G02*
X126364967Y-85644687I-53033J-53033D01*
G01*
G37*
%TD.AperFunction*%
%TO.P,U1,33*%
%TO.N,/PA12*%
%TA.AperFunction,SMDPad,CuDef*%
G36*
G01*
X126718521Y-85291133D02*
X126612455Y-85397199D01*
G75*
G02*
X126506389Y-85397199I-53033J53033D01*
G01*
X125569473Y-84460283D01*
G75*
G02*
X125569473Y-84354217I53033J53033D01*
G01*
X125675539Y-84248151D01*
G75*
G02*
X125781605Y-84248151I53033J-53033D01*
G01*
X126718521Y-85185067D01*
G75*
G02*
X126718521Y-85291133I-53033J-53033D01*
G01*
G37*
%TD.AperFunction*%
%TO.P,U1,32*%
%TO.N,/PA11*%
%TA.AperFunction,SMDPad,CuDef*%
G36*
G01*
X127072074Y-84937580D02*
X126966008Y-85043646D01*
G75*
G02*
X126859942Y-85043646I-53033J53033D01*
G01*
X125923026Y-84106730D01*
G75*
G02*
X125923026Y-84000664I53033J53033D01*
G01*
X126029092Y-83894598D01*
G75*
G02*
X126135158Y-83894598I53033J-53033D01*
G01*
X127072074Y-84831514D01*
G75*
G02*
X127072074Y-84937580I-53033J-53033D01*
G01*
G37*
%TD.AperFunction*%
%TO.P,U1,31*%
%TO.N,/PA10*%
%TA.AperFunction,SMDPad,CuDef*%
G36*
G01*
X127425627Y-84584027D02*
X127319561Y-84690093D01*
G75*
G02*
X127213495Y-84690093I-53033J53033D01*
G01*
X126276579Y-83753177D01*
G75*
G02*
X126276579Y-83647111I53033J53033D01*
G01*
X126382645Y-83541045D01*
G75*
G02*
X126488711Y-83541045I53033J-53033D01*
G01*
X127425627Y-84477961D01*
G75*
G02*
X127425627Y-84584027I-53033J-53033D01*
G01*
G37*
%TD.AperFunction*%
%TO.P,U1,30*%
%TO.N,/PA9*%
%TA.AperFunction,SMDPad,CuDef*%
G36*
G01*
X127779181Y-84230473D02*
X127673115Y-84336539D01*
G75*
G02*
X127567049Y-84336539I-53033J53033D01*
G01*
X126630133Y-83399623D01*
G75*
G02*
X126630133Y-83293557I53033J53033D01*
G01*
X126736199Y-83187491D01*
G75*
G02*
X126842265Y-83187491I53033J-53033D01*
G01*
X127779181Y-84124407D01*
G75*
G02*
X127779181Y-84230473I-53033J-53033D01*
G01*
G37*
%TD.AperFunction*%
%TO.P,U1,29*%
%TO.N,/PA8*%
%TA.AperFunction,SMDPad,CuDef*%
G36*
G01*
X128132734Y-83876920D02*
X128026668Y-83982986D01*
G75*
G02*
X127920602Y-83982986I-53033J53033D01*
G01*
X126983686Y-83046070D01*
G75*
G02*
X126983686Y-82940004I53033J53033D01*
G01*
X127089752Y-82833938D01*
G75*
G02*
X127195818Y-82833938I53033J-53033D01*
G01*
X128132734Y-83770854D01*
G75*
G02*
X128132734Y-83876920I-53033J-53033D01*
G01*
G37*
%TD.AperFunction*%
%TO.P,U1,28*%
%TO.N,/PB15*%
%TA.AperFunction,SMDPad,CuDef*%
G36*
G01*
X128486287Y-83523367D02*
X128380221Y-83629433D01*
G75*
G02*
X128274155Y-83629433I-53033J53033D01*
G01*
X127337239Y-82692517D01*
G75*
G02*
X127337239Y-82586451I53033J53033D01*
G01*
X127443305Y-82480385D01*
G75*
G02*
X127549371Y-82480385I53033J-53033D01*
G01*
X128486287Y-83417301D01*
G75*
G02*
X128486287Y-83523367I-53033J-53033D01*
G01*
G37*
%TD.AperFunction*%
%TO.P,U1,27*%
%TO.N,/PB14*%
%TA.AperFunction,SMDPad,CuDef*%
G36*
G01*
X128839841Y-83169813D02*
X128733775Y-83275879D01*
G75*
G02*
X128627709Y-83275879I-53033J53033D01*
G01*
X127690793Y-82338963D01*
G75*
G02*
X127690793Y-82232897I53033J53033D01*
G01*
X127796859Y-82126831D01*
G75*
G02*
X127902925Y-82126831I53033J-53033D01*
G01*
X128839841Y-83063747D01*
G75*
G02*
X128839841Y-83169813I-53033J-53033D01*
G01*
G37*
%TD.AperFunction*%
%TO.P,U1,26*%
%TO.N,/PB13*%
%TA.AperFunction,SMDPad,CuDef*%
G36*
G01*
X129193394Y-82816260D02*
X129087328Y-82922326D01*
G75*
G02*
X128981262Y-82922326I-53033J53033D01*
G01*
X128044346Y-81985410D01*
G75*
G02*
X128044346Y-81879344I53033J53033D01*
G01*
X128150412Y-81773278D01*
G75*
G02*
X128256478Y-81773278I53033J-53033D01*
G01*
X129193394Y-82710194D01*
G75*
G02*
X129193394Y-82816260I-53033J-53033D01*
G01*
G37*
%TD.AperFunction*%
%TO.P,U1,25*%
%TO.N,/PB12*%
%TA.AperFunction,SMDPad,CuDef*%
G36*
G01*
X129546948Y-82462706D02*
X129440882Y-82568772D01*
G75*
G02*
X129334816Y-82568772I-53033J53033D01*
G01*
X128397900Y-81631856D01*
G75*
G02*
X128397900Y-81525790I53033J53033D01*
G01*
X128503966Y-81419724D01*
G75*
G02*
X128610032Y-81419724I53033J-53033D01*
G01*
X129546948Y-82356640D01*
G75*
G02*
X129546948Y-82462706I-53033J-53033D01*
G01*
G37*
%TD.AperFunction*%
%TO.P,U1,24*%
%TO.N,/3V3*%
%TA.AperFunction,SMDPad,CuDef*%
G36*
G01*
X131544524Y-81631856D02*
X130607608Y-82568772D01*
G75*
G02*
X130501542Y-82568772I-53033J53033D01*
G01*
X130395476Y-82462706D01*
G75*
G02*
X130395476Y-82356640I53033J53033D01*
G01*
X131332392Y-81419724D01*
G75*
G02*
X131438458Y-81419724I53033J-53033D01*
G01*
X131544524Y-81525790D01*
G75*
G02*
X131544524Y-81631856I-53033J-53033D01*
G01*
G37*
%TD.AperFunction*%
%TO.P,U1,23*%
%TO.N,GND*%
%TA.AperFunction,SMDPad,CuDef*%
G36*
G01*
X131898078Y-81985410D02*
X130961162Y-82922326D01*
G75*
G02*
X130855096Y-82922326I-53033J53033D01*
G01*
X130749030Y-82816260D01*
G75*
G02*
X130749030Y-82710194I53033J53033D01*
G01*
X131685946Y-81773278D01*
G75*
G02*
X131792012Y-81773278I53033J-53033D01*
G01*
X131898078Y-81879344D01*
G75*
G02*
X131898078Y-81985410I-53033J-53033D01*
G01*
G37*
%TD.AperFunction*%
%TO.P,U1,22*%
%TO.N,/PB11*%
%TA.AperFunction,SMDPad,CuDef*%
G36*
G01*
X132251631Y-82338963D02*
X131314715Y-83275879D01*
G75*
G02*
X131208649Y-83275879I-53033J53033D01*
G01*
X131102583Y-83169813D01*
G75*
G02*
X131102583Y-83063747I53033J53033D01*
G01*
X132039499Y-82126831D01*
G75*
G02*
X132145565Y-82126831I53033J-53033D01*
G01*
X132251631Y-82232897D01*
G75*
G02*
X132251631Y-82338963I-53033J-53033D01*
G01*
G37*
%TD.AperFunction*%
%TO.P,U1,21*%
%TO.N,/PB10*%
%TA.AperFunction,SMDPad,CuDef*%
G36*
G01*
X132605185Y-82692517D02*
X131668269Y-83629433D01*
G75*
G02*
X131562203Y-83629433I-53033J53033D01*
G01*
X131456137Y-83523367D01*
G75*
G02*
X131456137Y-83417301I53033J53033D01*
G01*
X132393053Y-82480385D01*
G75*
G02*
X132499119Y-82480385I53033J-53033D01*
G01*
X132605185Y-82586451D01*
G75*
G02*
X132605185Y-82692517I-53033J-53033D01*
G01*
G37*
%TD.AperFunction*%
%TO.P,U1,20*%
%TO.N,/BOOT1*%
%TA.AperFunction,SMDPad,CuDef*%
G36*
G01*
X132958738Y-83046070D02*
X132021822Y-83982986D01*
G75*
G02*
X131915756Y-83982986I-53033J53033D01*
G01*
X131809690Y-83876920D01*
G75*
G02*
X131809690Y-83770854I53033J53033D01*
G01*
X132746606Y-82833938D01*
G75*
G02*
X132852672Y-82833938I53033J-53033D01*
G01*
X132958738Y-82940004D01*
G75*
G02*
X132958738Y-83046070I-53033J-53033D01*
G01*
G37*
%TD.AperFunction*%
%TO.P,U1,19*%
%TO.N,/PB1*%
%TA.AperFunction,SMDPad,CuDef*%
G36*
G01*
X133312291Y-83399623D02*
X132375375Y-84336539D01*
G75*
G02*
X132269309Y-84336539I-53033J53033D01*
G01*
X132163243Y-84230473D01*
G75*
G02*
X132163243Y-84124407I53033J53033D01*
G01*
X133100159Y-83187491D01*
G75*
G02*
X133206225Y-83187491I53033J-53033D01*
G01*
X133312291Y-83293557D01*
G75*
G02*
X133312291Y-83399623I-53033J-53033D01*
G01*
G37*
%TD.AperFunction*%
%TO.P,U1,18*%
%TO.N,/PB0*%
%TA.AperFunction,SMDPad,CuDef*%
G36*
G01*
X133665845Y-83753177D02*
X132728929Y-84690093D01*
G75*
G02*
X132622863Y-84690093I-53033J53033D01*
G01*
X132516797Y-84584027D01*
G75*
G02*
X132516797Y-84477961I53033J53033D01*
G01*
X133453713Y-83541045D01*
G75*
G02*
X133559779Y-83541045I53033J-53033D01*
G01*
X133665845Y-83647111D01*
G75*
G02*
X133665845Y-83753177I-53033J-53033D01*
G01*
G37*
%TD.AperFunction*%
%TO.P,U1,17*%
%TO.N,/PA7*%
%TA.AperFunction,SMDPad,CuDef*%
G36*
G01*
X134019398Y-84106730D02*
X133082482Y-85043646D01*
G75*
G02*
X132976416Y-85043646I-53033J53033D01*
G01*
X132870350Y-84937580D01*
G75*
G02*
X132870350Y-84831514I53033J53033D01*
G01*
X133807266Y-83894598D01*
G75*
G02*
X133913332Y-83894598I53033J-53033D01*
G01*
X134019398Y-84000664D01*
G75*
G02*
X134019398Y-84106730I-53033J-53033D01*
G01*
G37*
%TD.AperFunction*%
%TO.P,U1,16*%
%TO.N,/PA6*%
%TA.AperFunction,SMDPad,CuDef*%
G36*
G01*
X134372951Y-84460283D02*
X133436035Y-85397199D01*
G75*
G02*
X133329969Y-85397199I-53033J53033D01*
G01*
X133223903Y-85291133D01*
G75*
G02*
X133223903Y-85185067I53033J53033D01*
G01*
X134160819Y-84248151D01*
G75*
G02*
X134266885Y-84248151I53033J-53033D01*
G01*
X134372951Y-84354217D01*
G75*
G02*
X134372951Y-84460283I-53033J-53033D01*
G01*
G37*
%TD.AperFunction*%
%TO.P,U1,15*%
%TO.N,/PA5*%
%TA.AperFunction,SMDPad,CuDef*%
G36*
G01*
X134726505Y-84813837D02*
X133789589Y-85750753D01*
G75*
G02*
X133683523Y-85750753I-53033J53033D01*
G01*
X133577457Y-85644687D01*
G75*
G02*
X133577457Y-85538621I53033J53033D01*
G01*
X134514373Y-84601705D01*
G75*
G02*
X134620439Y-84601705I53033J-53033D01*
G01*
X134726505Y-84707771D01*
G75*
G02*
X134726505Y-84813837I-53033J-53033D01*
G01*
G37*
%TD.AperFunction*%
%TO.P,U1,14*%
%TO.N,/PA4*%
%TA.AperFunction,SMDPad,CuDef*%
G36*
G01*
X135080058Y-85167390D02*
X134143142Y-86104306D01*
G75*
G02*
X134037076Y-86104306I-53033J53033D01*
G01*
X133931010Y-85998240D01*
G75*
G02*
X133931010Y-85892174I53033J53033D01*
G01*
X134867926Y-84955258D01*
G75*
G02*
X134973992Y-84955258I53033J-53033D01*
G01*
X135080058Y-85061324D01*
G75*
G02*
X135080058Y-85167390I-53033J-53033D01*
G01*
G37*
%TD.AperFunction*%
%TO.P,U1,13*%
%TO.N,/PA3*%
%TA.AperFunction,SMDPad,CuDef*%
G36*
G01*
X135433612Y-85520944D02*
X134496696Y-86457860D01*
G75*
G02*
X134390630Y-86457860I-53033J53033D01*
G01*
X134284564Y-86351794D01*
G75*
G02*
X134284564Y-86245728I53033J53033D01*
G01*
X135221480Y-85308812D01*
G75*
G02*
X135327546Y-85308812I53033J-53033D01*
G01*
X135433612Y-85414878D01*
G75*
G02*
X135433612Y-85520944I-53033J-53033D01*
G01*
G37*
%TD.AperFunction*%
%TO.P,U1,12*%
%TO.N,/PA2*%
%TA.AperFunction,SMDPad,CuDef*%
G36*
G01*
X135433612Y-88349370D02*
X135327546Y-88455436D01*
G75*
G02*
X135221480Y-88455436I-53033J53033D01*
G01*
X134284564Y-87518520D01*
G75*
G02*
X134284564Y-87412454I53033J53033D01*
G01*
X134390630Y-87306388D01*
G75*
G02*
X134496696Y-87306388I53033J-53033D01*
G01*
X135433612Y-88243304D01*
G75*
G02*
X135433612Y-88349370I-53033J-53033D01*
G01*
G37*
%TD.AperFunction*%
%TO.P,U1,11*%
%TO.N,/PA1*%
%TA.AperFunction,SMDPad,CuDef*%
G36*
G01*
X135080058Y-88702924D02*
X134973992Y-88808990D01*
G75*
G02*
X134867926Y-88808990I-53033J53033D01*
G01*
X133931010Y-87872074D01*
G75*
G02*
X133931010Y-87766008I53033J53033D01*
G01*
X134037076Y-87659942D01*
G75*
G02*
X134143142Y-87659942I53033J-53033D01*
G01*
X135080058Y-88596858D01*
G75*
G02*
X135080058Y-88702924I-53033J-53033D01*
G01*
G37*
%TD.AperFunction*%
%TO.P,U1,10*%
%TO.N,/PA0*%
%TA.AperFunction,SMDPad,CuDef*%
G36*
G01*
X134726505Y-89056477D02*
X134620439Y-89162543D01*
G75*
G02*
X134514373Y-89162543I-53033J53033D01*
G01*
X133577457Y-88225627D01*
G75*
G02*
X133577457Y-88119561I53033J53033D01*
G01*
X133683523Y-88013495D01*
G75*
G02*
X133789589Y-88013495I53033J-53033D01*
G01*
X134726505Y-88950411D01*
G75*
G02*
X134726505Y-89056477I-53033J-53033D01*
G01*
G37*
%TD.AperFunction*%
%TO.P,U1,9*%
%TO.N,/3V3*%
%TA.AperFunction,SMDPad,CuDef*%
G36*
G01*
X134372951Y-89410031D02*
X134266885Y-89516097D01*
G75*
G02*
X134160819Y-89516097I-53033J53033D01*
G01*
X133223903Y-88579181D01*
G75*
G02*
X133223903Y-88473115I53033J53033D01*
G01*
X133329969Y-88367049D01*
G75*
G02*
X133436035Y-88367049I53033J-53033D01*
G01*
X134372951Y-89303965D01*
G75*
G02*
X134372951Y-89410031I-53033J-53033D01*
G01*
G37*
%TD.AperFunction*%
%TO.P,U1,8*%
%TO.N,GND*%
%TA.AperFunction,SMDPad,CuDef*%
G36*
G01*
X134019398Y-89763584D02*
X133913332Y-89869650D01*
G75*
G02*
X133807266Y-89869650I-53033J53033D01*
G01*
X132870350Y-88932734D01*
G75*
G02*
X132870350Y-88826668I53033J53033D01*
G01*
X132976416Y-88720602D01*
G75*
G02*
X133082482Y-88720602I53033J-53033D01*
G01*
X134019398Y-89657518D01*
G75*
G02*
X134019398Y-89763584I-53033J-53033D01*
G01*
G37*
%TD.AperFunction*%
%TO.P,U1,7*%
%TO.N,/RESET*%
%TA.AperFunction,SMDPad,CuDef*%
G36*
G01*
X133665845Y-90117137D02*
X133559779Y-90223203D01*
G75*
G02*
X133453713Y-90223203I-53033J53033D01*
G01*
X132516797Y-89286287D01*
G75*
G02*
X132516797Y-89180221I53033J53033D01*
G01*
X132622863Y-89074155D01*
G75*
G02*
X132728929Y-89074155I53033J-53033D01*
G01*
X133665845Y-90011071D01*
G75*
G02*
X133665845Y-90117137I-53033J-53033D01*
G01*
G37*
%TD.AperFunction*%
%TO.P,U1,6*%
%TO.N,/OSCOUT*%
%TA.AperFunction,SMDPad,CuDef*%
G36*
G01*
X133312291Y-90470691D02*
X133206225Y-90576757D01*
G75*
G02*
X133100159Y-90576757I-53033J53033D01*
G01*
X132163243Y-89639841D01*
G75*
G02*
X132163243Y-89533775I53033J53033D01*
G01*
X132269309Y-89427709D01*
G75*
G02*
X132375375Y-89427709I53033J-53033D01*
G01*
X133312291Y-90364625D01*
G75*
G02*
X133312291Y-90470691I-53033J-53033D01*
G01*
G37*
%TD.AperFunction*%
%TO.P,U1,5*%
%TO.N,/OSCIN*%
%TA.AperFunction,SMDPad,CuDef*%
G36*
G01*
X132958738Y-90824244D02*
X132852672Y-90930310D01*
G75*
G02*
X132746606Y-90930310I-53033J53033D01*
G01*
X131809690Y-89993394D01*
G75*
G02*
X131809690Y-89887328I53033J53033D01*
G01*
X131915756Y-89781262D01*
G75*
G02*
X132021822Y-89781262I53033J-53033D01*
G01*
X132958738Y-90718178D01*
G75*
G02*
X132958738Y-90824244I-53033J-53033D01*
G01*
G37*
%TD.AperFunction*%
%TO.P,U1,4*%
%TO.N,/PC15*%
%TA.AperFunction,SMDPad,CuDef*%
G36*
G01*
X132605185Y-91177797D02*
X132499119Y-91283863D01*
G75*
G02*
X132393053Y-91283863I-53033J53033D01*
G01*
X131456137Y-90346947D01*
G75*
G02*
X131456137Y-90240881I53033J53033D01*
G01*
X131562203Y-90134815D01*
G75*
G02*
X131668269Y-90134815I53033J-53033D01*
G01*
X132605185Y-91071731D01*
G75*
G02*
X132605185Y-91177797I-53033J-53033D01*
G01*
G37*
%TD.AperFunction*%
%TO.P,U1,3*%
%TO.N,/PC14*%
%TA.AperFunction,SMDPad,CuDef*%
G36*
G01*
X132251631Y-91531351D02*
X132145565Y-91637417D01*
G75*
G02*
X132039499Y-91637417I-53033J53033D01*
G01*
X131102583Y-90700501D01*
G75*
G02*
X131102583Y-90594435I53033J53033D01*
G01*
X131208649Y-90488369D01*
G75*
G02*
X131314715Y-90488369I53033J-53033D01*
G01*
X132251631Y-91425285D01*
G75*
G02*
X132251631Y-91531351I-53033J-53033D01*
G01*
G37*
%TD.AperFunction*%
%TO.P,U1,2*%
%TO.N,/PC13*%
%TA.AperFunction,SMDPad,CuDef*%
G36*
G01*
X131898078Y-91884904D02*
X131792012Y-91990970D01*
G75*
G02*
X131685946Y-91990970I-53033J53033D01*
G01*
X130749030Y-91054054D01*
G75*
G02*
X130749030Y-90947988I53033J53033D01*
G01*
X130855096Y-90841922D01*
G75*
G02*
X130961162Y-90841922I53033J-53033D01*
G01*
X131898078Y-91778838D01*
G75*
G02*
X131898078Y-91884904I-53033J-53033D01*
G01*
G37*
%TD.AperFunction*%
%TO.P,U1,1*%
%TO.N,/VBAT*%
%TA.AperFunction,SMDPad,CuDef*%
G36*
G01*
X131544524Y-92238458D02*
X131438458Y-92344524D01*
G75*
G02*
X131332392Y-92344524I-53033J53033D01*
G01*
X130395476Y-91407608D01*
G75*
G02*
X130395476Y-91301542I53033J53033D01*
G01*
X130501542Y-91195476D01*
G75*
G02*
X130607608Y-91195476I53033J-53033D01*
G01*
X131544524Y-92132392D01*
G75*
G02*
X131544524Y-92238458I-53033J-53033D01*
G01*
G37*
%TD.AperFunction*%
%TD*%
D18*
%TO.P,J5,4*%
%TO.N,GND*%
X126550000Y-110170000D03*
%TO.P,J5,3*%
%TO.N,/SWCLK*%
X129090000Y-110170000D03*
%TO.P,J5,2*%
%TO.N,/SWIO*%
X131630000Y-110170000D03*
D19*
%TO.P,J5,1*%
%TO.N,/3V3*%
X134170000Y-110170000D03*
%TD*%
D18*
%TO.P,J4,6*%
%TO.N,GND*%
X134210000Y-74260000D03*
%TO.P,J4,5*%
X131670000Y-74260000D03*
%TO.P,J4,4*%
%TO.N,Net-(J4-Pad4)*%
X134210000Y-71720000D03*
%TO.P,J4,3*%
%TO.N,Net-(J4-Pad3)*%
X131670000Y-71720000D03*
%TO.P,J4,2*%
%TO.N,/3V3*%
X134210000Y-69180000D03*
D19*
%TO.P,J4,1*%
X131670000Y-69180000D03*
%TD*%
D18*
%TO.P,J2,20*%
%TO.N,/PB12*%
X121950000Y-62090000D03*
%TO.P,J2,19*%
%TO.N,/PB13*%
X121950000Y-64630000D03*
%TO.P,J2,18*%
%TO.N,/PB14*%
X121950000Y-67170000D03*
%TO.P,J2,17*%
%TO.N,/PB15*%
X121950000Y-69710000D03*
%TO.P,J2,16*%
%TO.N,/PA8*%
X121950000Y-72250000D03*
%TO.P,J2,15*%
%TO.N,/PA9*%
X121950000Y-74790000D03*
%TO.P,J2,14*%
%TO.N,/PA10*%
X121950000Y-77330000D03*
%TO.P,J2,13*%
%TO.N,/PA11*%
X121950000Y-79870000D03*
%TO.P,J2,12*%
%TO.N,/PA12*%
X121950000Y-82410000D03*
%TO.P,J2,11*%
%TO.N,/PA15*%
X121950000Y-84950000D03*
%TO.P,J2,10*%
%TO.N,/PB3*%
X121950000Y-87490000D03*
%TO.P,J2,9*%
%TO.N,/PB4*%
X121950000Y-90030000D03*
%TO.P,J2,8*%
%TO.N,/PB5*%
X121950000Y-92570000D03*
%TO.P,J2,7*%
%TO.N,/PB6*%
X121950000Y-95110000D03*
%TO.P,J2,6*%
%TO.N,/PB7*%
X121950000Y-97650000D03*
%TO.P,J2,5*%
%TO.N,/PB8*%
X121950000Y-100190000D03*
%TO.P,J2,4*%
%TO.N,/PB9*%
X121950000Y-102730000D03*
%TO.P,J2,3*%
%TO.N,/5V*%
X121950000Y-105270000D03*
%TO.P,J2,2*%
%TO.N,GND*%
X121950000Y-107810000D03*
D19*
%TO.P,J2,1*%
%TO.N,/3V3*%
X121950000Y-110350000D03*
%TD*%
D18*
%TO.P,J1,20*%
%TO.N,GND*%
X138320000Y-62130000D03*
%TO.P,J1,19*%
X138320000Y-64670000D03*
%TO.P,J1,18*%
%TO.N,/3V3*%
X138320000Y-67210000D03*
%TO.P,J1,17*%
%TO.N,/RESET*%
X138320000Y-69750000D03*
%TO.P,J1,16*%
%TO.N,/PB11*%
X138320000Y-72290000D03*
%TO.P,J1,15*%
%TO.N,/PB10*%
X138320000Y-74830000D03*
%TO.P,J1,14*%
%TO.N,/PB1*%
X138320000Y-77370000D03*
%TO.P,J1,13*%
%TO.N,/PB0*%
X138320000Y-79910000D03*
%TO.P,J1,12*%
%TO.N,/PA7*%
X138320000Y-82450000D03*
%TO.P,J1,11*%
%TO.N,/PA6*%
X138320000Y-84990000D03*
%TO.P,J1,10*%
%TO.N,/PA5*%
X138320000Y-87530000D03*
%TO.P,J1,9*%
%TO.N,/PA4*%
X138320000Y-90070000D03*
%TO.P,J1,8*%
%TO.N,/PA3*%
X138320000Y-92610000D03*
%TO.P,J1,7*%
%TO.N,/PA2*%
X138320000Y-95150000D03*
%TO.P,J1,6*%
%TO.N,/PA1*%
X138320000Y-97690000D03*
%TO.P,J1,5*%
%TO.N,/PA0*%
X138320000Y-100230000D03*
%TO.P,J1,4*%
%TO.N,/PC15*%
X138320000Y-102770000D03*
%TO.P,J1,3*%
%TO.N,/PC14*%
X138320000Y-105310000D03*
%TO.P,J1,2*%
%TO.N,/PC13*%
X138320000Y-107850000D03*
D19*
%TO.P,J1,1*%
%TO.N,/VBAT*%
X138320000Y-110390000D03*
%TD*%
%TO.P,D2,2*%
%TO.N,/3V3*%
%TA.AperFunction,SMDPad,CuDef*%
G36*
G01*
X128023750Y-102480000D02*
X128936250Y-102480000D01*
G75*
G02*
X129180000Y-102723750I0J-243750D01*
G01*
X129180000Y-103211250D01*
G75*
G02*
X128936250Y-103455000I-243750J0D01*
G01*
X128023750Y-103455000D01*
G75*
G02*
X127780000Y-103211250I0J243750D01*
G01*
X127780000Y-102723750D01*
G75*
G02*
X128023750Y-102480000I243750J0D01*
G01*
G37*
%TD.AperFunction*%
%TO.P,D2,1*%
%TO.N,Net-(D2-Pad1)*%
%TA.AperFunction,SMDPad,CuDef*%
G36*
G01*
X128023750Y-100605000D02*
X128936250Y-100605000D01*
G75*
G02*
X129180000Y-100848750I0J-243750D01*
G01*
X129180000Y-101336250D01*
G75*
G02*
X128936250Y-101580000I-243750J0D01*
G01*
X128023750Y-101580000D01*
G75*
G02*
X127780000Y-101336250I0J243750D01*
G01*
X127780000Y-100848750D01*
G75*
G02*
X128023750Y-100605000I243750J0D01*
G01*
G37*
%TD.AperFunction*%
%TD*%
%TO.P,D1,2*%
%TO.N,/3V3*%
%TA.AperFunction,SMDPad,CuDef*%
G36*
G01*
X130103750Y-102477500D02*
X131016250Y-102477500D01*
G75*
G02*
X131260000Y-102721250I0J-243750D01*
G01*
X131260000Y-103208750D01*
G75*
G02*
X131016250Y-103452500I-243750J0D01*
G01*
X130103750Y-103452500D01*
G75*
G02*
X129860000Y-103208750I0J243750D01*
G01*
X129860000Y-102721250D01*
G75*
G02*
X130103750Y-102477500I243750J0D01*
G01*
G37*
%TD.AperFunction*%
%TO.P,D1,1*%
%TO.N,Net-(D1-Pad1)*%
%TA.AperFunction,SMDPad,CuDef*%
G36*
G01*
X130103750Y-100602500D02*
X131016250Y-100602500D01*
G75*
G02*
X131260000Y-100846250I0J-243750D01*
G01*
X131260000Y-101333750D01*
G75*
G02*
X131016250Y-101577500I-243750J0D01*
G01*
X130103750Y-101577500D01*
G75*
G02*
X129860000Y-101333750I0J243750D01*
G01*
X129860000Y-100846250D01*
G75*
G02*
X130103750Y-100602500I243750J0D01*
G01*
G37*
%TD.AperFunction*%
%TD*%
D20*
%TO.N,GND*%
X128510000Y-66630000D03*
X127590000Y-76400000D03*
X130800000Y-80960000D03*
X132040000Y-75880000D03*
%TO.N,/RESET*%
X137090000Y-70980000D03*
X134947015Y-90408372D03*
%TO.N,/3V3*%
X127030000Y-101070000D03*
X128795010Y-85650554D03*
X125474990Y-103665855D03*
%TO.N,/OSCIN*%
X132800000Y-95270000D03*
X135069956Y-92969999D03*
%TO.N,/OSCOUT*%
X134470490Y-91287547D03*
X130587756Y-94544990D03*
%TO.N,/PC14*%
X136230000Y-101840000D03*
X132345885Y-106387229D03*
%TO.N,/PC15*%
X136200033Y-100650033D03*
X130895874Y-106074124D03*
X132010004Y-104790000D03*
%TO.N,/5V*%
X126440000Y-95450000D03*
X127049202Y-75390002D03*
%TO.N,Net-(D1-Pad1)*%
X133690000Y-100660000D03*
%TO.N,Net-(D2-Pad1)*%
X134620000Y-104770000D03*
%TO.N,Net-(J3-Pad3)*%
X129950000Y-66550000D03*
%TO.N,Net-(J3-Pad2)*%
X131150468Y-66566020D03*
%TO.N,/SWCLK*%
X123845014Y-86841016D03*
%TO.N,/SWIO*%
X123977204Y-84243980D03*
%TO.N,/BOOT0*%
X127325010Y-87940000D03*
%TO.N,/BOOT1*%
X131960000Y-84960000D03*
%TD*%
D21*
%TO.N,GND*%
X138320000Y-64670000D02*
X138320000Y-62130000D01*
X124310000Y-110170000D02*
X121950000Y-107810000D01*
X126550000Y-110170000D02*
X124310000Y-110170000D01*
X129000000Y-74340000D02*
X127400000Y-74340000D01*
X129000000Y-70240000D02*
X127400000Y-70240000D01*
X131590000Y-74340000D02*
X131670000Y-74260000D01*
X129000000Y-74340000D02*
X131590000Y-74340000D01*
X127400000Y-74340000D02*
X127400000Y-70240000D01*
X129780000Y-65070000D02*
X129130000Y-65070000D01*
X138320000Y-64670000D02*
X134999989Y-67990011D01*
X129000000Y-69540000D02*
X129000000Y-70240000D01*
X130549989Y-67990011D02*
X129000000Y-69540000D01*
X134999989Y-67990011D02*
X130549989Y-67990011D01*
X129130000Y-66010000D02*
X128510000Y-66630000D01*
X129130000Y-65070000D02*
X129130000Y-66010000D01*
X129730000Y-74260000D02*
X127590000Y-76400000D01*
X131670000Y-74260000D02*
X129730000Y-74260000D01*
X131217253Y-81072747D02*
X130912747Y-81072747D01*
X130912747Y-81072747D02*
X130800000Y-80960000D01*
X131670000Y-76250000D02*
X132040000Y-75880000D01*
X131670000Y-77060000D02*
X131670000Y-76250000D01*
X131670000Y-74260000D02*
X131670000Y-77060000D01*
X132020000Y-81410000D02*
X132020000Y-81651356D01*
X131520000Y-80910000D02*
X132020000Y-81410000D01*
X131217253Y-81072747D02*
X131380000Y-80910000D01*
X132020000Y-81651356D02*
X131323554Y-82347802D01*
X131380000Y-80910000D02*
X131520000Y-80910000D01*
X130687253Y-81072747D02*
X131217253Y-81072747D01*
X125436890Y-85529782D02*
X125472230Y-85529782D01*
X126040177Y-86097729D02*
X126652271Y-86097729D01*
X126652271Y-86097729D02*
X129893925Y-82856075D01*
X129893925Y-81866075D02*
X130687253Y-81072747D01*
X125472230Y-85529782D02*
X126040177Y-86097729D01*
X129893925Y-82856075D02*
X129893925Y-81866075D01*
X131670000Y-80090000D02*
X130800000Y-80960000D01*
X131670000Y-77060000D02*
X131670000Y-80090000D01*
X130540000Y-90420000D02*
X132360000Y-88600000D01*
X130086839Y-90420000D02*
X130540000Y-90420000D01*
X130086839Y-91150543D02*
X130086839Y-90420000D01*
X130048499Y-91188883D02*
X130086839Y-91150543D01*
X129999998Y-91272799D02*
X130048499Y-91224298D01*
X129999998Y-91343494D02*
X129999998Y-91272799D01*
X129920000Y-91423493D02*
X129999998Y-91343494D01*
X129920000Y-91670000D02*
X129920000Y-91423493D01*
X132749748Y-88600000D02*
X133444874Y-89295126D01*
X130048499Y-91224298D02*
X130048499Y-91188883D01*
X128300000Y-92880000D02*
X128710000Y-92880000D01*
X128618870Y-91416446D02*
X127960000Y-92075316D01*
X128710000Y-92880000D02*
X129920000Y-91670000D01*
X132360000Y-88600000D02*
X132749748Y-88600000D01*
X127960000Y-92075316D02*
X127960000Y-92540000D01*
X127960000Y-92540000D02*
X128300000Y-92880000D01*
X124747108Y-84840000D02*
X125436890Y-85529782D01*
X124390000Y-84840000D02*
X124747108Y-84840000D01*
X124000000Y-85294958D02*
X124000000Y-85230000D01*
X124161835Y-85456793D02*
X124000000Y-85294958D01*
X124834837Y-86804837D02*
X124161835Y-86131835D01*
X125403768Y-86804837D02*
X124834837Y-86804837D01*
X125500225Y-86901294D02*
X125403768Y-86804837D01*
X125570921Y-86901294D02*
X125500225Y-86901294D01*
X125664453Y-86959411D02*
X125629038Y-86959411D01*
X124161835Y-86131835D02*
X124161835Y-85456793D01*
X124000000Y-85230000D02*
X124390000Y-84840000D01*
X127440756Y-86997752D02*
X125702794Y-86997752D01*
X125629038Y-86959411D02*
X125570921Y-86901294D01*
X128618870Y-91416446D02*
X128618870Y-91381106D01*
X128618870Y-91381106D02*
X129186818Y-90813158D01*
X129186818Y-90813158D02*
X129186818Y-88743814D01*
X129186818Y-88743814D02*
X127440756Y-86997752D01*
X125702794Y-86997752D02*
X125664453Y-86959411D01*
%TO.N,/RESET*%
X138320000Y-69750000D02*
X137090000Y-70980000D01*
X134381330Y-90408372D02*
X134947015Y-90408372D01*
X133851014Y-90408372D02*
X134381330Y-90408372D01*
X133091321Y-89648679D02*
X133851014Y-90408372D01*
%TO.N,/3V3*%
X131670000Y-69180000D02*
X134210000Y-69180000D01*
X136350000Y-69180000D02*
X138320000Y-67210000D01*
X134210000Y-69180000D02*
X136350000Y-69180000D01*
X130557500Y-102967500D02*
X130560000Y-102965000D01*
X128480000Y-102967500D02*
X130557500Y-102967500D01*
X131352539Y-86495685D02*
X129540371Y-86495685D01*
X133798427Y-88941573D02*
X131352539Y-86495685D01*
X129540371Y-86495685D02*
X130343936Y-85692120D01*
X130343936Y-82620312D02*
X130970000Y-81994248D01*
X130343936Y-85692120D02*
X130343936Y-82620312D01*
X129488317Y-86547739D02*
X129540371Y-86495685D01*
X127637739Y-86547739D02*
X129488317Y-86547739D01*
X127637739Y-86547739D02*
X128534924Y-85650554D01*
X128534924Y-85650554D02*
X128795010Y-85650554D01*
X126173345Y-102967500D02*
X125474990Y-103665855D01*
X127030000Y-101070000D02*
X125474990Y-102625010D01*
X128480000Y-102967500D02*
X126173345Y-102967500D01*
X125474990Y-102625010D02*
X125474990Y-103665855D01*
X128972424Y-91734658D02*
X129549989Y-91157093D01*
X129549989Y-91086398D02*
X129636829Y-90999558D01*
X129636829Y-86592143D02*
X129540371Y-86495685D01*
X129549989Y-91157093D02*
X129549989Y-91086398D01*
X128972424Y-91770000D02*
X128972424Y-91734658D01*
X129636829Y-90999558D02*
X129636829Y-86592143D01*
X125853777Y-86547739D02*
X127637739Y-86547739D01*
X125118678Y-85883336D02*
X125686625Y-86451283D01*
X125083336Y-85883336D02*
X125118678Y-85883336D01*
X125757321Y-86451283D02*
X125853777Y-86547739D01*
X125686625Y-86451283D02*
X125757321Y-86451283D01*
X132770000Y-111570000D02*
X134170000Y-110170000D01*
X121950000Y-110350000D02*
X123170000Y-111570000D01*
X123170000Y-111570000D02*
X132770000Y-111570000D01*
%TO.N,/OSCIN*%
X132800000Y-97280000D02*
X132710000Y-97370000D01*
X132800000Y-95270000D02*
X132800000Y-97280000D01*
X134998427Y-92969999D02*
X135069956Y-92969999D01*
X132384214Y-90355786D02*
X134998427Y-92969999D01*
%TO.N,/OSCOUT*%
X132737767Y-90002233D02*
X134023081Y-91287547D01*
X134023081Y-91287547D02*
X134470490Y-91287547D01*
X130587756Y-95092244D02*
X130587756Y-94544990D01*
X128310000Y-97370000D02*
X130587756Y-95092244D01*
%TO.N,/PC14*%
X132399823Y-91926049D02*
X132420618Y-91946844D01*
X135470001Y-95049416D02*
X135470001Y-101080001D01*
X131677107Y-91062893D02*
X132399823Y-91785609D01*
X132399823Y-91785609D02*
X132399823Y-91926049D01*
X135470001Y-101080001D02*
X136230000Y-101840000D01*
X132420618Y-92000033D02*
X135470001Y-95049416D01*
X132420618Y-91946844D02*
X132420618Y-92000033D01*
X138320000Y-104495685D02*
X136230000Y-102405685D01*
X136230000Y-102405685D02*
X136230000Y-101840000D01*
X138320000Y-105310000D02*
X138320000Y-104495685D01*
X133260000Y-106660000D02*
X132618656Y-106660000D01*
X132618656Y-106660000D02*
X132345885Y-106387229D01*
%TO.N,/PC15*%
X136200033Y-95143037D02*
X136200033Y-100650033D01*
X136200033Y-100650033D02*
X138320000Y-102770000D01*
X132849834Y-91792838D02*
X136200033Y-95143037D01*
X132030661Y-90709339D02*
X132849834Y-91528512D01*
X132849834Y-91528512D02*
X132849834Y-91792838D01*
X130895874Y-105904130D02*
X130895874Y-106074124D01*
X132010004Y-104790000D02*
X130895874Y-105904130D01*
X133260000Y-104810000D02*
X132030004Y-104810000D01*
X132030004Y-104810000D02*
X132010004Y-104790000D01*
%TO.N,/5V*%
X124580020Y-102639980D02*
X124580020Y-97489980D01*
X121950000Y-105270000D02*
X124580020Y-102639980D01*
X124580020Y-97489980D02*
X126450000Y-95620000D01*
X126450000Y-95620000D02*
X126450000Y-95460000D01*
X126450000Y-95460000D02*
X126440000Y-95450000D01*
X128330000Y-67540000D02*
X126390000Y-69480000D01*
X126915000Y-75390002D02*
X127049202Y-75390002D01*
X131730000Y-65764999D02*
X132070000Y-66104999D01*
X131730000Y-65070000D02*
X131730000Y-65764999D01*
X132070000Y-66104999D02*
X132070000Y-66910000D01*
X132070000Y-66910000D02*
X131440000Y-67540000D01*
X126390000Y-74865002D02*
X126915000Y-75390002D01*
X126390000Y-69480000D02*
X126390000Y-74865002D01*
X131440000Y-67540000D02*
X128330000Y-67540000D01*
%TO.N,Net-(D1-Pad1)*%
X130990000Y-100660000D02*
X130560000Y-101090000D01*
X133690000Y-100660000D02*
X130990000Y-100660000D01*
%TO.N,Net-(D2-Pad1)*%
X134135001Y-104024999D02*
X134135001Y-104535001D01*
X132012512Y-101902510D02*
X134135001Y-104024999D01*
X128480000Y-101092500D02*
X129290010Y-101902510D01*
X129290010Y-101902510D02*
X132012512Y-101902510D01*
X134370000Y-104770000D02*
X134620000Y-104770000D01*
X134135001Y-104535001D02*
X134370000Y-104770000D01*
%TO.N,/PB11*%
X138320000Y-72290000D02*
X136694988Y-73915012D01*
X136694988Y-77683474D02*
X131677107Y-82701355D01*
X136694988Y-73915012D02*
X136694988Y-77683474D01*
%TO.N,/PB10*%
X137144999Y-77940571D02*
X137144999Y-76005001D01*
X137144999Y-76005001D02*
X138320000Y-74830000D01*
X132030661Y-83054909D02*
X137144999Y-77940571D01*
%TO.N,/PB1*%
X138320000Y-78179782D02*
X138320000Y-77370000D01*
X132737767Y-83762015D02*
X138320000Y-78179782D01*
%TO.N,/PB0*%
X137296890Y-79910000D02*
X138320000Y-79910000D01*
X133091321Y-84115569D02*
X137296890Y-79910000D01*
%TO.N,/PA7*%
X135463996Y-82450000D02*
X138320000Y-82450000D01*
X133444874Y-84469122D02*
X135463996Y-82450000D01*
%TO.N,/PA6*%
X133798427Y-84822675D02*
X134681124Y-83939978D01*
X137269978Y-83939978D02*
X138320000Y-84990000D01*
X134681124Y-83939978D02*
X137269978Y-83939978D01*
%TO.N,/PA5*%
X138320000Y-86793589D02*
X138320000Y-87530000D01*
X135916400Y-84389989D02*
X138320000Y-86793589D01*
X134151981Y-85176229D02*
X134938221Y-84389989D01*
X134938221Y-84389989D02*
X135916400Y-84389989D01*
%TO.N,/PA4*%
X135730000Y-84840000D02*
X137144999Y-86254999D01*
X137144999Y-86254999D02*
X137144999Y-88894999D01*
X134505534Y-85529782D02*
X134540876Y-85529782D01*
X137144999Y-88894999D02*
X138320000Y-90070000D01*
X134540876Y-85529782D02*
X135230658Y-84840000D01*
X135230658Y-84840000D02*
X135730000Y-84840000D01*
%TO.N,/PA3*%
X135877046Y-88333158D02*
X137144999Y-89601110D01*
X138320000Y-91737763D02*
X138320000Y-92610000D01*
X137144999Y-89601110D02*
X137144999Y-90562762D01*
X135877046Y-86901294D02*
X135877046Y-88333158D01*
X137144999Y-90562762D02*
X138320000Y-91737763D01*
X134859088Y-85883336D02*
X135877046Y-86901294D01*
%TO.N,/PA2*%
X134859088Y-87880912D02*
X135427035Y-88448859D01*
X135427035Y-88448859D02*
X135427035Y-88519557D01*
X136694988Y-89787510D02*
X136694988Y-93524988D01*
X136694988Y-93524988D02*
X138320000Y-95150000D01*
X135427035Y-88519557D02*
X136694988Y-89787510D01*
%TO.N,/PA1*%
X136244977Y-89973910D02*
X136244977Y-93809334D01*
X136244977Y-93809334D02*
X137100055Y-94664412D01*
X134505534Y-88234466D02*
X136244977Y-89973910D01*
X137100055Y-94664412D02*
X137100055Y-96470055D01*
X137100055Y-96470055D02*
X138320000Y-97690000D01*
%TO.N,/PA0*%
X136650044Y-98560044D02*
X138320000Y-100230000D01*
X135794966Y-90231004D02*
X135794966Y-93995734D01*
X134151981Y-88588019D02*
X135794966Y-90231004D01*
X135794966Y-93995734D02*
X136650044Y-94850812D01*
X136650044Y-94850812D02*
X136650044Y-98560044D01*
%TO.N,/PC13*%
X136940000Y-106470000D02*
X138320000Y-107850000D01*
X136940000Y-103860000D02*
X136940000Y-106470000D01*
X131970607Y-92063499D02*
X131970607Y-92186433D01*
X131323554Y-91416446D02*
X131970607Y-92063499D01*
X134924998Y-95140824D02*
X134924998Y-101844998D01*
X131970607Y-92186433D02*
X134924998Y-95140824D01*
X134924998Y-101844998D02*
X136940000Y-103860000D01*
%TO.N,/VBAT*%
X136370000Y-108440000D02*
X138320000Y-110390000D01*
X130970000Y-91982132D02*
X134474987Y-95487119D01*
X130970000Y-91770000D02*
X130970000Y-91982132D01*
X134474987Y-102134987D02*
X136370000Y-104030000D01*
X134474987Y-95487119D02*
X134474987Y-102134987D01*
X136370000Y-104030000D02*
X136370000Y-108440000D01*
%TO.N,/PB12*%
X128774998Y-78648919D02*
X125734225Y-75608146D01*
X125734225Y-65874225D02*
X121950000Y-62090000D01*
X128774998Y-81796822D02*
X128774998Y-78648919D01*
X125734225Y-75608146D02*
X125734225Y-65874225D01*
X128972424Y-81994248D02*
X128774998Y-81796822D01*
%TO.N,/PB13*%
X128618870Y-82347802D02*
X125379989Y-79108921D01*
X125379989Y-75890321D02*
X125284214Y-75794546D01*
X125284214Y-67964214D02*
X121950000Y-64630000D01*
X125379989Y-79108921D02*
X125379989Y-75890321D01*
X125284214Y-75794546D02*
X125284214Y-67964214D01*
%TO.N,/PB14*%
X124834203Y-70054203D02*
X121950000Y-67170000D01*
X124834203Y-75980946D02*
X124834203Y-70054203D01*
X124925045Y-79361083D02*
X124925045Y-76071788D01*
X124925045Y-76071788D02*
X124834203Y-75980946D01*
X128265317Y-82701355D02*
X124925045Y-79361083D01*
%TO.N,/PB15*%
X124475034Y-76258188D02*
X124384192Y-76167346D01*
X124475034Y-79618180D02*
X124475034Y-76258188D01*
X124384192Y-72144192D02*
X121950000Y-69710000D01*
X124384192Y-76167346D02*
X124384192Y-72144192D01*
X127911763Y-83054909D02*
X124475034Y-79618180D01*
%TO.N,/PA8*%
X124025023Y-76444588D02*
X123934181Y-76353746D01*
X124025023Y-79875275D02*
X124025023Y-76444588D01*
X123934181Y-74234181D02*
X121950000Y-72250000D01*
X127558210Y-83408462D02*
X124025023Y-79875275D01*
X123930000Y-74238362D02*
X123934181Y-74234181D01*
X123930000Y-76353746D02*
X123930000Y-74238362D01*
%TO.N,/PA9*%
X123575012Y-80132370D02*
X123575012Y-76630988D01*
X123575012Y-76630988D02*
X121950000Y-75005976D01*
X121950000Y-75005976D02*
X121950000Y-74790000D01*
X127204657Y-83762015D02*
X123575012Y-80132370D01*
%TO.N,/PA10*%
X126851103Y-84115569D02*
X123125001Y-80389467D01*
X123125001Y-80389467D02*
X123125001Y-78505001D01*
X123125001Y-78505001D02*
X121950000Y-77330000D01*
%TO.N,/PA11*%
X121950000Y-79921572D02*
X121950000Y-79870000D01*
X126497550Y-84469122D02*
X121950000Y-79921572D01*
%TO.N,/PA12*%
X123731322Y-82410000D02*
X121950000Y-82410000D01*
X126143997Y-84822675D02*
X123731322Y-82410000D01*
%TO.N,/PA15*%
X121950000Y-85960000D02*
X121950000Y-84950000D01*
X122304999Y-86314999D02*
X121950000Y-85960000D01*
X123125001Y-87135001D02*
X123125001Y-86925999D01*
X122514001Y-86314999D02*
X122304999Y-86314999D01*
X124868943Y-88802413D02*
X124312413Y-88802413D01*
X123125001Y-86925999D02*
X122514001Y-86314999D01*
X125436890Y-88234466D02*
X124868943Y-88802413D01*
X123260000Y-87270000D02*
X123125001Y-87135001D01*
X123260000Y-87750000D02*
X123260000Y-87270000D01*
X124312413Y-88802413D02*
X123260000Y-87750000D01*
%TO.N,/PB3*%
X125126038Y-89252424D02*
X123712424Y-89252424D01*
X125790443Y-88588019D02*
X125126038Y-89252424D01*
X123712424Y-89252424D02*
X121950000Y-87490000D01*
%TO.N,/PB4*%
X126108655Y-88941573D02*
X125020228Y-90030000D01*
X126143997Y-88941573D02*
X126108655Y-88941573D01*
X125020228Y-90030000D02*
X121950000Y-90030000D01*
%TO.N,/PB5*%
X123222676Y-92570000D02*
X121950000Y-92570000D01*
X126497550Y-89295126D02*
X123222676Y-92570000D01*
%TO.N,/PB6*%
X121950000Y-94549782D02*
X121950000Y-95110000D01*
X126851103Y-89648679D02*
X121950000Y-94549782D01*
%TO.N,/PB7*%
X123200000Y-95730000D02*
X121950000Y-96980000D01*
X121950000Y-96980000D02*
X121950000Y-97650000D01*
X127204657Y-90002233D02*
X123200000Y-94006890D01*
X123200000Y-94006890D02*
X123200000Y-95730000D01*
%TO.N,/PB8*%
X123680000Y-98460000D02*
X121950000Y-100190000D01*
X127911763Y-90709339D02*
X123680000Y-94941102D01*
X123680000Y-94941102D02*
X123680000Y-98460000D01*
%TO.N,/PB9*%
X128265317Y-91062893D02*
X124130009Y-95198201D01*
X124130009Y-100549991D02*
X121950000Y-102730000D01*
X124130009Y-95198201D02*
X124130009Y-100549991D01*
%TO.N,Net-(J3-Pad6)*%
X127055000Y-62410000D02*
X128880000Y-62410000D01*
X128880000Y-62410000D02*
X131580000Y-62410000D01*
X131580000Y-62410000D02*
X133805000Y-62410000D01*
X127942500Y-63347500D02*
X128880000Y-62410000D01*
X127942500Y-64985000D02*
X127942500Y-63347500D01*
X132917500Y-63747500D02*
X131580000Y-62410000D01*
X132917500Y-64985000D02*
X132917500Y-63747500D01*
%TO.N,Net-(J3-Pad3)*%
X130430000Y-65070000D02*
X130430000Y-66070000D01*
X130430000Y-66070000D02*
X129950000Y-66550000D01*
%TO.N,Net-(J3-Pad2)*%
X131080000Y-65070000D02*
X131080000Y-66495552D01*
X131080000Y-66495552D02*
X131150468Y-66566020D01*
%TO.N,/SWCLK*%
X123845014Y-86841016D02*
X124723998Y-87720000D01*
X124922424Y-87720000D02*
X125083336Y-87880912D01*
X124723998Y-87720000D02*
X124922424Y-87720000D01*
%TO.N,/SWIO*%
X125790443Y-85176229D02*
X124858194Y-84243980D01*
X124858194Y-84243980D02*
X123977204Y-84243980D01*
%TO.N,/BOOT0*%
X128126158Y-89787838D02*
X128126158Y-88741148D01*
X128126158Y-88741148D02*
X127325010Y-87940000D01*
X127558210Y-90355786D02*
X128126158Y-89787838D01*
%TO.N,/BOOT1*%
X131560001Y-84232675D02*
X132384214Y-83408462D01*
X131560001Y-84560001D02*
X131560001Y-84232675D01*
X131960000Y-84960000D02*
X131560001Y-84560001D01*
%TD*%
M02*
