%TF.GenerationSoftware,KiCad,Pcbnew,(5.1.6)-1*%
%TF.CreationDate,2020-09-14T17:11:37+02:00*%
%TF.ProjectId,STM32_blue_pill_4_layers,53544d33-325f-4626-9c75-655f70696c6c,rev?*%
%TF.SameCoordinates,Original*%
%TF.FileFunction,Copper,L2,Inr*%
%TF.FilePolarity,Positive*%
%FSLAX46Y46*%
G04 Gerber Fmt 4.6, Leading zero omitted, Abs format (unit mm)*
G04 Created by KiCad (PCBNEW (5.1.6)-1) date 2020-09-14 17:11:37*
%MOMM*%
%LPD*%
G01*
G04 APERTURE LIST*
%TA.AperFunction,ViaPad*%
%ADD10O,1.700000X1.700000*%
%TD*%
%TA.AperFunction,ViaPad*%
%ADD11R,1.700000X1.700000*%
%TD*%
%TA.AperFunction,ViaPad*%
%ADD12C,0.800000*%
%TD*%
%TA.AperFunction,Conductor*%
%ADD13C,0.250000*%
%TD*%
%TA.AperFunction,Conductor*%
%ADD14C,0.254000*%
%TD*%
G04 APERTURE END LIST*
D10*
%TO.N,GND*%
%TO.C,J5*%
X126550000Y-110170000D03*
%TO.N,/SWCLK*%
X129090000Y-110170000D03*
%TO.N,/SWIO*%
X131630000Y-110170000D03*
D11*
%TO.N,/3V3*%
X134170000Y-110170000D03*
%TD*%
D10*
%TO.N,GND*%
%TO.C,J4*%
X134210000Y-74260000D03*
X131670000Y-74260000D03*
%TO.N,Net-(J4-Pad4)*%
X134210000Y-71720000D03*
%TO.N,Net-(J4-Pad3)*%
X131670000Y-71720000D03*
%TO.N,/3V3*%
X134210000Y-69180000D03*
D11*
X131670000Y-69180000D03*
%TD*%
D10*
%TO.N,/PB12*%
%TO.C,J2*%
X121950000Y-62090000D03*
%TO.N,/PB13*%
X121950000Y-64630000D03*
%TO.N,/PB14*%
X121950000Y-67170000D03*
%TO.N,/PB15*%
X121950000Y-69710000D03*
%TO.N,/PA8*%
X121950000Y-72250000D03*
%TO.N,/PA9*%
X121950000Y-74790000D03*
%TO.N,/PA10*%
X121950000Y-77330000D03*
%TO.N,/PA11*%
X121950000Y-79870000D03*
%TO.N,/PA12*%
X121950000Y-82410000D03*
%TO.N,/PA15*%
X121950000Y-84950000D03*
%TO.N,/PB3*%
X121950000Y-87490000D03*
%TO.N,/PB4*%
X121950000Y-90030000D03*
%TO.N,/PB5*%
X121950000Y-92570000D03*
%TO.N,/PB6*%
X121950000Y-95110000D03*
%TO.N,/PB7*%
X121950000Y-97650000D03*
%TO.N,/PB8*%
X121950000Y-100190000D03*
%TO.N,/PB9*%
X121950000Y-102730000D03*
%TO.N,/5V*%
X121950000Y-105270000D03*
%TO.N,GND*%
X121950000Y-107810000D03*
D11*
%TO.N,/3V3*%
X121950000Y-110350000D03*
%TD*%
D10*
%TO.N,GND*%
%TO.C,J1*%
X138320000Y-62130000D03*
X138320000Y-64670000D03*
%TO.N,/3V3*%
X138320000Y-67210000D03*
%TO.N,/RESET*%
X138320000Y-69750000D03*
%TO.N,/PB11*%
X138320000Y-72290000D03*
%TO.N,/PB10*%
X138320000Y-74830000D03*
%TO.N,/PB1*%
X138320000Y-77370000D03*
%TO.N,/PB0*%
X138320000Y-79910000D03*
%TO.N,/PA7*%
X138320000Y-82450000D03*
%TO.N,/PA6*%
X138320000Y-84990000D03*
%TO.N,/PA5*%
X138320000Y-87530000D03*
%TO.N,/PA4*%
X138320000Y-90070000D03*
%TO.N,/PA3*%
X138320000Y-92610000D03*
%TO.N,/PA2*%
X138320000Y-95150000D03*
%TO.N,/PA1*%
X138320000Y-97690000D03*
%TO.N,/PA0*%
X138320000Y-100230000D03*
%TO.N,/PC15*%
X138320000Y-102770000D03*
%TO.N,/PC14*%
X138320000Y-105310000D03*
%TO.N,/PC13*%
X138320000Y-107850000D03*
D11*
%TO.N,/VBAT*%
X138320000Y-110390000D03*
%TD*%
D12*
%TO.N,GND*%
X125360000Y-98770000D03*
X130070000Y-83440000D03*
X132460000Y-88270000D03*
X128890000Y-66920000D03*
X125810000Y-70120000D03*
X129675012Y-87025009D03*
X133030000Y-86320000D03*
X128663425Y-76683985D03*
X126331193Y-86466484D03*
X129798621Y-88977480D03*
%TO.N,/RESET*%
X134582660Y-91047340D03*
%TO.N,/3V3*%
X128529417Y-93987900D03*
X125743463Y-73193146D03*
X128422379Y-77674437D03*
X124235587Y-86276785D03*
X127050000Y-101880000D03*
X133484990Y-78487102D03*
%TO.N,/OSCIN*%
X130670000Y-92840000D03*
%TO.N,/OSCOUT*%
X127740865Y-96060865D03*
X129930000Y-96420000D03*
X135367898Y-93072579D03*
%TO.N,/PC14*%
X134761883Y-104747819D03*
X135304990Y-98335534D03*
%TO.N,/PC15*%
X131204568Y-106860010D03*
X132170000Y-104830000D03*
%TO.N,/5V*%
X129430000Y-79380000D03*
%TO.N,Net-(D1-Pad1)*%
X132770182Y-102585618D03*
%TO.N,Net-(D2-Pad1)*%
X125410000Y-101080000D03*
%TO.N,Net-(J3-Pad3)*%
X130006683Y-66908381D03*
%TO.N,Net-(J3-Pad2)*%
X131004990Y-66850000D03*
%TO.N,Net-(J4-Pad4)*%
X133310000Y-79960000D03*
%TO.N,/SWCLK*%
X124010000Y-88630000D03*
%TO.N,/SWIO*%
X127800000Y-88460000D03*
%TO.N,/BOOT0*%
X129630000Y-75740000D03*
%TO.N,/BOOT1*%
X131850000Y-85120000D03*
%TD*%
D13*
%TO.N,GND*%
X128890000Y-71480000D02*
X131670000Y-74260000D01*
X128890000Y-66920000D02*
X128890000Y-71480000D01*
X128890000Y-67040000D02*
X128890000Y-66920000D01*
X125810000Y-70120000D02*
X128890000Y-67040000D01*
X130070000Y-86630021D02*
X129675012Y-87025009D01*
X130070000Y-83440000D02*
X130070000Y-86630021D01*
X126135001Y-103624999D02*
X126135001Y-99545001D01*
X126135001Y-99545001D02*
X125360000Y-98770000D01*
X121950000Y-107810000D02*
X126135001Y-103624999D01*
X132460000Y-86858499D02*
X134318499Y-85000000D01*
X132293490Y-87025009D02*
X134318499Y-85000000D01*
X134210000Y-85140000D02*
X133030000Y-86320000D01*
X133030000Y-86288499D02*
X133030000Y-86320000D01*
X134318499Y-85000000D02*
X133030000Y-86288499D01*
X129675012Y-87025009D02*
X132293490Y-87025009D01*
X134210000Y-74260000D02*
X134210000Y-85140000D01*
X132460000Y-88270000D02*
X132460000Y-86858499D01*
X131670000Y-74260000D02*
X131670000Y-75462081D01*
X129063424Y-77083984D02*
X128663425Y-76683985D01*
X130048097Y-77083984D02*
X129063424Y-77083984D01*
X131670000Y-75462081D02*
X130048097Y-77083984D01*
X129116487Y-86466484D02*
X126331193Y-86466484D01*
X129675012Y-87025009D02*
X129116487Y-86466484D01*
X132460000Y-88270000D02*
X130506101Y-88270000D01*
X129675012Y-87025009D02*
X129675012Y-88853871D01*
X130506101Y-88270000D02*
X129798621Y-88977480D01*
X129675012Y-88853871D02*
X129798621Y-88977480D01*
%TD*%
D14*
%TO.N,GND*%
G36*
X140032568Y-60454977D02*
G01*
X139973434Y-111793000D01*
X120356711Y-111793000D01*
X120353933Y-108166890D01*
X120508524Y-108166890D01*
X120553175Y-108314099D01*
X120678359Y-108576920D01*
X120852412Y-108810269D01*
X121068645Y-109005178D01*
X121318748Y-109154157D01*
X121367408Y-109171418D01*
X121100000Y-109171418D01*
X121035897Y-109177732D01*
X120974257Y-109196430D01*
X120917450Y-109226794D01*
X120867657Y-109267657D01*
X120826794Y-109317450D01*
X120796430Y-109374257D01*
X120777732Y-109435897D01*
X120771418Y-109500000D01*
X120771418Y-111200000D01*
X120777732Y-111264103D01*
X120796430Y-111325743D01*
X120826794Y-111382550D01*
X120867657Y-111432343D01*
X120917450Y-111473206D01*
X120974257Y-111503570D01*
X121035897Y-111522268D01*
X121100000Y-111528582D01*
X122800000Y-111528582D01*
X122864103Y-111522268D01*
X122925743Y-111503570D01*
X122982550Y-111473206D01*
X123032343Y-111432343D01*
X123073206Y-111382550D01*
X123103570Y-111325743D01*
X123122268Y-111264103D01*
X123128582Y-111200000D01*
X123128582Y-110526891D01*
X125108519Y-110526891D01*
X125205843Y-110801252D01*
X125354822Y-111051355D01*
X125549731Y-111267588D01*
X125783080Y-111441641D01*
X126045901Y-111566825D01*
X126193110Y-111611476D01*
X126423000Y-111490155D01*
X126423000Y-110297000D01*
X125229186Y-110297000D01*
X125108519Y-110526891D01*
X123128582Y-110526891D01*
X123128582Y-109813109D01*
X125108519Y-109813109D01*
X125229186Y-110043000D01*
X126423000Y-110043000D01*
X126423000Y-108849845D01*
X126677000Y-108849845D01*
X126677000Y-110043000D01*
X126697000Y-110043000D01*
X126697000Y-110297000D01*
X126677000Y-110297000D01*
X126677000Y-111490155D01*
X126906890Y-111611476D01*
X127054099Y-111566825D01*
X127316920Y-111441641D01*
X127550269Y-111267588D01*
X127745178Y-111051355D01*
X127894157Y-110801252D01*
X127978736Y-110562821D01*
X128046956Y-110727519D01*
X128175764Y-110920294D01*
X128339706Y-111084236D01*
X128532481Y-111213044D01*
X128746682Y-111301769D01*
X128974076Y-111347000D01*
X129205924Y-111347000D01*
X129433318Y-111301769D01*
X129647519Y-111213044D01*
X129840294Y-111084236D01*
X130004236Y-110920294D01*
X130133044Y-110727519D01*
X130221769Y-110513318D01*
X130267000Y-110285924D01*
X130267000Y-110054076D01*
X130453000Y-110054076D01*
X130453000Y-110285924D01*
X130498231Y-110513318D01*
X130586956Y-110727519D01*
X130715764Y-110920294D01*
X130879706Y-111084236D01*
X131072481Y-111213044D01*
X131286682Y-111301769D01*
X131514076Y-111347000D01*
X131745924Y-111347000D01*
X131973318Y-111301769D01*
X132187519Y-111213044D01*
X132380294Y-111084236D01*
X132544236Y-110920294D01*
X132673044Y-110727519D01*
X132761769Y-110513318D01*
X132807000Y-110285924D01*
X132807000Y-110054076D01*
X132761769Y-109826682D01*
X132673044Y-109612481D01*
X132544236Y-109419706D01*
X132444530Y-109320000D01*
X132991418Y-109320000D01*
X132991418Y-111020000D01*
X132997732Y-111084103D01*
X133016430Y-111145743D01*
X133046794Y-111202550D01*
X133087657Y-111252343D01*
X133137450Y-111293206D01*
X133194257Y-111323570D01*
X133255897Y-111342268D01*
X133320000Y-111348582D01*
X135020000Y-111348582D01*
X135084103Y-111342268D01*
X135145743Y-111323570D01*
X135202550Y-111293206D01*
X135252343Y-111252343D01*
X135293206Y-111202550D01*
X135323570Y-111145743D01*
X135342268Y-111084103D01*
X135348582Y-111020000D01*
X135348582Y-109540000D01*
X137141418Y-109540000D01*
X137141418Y-111240000D01*
X137147732Y-111304103D01*
X137166430Y-111365743D01*
X137196794Y-111422550D01*
X137237657Y-111472343D01*
X137287450Y-111513206D01*
X137344257Y-111543570D01*
X137405897Y-111562268D01*
X137470000Y-111568582D01*
X139170000Y-111568582D01*
X139234103Y-111562268D01*
X139295743Y-111543570D01*
X139352550Y-111513206D01*
X139402343Y-111472343D01*
X139443206Y-111422550D01*
X139473570Y-111365743D01*
X139492268Y-111304103D01*
X139498582Y-111240000D01*
X139498582Y-109540000D01*
X139492268Y-109475897D01*
X139473570Y-109414257D01*
X139443206Y-109357450D01*
X139402343Y-109307657D01*
X139352550Y-109266794D01*
X139295743Y-109236430D01*
X139234103Y-109217732D01*
X139170000Y-109211418D01*
X137470000Y-109211418D01*
X137405897Y-109217732D01*
X137344257Y-109236430D01*
X137287450Y-109266794D01*
X137237657Y-109307657D01*
X137196794Y-109357450D01*
X137166430Y-109414257D01*
X137147732Y-109475897D01*
X137141418Y-109540000D01*
X135348582Y-109540000D01*
X135348582Y-109320000D01*
X135342268Y-109255897D01*
X135323570Y-109194257D01*
X135293206Y-109137450D01*
X135252343Y-109087657D01*
X135202550Y-109046794D01*
X135145743Y-109016430D01*
X135084103Y-108997732D01*
X135020000Y-108991418D01*
X133320000Y-108991418D01*
X133255897Y-108997732D01*
X133194257Y-109016430D01*
X133137450Y-109046794D01*
X133087657Y-109087657D01*
X133046794Y-109137450D01*
X133016430Y-109194257D01*
X132997732Y-109255897D01*
X132991418Y-109320000D01*
X132444530Y-109320000D01*
X132380294Y-109255764D01*
X132187519Y-109126956D01*
X131973318Y-109038231D01*
X131745924Y-108993000D01*
X131514076Y-108993000D01*
X131286682Y-109038231D01*
X131072481Y-109126956D01*
X130879706Y-109255764D01*
X130715764Y-109419706D01*
X130586956Y-109612481D01*
X130498231Y-109826682D01*
X130453000Y-110054076D01*
X130267000Y-110054076D01*
X130221769Y-109826682D01*
X130133044Y-109612481D01*
X130004236Y-109419706D01*
X129840294Y-109255764D01*
X129647519Y-109126956D01*
X129433318Y-109038231D01*
X129205924Y-108993000D01*
X128974076Y-108993000D01*
X128746682Y-109038231D01*
X128532481Y-109126956D01*
X128339706Y-109255764D01*
X128175764Y-109419706D01*
X128046956Y-109612481D01*
X127978736Y-109777179D01*
X127894157Y-109538748D01*
X127745178Y-109288645D01*
X127550269Y-109072412D01*
X127316920Y-108898359D01*
X127054099Y-108773175D01*
X126906890Y-108728524D01*
X126677000Y-108849845D01*
X126423000Y-108849845D01*
X126193110Y-108728524D01*
X126045901Y-108773175D01*
X125783080Y-108898359D01*
X125549731Y-109072412D01*
X125354822Y-109288645D01*
X125205843Y-109538748D01*
X125108519Y-109813109D01*
X123128582Y-109813109D01*
X123128582Y-109500000D01*
X123122268Y-109435897D01*
X123103570Y-109374257D01*
X123073206Y-109317450D01*
X123032343Y-109267657D01*
X122982550Y-109226794D01*
X122925743Y-109196430D01*
X122864103Y-109177732D01*
X122800000Y-109171418D01*
X122532592Y-109171418D01*
X122581252Y-109154157D01*
X122831355Y-109005178D01*
X123047588Y-108810269D01*
X123221641Y-108576920D01*
X123346825Y-108314099D01*
X123391476Y-108166890D01*
X123270155Y-107937000D01*
X122077000Y-107937000D01*
X122077000Y-107957000D01*
X121823000Y-107957000D01*
X121823000Y-107937000D01*
X120629845Y-107937000D01*
X120508524Y-108166890D01*
X120353933Y-108166890D01*
X120353602Y-107734076D01*
X137143000Y-107734076D01*
X137143000Y-107965924D01*
X137188231Y-108193318D01*
X137276956Y-108407519D01*
X137405764Y-108600294D01*
X137569706Y-108764236D01*
X137762481Y-108893044D01*
X137976682Y-108981769D01*
X138204076Y-109027000D01*
X138435924Y-109027000D01*
X138663318Y-108981769D01*
X138877519Y-108893044D01*
X139070294Y-108764236D01*
X139234236Y-108600294D01*
X139363044Y-108407519D01*
X139451769Y-108193318D01*
X139497000Y-107965924D01*
X139497000Y-107734076D01*
X139451769Y-107506682D01*
X139363044Y-107292481D01*
X139234236Y-107099706D01*
X139070294Y-106935764D01*
X138877519Y-106806956D01*
X138663318Y-106718231D01*
X138435924Y-106673000D01*
X138204076Y-106673000D01*
X137976682Y-106718231D01*
X137762481Y-106806956D01*
X137569706Y-106935764D01*
X137405764Y-107099706D01*
X137276956Y-107292481D01*
X137188231Y-107506682D01*
X137143000Y-107734076D01*
X120353602Y-107734076D01*
X120353387Y-107453110D01*
X120508524Y-107453110D01*
X120629845Y-107683000D01*
X121823000Y-107683000D01*
X121823000Y-107663000D01*
X122077000Y-107663000D01*
X122077000Y-107683000D01*
X123270155Y-107683000D01*
X123391476Y-107453110D01*
X123346825Y-107305901D01*
X123221641Y-107043080D01*
X123047588Y-106809731D01*
X123023932Y-106788407D01*
X130477568Y-106788407D01*
X130477568Y-106931613D01*
X130505506Y-107072068D01*
X130560309Y-107204374D01*
X130639870Y-107323446D01*
X130741132Y-107424708D01*
X130860204Y-107504269D01*
X130992510Y-107559072D01*
X131132965Y-107587010D01*
X131276171Y-107587010D01*
X131416626Y-107559072D01*
X131548932Y-107504269D01*
X131668004Y-107424708D01*
X131769266Y-107323446D01*
X131848827Y-107204374D01*
X131903630Y-107072068D01*
X131931568Y-106931613D01*
X131931568Y-106788407D01*
X131903630Y-106647952D01*
X131848827Y-106515646D01*
X131769266Y-106396574D01*
X131668004Y-106295312D01*
X131548932Y-106215751D01*
X131416626Y-106160948D01*
X131276171Y-106133010D01*
X131132965Y-106133010D01*
X130992510Y-106160948D01*
X130860204Y-106215751D01*
X130741132Y-106295312D01*
X130639870Y-106396574D01*
X130560309Y-106515646D01*
X130505506Y-106647952D01*
X130477568Y-106788407D01*
X123023932Y-106788407D01*
X122831355Y-106614822D01*
X122581252Y-106465843D01*
X122342821Y-106381264D01*
X122507519Y-106313044D01*
X122700294Y-106184236D01*
X122864236Y-106020294D01*
X122993044Y-105827519D01*
X123081769Y-105613318D01*
X123127000Y-105385924D01*
X123127000Y-105154076D01*
X123081769Y-104926682D01*
X123012064Y-104758397D01*
X131443000Y-104758397D01*
X131443000Y-104901603D01*
X131470938Y-105042058D01*
X131525741Y-105174364D01*
X131605302Y-105293436D01*
X131706564Y-105394698D01*
X131825636Y-105474259D01*
X131957942Y-105529062D01*
X132098397Y-105557000D01*
X132241603Y-105557000D01*
X132382058Y-105529062D01*
X132514364Y-105474259D01*
X132633436Y-105394698D01*
X132734698Y-105293436D01*
X132814259Y-105174364D01*
X132869062Y-105042058D01*
X132897000Y-104901603D01*
X132897000Y-104758397D01*
X132880654Y-104676216D01*
X134034883Y-104676216D01*
X134034883Y-104819422D01*
X134062821Y-104959877D01*
X134117624Y-105092183D01*
X134197185Y-105211255D01*
X134298447Y-105312517D01*
X134417519Y-105392078D01*
X134549825Y-105446881D01*
X134690280Y-105474819D01*
X134833486Y-105474819D01*
X134973941Y-105446881D01*
X135106247Y-105392078D01*
X135225319Y-105312517D01*
X135326581Y-105211255D01*
X135338059Y-105194076D01*
X137143000Y-105194076D01*
X137143000Y-105425924D01*
X137188231Y-105653318D01*
X137276956Y-105867519D01*
X137405764Y-106060294D01*
X137569706Y-106224236D01*
X137762481Y-106353044D01*
X137976682Y-106441769D01*
X138204076Y-106487000D01*
X138435924Y-106487000D01*
X138663318Y-106441769D01*
X138877519Y-106353044D01*
X139070294Y-106224236D01*
X139234236Y-106060294D01*
X139363044Y-105867519D01*
X139451769Y-105653318D01*
X139497000Y-105425924D01*
X139497000Y-105194076D01*
X139451769Y-104966682D01*
X139363044Y-104752481D01*
X139234236Y-104559706D01*
X139070294Y-104395764D01*
X138877519Y-104266956D01*
X138663318Y-104178231D01*
X138435924Y-104133000D01*
X138204076Y-104133000D01*
X137976682Y-104178231D01*
X137762481Y-104266956D01*
X137569706Y-104395764D01*
X137405764Y-104559706D01*
X137276956Y-104752481D01*
X137188231Y-104966682D01*
X137143000Y-105194076D01*
X135338059Y-105194076D01*
X135406142Y-105092183D01*
X135460945Y-104959877D01*
X135488883Y-104819422D01*
X135488883Y-104676216D01*
X135460945Y-104535761D01*
X135406142Y-104403455D01*
X135326581Y-104284383D01*
X135225319Y-104183121D01*
X135106247Y-104103560D01*
X134973941Y-104048757D01*
X134833486Y-104020819D01*
X134690280Y-104020819D01*
X134549825Y-104048757D01*
X134417519Y-104103560D01*
X134298447Y-104183121D01*
X134197185Y-104284383D01*
X134117624Y-104403455D01*
X134062821Y-104535761D01*
X134034883Y-104676216D01*
X132880654Y-104676216D01*
X132869062Y-104617942D01*
X132814259Y-104485636D01*
X132734698Y-104366564D01*
X132633436Y-104265302D01*
X132514364Y-104185741D01*
X132382058Y-104130938D01*
X132241603Y-104103000D01*
X132098397Y-104103000D01*
X131957942Y-104130938D01*
X131825636Y-104185741D01*
X131706564Y-104265302D01*
X131605302Y-104366564D01*
X131525741Y-104485636D01*
X131470938Y-104617942D01*
X131443000Y-104758397D01*
X123012064Y-104758397D01*
X122993044Y-104712481D01*
X122864236Y-104519706D01*
X122700294Y-104355764D01*
X122507519Y-104226956D01*
X122293318Y-104138231D01*
X122065924Y-104093000D01*
X121834076Y-104093000D01*
X121606682Y-104138231D01*
X121392481Y-104226956D01*
X121199706Y-104355764D01*
X121035764Y-104519706D01*
X120906956Y-104712481D01*
X120818231Y-104926682D01*
X120773000Y-105154076D01*
X120773000Y-105385924D01*
X120818231Y-105613318D01*
X120906956Y-105827519D01*
X121035764Y-106020294D01*
X121199706Y-106184236D01*
X121392481Y-106313044D01*
X121557179Y-106381264D01*
X121318748Y-106465843D01*
X121068645Y-106614822D01*
X120852412Y-106809731D01*
X120678359Y-107043080D01*
X120553175Y-107305901D01*
X120508524Y-107453110D01*
X120353387Y-107453110D01*
X120349679Y-102614076D01*
X120773000Y-102614076D01*
X120773000Y-102845924D01*
X120818231Y-103073318D01*
X120906956Y-103287519D01*
X121035764Y-103480294D01*
X121199706Y-103644236D01*
X121392481Y-103773044D01*
X121606682Y-103861769D01*
X121834076Y-103907000D01*
X122065924Y-103907000D01*
X122293318Y-103861769D01*
X122507519Y-103773044D01*
X122700294Y-103644236D01*
X122864236Y-103480294D01*
X122993044Y-103287519D01*
X123081769Y-103073318D01*
X123127000Y-102845924D01*
X123127000Y-102614076D01*
X123081769Y-102386682D01*
X122993044Y-102172481D01*
X122864236Y-101979706D01*
X122700294Y-101815764D01*
X122689269Y-101808397D01*
X126323000Y-101808397D01*
X126323000Y-101951603D01*
X126350938Y-102092058D01*
X126405741Y-102224364D01*
X126485302Y-102343436D01*
X126586564Y-102444698D01*
X126705636Y-102524259D01*
X126837942Y-102579062D01*
X126978397Y-102607000D01*
X127121603Y-102607000D01*
X127262058Y-102579062D01*
X127394364Y-102524259D01*
X127409695Y-102514015D01*
X132043182Y-102514015D01*
X132043182Y-102657221D01*
X132071120Y-102797676D01*
X132125923Y-102929982D01*
X132205484Y-103049054D01*
X132306746Y-103150316D01*
X132425818Y-103229877D01*
X132558124Y-103284680D01*
X132698579Y-103312618D01*
X132841785Y-103312618D01*
X132982240Y-103284680D01*
X133114546Y-103229877D01*
X133233618Y-103150316D01*
X133334880Y-103049054D01*
X133414441Y-102929982D01*
X133469244Y-102797676D01*
X133497182Y-102657221D01*
X133497182Y-102654076D01*
X137143000Y-102654076D01*
X137143000Y-102885924D01*
X137188231Y-103113318D01*
X137276956Y-103327519D01*
X137405764Y-103520294D01*
X137569706Y-103684236D01*
X137762481Y-103813044D01*
X137976682Y-103901769D01*
X138204076Y-103947000D01*
X138435924Y-103947000D01*
X138663318Y-103901769D01*
X138877519Y-103813044D01*
X139070294Y-103684236D01*
X139234236Y-103520294D01*
X139363044Y-103327519D01*
X139451769Y-103113318D01*
X139497000Y-102885924D01*
X139497000Y-102654076D01*
X139451769Y-102426682D01*
X139363044Y-102212481D01*
X139234236Y-102019706D01*
X139070294Y-101855764D01*
X138877519Y-101726956D01*
X138663318Y-101638231D01*
X138435924Y-101593000D01*
X138204076Y-101593000D01*
X137976682Y-101638231D01*
X137762481Y-101726956D01*
X137569706Y-101855764D01*
X137405764Y-102019706D01*
X137276956Y-102212481D01*
X137188231Y-102426682D01*
X137143000Y-102654076D01*
X133497182Y-102654076D01*
X133497182Y-102514015D01*
X133469244Y-102373560D01*
X133414441Y-102241254D01*
X133334880Y-102122182D01*
X133233618Y-102020920D01*
X133114546Y-101941359D01*
X132982240Y-101886556D01*
X132841785Y-101858618D01*
X132698579Y-101858618D01*
X132558124Y-101886556D01*
X132425818Y-101941359D01*
X132306746Y-102020920D01*
X132205484Y-102122182D01*
X132125923Y-102241254D01*
X132071120Y-102373560D01*
X132043182Y-102514015D01*
X127409695Y-102514015D01*
X127513436Y-102444698D01*
X127614698Y-102343436D01*
X127694259Y-102224364D01*
X127749062Y-102092058D01*
X127777000Y-101951603D01*
X127777000Y-101808397D01*
X127749062Y-101667942D01*
X127694259Y-101535636D01*
X127614698Y-101416564D01*
X127513436Y-101315302D01*
X127394364Y-101235741D01*
X127262058Y-101180938D01*
X127121603Y-101153000D01*
X126978397Y-101153000D01*
X126837942Y-101180938D01*
X126705636Y-101235741D01*
X126586564Y-101315302D01*
X126485302Y-101416564D01*
X126405741Y-101535636D01*
X126350938Y-101667942D01*
X126323000Y-101808397D01*
X122689269Y-101808397D01*
X122507519Y-101686956D01*
X122293318Y-101598231D01*
X122065924Y-101553000D01*
X121834076Y-101553000D01*
X121606682Y-101598231D01*
X121392481Y-101686956D01*
X121199706Y-101815764D01*
X121035764Y-101979706D01*
X120906956Y-102172481D01*
X120818231Y-102386682D01*
X120773000Y-102614076D01*
X120349679Y-102614076D01*
X120347733Y-100074076D01*
X120773000Y-100074076D01*
X120773000Y-100305924D01*
X120818231Y-100533318D01*
X120906956Y-100747519D01*
X121035764Y-100940294D01*
X121199706Y-101104236D01*
X121392481Y-101233044D01*
X121606682Y-101321769D01*
X121834076Y-101367000D01*
X122065924Y-101367000D01*
X122293318Y-101321769D01*
X122507519Y-101233044D01*
X122700294Y-101104236D01*
X122796133Y-101008397D01*
X124683000Y-101008397D01*
X124683000Y-101151603D01*
X124710938Y-101292058D01*
X124765741Y-101424364D01*
X124845302Y-101543436D01*
X124946564Y-101644698D01*
X125065636Y-101724259D01*
X125197942Y-101779062D01*
X125338397Y-101807000D01*
X125481603Y-101807000D01*
X125622058Y-101779062D01*
X125754364Y-101724259D01*
X125873436Y-101644698D01*
X125974698Y-101543436D01*
X126054259Y-101424364D01*
X126109062Y-101292058D01*
X126137000Y-101151603D01*
X126137000Y-101008397D01*
X126109062Y-100867942D01*
X126054259Y-100735636D01*
X125974698Y-100616564D01*
X125873436Y-100515302D01*
X125754364Y-100435741D01*
X125622058Y-100380938D01*
X125481603Y-100353000D01*
X125338397Y-100353000D01*
X125197942Y-100380938D01*
X125065636Y-100435741D01*
X124946564Y-100515302D01*
X124845302Y-100616564D01*
X124765741Y-100735636D01*
X124710938Y-100867942D01*
X124683000Y-101008397D01*
X122796133Y-101008397D01*
X122864236Y-100940294D01*
X122993044Y-100747519D01*
X123081769Y-100533318D01*
X123127000Y-100305924D01*
X123127000Y-100114076D01*
X137143000Y-100114076D01*
X137143000Y-100345924D01*
X137188231Y-100573318D01*
X137276956Y-100787519D01*
X137405764Y-100980294D01*
X137569706Y-101144236D01*
X137762481Y-101273044D01*
X137976682Y-101361769D01*
X138204076Y-101407000D01*
X138435924Y-101407000D01*
X138663318Y-101361769D01*
X138877519Y-101273044D01*
X139070294Y-101144236D01*
X139234236Y-100980294D01*
X139363044Y-100787519D01*
X139451769Y-100573318D01*
X139497000Y-100345924D01*
X139497000Y-100114076D01*
X139451769Y-99886682D01*
X139363044Y-99672481D01*
X139234236Y-99479706D01*
X139070294Y-99315764D01*
X138877519Y-99186956D01*
X138663318Y-99098231D01*
X138435924Y-99053000D01*
X138204076Y-99053000D01*
X137976682Y-99098231D01*
X137762481Y-99186956D01*
X137569706Y-99315764D01*
X137405764Y-99479706D01*
X137276956Y-99672481D01*
X137188231Y-99886682D01*
X137143000Y-100114076D01*
X123127000Y-100114076D01*
X123127000Y-100074076D01*
X123081769Y-99846682D01*
X122993044Y-99632481D01*
X122864236Y-99439706D01*
X122700294Y-99275764D01*
X122507519Y-99146956D01*
X122293318Y-99058231D01*
X122065924Y-99013000D01*
X121834076Y-99013000D01*
X121606682Y-99058231D01*
X121392481Y-99146956D01*
X121199706Y-99275764D01*
X121035764Y-99439706D01*
X120906956Y-99632481D01*
X120818231Y-99846682D01*
X120773000Y-100074076D01*
X120347733Y-100074076D01*
X120345787Y-97534076D01*
X120773000Y-97534076D01*
X120773000Y-97765924D01*
X120818231Y-97993318D01*
X120906956Y-98207519D01*
X121035764Y-98400294D01*
X121199706Y-98564236D01*
X121392481Y-98693044D01*
X121606682Y-98781769D01*
X121834076Y-98827000D01*
X122065924Y-98827000D01*
X122293318Y-98781769D01*
X122507519Y-98693044D01*
X122700294Y-98564236D01*
X122864236Y-98400294D01*
X122955350Y-98263931D01*
X134577990Y-98263931D01*
X134577990Y-98407137D01*
X134605928Y-98547592D01*
X134660731Y-98679898D01*
X134740292Y-98798970D01*
X134841554Y-98900232D01*
X134960626Y-98979793D01*
X135092932Y-99034596D01*
X135233387Y-99062534D01*
X135376593Y-99062534D01*
X135517048Y-99034596D01*
X135649354Y-98979793D01*
X135768426Y-98900232D01*
X135869688Y-98798970D01*
X135949249Y-98679898D01*
X136004052Y-98547592D01*
X136031990Y-98407137D01*
X136031990Y-98263931D01*
X136004052Y-98123476D01*
X135949249Y-97991170D01*
X135869688Y-97872098D01*
X135768426Y-97770836D01*
X135649354Y-97691275D01*
X135517048Y-97636472D01*
X135376593Y-97608534D01*
X135233387Y-97608534D01*
X135092932Y-97636472D01*
X134960626Y-97691275D01*
X134841554Y-97770836D01*
X134740292Y-97872098D01*
X134660731Y-97991170D01*
X134605928Y-98123476D01*
X134577990Y-98263931D01*
X122955350Y-98263931D01*
X122993044Y-98207519D01*
X123081769Y-97993318D01*
X123127000Y-97765924D01*
X123127000Y-97574076D01*
X137143000Y-97574076D01*
X137143000Y-97805924D01*
X137188231Y-98033318D01*
X137276956Y-98247519D01*
X137405764Y-98440294D01*
X137569706Y-98604236D01*
X137762481Y-98733044D01*
X137976682Y-98821769D01*
X138204076Y-98867000D01*
X138435924Y-98867000D01*
X138663318Y-98821769D01*
X138877519Y-98733044D01*
X139070294Y-98604236D01*
X139234236Y-98440294D01*
X139363044Y-98247519D01*
X139451769Y-98033318D01*
X139497000Y-97805924D01*
X139497000Y-97574076D01*
X139451769Y-97346682D01*
X139363044Y-97132481D01*
X139234236Y-96939706D01*
X139070294Y-96775764D01*
X138877519Y-96646956D01*
X138663318Y-96558231D01*
X138435924Y-96513000D01*
X138204076Y-96513000D01*
X137976682Y-96558231D01*
X137762481Y-96646956D01*
X137569706Y-96775764D01*
X137405764Y-96939706D01*
X137276956Y-97132481D01*
X137188231Y-97346682D01*
X137143000Y-97574076D01*
X123127000Y-97574076D01*
X123127000Y-97534076D01*
X123081769Y-97306682D01*
X122993044Y-97092481D01*
X122864236Y-96899706D01*
X122700294Y-96735764D01*
X122507519Y-96606956D01*
X122293318Y-96518231D01*
X122065924Y-96473000D01*
X121834076Y-96473000D01*
X121606682Y-96518231D01*
X121392481Y-96606956D01*
X121199706Y-96735764D01*
X121035764Y-96899706D01*
X120906956Y-97092481D01*
X120818231Y-97306682D01*
X120773000Y-97534076D01*
X120345787Y-97534076D01*
X120343841Y-94994076D01*
X120773000Y-94994076D01*
X120773000Y-95225924D01*
X120818231Y-95453318D01*
X120906956Y-95667519D01*
X121035764Y-95860294D01*
X121199706Y-96024236D01*
X121392481Y-96153044D01*
X121606682Y-96241769D01*
X121834076Y-96287000D01*
X122065924Y-96287000D01*
X122293318Y-96241769D01*
X122507519Y-96153044D01*
X122700294Y-96024236D01*
X122735268Y-95989262D01*
X127013865Y-95989262D01*
X127013865Y-96132468D01*
X127041803Y-96272923D01*
X127096606Y-96405229D01*
X127176167Y-96524301D01*
X127277429Y-96625563D01*
X127396501Y-96705124D01*
X127528807Y-96759927D01*
X127669262Y-96787865D01*
X127812468Y-96787865D01*
X127952923Y-96759927D01*
X128085229Y-96705124D01*
X128204301Y-96625563D01*
X128305563Y-96524301D01*
X128385124Y-96405229D01*
X128408664Y-96348397D01*
X129203000Y-96348397D01*
X129203000Y-96491603D01*
X129230938Y-96632058D01*
X129285741Y-96764364D01*
X129365302Y-96883436D01*
X129466564Y-96984698D01*
X129585636Y-97064259D01*
X129717942Y-97119062D01*
X129858397Y-97147000D01*
X130001603Y-97147000D01*
X130142058Y-97119062D01*
X130274364Y-97064259D01*
X130393436Y-96984698D01*
X130494698Y-96883436D01*
X130574259Y-96764364D01*
X130629062Y-96632058D01*
X130657000Y-96491603D01*
X130657000Y-96348397D01*
X130629062Y-96207942D01*
X130574259Y-96075636D01*
X130494698Y-95956564D01*
X130393436Y-95855302D01*
X130274364Y-95775741D01*
X130142058Y-95720938D01*
X130001603Y-95693000D01*
X129858397Y-95693000D01*
X129717942Y-95720938D01*
X129585636Y-95775741D01*
X129466564Y-95855302D01*
X129365302Y-95956564D01*
X129285741Y-96075636D01*
X129230938Y-96207942D01*
X129203000Y-96348397D01*
X128408664Y-96348397D01*
X128439927Y-96272923D01*
X128467865Y-96132468D01*
X128467865Y-95989262D01*
X128439927Y-95848807D01*
X128385124Y-95716501D01*
X128305563Y-95597429D01*
X128204301Y-95496167D01*
X128085229Y-95416606D01*
X127952923Y-95361803D01*
X127812468Y-95333865D01*
X127669262Y-95333865D01*
X127528807Y-95361803D01*
X127396501Y-95416606D01*
X127277429Y-95496167D01*
X127176167Y-95597429D01*
X127096606Y-95716501D01*
X127041803Y-95848807D01*
X127013865Y-95989262D01*
X122735268Y-95989262D01*
X122864236Y-95860294D01*
X122993044Y-95667519D01*
X123081769Y-95453318D01*
X123127000Y-95225924D01*
X123127000Y-95034076D01*
X137143000Y-95034076D01*
X137143000Y-95265924D01*
X137188231Y-95493318D01*
X137276956Y-95707519D01*
X137405764Y-95900294D01*
X137569706Y-96064236D01*
X137762481Y-96193044D01*
X137976682Y-96281769D01*
X138204076Y-96327000D01*
X138435924Y-96327000D01*
X138663318Y-96281769D01*
X138877519Y-96193044D01*
X139070294Y-96064236D01*
X139234236Y-95900294D01*
X139363044Y-95707519D01*
X139451769Y-95493318D01*
X139497000Y-95265924D01*
X139497000Y-95034076D01*
X139451769Y-94806682D01*
X139363044Y-94592481D01*
X139234236Y-94399706D01*
X139070294Y-94235764D01*
X138877519Y-94106956D01*
X138663318Y-94018231D01*
X138435924Y-93973000D01*
X138204076Y-93973000D01*
X137976682Y-94018231D01*
X137762481Y-94106956D01*
X137569706Y-94235764D01*
X137405764Y-94399706D01*
X137276956Y-94592481D01*
X137188231Y-94806682D01*
X137143000Y-95034076D01*
X123127000Y-95034076D01*
X123127000Y-94994076D01*
X123081769Y-94766682D01*
X122993044Y-94552481D01*
X122864236Y-94359706D01*
X122700294Y-94195764D01*
X122507519Y-94066956D01*
X122293318Y-93978231D01*
X122065924Y-93933000D01*
X121834076Y-93933000D01*
X121606682Y-93978231D01*
X121392481Y-94066956D01*
X121199706Y-94195764D01*
X121035764Y-94359706D01*
X120906956Y-94552481D01*
X120818231Y-94766682D01*
X120773000Y-94994076D01*
X120343841Y-94994076D01*
X120343016Y-93916297D01*
X127802417Y-93916297D01*
X127802417Y-94059503D01*
X127830355Y-94199958D01*
X127885158Y-94332264D01*
X127964719Y-94451336D01*
X128065981Y-94552598D01*
X128185053Y-94632159D01*
X128317359Y-94686962D01*
X128457814Y-94714900D01*
X128601020Y-94714900D01*
X128741475Y-94686962D01*
X128873781Y-94632159D01*
X128992853Y-94552598D01*
X129094115Y-94451336D01*
X129173676Y-94332264D01*
X129228479Y-94199958D01*
X129256417Y-94059503D01*
X129256417Y-93916297D01*
X129228479Y-93775842D01*
X129173676Y-93643536D01*
X129094115Y-93524464D01*
X128992853Y-93423202D01*
X128873781Y-93343641D01*
X128741475Y-93288838D01*
X128601020Y-93260900D01*
X128457814Y-93260900D01*
X128317359Y-93288838D01*
X128185053Y-93343641D01*
X128065981Y-93423202D01*
X127964719Y-93524464D01*
X127885158Y-93643536D01*
X127830355Y-93775842D01*
X127802417Y-93916297D01*
X120343016Y-93916297D01*
X120341895Y-92454076D01*
X120773000Y-92454076D01*
X120773000Y-92685924D01*
X120818231Y-92913318D01*
X120906956Y-93127519D01*
X121035764Y-93320294D01*
X121199706Y-93484236D01*
X121392481Y-93613044D01*
X121606682Y-93701769D01*
X121834076Y-93747000D01*
X122065924Y-93747000D01*
X122293318Y-93701769D01*
X122507519Y-93613044D01*
X122700294Y-93484236D01*
X122864236Y-93320294D01*
X122993044Y-93127519D01*
X123081769Y-92913318D01*
X123110595Y-92768397D01*
X129943000Y-92768397D01*
X129943000Y-92911603D01*
X129970938Y-93052058D01*
X130025741Y-93184364D01*
X130105302Y-93303436D01*
X130206564Y-93404698D01*
X130325636Y-93484259D01*
X130457942Y-93539062D01*
X130598397Y-93567000D01*
X130741603Y-93567000D01*
X130882058Y-93539062D01*
X131014364Y-93484259D01*
X131133436Y-93404698D01*
X131234698Y-93303436D01*
X131314259Y-93184364D01*
X131369062Y-93052058D01*
X131379222Y-93000976D01*
X134640898Y-93000976D01*
X134640898Y-93144182D01*
X134668836Y-93284637D01*
X134723639Y-93416943D01*
X134803200Y-93536015D01*
X134904462Y-93637277D01*
X135023534Y-93716838D01*
X135155840Y-93771641D01*
X135296295Y-93799579D01*
X135439501Y-93799579D01*
X135579956Y-93771641D01*
X135712262Y-93716838D01*
X135831334Y-93637277D01*
X135932596Y-93536015D01*
X136012157Y-93416943D01*
X136066960Y-93284637D01*
X136094898Y-93144182D01*
X136094898Y-93000976D01*
X136066960Y-92860521D01*
X136012157Y-92728215D01*
X135932596Y-92609143D01*
X135831334Y-92507881D01*
X135810674Y-92494076D01*
X137143000Y-92494076D01*
X137143000Y-92725924D01*
X137188231Y-92953318D01*
X137276956Y-93167519D01*
X137405764Y-93360294D01*
X137569706Y-93524236D01*
X137762481Y-93653044D01*
X137976682Y-93741769D01*
X138204076Y-93787000D01*
X138435924Y-93787000D01*
X138663318Y-93741769D01*
X138877519Y-93653044D01*
X139070294Y-93524236D01*
X139234236Y-93360294D01*
X139363044Y-93167519D01*
X139451769Y-92953318D01*
X139497000Y-92725924D01*
X139497000Y-92494076D01*
X139451769Y-92266682D01*
X139363044Y-92052481D01*
X139234236Y-91859706D01*
X139070294Y-91695764D01*
X138877519Y-91566956D01*
X138663318Y-91478231D01*
X138435924Y-91433000D01*
X138204076Y-91433000D01*
X137976682Y-91478231D01*
X137762481Y-91566956D01*
X137569706Y-91695764D01*
X137405764Y-91859706D01*
X137276956Y-92052481D01*
X137188231Y-92266682D01*
X137143000Y-92494076D01*
X135810674Y-92494076D01*
X135712262Y-92428320D01*
X135579956Y-92373517D01*
X135439501Y-92345579D01*
X135296295Y-92345579D01*
X135155840Y-92373517D01*
X135023534Y-92428320D01*
X134904462Y-92507881D01*
X134803200Y-92609143D01*
X134723639Y-92728215D01*
X134668836Y-92860521D01*
X134640898Y-93000976D01*
X131379222Y-93000976D01*
X131397000Y-92911603D01*
X131397000Y-92768397D01*
X131369062Y-92627942D01*
X131314259Y-92495636D01*
X131234698Y-92376564D01*
X131133436Y-92275302D01*
X131014364Y-92195741D01*
X130882058Y-92140938D01*
X130741603Y-92113000D01*
X130598397Y-92113000D01*
X130457942Y-92140938D01*
X130325636Y-92195741D01*
X130206564Y-92275302D01*
X130105302Y-92376564D01*
X130025741Y-92495636D01*
X129970938Y-92627942D01*
X129943000Y-92768397D01*
X123110595Y-92768397D01*
X123127000Y-92685924D01*
X123127000Y-92454076D01*
X123081769Y-92226682D01*
X122993044Y-92012481D01*
X122864236Y-91819706D01*
X122700294Y-91655764D01*
X122507519Y-91526956D01*
X122293318Y-91438231D01*
X122065924Y-91393000D01*
X121834076Y-91393000D01*
X121606682Y-91438231D01*
X121392481Y-91526956D01*
X121199706Y-91655764D01*
X121035764Y-91819706D01*
X120906956Y-92012481D01*
X120818231Y-92226682D01*
X120773000Y-92454076D01*
X120341895Y-92454076D01*
X120339949Y-89914076D01*
X120773000Y-89914076D01*
X120773000Y-90145924D01*
X120818231Y-90373318D01*
X120906956Y-90587519D01*
X121035764Y-90780294D01*
X121199706Y-90944236D01*
X121392481Y-91073044D01*
X121606682Y-91161769D01*
X121834076Y-91207000D01*
X122065924Y-91207000D01*
X122293318Y-91161769D01*
X122507519Y-91073044D01*
X122653149Y-90975737D01*
X133855660Y-90975737D01*
X133855660Y-91118943D01*
X133883598Y-91259398D01*
X133938401Y-91391704D01*
X134017962Y-91510776D01*
X134119224Y-91612038D01*
X134238296Y-91691599D01*
X134370602Y-91746402D01*
X134511057Y-91774340D01*
X134654263Y-91774340D01*
X134794718Y-91746402D01*
X134927024Y-91691599D01*
X135046096Y-91612038D01*
X135147358Y-91510776D01*
X135226919Y-91391704D01*
X135281722Y-91259398D01*
X135309660Y-91118943D01*
X135309660Y-90975737D01*
X135281722Y-90835282D01*
X135226919Y-90702976D01*
X135147358Y-90583904D01*
X135046096Y-90482642D01*
X134927024Y-90403081D01*
X134794718Y-90348278D01*
X134654263Y-90320340D01*
X134511057Y-90320340D01*
X134370602Y-90348278D01*
X134238296Y-90403081D01*
X134119224Y-90482642D01*
X134017962Y-90583904D01*
X133938401Y-90702976D01*
X133883598Y-90835282D01*
X133855660Y-90975737D01*
X122653149Y-90975737D01*
X122700294Y-90944236D01*
X122864236Y-90780294D01*
X122993044Y-90587519D01*
X123081769Y-90373318D01*
X123127000Y-90145924D01*
X123127000Y-89954076D01*
X137143000Y-89954076D01*
X137143000Y-90185924D01*
X137188231Y-90413318D01*
X137276956Y-90627519D01*
X137405764Y-90820294D01*
X137569706Y-90984236D01*
X137762481Y-91113044D01*
X137976682Y-91201769D01*
X138204076Y-91247000D01*
X138435924Y-91247000D01*
X138663318Y-91201769D01*
X138877519Y-91113044D01*
X139070294Y-90984236D01*
X139234236Y-90820294D01*
X139363044Y-90627519D01*
X139451769Y-90413318D01*
X139497000Y-90185924D01*
X139497000Y-89954076D01*
X139451769Y-89726682D01*
X139363044Y-89512481D01*
X139234236Y-89319706D01*
X139070294Y-89155764D01*
X138877519Y-89026956D01*
X138663318Y-88938231D01*
X138435924Y-88893000D01*
X138204076Y-88893000D01*
X137976682Y-88938231D01*
X137762481Y-89026956D01*
X137569706Y-89155764D01*
X137405764Y-89319706D01*
X137276956Y-89512481D01*
X137188231Y-89726682D01*
X137143000Y-89954076D01*
X123127000Y-89954076D01*
X123127000Y-89914076D01*
X123081769Y-89686682D01*
X122993044Y-89472481D01*
X122864236Y-89279706D01*
X122700294Y-89115764D01*
X122507519Y-88986956D01*
X122293318Y-88898231D01*
X122065924Y-88853000D01*
X121834076Y-88853000D01*
X121606682Y-88898231D01*
X121392481Y-88986956D01*
X121199706Y-89115764D01*
X121035764Y-89279706D01*
X120906956Y-89472481D01*
X120818231Y-89686682D01*
X120773000Y-89914076D01*
X120339949Y-89914076D01*
X120338003Y-87374076D01*
X120773000Y-87374076D01*
X120773000Y-87605924D01*
X120818231Y-87833318D01*
X120906956Y-88047519D01*
X121035764Y-88240294D01*
X121199706Y-88404236D01*
X121392481Y-88533044D01*
X121606682Y-88621769D01*
X121834076Y-88667000D01*
X122065924Y-88667000D01*
X122293318Y-88621769D01*
X122446311Y-88558397D01*
X123283000Y-88558397D01*
X123283000Y-88701603D01*
X123310938Y-88842058D01*
X123365741Y-88974364D01*
X123445302Y-89093436D01*
X123546564Y-89194698D01*
X123665636Y-89274259D01*
X123797942Y-89329062D01*
X123938397Y-89357000D01*
X124081603Y-89357000D01*
X124222058Y-89329062D01*
X124354364Y-89274259D01*
X124473436Y-89194698D01*
X124574698Y-89093436D01*
X124654259Y-88974364D01*
X124709062Y-88842058D01*
X124737000Y-88701603D01*
X124737000Y-88558397D01*
X124709062Y-88417942D01*
X124696825Y-88388397D01*
X127073000Y-88388397D01*
X127073000Y-88531603D01*
X127100938Y-88672058D01*
X127155741Y-88804364D01*
X127235302Y-88923436D01*
X127336564Y-89024698D01*
X127455636Y-89104259D01*
X127587942Y-89159062D01*
X127728397Y-89187000D01*
X127871603Y-89187000D01*
X128012058Y-89159062D01*
X128144364Y-89104259D01*
X128263436Y-89024698D01*
X128364698Y-88923436D01*
X128444259Y-88804364D01*
X128499062Y-88672058D01*
X128527000Y-88531603D01*
X128527000Y-88388397D01*
X128499062Y-88247942D01*
X128444259Y-88115636D01*
X128364698Y-87996564D01*
X128263436Y-87895302D01*
X128144364Y-87815741D01*
X128012058Y-87760938D01*
X127871603Y-87733000D01*
X127728397Y-87733000D01*
X127587942Y-87760938D01*
X127455636Y-87815741D01*
X127336564Y-87895302D01*
X127235302Y-87996564D01*
X127155741Y-88115636D01*
X127100938Y-88247942D01*
X127073000Y-88388397D01*
X124696825Y-88388397D01*
X124654259Y-88285636D01*
X124574698Y-88166564D01*
X124473436Y-88065302D01*
X124354364Y-87985741D01*
X124222058Y-87930938D01*
X124081603Y-87903000D01*
X123938397Y-87903000D01*
X123797942Y-87930938D01*
X123665636Y-87985741D01*
X123546564Y-88065302D01*
X123445302Y-88166564D01*
X123365741Y-88285636D01*
X123310938Y-88417942D01*
X123283000Y-88558397D01*
X122446311Y-88558397D01*
X122507519Y-88533044D01*
X122700294Y-88404236D01*
X122864236Y-88240294D01*
X122993044Y-88047519D01*
X123081769Y-87833318D01*
X123127000Y-87605924D01*
X123127000Y-87414076D01*
X137143000Y-87414076D01*
X137143000Y-87645924D01*
X137188231Y-87873318D01*
X137276956Y-88087519D01*
X137405764Y-88280294D01*
X137569706Y-88444236D01*
X137762481Y-88573044D01*
X137976682Y-88661769D01*
X138204076Y-88707000D01*
X138435924Y-88707000D01*
X138663318Y-88661769D01*
X138877519Y-88573044D01*
X139070294Y-88444236D01*
X139234236Y-88280294D01*
X139363044Y-88087519D01*
X139451769Y-87873318D01*
X139497000Y-87645924D01*
X139497000Y-87414076D01*
X139451769Y-87186682D01*
X139363044Y-86972481D01*
X139234236Y-86779706D01*
X139070294Y-86615764D01*
X138877519Y-86486956D01*
X138663318Y-86398231D01*
X138435924Y-86353000D01*
X138204076Y-86353000D01*
X137976682Y-86398231D01*
X137762481Y-86486956D01*
X137569706Y-86615764D01*
X137405764Y-86779706D01*
X137276956Y-86972481D01*
X137188231Y-87186682D01*
X137143000Y-87414076D01*
X123127000Y-87414076D01*
X123127000Y-87374076D01*
X123081769Y-87146682D01*
X122993044Y-86932481D01*
X122864236Y-86739706D01*
X122700294Y-86575764D01*
X122507519Y-86446956D01*
X122293318Y-86358231D01*
X122065924Y-86313000D01*
X121834076Y-86313000D01*
X121606682Y-86358231D01*
X121392481Y-86446956D01*
X121199706Y-86575764D01*
X121035764Y-86739706D01*
X120906956Y-86932481D01*
X120818231Y-87146682D01*
X120773000Y-87374076D01*
X120338003Y-87374076D01*
X120337108Y-86205182D01*
X123508587Y-86205182D01*
X123508587Y-86348388D01*
X123536525Y-86488843D01*
X123591328Y-86621149D01*
X123670889Y-86740221D01*
X123772151Y-86841483D01*
X123891223Y-86921044D01*
X124023529Y-86975847D01*
X124163984Y-87003785D01*
X124307190Y-87003785D01*
X124447645Y-86975847D01*
X124579951Y-86921044D01*
X124699023Y-86841483D01*
X124800285Y-86740221D01*
X124879846Y-86621149D01*
X124934649Y-86488843D01*
X124962587Y-86348388D01*
X124962587Y-86205182D01*
X124934649Y-86064727D01*
X124879846Y-85932421D01*
X124800285Y-85813349D01*
X124699023Y-85712087D01*
X124579951Y-85632526D01*
X124447645Y-85577723D01*
X124307190Y-85549785D01*
X124163984Y-85549785D01*
X124023529Y-85577723D01*
X123891223Y-85632526D01*
X123772151Y-85712087D01*
X123670889Y-85813349D01*
X123591328Y-85932421D01*
X123536525Y-86064727D01*
X123508587Y-86205182D01*
X120337108Y-86205182D01*
X120336057Y-84834076D01*
X120773000Y-84834076D01*
X120773000Y-85065924D01*
X120818231Y-85293318D01*
X120906956Y-85507519D01*
X121035764Y-85700294D01*
X121199706Y-85864236D01*
X121392481Y-85993044D01*
X121606682Y-86081769D01*
X121834076Y-86127000D01*
X122065924Y-86127000D01*
X122293318Y-86081769D01*
X122507519Y-85993044D01*
X122700294Y-85864236D01*
X122864236Y-85700294D01*
X122993044Y-85507519D01*
X123081769Y-85293318D01*
X123127000Y-85065924D01*
X123127000Y-85048397D01*
X131123000Y-85048397D01*
X131123000Y-85191603D01*
X131150938Y-85332058D01*
X131205741Y-85464364D01*
X131285302Y-85583436D01*
X131386564Y-85684698D01*
X131505636Y-85764259D01*
X131637942Y-85819062D01*
X131778397Y-85847000D01*
X131921603Y-85847000D01*
X132062058Y-85819062D01*
X132194364Y-85764259D01*
X132313436Y-85684698D01*
X132414698Y-85583436D01*
X132494259Y-85464364D01*
X132549062Y-85332058D01*
X132577000Y-85191603D01*
X132577000Y-85048397D01*
X132549062Y-84907942D01*
X132535035Y-84874076D01*
X137143000Y-84874076D01*
X137143000Y-85105924D01*
X137188231Y-85333318D01*
X137276956Y-85547519D01*
X137405764Y-85740294D01*
X137569706Y-85904236D01*
X137762481Y-86033044D01*
X137976682Y-86121769D01*
X138204076Y-86167000D01*
X138435924Y-86167000D01*
X138663318Y-86121769D01*
X138877519Y-86033044D01*
X139070294Y-85904236D01*
X139234236Y-85740294D01*
X139363044Y-85547519D01*
X139451769Y-85333318D01*
X139497000Y-85105924D01*
X139497000Y-84874076D01*
X139451769Y-84646682D01*
X139363044Y-84432481D01*
X139234236Y-84239706D01*
X139070294Y-84075764D01*
X138877519Y-83946956D01*
X138663318Y-83858231D01*
X138435924Y-83813000D01*
X138204076Y-83813000D01*
X137976682Y-83858231D01*
X137762481Y-83946956D01*
X137569706Y-84075764D01*
X137405764Y-84239706D01*
X137276956Y-84432481D01*
X137188231Y-84646682D01*
X137143000Y-84874076D01*
X132535035Y-84874076D01*
X132494259Y-84775636D01*
X132414698Y-84656564D01*
X132313436Y-84555302D01*
X132194364Y-84475741D01*
X132062058Y-84420938D01*
X131921603Y-84393000D01*
X131778397Y-84393000D01*
X131637942Y-84420938D01*
X131505636Y-84475741D01*
X131386564Y-84555302D01*
X131285302Y-84656564D01*
X131205741Y-84775636D01*
X131150938Y-84907942D01*
X131123000Y-85048397D01*
X123127000Y-85048397D01*
X123127000Y-84834076D01*
X123081769Y-84606682D01*
X122993044Y-84392481D01*
X122864236Y-84199706D01*
X122700294Y-84035764D01*
X122507519Y-83906956D01*
X122293318Y-83818231D01*
X122065924Y-83773000D01*
X121834076Y-83773000D01*
X121606682Y-83818231D01*
X121392481Y-83906956D01*
X121199706Y-84035764D01*
X121035764Y-84199706D01*
X120906956Y-84392481D01*
X120818231Y-84606682D01*
X120773000Y-84834076D01*
X120336057Y-84834076D01*
X120334111Y-82294076D01*
X120773000Y-82294076D01*
X120773000Y-82525924D01*
X120818231Y-82753318D01*
X120906956Y-82967519D01*
X121035764Y-83160294D01*
X121199706Y-83324236D01*
X121392481Y-83453044D01*
X121606682Y-83541769D01*
X121834076Y-83587000D01*
X122065924Y-83587000D01*
X122293318Y-83541769D01*
X122507519Y-83453044D01*
X122700294Y-83324236D01*
X122864236Y-83160294D01*
X122993044Y-82967519D01*
X123081769Y-82753318D01*
X123127000Y-82525924D01*
X123127000Y-82334076D01*
X137143000Y-82334076D01*
X137143000Y-82565924D01*
X137188231Y-82793318D01*
X137276956Y-83007519D01*
X137405764Y-83200294D01*
X137569706Y-83364236D01*
X137762481Y-83493044D01*
X137976682Y-83581769D01*
X138204076Y-83627000D01*
X138435924Y-83627000D01*
X138663318Y-83581769D01*
X138877519Y-83493044D01*
X139070294Y-83364236D01*
X139234236Y-83200294D01*
X139363044Y-83007519D01*
X139451769Y-82793318D01*
X139497000Y-82565924D01*
X139497000Y-82334076D01*
X139451769Y-82106682D01*
X139363044Y-81892481D01*
X139234236Y-81699706D01*
X139070294Y-81535764D01*
X138877519Y-81406956D01*
X138663318Y-81318231D01*
X138435924Y-81273000D01*
X138204076Y-81273000D01*
X137976682Y-81318231D01*
X137762481Y-81406956D01*
X137569706Y-81535764D01*
X137405764Y-81699706D01*
X137276956Y-81892481D01*
X137188231Y-82106682D01*
X137143000Y-82334076D01*
X123127000Y-82334076D01*
X123127000Y-82294076D01*
X123081769Y-82066682D01*
X122993044Y-81852481D01*
X122864236Y-81659706D01*
X122700294Y-81495764D01*
X122507519Y-81366956D01*
X122293318Y-81278231D01*
X122065924Y-81233000D01*
X121834076Y-81233000D01*
X121606682Y-81278231D01*
X121392481Y-81366956D01*
X121199706Y-81495764D01*
X121035764Y-81659706D01*
X120906956Y-81852481D01*
X120818231Y-82066682D01*
X120773000Y-82294076D01*
X120334111Y-82294076D01*
X120332165Y-79754076D01*
X120773000Y-79754076D01*
X120773000Y-79985924D01*
X120818231Y-80213318D01*
X120906956Y-80427519D01*
X121035764Y-80620294D01*
X121199706Y-80784236D01*
X121392481Y-80913044D01*
X121606682Y-81001769D01*
X121834076Y-81047000D01*
X122065924Y-81047000D01*
X122293318Y-81001769D01*
X122507519Y-80913044D01*
X122700294Y-80784236D01*
X122864236Y-80620294D01*
X122993044Y-80427519D01*
X123081769Y-80213318D01*
X123127000Y-79985924D01*
X123127000Y-79754076D01*
X123081769Y-79526682D01*
X122993044Y-79312481D01*
X122990316Y-79308397D01*
X128703000Y-79308397D01*
X128703000Y-79451603D01*
X128730938Y-79592058D01*
X128785741Y-79724364D01*
X128865302Y-79843436D01*
X128966564Y-79944698D01*
X129085636Y-80024259D01*
X129217942Y-80079062D01*
X129358397Y-80107000D01*
X129501603Y-80107000D01*
X129642058Y-80079062D01*
X129774364Y-80024259D01*
X129893436Y-79944698D01*
X129949737Y-79888397D01*
X132583000Y-79888397D01*
X132583000Y-80031603D01*
X132610938Y-80172058D01*
X132665741Y-80304364D01*
X132745302Y-80423436D01*
X132846564Y-80524698D01*
X132965636Y-80604259D01*
X133097942Y-80659062D01*
X133238397Y-80687000D01*
X133381603Y-80687000D01*
X133522058Y-80659062D01*
X133654364Y-80604259D01*
X133773436Y-80524698D01*
X133874698Y-80423436D01*
X133954259Y-80304364D01*
X134009062Y-80172058D01*
X134037000Y-80031603D01*
X134037000Y-79888397D01*
X134018239Y-79794076D01*
X137143000Y-79794076D01*
X137143000Y-80025924D01*
X137188231Y-80253318D01*
X137276956Y-80467519D01*
X137405764Y-80660294D01*
X137569706Y-80824236D01*
X137762481Y-80953044D01*
X137976682Y-81041769D01*
X138204076Y-81087000D01*
X138435924Y-81087000D01*
X138663318Y-81041769D01*
X138877519Y-80953044D01*
X139070294Y-80824236D01*
X139234236Y-80660294D01*
X139363044Y-80467519D01*
X139451769Y-80253318D01*
X139497000Y-80025924D01*
X139497000Y-79794076D01*
X139451769Y-79566682D01*
X139363044Y-79352481D01*
X139234236Y-79159706D01*
X139070294Y-78995764D01*
X138877519Y-78866956D01*
X138663318Y-78778231D01*
X138435924Y-78733000D01*
X138204076Y-78733000D01*
X137976682Y-78778231D01*
X137762481Y-78866956D01*
X137569706Y-78995764D01*
X137405764Y-79159706D01*
X137276956Y-79352481D01*
X137188231Y-79566682D01*
X137143000Y-79794076D01*
X134018239Y-79794076D01*
X134009062Y-79747942D01*
X133954259Y-79615636D01*
X133874698Y-79496564D01*
X133773436Y-79395302D01*
X133654364Y-79315741D01*
X133522058Y-79260938D01*
X133381603Y-79233000D01*
X133238397Y-79233000D01*
X133097942Y-79260938D01*
X132965636Y-79315741D01*
X132846564Y-79395302D01*
X132745302Y-79496564D01*
X132665741Y-79615636D01*
X132610938Y-79747942D01*
X132583000Y-79888397D01*
X129949737Y-79888397D01*
X129994698Y-79843436D01*
X130074259Y-79724364D01*
X130129062Y-79592058D01*
X130157000Y-79451603D01*
X130157000Y-79308397D01*
X130129062Y-79167942D01*
X130074259Y-79035636D01*
X129994698Y-78916564D01*
X129893436Y-78815302D01*
X129774364Y-78735741D01*
X129642058Y-78680938D01*
X129501603Y-78653000D01*
X129358397Y-78653000D01*
X129217942Y-78680938D01*
X129085636Y-78735741D01*
X128966564Y-78815302D01*
X128865302Y-78916564D01*
X128785741Y-79035636D01*
X128730938Y-79167942D01*
X128703000Y-79308397D01*
X122990316Y-79308397D01*
X122864236Y-79119706D01*
X122700294Y-78955764D01*
X122507519Y-78826956D01*
X122293318Y-78738231D01*
X122065924Y-78693000D01*
X121834076Y-78693000D01*
X121606682Y-78738231D01*
X121392481Y-78826956D01*
X121199706Y-78955764D01*
X121035764Y-79119706D01*
X120906956Y-79312481D01*
X120818231Y-79526682D01*
X120773000Y-79754076D01*
X120332165Y-79754076D01*
X120330218Y-77214076D01*
X120773000Y-77214076D01*
X120773000Y-77445924D01*
X120818231Y-77673318D01*
X120906956Y-77887519D01*
X121035764Y-78080294D01*
X121199706Y-78244236D01*
X121392481Y-78373044D01*
X121606682Y-78461769D01*
X121834076Y-78507000D01*
X122065924Y-78507000D01*
X122293318Y-78461769D01*
X122405023Y-78415499D01*
X132757990Y-78415499D01*
X132757990Y-78558705D01*
X132785928Y-78699160D01*
X132840731Y-78831466D01*
X132920292Y-78950538D01*
X133021554Y-79051800D01*
X133140626Y-79131361D01*
X133272932Y-79186164D01*
X133413387Y-79214102D01*
X133556593Y-79214102D01*
X133697048Y-79186164D01*
X133829354Y-79131361D01*
X133948426Y-79051800D01*
X134049688Y-78950538D01*
X134129249Y-78831466D01*
X134184052Y-78699160D01*
X134211990Y-78558705D01*
X134211990Y-78415499D01*
X134184052Y-78275044D01*
X134129249Y-78142738D01*
X134049688Y-78023666D01*
X133948426Y-77922404D01*
X133829354Y-77842843D01*
X133697048Y-77788040D01*
X133556593Y-77760102D01*
X133413387Y-77760102D01*
X133272932Y-77788040D01*
X133140626Y-77842843D01*
X133021554Y-77922404D01*
X132920292Y-78023666D01*
X132840731Y-78142738D01*
X132785928Y-78275044D01*
X132757990Y-78415499D01*
X122405023Y-78415499D01*
X122507519Y-78373044D01*
X122700294Y-78244236D01*
X122864236Y-78080294D01*
X122993044Y-77887519D01*
X123081769Y-77673318D01*
X123095788Y-77602834D01*
X127695379Y-77602834D01*
X127695379Y-77746040D01*
X127723317Y-77886495D01*
X127778120Y-78018801D01*
X127857681Y-78137873D01*
X127958943Y-78239135D01*
X128078015Y-78318696D01*
X128210321Y-78373499D01*
X128350776Y-78401437D01*
X128493982Y-78401437D01*
X128634437Y-78373499D01*
X128766743Y-78318696D01*
X128885815Y-78239135D01*
X128987077Y-78137873D01*
X129066638Y-78018801D01*
X129121441Y-77886495D01*
X129149379Y-77746040D01*
X129149379Y-77602834D01*
X129121441Y-77462379D01*
X129066638Y-77330073D01*
X129015859Y-77254076D01*
X137143000Y-77254076D01*
X137143000Y-77485924D01*
X137188231Y-77713318D01*
X137276956Y-77927519D01*
X137405764Y-78120294D01*
X137569706Y-78284236D01*
X137762481Y-78413044D01*
X137976682Y-78501769D01*
X138204076Y-78547000D01*
X138435924Y-78547000D01*
X138663318Y-78501769D01*
X138877519Y-78413044D01*
X139070294Y-78284236D01*
X139234236Y-78120294D01*
X139363044Y-77927519D01*
X139451769Y-77713318D01*
X139497000Y-77485924D01*
X139497000Y-77254076D01*
X139451769Y-77026682D01*
X139363044Y-76812481D01*
X139234236Y-76619706D01*
X139070294Y-76455764D01*
X138877519Y-76326956D01*
X138663318Y-76238231D01*
X138435924Y-76193000D01*
X138204076Y-76193000D01*
X137976682Y-76238231D01*
X137762481Y-76326956D01*
X137569706Y-76455764D01*
X137405764Y-76619706D01*
X137276956Y-76812481D01*
X137188231Y-77026682D01*
X137143000Y-77254076D01*
X129015859Y-77254076D01*
X128987077Y-77211001D01*
X128885815Y-77109739D01*
X128766743Y-77030178D01*
X128634437Y-76975375D01*
X128493982Y-76947437D01*
X128350776Y-76947437D01*
X128210321Y-76975375D01*
X128078015Y-77030178D01*
X127958943Y-77109739D01*
X127857681Y-77211001D01*
X127778120Y-77330073D01*
X127723317Y-77462379D01*
X127695379Y-77602834D01*
X123095788Y-77602834D01*
X123127000Y-77445924D01*
X123127000Y-77214076D01*
X123081769Y-76986682D01*
X122993044Y-76772481D01*
X122864236Y-76579706D01*
X122700294Y-76415764D01*
X122507519Y-76286956D01*
X122293318Y-76198231D01*
X122065924Y-76153000D01*
X121834076Y-76153000D01*
X121606682Y-76198231D01*
X121392481Y-76286956D01*
X121199706Y-76415764D01*
X121035764Y-76579706D01*
X120906956Y-76772481D01*
X120818231Y-76986682D01*
X120773000Y-77214076D01*
X120330218Y-77214076D01*
X120328271Y-74674076D01*
X120773000Y-74674076D01*
X120773000Y-74905924D01*
X120818231Y-75133318D01*
X120906956Y-75347519D01*
X121035764Y-75540294D01*
X121199706Y-75704236D01*
X121392481Y-75833044D01*
X121606682Y-75921769D01*
X121834076Y-75967000D01*
X122065924Y-75967000D01*
X122293318Y-75921769D01*
X122507519Y-75833044D01*
X122700294Y-75704236D01*
X122736133Y-75668397D01*
X128903000Y-75668397D01*
X128903000Y-75811603D01*
X128930938Y-75952058D01*
X128985741Y-76084364D01*
X129065302Y-76203436D01*
X129166564Y-76304698D01*
X129285636Y-76384259D01*
X129417942Y-76439062D01*
X129558397Y-76467000D01*
X129701603Y-76467000D01*
X129842058Y-76439062D01*
X129974364Y-76384259D01*
X130093436Y-76304698D01*
X130194698Y-76203436D01*
X130274259Y-76084364D01*
X130329062Y-75952058D01*
X130357000Y-75811603D01*
X130357000Y-75668397D01*
X130329062Y-75527942D01*
X130274259Y-75395636D01*
X130194698Y-75276564D01*
X130093436Y-75175302D01*
X129974364Y-75095741D01*
X129842058Y-75040938D01*
X129701603Y-75013000D01*
X129558397Y-75013000D01*
X129417942Y-75040938D01*
X129285636Y-75095741D01*
X129166564Y-75175302D01*
X129065302Y-75276564D01*
X128985741Y-75395636D01*
X128930938Y-75527942D01*
X128903000Y-75668397D01*
X122736133Y-75668397D01*
X122864236Y-75540294D01*
X122993044Y-75347519D01*
X123081769Y-75133318D01*
X123127000Y-74905924D01*
X123127000Y-74674076D01*
X123115626Y-74616890D01*
X130228524Y-74616890D01*
X130273175Y-74764099D01*
X130398359Y-75026920D01*
X130572412Y-75260269D01*
X130788645Y-75455178D01*
X131038748Y-75604157D01*
X131313109Y-75701481D01*
X131543000Y-75580814D01*
X131543000Y-74387000D01*
X131797000Y-74387000D01*
X131797000Y-75580814D01*
X132026891Y-75701481D01*
X132301252Y-75604157D01*
X132551355Y-75455178D01*
X132767588Y-75260269D01*
X132940000Y-75029120D01*
X133112412Y-75260269D01*
X133328645Y-75455178D01*
X133578748Y-75604157D01*
X133853109Y-75701481D01*
X134083000Y-75580814D01*
X134083000Y-74387000D01*
X134337000Y-74387000D01*
X134337000Y-75580814D01*
X134566891Y-75701481D01*
X134841252Y-75604157D01*
X135091355Y-75455178D01*
X135307588Y-75260269D01*
X135481641Y-75026920D01*
X135606825Y-74764099D01*
X135621997Y-74714076D01*
X137143000Y-74714076D01*
X137143000Y-74945924D01*
X137188231Y-75173318D01*
X137276956Y-75387519D01*
X137405764Y-75580294D01*
X137569706Y-75744236D01*
X137762481Y-75873044D01*
X137976682Y-75961769D01*
X138204076Y-76007000D01*
X138435924Y-76007000D01*
X138663318Y-75961769D01*
X138877519Y-75873044D01*
X139070294Y-75744236D01*
X139234236Y-75580294D01*
X139363044Y-75387519D01*
X139451769Y-75173318D01*
X139497000Y-74945924D01*
X139497000Y-74714076D01*
X139451769Y-74486682D01*
X139363044Y-74272481D01*
X139234236Y-74079706D01*
X139070294Y-73915764D01*
X138877519Y-73786956D01*
X138663318Y-73698231D01*
X138435924Y-73653000D01*
X138204076Y-73653000D01*
X137976682Y-73698231D01*
X137762481Y-73786956D01*
X137569706Y-73915764D01*
X137405764Y-74079706D01*
X137276956Y-74272481D01*
X137188231Y-74486682D01*
X137143000Y-74714076D01*
X135621997Y-74714076D01*
X135651476Y-74616890D01*
X135530155Y-74387000D01*
X134337000Y-74387000D01*
X134083000Y-74387000D01*
X131797000Y-74387000D01*
X131543000Y-74387000D01*
X130349845Y-74387000D01*
X130228524Y-74616890D01*
X123115626Y-74616890D01*
X123081769Y-74446682D01*
X122993044Y-74232481D01*
X122864236Y-74039706D01*
X122700294Y-73875764D01*
X122507519Y-73746956D01*
X122293318Y-73658231D01*
X122065924Y-73613000D01*
X121834076Y-73613000D01*
X121606682Y-73658231D01*
X121392481Y-73746956D01*
X121199706Y-73875764D01*
X121035764Y-74039706D01*
X120906956Y-74232481D01*
X120818231Y-74446682D01*
X120773000Y-74674076D01*
X120328271Y-74674076D01*
X120326324Y-72134076D01*
X120773000Y-72134076D01*
X120773000Y-72365924D01*
X120818231Y-72593318D01*
X120906956Y-72807519D01*
X121035764Y-73000294D01*
X121199706Y-73164236D01*
X121392481Y-73293044D01*
X121606682Y-73381769D01*
X121834076Y-73427000D01*
X122065924Y-73427000D01*
X122293318Y-73381769D01*
X122507519Y-73293044D01*
X122700294Y-73164236D01*
X122742987Y-73121543D01*
X125016463Y-73121543D01*
X125016463Y-73264749D01*
X125044401Y-73405204D01*
X125099204Y-73537510D01*
X125178765Y-73656582D01*
X125280027Y-73757844D01*
X125399099Y-73837405D01*
X125531405Y-73892208D01*
X125671860Y-73920146D01*
X125815066Y-73920146D01*
X125900712Y-73903110D01*
X130228524Y-73903110D01*
X130349845Y-74133000D01*
X131543000Y-74133000D01*
X131543000Y-74113000D01*
X131797000Y-74113000D01*
X131797000Y-74133000D01*
X134083000Y-74133000D01*
X134083000Y-74113000D01*
X134337000Y-74113000D01*
X134337000Y-74133000D01*
X135530155Y-74133000D01*
X135651476Y-73903110D01*
X135606825Y-73755901D01*
X135481641Y-73493080D01*
X135307588Y-73259731D01*
X135091355Y-73064822D01*
X134841252Y-72915843D01*
X134602821Y-72831264D01*
X134767519Y-72763044D01*
X134960294Y-72634236D01*
X135124236Y-72470294D01*
X135253044Y-72277519D01*
X135295891Y-72174076D01*
X137143000Y-72174076D01*
X137143000Y-72405924D01*
X137188231Y-72633318D01*
X137276956Y-72847519D01*
X137405764Y-73040294D01*
X137569706Y-73204236D01*
X137762481Y-73333044D01*
X137976682Y-73421769D01*
X138204076Y-73467000D01*
X138435924Y-73467000D01*
X138663318Y-73421769D01*
X138877519Y-73333044D01*
X139070294Y-73204236D01*
X139234236Y-73040294D01*
X139363044Y-72847519D01*
X139451769Y-72633318D01*
X139497000Y-72405924D01*
X139497000Y-72174076D01*
X139451769Y-71946682D01*
X139363044Y-71732481D01*
X139234236Y-71539706D01*
X139070294Y-71375764D01*
X138877519Y-71246956D01*
X138663318Y-71158231D01*
X138435924Y-71113000D01*
X138204076Y-71113000D01*
X137976682Y-71158231D01*
X137762481Y-71246956D01*
X137569706Y-71375764D01*
X137405764Y-71539706D01*
X137276956Y-71732481D01*
X137188231Y-71946682D01*
X137143000Y-72174076D01*
X135295891Y-72174076D01*
X135341769Y-72063318D01*
X135387000Y-71835924D01*
X135387000Y-71604076D01*
X135341769Y-71376682D01*
X135253044Y-71162481D01*
X135124236Y-70969706D01*
X134960294Y-70805764D01*
X134767519Y-70676956D01*
X134553318Y-70588231D01*
X134325924Y-70543000D01*
X134094076Y-70543000D01*
X133866682Y-70588231D01*
X133652481Y-70676956D01*
X133459706Y-70805764D01*
X133295764Y-70969706D01*
X133166956Y-71162481D01*
X133078231Y-71376682D01*
X133033000Y-71604076D01*
X133033000Y-71835924D01*
X133078231Y-72063318D01*
X133166956Y-72277519D01*
X133295764Y-72470294D01*
X133459706Y-72634236D01*
X133652481Y-72763044D01*
X133817179Y-72831264D01*
X133578748Y-72915843D01*
X133328645Y-73064822D01*
X133112412Y-73259731D01*
X132940000Y-73490880D01*
X132767588Y-73259731D01*
X132551355Y-73064822D01*
X132301252Y-72915843D01*
X132062821Y-72831264D01*
X132227519Y-72763044D01*
X132420294Y-72634236D01*
X132584236Y-72470294D01*
X132713044Y-72277519D01*
X132801769Y-72063318D01*
X132847000Y-71835924D01*
X132847000Y-71604076D01*
X132801769Y-71376682D01*
X132713044Y-71162481D01*
X132584236Y-70969706D01*
X132420294Y-70805764D01*
X132227519Y-70676956D01*
X132013318Y-70588231D01*
X131785924Y-70543000D01*
X131554076Y-70543000D01*
X131326682Y-70588231D01*
X131112481Y-70676956D01*
X130919706Y-70805764D01*
X130755764Y-70969706D01*
X130626956Y-71162481D01*
X130538231Y-71376682D01*
X130493000Y-71604076D01*
X130493000Y-71835924D01*
X130538231Y-72063318D01*
X130626956Y-72277519D01*
X130755764Y-72470294D01*
X130919706Y-72634236D01*
X131112481Y-72763044D01*
X131277179Y-72831264D01*
X131038748Y-72915843D01*
X130788645Y-73064822D01*
X130572412Y-73259731D01*
X130398359Y-73493080D01*
X130273175Y-73755901D01*
X130228524Y-73903110D01*
X125900712Y-73903110D01*
X125955521Y-73892208D01*
X126087827Y-73837405D01*
X126206899Y-73757844D01*
X126308161Y-73656582D01*
X126387722Y-73537510D01*
X126442525Y-73405204D01*
X126470463Y-73264749D01*
X126470463Y-73121543D01*
X126442525Y-72981088D01*
X126387722Y-72848782D01*
X126308161Y-72729710D01*
X126206899Y-72628448D01*
X126087827Y-72548887D01*
X125955521Y-72494084D01*
X125815066Y-72466146D01*
X125671860Y-72466146D01*
X125531405Y-72494084D01*
X125399099Y-72548887D01*
X125280027Y-72628448D01*
X125178765Y-72729710D01*
X125099204Y-72848782D01*
X125044401Y-72981088D01*
X125016463Y-73121543D01*
X122742987Y-73121543D01*
X122864236Y-73000294D01*
X122993044Y-72807519D01*
X123081769Y-72593318D01*
X123127000Y-72365924D01*
X123127000Y-72134076D01*
X123081769Y-71906682D01*
X122993044Y-71692481D01*
X122864236Y-71499706D01*
X122700294Y-71335764D01*
X122507519Y-71206956D01*
X122293318Y-71118231D01*
X122065924Y-71073000D01*
X121834076Y-71073000D01*
X121606682Y-71118231D01*
X121392481Y-71206956D01*
X121199706Y-71335764D01*
X121035764Y-71499706D01*
X120906956Y-71692481D01*
X120818231Y-71906682D01*
X120773000Y-72134076D01*
X120326324Y-72134076D01*
X120324377Y-69594076D01*
X120773000Y-69594076D01*
X120773000Y-69825924D01*
X120818231Y-70053318D01*
X120906956Y-70267519D01*
X121035764Y-70460294D01*
X121199706Y-70624236D01*
X121392481Y-70753044D01*
X121606682Y-70841769D01*
X121834076Y-70887000D01*
X122065924Y-70887000D01*
X122293318Y-70841769D01*
X122507519Y-70753044D01*
X122700294Y-70624236D01*
X122864236Y-70460294D01*
X122993044Y-70267519D01*
X123081769Y-70053318D01*
X123127000Y-69825924D01*
X123127000Y-69594076D01*
X123081769Y-69366682D01*
X122993044Y-69152481D01*
X122864236Y-68959706D01*
X122700294Y-68795764D01*
X122507519Y-68666956D01*
X122293318Y-68578231D01*
X122065924Y-68533000D01*
X121834076Y-68533000D01*
X121606682Y-68578231D01*
X121392481Y-68666956D01*
X121199706Y-68795764D01*
X121035764Y-68959706D01*
X120906956Y-69152481D01*
X120818231Y-69366682D01*
X120773000Y-69594076D01*
X120324377Y-69594076D01*
X120322430Y-67054076D01*
X120773000Y-67054076D01*
X120773000Y-67285924D01*
X120818231Y-67513318D01*
X120906956Y-67727519D01*
X121035764Y-67920294D01*
X121199706Y-68084236D01*
X121392481Y-68213044D01*
X121606682Y-68301769D01*
X121834076Y-68347000D01*
X122065924Y-68347000D01*
X122151389Y-68330000D01*
X130491418Y-68330000D01*
X130491418Y-70030000D01*
X130497732Y-70094103D01*
X130516430Y-70155743D01*
X130546794Y-70212550D01*
X130587657Y-70262343D01*
X130637450Y-70303206D01*
X130694257Y-70333570D01*
X130755897Y-70352268D01*
X130820000Y-70358582D01*
X132520000Y-70358582D01*
X132584103Y-70352268D01*
X132645743Y-70333570D01*
X132702550Y-70303206D01*
X132752343Y-70262343D01*
X132793206Y-70212550D01*
X132823570Y-70155743D01*
X132842268Y-70094103D01*
X132848582Y-70030000D01*
X132848582Y-69064076D01*
X133033000Y-69064076D01*
X133033000Y-69295924D01*
X133078231Y-69523318D01*
X133166956Y-69737519D01*
X133295764Y-69930294D01*
X133459706Y-70094236D01*
X133652481Y-70223044D01*
X133866682Y-70311769D01*
X134094076Y-70357000D01*
X134325924Y-70357000D01*
X134553318Y-70311769D01*
X134767519Y-70223044D01*
X134960294Y-70094236D01*
X135124236Y-69930294D01*
X135253044Y-69737519D01*
X135295891Y-69634076D01*
X137143000Y-69634076D01*
X137143000Y-69865924D01*
X137188231Y-70093318D01*
X137276956Y-70307519D01*
X137405764Y-70500294D01*
X137569706Y-70664236D01*
X137762481Y-70793044D01*
X137976682Y-70881769D01*
X138204076Y-70927000D01*
X138435924Y-70927000D01*
X138663318Y-70881769D01*
X138877519Y-70793044D01*
X139070294Y-70664236D01*
X139234236Y-70500294D01*
X139363044Y-70307519D01*
X139451769Y-70093318D01*
X139497000Y-69865924D01*
X139497000Y-69634076D01*
X139451769Y-69406682D01*
X139363044Y-69192481D01*
X139234236Y-68999706D01*
X139070294Y-68835764D01*
X138877519Y-68706956D01*
X138663318Y-68618231D01*
X138435924Y-68573000D01*
X138204076Y-68573000D01*
X137976682Y-68618231D01*
X137762481Y-68706956D01*
X137569706Y-68835764D01*
X137405764Y-68999706D01*
X137276956Y-69192481D01*
X137188231Y-69406682D01*
X137143000Y-69634076D01*
X135295891Y-69634076D01*
X135341769Y-69523318D01*
X135387000Y-69295924D01*
X135387000Y-69064076D01*
X135341769Y-68836682D01*
X135253044Y-68622481D01*
X135124236Y-68429706D01*
X134960294Y-68265764D01*
X134767519Y-68136956D01*
X134553318Y-68048231D01*
X134325924Y-68003000D01*
X134094076Y-68003000D01*
X133866682Y-68048231D01*
X133652481Y-68136956D01*
X133459706Y-68265764D01*
X133295764Y-68429706D01*
X133166956Y-68622481D01*
X133078231Y-68836682D01*
X133033000Y-69064076D01*
X132848582Y-69064076D01*
X132848582Y-68330000D01*
X132842268Y-68265897D01*
X132823570Y-68204257D01*
X132793206Y-68147450D01*
X132752343Y-68097657D01*
X132702550Y-68056794D01*
X132645743Y-68026430D01*
X132584103Y-68007732D01*
X132520000Y-68001418D01*
X130820000Y-68001418D01*
X130755897Y-68007732D01*
X130694257Y-68026430D01*
X130637450Y-68056794D01*
X130587657Y-68097657D01*
X130546794Y-68147450D01*
X130516430Y-68204257D01*
X130497732Y-68265897D01*
X130491418Y-68330000D01*
X122151389Y-68330000D01*
X122293318Y-68301769D01*
X122507519Y-68213044D01*
X122700294Y-68084236D01*
X122864236Y-67920294D01*
X122993044Y-67727519D01*
X123081769Y-67513318D01*
X123127000Y-67285924D01*
X123127000Y-67054076D01*
X123083778Y-66836778D01*
X129279683Y-66836778D01*
X129279683Y-66979984D01*
X129307621Y-67120439D01*
X129362424Y-67252745D01*
X129441985Y-67371817D01*
X129543247Y-67473079D01*
X129662319Y-67552640D01*
X129794625Y-67607443D01*
X129935080Y-67635381D01*
X130078286Y-67635381D01*
X130218741Y-67607443D01*
X130351047Y-67552640D01*
X130470119Y-67473079D01*
X130535027Y-67408171D01*
X130541554Y-67414698D01*
X130660626Y-67494259D01*
X130792932Y-67549062D01*
X130933387Y-67577000D01*
X131076593Y-67577000D01*
X131217048Y-67549062D01*
X131349354Y-67494259D01*
X131468426Y-67414698D01*
X131569688Y-67313436D01*
X131649249Y-67194364D01*
X131704052Y-67062058D01*
X131731990Y-66921603D01*
X131731990Y-66778397D01*
X131704052Y-66637942D01*
X131649249Y-66505636D01*
X131569688Y-66386564D01*
X131468426Y-66285302D01*
X131349354Y-66205741D01*
X131217048Y-66150938D01*
X131076593Y-66123000D01*
X130933387Y-66123000D01*
X130792932Y-66150938D01*
X130660626Y-66205741D01*
X130541554Y-66285302D01*
X130476646Y-66350210D01*
X130470119Y-66343683D01*
X130351047Y-66264122D01*
X130218741Y-66209319D01*
X130078286Y-66181381D01*
X129935080Y-66181381D01*
X129794625Y-66209319D01*
X129662319Y-66264122D01*
X129543247Y-66343683D01*
X129441985Y-66444945D01*
X129362424Y-66564017D01*
X129307621Y-66696323D01*
X129279683Y-66836778D01*
X123083778Y-66836778D01*
X123081769Y-66826682D01*
X122993044Y-66612481D01*
X122864236Y-66419706D01*
X122700294Y-66255764D01*
X122507519Y-66126956D01*
X122293318Y-66038231D01*
X122065924Y-65993000D01*
X121834076Y-65993000D01*
X121606682Y-66038231D01*
X121392481Y-66126956D01*
X121199706Y-66255764D01*
X121035764Y-66419706D01*
X120906956Y-66612481D01*
X120818231Y-66826682D01*
X120773000Y-67054076D01*
X120322430Y-67054076D01*
X120320483Y-64514076D01*
X120773000Y-64514076D01*
X120773000Y-64745924D01*
X120818231Y-64973318D01*
X120906956Y-65187519D01*
X121035764Y-65380294D01*
X121199706Y-65544236D01*
X121392481Y-65673044D01*
X121606682Y-65761769D01*
X121834076Y-65807000D01*
X122065924Y-65807000D01*
X122293318Y-65761769D01*
X122507519Y-65673044D01*
X122700294Y-65544236D01*
X122864236Y-65380294D01*
X122993044Y-65187519D01*
X123059578Y-65026890D01*
X136878524Y-65026890D01*
X136923175Y-65174099D01*
X137048359Y-65436920D01*
X137222412Y-65670269D01*
X137438645Y-65865178D01*
X137688748Y-66014157D01*
X137927179Y-66098736D01*
X137762481Y-66166956D01*
X137569706Y-66295764D01*
X137405764Y-66459706D01*
X137276956Y-66652481D01*
X137188231Y-66866682D01*
X137143000Y-67094076D01*
X137143000Y-67325924D01*
X137188231Y-67553318D01*
X137276956Y-67767519D01*
X137405764Y-67960294D01*
X137569706Y-68124236D01*
X137762481Y-68253044D01*
X137976682Y-68341769D01*
X138204076Y-68387000D01*
X138435924Y-68387000D01*
X138663318Y-68341769D01*
X138877519Y-68253044D01*
X139070294Y-68124236D01*
X139234236Y-67960294D01*
X139363044Y-67767519D01*
X139451769Y-67553318D01*
X139497000Y-67325924D01*
X139497000Y-67094076D01*
X139451769Y-66866682D01*
X139363044Y-66652481D01*
X139234236Y-66459706D01*
X139070294Y-66295764D01*
X138877519Y-66166956D01*
X138712821Y-66098736D01*
X138951252Y-66014157D01*
X139201355Y-65865178D01*
X139417588Y-65670269D01*
X139591641Y-65436920D01*
X139716825Y-65174099D01*
X139761476Y-65026890D01*
X139640155Y-64797000D01*
X138447000Y-64797000D01*
X138447000Y-64817000D01*
X138193000Y-64817000D01*
X138193000Y-64797000D01*
X136999845Y-64797000D01*
X136878524Y-65026890D01*
X123059578Y-65026890D01*
X123081769Y-64973318D01*
X123127000Y-64745924D01*
X123127000Y-64514076D01*
X123081769Y-64286682D01*
X122993044Y-64072481D01*
X122864236Y-63879706D01*
X122700294Y-63715764D01*
X122507519Y-63586956D01*
X122293318Y-63498231D01*
X122065924Y-63453000D01*
X121834076Y-63453000D01*
X121606682Y-63498231D01*
X121392481Y-63586956D01*
X121199706Y-63715764D01*
X121035764Y-63879706D01*
X120906956Y-64072481D01*
X120818231Y-64286682D01*
X120773000Y-64514076D01*
X120320483Y-64514076D01*
X120318536Y-61974076D01*
X120773000Y-61974076D01*
X120773000Y-62205924D01*
X120818231Y-62433318D01*
X120906956Y-62647519D01*
X121035764Y-62840294D01*
X121199706Y-63004236D01*
X121392481Y-63133044D01*
X121606682Y-63221769D01*
X121834076Y-63267000D01*
X122065924Y-63267000D01*
X122293318Y-63221769D01*
X122507519Y-63133044D01*
X122700294Y-63004236D01*
X122864236Y-62840294D01*
X122993044Y-62647519D01*
X123059578Y-62486890D01*
X136878524Y-62486890D01*
X136923175Y-62634099D01*
X137048359Y-62896920D01*
X137222412Y-63130269D01*
X137438645Y-63325178D01*
X137564255Y-63400000D01*
X137438645Y-63474822D01*
X137222412Y-63669731D01*
X137048359Y-63903080D01*
X136923175Y-64165901D01*
X136878524Y-64313110D01*
X136999845Y-64543000D01*
X138193000Y-64543000D01*
X138193000Y-62257000D01*
X138447000Y-62257000D01*
X138447000Y-64543000D01*
X139640155Y-64543000D01*
X139761476Y-64313110D01*
X139716825Y-64165901D01*
X139591641Y-63903080D01*
X139417588Y-63669731D01*
X139201355Y-63474822D01*
X139075745Y-63400000D01*
X139201355Y-63325178D01*
X139417588Y-63130269D01*
X139591641Y-62896920D01*
X139716825Y-62634099D01*
X139761476Y-62486890D01*
X139640155Y-62257000D01*
X138447000Y-62257000D01*
X138193000Y-62257000D01*
X136999845Y-62257000D01*
X136878524Y-62486890D01*
X123059578Y-62486890D01*
X123081769Y-62433318D01*
X123127000Y-62205924D01*
X123127000Y-61974076D01*
X123087026Y-61773110D01*
X136878524Y-61773110D01*
X136999845Y-62003000D01*
X138193000Y-62003000D01*
X138193000Y-60809186D01*
X138447000Y-60809186D01*
X138447000Y-62003000D01*
X139640155Y-62003000D01*
X139761476Y-61773110D01*
X139716825Y-61625901D01*
X139591641Y-61363080D01*
X139417588Y-61129731D01*
X139201355Y-60934822D01*
X138951252Y-60785843D01*
X138676891Y-60688519D01*
X138447000Y-60809186D01*
X138193000Y-60809186D01*
X137963109Y-60688519D01*
X137688748Y-60785843D01*
X137438645Y-60934822D01*
X137222412Y-61129731D01*
X137048359Y-61363080D01*
X136923175Y-61625901D01*
X136878524Y-61773110D01*
X123087026Y-61773110D01*
X123081769Y-61746682D01*
X122993044Y-61532481D01*
X122864236Y-61339706D01*
X122700294Y-61175764D01*
X122507519Y-61046956D01*
X122293318Y-60958231D01*
X122065924Y-60913000D01*
X121834076Y-60913000D01*
X121606682Y-60958231D01*
X121392481Y-61046956D01*
X121199706Y-61175764D01*
X121035764Y-61339706D01*
X120906956Y-61532481D01*
X120818231Y-61746682D01*
X120773000Y-61974076D01*
X120318536Y-61974076D01*
X120317290Y-60349033D01*
X140032568Y-60454977D01*
G37*
X140032568Y-60454977D02*
X139973434Y-111793000D01*
X120356711Y-111793000D01*
X120353933Y-108166890D01*
X120508524Y-108166890D01*
X120553175Y-108314099D01*
X120678359Y-108576920D01*
X120852412Y-108810269D01*
X121068645Y-109005178D01*
X121318748Y-109154157D01*
X121367408Y-109171418D01*
X121100000Y-109171418D01*
X121035897Y-109177732D01*
X120974257Y-109196430D01*
X120917450Y-109226794D01*
X120867657Y-109267657D01*
X120826794Y-109317450D01*
X120796430Y-109374257D01*
X120777732Y-109435897D01*
X120771418Y-109500000D01*
X120771418Y-111200000D01*
X120777732Y-111264103D01*
X120796430Y-111325743D01*
X120826794Y-111382550D01*
X120867657Y-111432343D01*
X120917450Y-111473206D01*
X120974257Y-111503570D01*
X121035897Y-111522268D01*
X121100000Y-111528582D01*
X122800000Y-111528582D01*
X122864103Y-111522268D01*
X122925743Y-111503570D01*
X122982550Y-111473206D01*
X123032343Y-111432343D01*
X123073206Y-111382550D01*
X123103570Y-111325743D01*
X123122268Y-111264103D01*
X123128582Y-111200000D01*
X123128582Y-110526891D01*
X125108519Y-110526891D01*
X125205843Y-110801252D01*
X125354822Y-111051355D01*
X125549731Y-111267588D01*
X125783080Y-111441641D01*
X126045901Y-111566825D01*
X126193110Y-111611476D01*
X126423000Y-111490155D01*
X126423000Y-110297000D01*
X125229186Y-110297000D01*
X125108519Y-110526891D01*
X123128582Y-110526891D01*
X123128582Y-109813109D01*
X125108519Y-109813109D01*
X125229186Y-110043000D01*
X126423000Y-110043000D01*
X126423000Y-108849845D01*
X126677000Y-108849845D01*
X126677000Y-110043000D01*
X126697000Y-110043000D01*
X126697000Y-110297000D01*
X126677000Y-110297000D01*
X126677000Y-111490155D01*
X126906890Y-111611476D01*
X127054099Y-111566825D01*
X127316920Y-111441641D01*
X127550269Y-111267588D01*
X127745178Y-111051355D01*
X127894157Y-110801252D01*
X127978736Y-110562821D01*
X128046956Y-110727519D01*
X128175764Y-110920294D01*
X128339706Y-111084236D01*
X128532481Y-111213044D01*
X128746682Y-111301769D01*
X128974076Y-111347000D01*
X129205924Y-111347000D01*
X129433318Y-111301769D01*
X129647519Y-111213044D01*
X129840294Y-111084236D01*
X130004236Y-110920294D01*
X130133044Y-110727519D01*
X130221769Y-110513318D01*
X130267000Y-110285924D01*
X130267000Y-110054076D01*
X130453000Y-110054076D01*
X130453000Y-110285924D01*
X130498231Y-110513318D01*
X130586956Y-110727519D01*
X130715764Y-110920294D01*
X130879706Y-111084236D01*
X131072481Y-111213044D01*
X131286682Y-111301769D01*
X131514076Y-111347000D01*
X131745924Y-111347000D01*
X131973318Y-111301769D01*
X132187519Y-111213044D01*
X132380294Y-111084236D01*
X132544236Y-110920294D01*
X132673044Y-110727519D01*
X132761769Y-110513318D01*
X132807000Y-110285924D01*
X132807000Y-110054076D01*
X132761769Y-109826682D01*
X132673044Y-109612481D01*
X132544236Y-109419706D01*
X132444530Y-109320000D01*
X132991418Y-109320000D01*
X132991418Y-111020000D01*
X132997732Y-111084103D01*
X133016430Y-111145743D01*
X133046794Y-111202550D01*
X133087657Y-111252343D01*
X133137450Y-111293206D01*
X133194257Y-111323570D01*
X133255897Y-111342268D01*
X133320000Y-111348582D01*
X135020000Y-111348582D01*
X135084103Y-111342268D01*
X135145743Y-111323570D01*
X135202550Y-111293206D01*
X135252343Y-111252343D01*
X135293206Y-111202550D01*
X135323570Y-111145743D01*
X135342268Y-111084103D01*
X135348582Y-111020000D01*
X135348582Y-109540000D01*
X137141418Y-109540000D01*
X137141418Y-111240000D01*
X137147732Y-111304103D01*
X137166430Y-111365743D01*
X137196794Y-111422550D01*
X137237657Y-111472343D01*
X137287450Y-111513206D01*
X137344257Y-111543570D01*
X137405897Y-111562268D01*
X137470000Y-111568582D01*
X139170000Y-111568582D01*
X139234103Y-111562268D01*
X139295743Y-111543570D01*
X139352550Y-111513206D01*
X139402343Y-111472343D01*
X139443206Y-111422550D01*
X139473570Y-111365743D01*
X139492268Y-111304103D01*
X139498582Y-111240000D01*
X139498582Y-109540000D01*
X139492268Y-109475897D01*
X139473570Y-109414257D01*
X139443206Y-109357450D01*
X139402343Y-109307657D01*
X139352550Y-109266794D01*
X139295743Y-109236430D01*
X139234103Y-109217732D01*
X139170000Y-109211418D01*
X137470000Y-109211418D01*
X137405897Y-109217732D01*
X137344257Y-109236430D01*
X137287450Y-109266794D01*
X137237657Y-109307657D01*
X137196794Y-109357450D01*
X137166430Y-109414257D01*
X137147732Y-109475897D01*
X137141418Y-109540000D01*
X135348582Y-109540000D01*
X135348582Y-109320000D01*
X135342268Y-109255897D01*
X135323570Y-109194257D01*
X135293206Y-109137450D01*
X135252343Y-109087657D01*
X135202550Y-109046794D01*
X135145743Y-109016430D01*
X135084103Y-108997732D01*
X135020000Y-108991418D01*
X133320000Y-108991418D01*
X133255897Y-108997732D01*
X133194257Y-109016430D01*
X133137450Y-109046794D01*
X133087657Y-109087657D01*
X133046794Y-109137450D01*
X133016430Y-109194257D01*
X132997732Y-109255897D01*
X132991418Y-109320000D01*
X132444530Y-109320000D01*
X132380294Y-109255764D01*
X132187519Y-109126956D01*
X131973318Y-109038231D01*
X131745924Y-108993000D01*
X131514076Y-108993000D01*
X131286682Y-109038231D01*
X131072481Y-109126956D01*
X130879706Y-109255764D01*
X130715764Y-109419706D01*
X130586956Y-109612481D01*
X130498231Y-109826682D01*
X130453000Y-110054076D01*
X130267000Y-110054076D01*
X130221769Y-109826682D01*
X130133044Y-109612481D01*
X130004236Y-109419706D01*
X129840294Y-109255764D01*
X129647519Y-109126956D01*
X129433318Y-109038231D01*
X129205924Y-108993000D01*
X128974076Y-108993000D01*
X128746682Y-109038231D01*
X128532481Y-109126956D01*
X128339706Y-109255764D01*
X128175764Y-109419706D01*
X128046956Y-109612481D01*
X127978736Y-109777179D01*
X127894157Y-109538748D01*
X127745178Y-109288645D01*
X127550269Y-109072412D01*
X127316920Y-108898359D01*
X127054099Y-108773175D01*
X126906890Y-108728524D01*
X126677000Y-108849845D01*
X126423000Y-108849845D01*
X126193110Y-108728524D01*
X126045901Y-108773175D01*
X125783080Y-108898359D01*
X125549731Y-109072412D01*
X125354822Y-109288645D01*
X125205843Y-109538748D01*
X125108519Y-109813109D01*
X123128582Y-109813109D01*
X123128582Y-109500000D01*
X123122268Y-109435897D01*
X123103570Y-109374257D01*
X123073206Y-109317450D01*
X123032343Y-109267657D01*
X122982550Y-109226794D01*
X122925743Y-109196430D01*
X122864103Y-109177732D01*
X122800000Y-109171418D01*
X122532592Y-109171418D01*
X122581252Y-109154157D01*
X122831355Y-109005178D01*
X123047588Y-108810269D01*
X123221641Y-108576920D01*
X123346825Y-108314099D01*
X123391476Y-108166890D01*
X123270155Y-107937000D01*
X122077000Y-107937000D01*
X122077000Y-107957000D01*
X121823000Y-107957000D01*
X121823000Y-107937000D01*
X120629845Y-107937000D01*
X120508524Y-108166890D01*
X120353933Y-108166890D01*
X120353602Y-107734076D01*
X137143000Y-107734076D01*
X137143000Y-107965924D01*
X137188231Y-108193318D01*
X137276956Y-108407519D01*
X137405764Y-108600294D01*
X137569706Y-108764236D01*
X137762481Y-108893044D01*
X137976682Y-108981769D01*
X138204076Y-109027000D01*
X138435924Y-109027000D01*
X138663318Y-108981769D01*
X138877519Y-108893044D01*
X139070294Y-108764236D01*
X139234236Y-108600294D01*
X139363044Y-108407519D01*
X139451769Y-108193318D01*
X139497000Y-107965924D01*
X139497000Y-107734076D01*
X139451769Y-107506682D01*
X139363044Y-107292481D01*
X139234236Y-107099706D01*
X139070294Y-106935764D01*
X138877519Y-106806956D01*
X138663318Y-106718231D01*
X138435924Y-106673000D01*
X138204076Y-106673000D01*
X137976682Y-106718231D01*
X137762481Y-106806956D01*
X137569706Y-106935764D01*
X137405764Y-107099706D01*
X137276956Y-107292481D01*
X137188231Y-107506682D01*
X137143000Y-107734076D01*
X120353602Y-107734076D01*
X120353387Y-107453110D01*
X120508524Y-107453110D01*
X120629845Y-107683000D01*
X121823000Y-107683000D01*
X121823000Y-107663000D01*
X122077000Y-107663000D01*
X122077000Y-107683000D01*
X123270155Y-107683000D01*
X123391476Y-107453110D01*
X123346825Y-107305901D01*
X123221641Y-107043080D01*
X123047588Y-106809731D01*
X123023932Y-106788407D01*
X130477568Y-106788407D01*
X130477568Y-106931613D01*
X130505506Y-107072068D01*
X130560309Y-107204374D01*
X130639870Y-107323446D01*
X130741132Y-107424708D01*
X130860204Y-107504269D01*
X130992510Y-107559072D01*
X131132965Y-107587010D01*
X131276171Y-107587010D01*
X131416626Y-107559072D01*
X131548932Y-107504269D01*
X131668004Y-107424708D01*
X131769266Y-107323446D01*
X131848827Y-107204374D01*
X131903630Y-107072068D01*
X131931568Y-106931613D01*
X131931568Y-106788407D01*
X131903630Y-106647952D01*
X131848827Y-106515646D01*
X131769266Y-106396574D01*
X131668004Y-106295312D01*
X131548932Y-106215751D01*
X131416626Y-106160948D01*
X131276171Y-106133010D01*
X131132965Y-106133010D01*
X130992510Y-106160948D01*
X130860204Y-106215751D01*
X130741132Y-106295312D01*
X130639870Y-106396574D01*
X130560309Y-106515646D01*
X130505506Y-106647952D01*
X130477568Y-106788407D01*
X123023932Y-106788407D01*
X122831355Y-106614822D01*
X122581252Y-106465843D01*
X122342821Y-106381264D01*
X122507519Y-106313044D01*
X122700294Y-106184236D01*
X122864236Y-106020294D01*
X122993044Y-105827519D01*
X123081769Y-105613318D01*
X123127000Y-105385924D01*
X123127000Y-105154076D01*
X123081769Y-104926682D01*
X123012064Y-104758397D01*
X131443000Y-104758397D01*
X131443000Y-104901603D01*
X131470938Y-105042058D01*
X131525741Y-105174364D01*
X131605302Y-105293436D01*
X131706564Y-105394698D01*
X131825636Y-105474259D01*
X131957942Y-105529062D01*
X132098397Y-105557000D01*
X132241603Y-105557000D01*
X132382058Y-105529062D01*
X132514364Y-105474259D01*
X132633436Y-105394698D01*
X132734698Y-105293436D01*
X132814259Y-105174364D01*
X132869062Y-105042058D01*
X132897000Y-104901603D01*
X132897000Y-104758397D01*
X132880654Y-104676216D01*
X134034883Y-104676216D01*
X134034883Y-104819422D01*
X134062821Y-104959877D01*
X134117624Y-105092183D01*
X134197185Y-105211255D01*
X134298447Y-105312517D01*
X134417519Y-105392078D01*
X134549825Y-105446881D01*
X134690280Y-105474819D01*
X134833486Y-105474819D01*
X134973941Y-105446881D01*
X135106247Y-105392078D01*
X135225319Y-105312517D01*
X135326581Y-105211255D01*
X135338059Y-105194076D01*
X137143000Y-105194076D01*
X137143000Y-105425924D01*
X137188231Y-105653318D01*
X137276956Y-105867519D01*
X137405764Y-106060294D01*
X137569706Y-106224236D01*
X137762481Y-106353044D01*
X137976682Y-106441769D01*
X138204076Y-106487000D01*
X138435924Y-106487000D01*
X138663318Y-106441769D01*
X138877519Y-106353044D01*
X139070294Y-106224236D01*
X139234236Y-106060294D01*
X139363044Y-105867519D01*
X139451769Y-105653318D01*
X139497000Y-105425924D01*
X139497000Y-105194076D01*
X139451769Y-104966682D01*
X139363044Y-104752481D01*
X139234236Y-104559706D01*
X139070294Y-104395764D01*
X138877519Y-104266956D01*
X138663318Y-104178231D01*
X138435924Y-104133000D01*
X138204076Y-104133000D01*
X137976682Y-104178231D01*
X137762481Y-104266956D01*
X137569706Y-104395764D01*
X137405764Y-104559706D01*
X137276956Y-104752481D01*
X137188231Y-104966682D01*
X137143000Y-105194076D01*
X135338059Y-105194076D01*
X135406142Y-105092183D01*
X135460945Y-104959877D01*
X135488883Y-104819422D01*
X135488883Y-104676216D01*
X135460945Y-104535761D01*
X135406142Y-104403455D01*
X135326581Y-104284383D01*
X135225319Y-104183121D01*
X135106247Y-104103560D01*
X134973941Y-104048757D01*
X134833486Y-104020819D01*
X134690280Y-104020819D01*
X134549825Y-104048757D01*
X134417519Y-104103560D01*
X134298447Y-104183121D01*
X134197185Y-104284383D01*
X134117624Y-104403455D01*
X134062821Y-104535761D01*
X134034883Y-104676216D01*
X132880654Y-104676216D01*
X132869062Y-104617942D01*
X132814259Y-104485636D01*
X132734698Y-104366564D01*
X132633436Y-104265302D01*
X132514364Y-104185741D01*
X132382058Y-104130938D01*
X132241603Y-104103000D01*
X132098397Y-104103000D01*
X131957942Y-104130938D01*
X131825636Y-104185741D01*
X131706564Y-104265302D01*
X131605302Y-104366564D01*
X131525741Y-104485636D01*
X131470938Y-104617942D01*
X131443000Y-104758397D01*
X123012064Y-104758397D01*
X122993044Y-104712481D01*
X122864236Y-104519706D01*
X122700294Y-104355764D01*
X122507519Y-104226956D01*
X122293318Y-104138231D01*
X122065924Y-104093000D01*
X121834076Y-104093000D01*
X121606682Y-104138231D01*
X121392481Y-104226956D01*
X121199706Y-104355764D01*
X121035764Y-104519706D01*
X120906956Y-104712481D01*
X120818231Y-104926682D01*
X120773000Y-105154076D01*
X120773000Y-105385924D01*
X120818231Y-105613318D01*
X120906956Y-105827519D01*
X121035764Y-106020294D01*
X121199706Y-106184236D01*
X121392481Y-106313044D01*
X121557179Y-106381264D01*
X121318748Y-106465843D01*
X121068645Y-106614822D01*
X120852412Y-106809731D01*
X120678359Y-107043080D01*
X120553175Y-107305901D01*
X120508524Y-107453110D01*
X120353387Y-107453110D01*
X120349679Y-102614076D01*
X120773000Y-102614076D01*
X120773000Y-102845924D01*
X120818231Y-103073318D01*
X120906956Y-103287519D01*
X121035764Y-103480294D01*
X121199706Y-103644236D01*
X121392481Y-103773044D01*
X121606682Y-103861769D01*
X121834076Y-103907000D01*
X122065924Y-103907000D01*
X122293318Y-103861769D01*
X122507519Y-103773044D01*
X122700294Y-103644236D01*
X122864236Y-103480294D01*
X122993044Y-103287519D01*
X123081769Y-103073318D01*
X123127000Y-102845924D01*
X123127000Y-102614076D01*
X123081769Y-102386682D01*
X122993044Y-102172481D01*
X122864236Y-101979706D01*
X122700294Y-101815764D01*
X122689269Y-101808397D01*
X126323000Y-101808397D01*
X126323000Y-101951603D01*
X126350938Y-102092058D01*
X126405741Y-102224364D01*
X126485302Y-102343436D01*
X126586564Y-102444698D01*
X126705636Y-102524259D01*
X126837942Y-102579062D01*
X126978397Y-102607000D01*
X127121603Y-102607000D01*
X127262058Y-102579062D01*
X127394364Y-102524259D01*
X127409695Y-102514015D01*
X132043182Y-102514015D01*
X132043182Y-102657221D01*
X132071120Y-102797676D01*
X132125923Y-102929982D01*
X132205484Y-103049054D01*
X132306746Y-103150316D01*
X132425818Y-103229877D01*
X132558124Y-103284680D01*
X132698579Y-103312618D01*
X132841785Y-103312618D01*
X132982240Y-103284680D01*
X133114546Y-103229877D01*
X133233618Y-103150316D01*
X133334880Y-103049054D01*
X133414441Y-102929982D01*
X133469244Y-102797676D01*
X133497182Y-102657221D01*
X133497182Y-102654076D01*
X137143000Y-102654076D01*
X137143000Y-102885924D01*
X137188231Y-103113318D01*
X137276956Y-103327519D01*
X137405764Y-103520294D01*
X137569706Y-103684236D01*
X137762481Y-103813044D01*
X137976682Y-103901769D01*
X138204076Y-103947000D01*
X138435924Y-103947000D01*
X138663318Y-103901769D01*
X138877519Y-103813044D01*
X139070294Y-103684236D01*
X139234236Y-103520294D01*
X139363044Y-103327519D01*
X139451769Y-103113318D01*
X139497000Y-102885924D01*
X139497000Y-102654076D01*
X139451769Y-102426682D01*
X139363044Y-102212481D01*
X139234236Y-102019706D01*
X139070294Y-101855764D01*
X138877519Y-101726956D01*
X138663318Y-101638231D01*
X138435924Y-101593000D01*
X138204076Y-101593000D01*
X137976682Y-101638231D01*
X137762481Y-101726956D01*
X137569706Y-101855764D01*
X137405764Y-102019706D01*
X137276956Y-102212481D01*
X137188231Y-102426682D01*
X137143000Y-102654076D01*
X133497182Y-102654076D01*
X133497182Y-102514015D01*
X133469244Y-102373560D01*
X133414441Y-102241254D01*
X133334880Y-102122182D01*
X133233618Y-102020920D01*
X133114546Y-101941359D01*
X132982240Y-101886556D01*
X132841785Y-101858618D01*
X132698579Y-101858618D01*
X132558124Y-101886556D01*
X132425818Y-101941359D01*
X132306746Y-102020920D01*
X132205484Y-102122182D01*
X132125923Y-102241254D01*
X132071120Y-102373560D01*
X132043182Y-102514015D01*
X127409695Y-102514015D01*
X127513436Y-102444698D01*
X127614698Y-102343436D01*
X127694259Y-102224364D01*
X127749062Y-102092058D01*
X127777000Y-101951603D01*
X127777000Y-101808397D01*
X127749062Y-101667942D01*
X127694259Y-101535636D01*
X127614698Y-101416564D01*
X127513436Y-101315302D01*
X127394364Y-101235741D01*
X127262058Y-101180938D01*
X127121603Y-101153000D01*
X126978397Y-101153000D01*
X126837942Y-101180938D01*
X126705636Y-101235741D01*
X126586564Y-101315302D01*
X126485302Y-101416564D01*
X126405741Y-101535636D01*
X126350938Y-101667942D01*
X126323000Y-101808397D01*
X122689269Y-101808397D01*
X122507519Y-101686956D01*
X122293318Y-101598231D01*
X122065924Y-101553000D01*
X121834076Y-101553000D01*
X121606682Y-101598231D01*
X121392481Y-101686956D01*
X121199706Y-101815764D01*
X121035764Y-101979706D01*
X120906956Y-102172481D01*
X120818231Y-102386682D01*
X120773000Y-102614076D01*
X120349679Y-102614076D01*
X120347733Y-100074076D01*
X120773000Y-100074076D01*
X120773000Y-100305924D01*
X120818231Y-100533318D01*
X120906956Y-100747519D01*
X121035764Y-100940294D01*
X121199706Y-101104236D01*
X121392481Y-101233044D01*
X121606682Y-101321769D01*
X121834076Y-101367000D01*
X122065924Y-101367000D01*
X122293318Y-101321769D01*
X122507519Y-101233044D01*
X122700294Y-101104236D01*
X122796133Y-101008397D01*
X124683000Y-101008397D01*
X124683000Y-101151603D01*
X124710938Y-101292058D01*
X124765741Y-101424364D01*
X124845302Y-101543436D01*
X124946564Y-101644698D01*
X125065636Y-101724259D01*
X125197942Y-101779062D01*
X125338397Y-101807000D01*
X125481603Y-101807000D01*
X125622058Y-101779062D01*
X125754364Y-101724259D01*
X125873436Y-101644698D01*
X125974698Y-101543436D01*
X126054259Y-101424364D01*
X126109062Y-101292058D01*
X126137000Y-101151603D01*
X126137000Y-101008397D01*
X126109062Y-100867942D01*
X126054259Y-100735636D01*
X125974698Y-100616564D01*
X125873436Y-100515302D01*
X125754364Y-100435741D01*
X125622058Y-100380938D01*
X125481603Y-100353000D01*
X125338397Y-100353000D01*
X125197942Y-100380938D01*
X125065636Y-100435741D01*
X124946564Y-100515302D01*
X124845302Y-100616564D01*
X124765741Y-100735636D01*
X124710938Y-100867942D01*
X124683000Y-101008397D01*
X122796133Y-101008397D01*
X122864236Y-100940294D01*
X122993044Y-100747519D01*
X123081769Y-100533318D01*
X123127000Y-100305924D01*
X123127000Y-100114076D01*
X137143000Y-100114076D01*
X137143000Y-100345924D01*
X137188231Y-100573318D01*
X137276956Y-100787519D01*
X137405764Y-100980294D01*
X137569706Y-101144236D01*
X137762481Y-101273044D01*
X137976682Y-101361769D01*
X138204076Y-101407000D01*
X138435924Y-101407000D01*
X138663318Y-101361769D01*
X138877519Y-101273044D01*
X139070294Y-101144236D01*
X139234236Y-100980294D01*
X139363044Y-100787519D01*
X139451769Y-100573318D01*
X139497000Y-100345924D01*
X139497000Y-100114076D01*
X139451769Y-99886682D01*
X139363044Y-99672481D01*
X139234236Y-99479706D01*
X139070294Y-99315764D01*
X138877519Y-99186956D01*
X138663318Y-99098231D01*
X138435924Y-99053000D01*
X138204076Y-99053000D01*
X137976682Y-99098231D01*
X137762481Y-99186956D01*
X137569706Y-99315764D01*
X137405764Y-99479706D01*
X137276956Y-99672481D01*
X137188231Y-99886682D01*
X137143000Y-100114076D01*
X123127000Y-100114076D01*
X123127000Y-100074076D01*
X123081769Y-99846682D01*
X122993044Y-99632481D01*
X122864236Y-99439706D01*
X122700294Y-99275764D01*
X122507519Y-99146956D01*
X122293318Y-99058231D01*
X122065924Y-99013000D01*
X121834076Y-99013000D01*
X121606682Y-99058231D01*
X121392481Y-99146956D01*
X121199706Y-99275764D01*
X121035764Y-99439706D01*
X120906956Y-99632481D01*
X120818231Y-99846682D01*
X120773000Y-100074076D01*
X120347733Y-100074076D01*
X120345787Y-97534076D01*
X120773000Y-97534076D01*
X120773000Y-97765924D01*
X120818231Y-97993318D01*
X120906956Y-98207519D01*
X121035764Y-98400294D01*
X121199706Y-98564236D01*
X121392481Y-98693044D01*
X121606682Y-98781769D01*
X121834076Y-98827000D01*
X122065924Y-98827000D01*
X122293318Y-98781769D01*
X122507519Y-98693044D01*
X122700294Y-98564236D01*
X122864236Y-98400294D01*
X122955350Y-98263931D01*
X134577990Y-98263931D01*
X134577990Y-98407137D01*
X134605928Y-98547592D01*
X134660731Y-98679898D01*
X134740292Y-98798970D01*
X134841554Y-98900232D01*
X134960626Y-98979793D01*
X135092932Y-99034596D01*
X135233387Y-99062534D01*
X135376593Y-99062534D01*
X135517048Y-99034596D01*
X135649354Y-98979793D01*
X135768426Y-98900232D01*
X135869688Y-98798970D01*
X135949249Y-98679898D01*
X136004052Y-98547592D01*
X136031990Y-98407137D01*
X136031990Y-98263931D01*
X136004052Y-98123476D01*
X135949249Y-97991170D01*
X135869688Y-97872098D01*
X135768426Y-97770836D01*
X135649354Y-97691275D01*
X135517048Y-97636472D01*
X135376593Y-97608534D01*
X135233387Y-97608534D01*
X135092932Y-97636472D01*
X134960626Y-97691275D01*
X134841554Y-97770836D01*
X134740292Y-97872098D01*
X134660731Y-97991170D01*
X134605928Y-98123476D01*
X134577990Y-98263931D01*
X122955350Y-98263931D01*
X122993044Y-98207519D01*
X123081769Y-97993318D01*
X123127000Y-97765924D01*
X123127000Y-97574076D01*
X137143000Y-97574076D01*
X137143000Y-97805924D01*
X137188231Y-98033318D01*
X137276956Y-98247519D01*
X137405764Y-98440294D01*
X137569706Y-98604236D01*
X137762481Y-98733044D01*
X137976682Y-98821769D01*
X138204076Y-98867000D01*
X138435924Y-98867000D01*
X138663318Y-98821769D01*
X138877519Y-98733044D01*
X139070294Y-98604236D01*
X139234236Y-98440294D01*
X139363044Y-98247519D01*
X139451769Y-98033318D01*
X139497000Y-97805924D01*
X139497000Y-97574076D01*
X139451769Y-97346682D01*
X139363044Y-97132481D01*
X139234236Y-96939706D01*
X139070294Y-96775764D01*
X138877519Y-96646956D01*
X138663318Y-96558231D01*
X138435924Y-96513000D01*
X138204076Y-96513000D01*
X137976682Y-96558231D01*
X137762481Y-96646956D01*
X137569706Y-96775764D01*
X137405764Y-96939706D01*
X137276956Y-97132481D01*
X137188231Y-97346682D01*
X137143000Y-97574076D01*
X123127000Y-97574076D01*
X123127000Y-97534076D01*
X123081769Y-97306682D01*
X122993044Y-97092481D01*
X122864236Y-96899706D01*
X122700294Y-96735764D01*
X122507519Y-96606956D01*
X122293318Y-96518231D01*
X122065924Y-96473000D01*
X121834076Y-96473000D01*
X121606682Y-96518231D01*
X121392481Y-96606956D01*
X121199706Y-96735764D01*
X121035764Y-96899706D01*
X120906956Y-97092481D01*
X120818231Y-97306682D01*
X120773000Y-97534076D01*
X120345787Y-97534076D01*
X120343841Y-94994076D01*
X120773000Y-94994076D01*
X120773000Y-95225924D01*
X120818231Y-95453318D01*
X120906956Y-95667519D01*
X121035764Y-95860294D01*
X121199706Y-96024236D01*
X121392481Y-96153044D01*
X121606682Y-96241769D01*
X121834076Y-96287000D01*
X122065924Y-96287000D01*
X122293318Y-96241769D01*
X122507519Y-96153044D01*
X122700294Y-96024236D01*
X122735268Y-95989262D01*
X127013865Y-95989262D01*
X127013865Y-96132468D01*
X127041803Y-96272923D01*
X127096606Y-96405229D01*
X127176167Y-96524301D01*
X127277429Y-96625563D01*
X127396501Y-96705124D01*
X127528807Y-96759927D01*
X127669262Y-96787865D01*
X127812468Y-96787865D01*
X127952923Y-96759927D01*
X128085229Y-96705124D01*
X128204301Y-96625563D01*
X128305563Y-96524301D01*
X128385124Y-96405229D01*
X128408664Y-96348397D01*
X129203000Y-96348397D01*
X129203000Y-96491603D01*
X129230938Y-96632058D01*
X129285741Y-96764364D01*
X129365302Y-96883436D01*
X129466564Y-96984698D01*
X129585636Y-97064259D01*
X129717942Y-97119062D01*
X129858397Y-97147000D01*
X130001603Y-97147000D01*
X130142058Y-97119062D01*
X130274364Y-97064259D01*
X130393436Y-96984698D01*
X130494698Y-96883436D01*
X130574259Y-96764364D01*
X130629062Y-96632058D01*
X130657000Y-96491603D01*
X130657000Y-96348397D01*
X130629062Y-96207942D01*
X130574259Y-96075636D01*
X130494698Y-95956564D01*
X130393436Y-95855302D01*
X130274364Y-95775741D01*
X130142058Y-95720938D01*
X130001603Y-95693000D01*
X129858397Y-95693000D01*
X129717942Y-95720938D01*
X129585636Y-95775741D01*
X129466564Y-95855302D01*
X129365302Y-95956564D01*
X129285741Y-96075636D01*
X129230938Y-96207942D01*
X129203000Y-96348397D01*
X128408664Y-96348397D01*
X128439927Y-96272923D01*
X128467865Y-96132468D01*
X128467865Y-95989262D01*
X128439927Y-95848807D01*
X128385124Y-95716501D01*
X128305563Y-95597429D01*
X128204301Y-95496167D01*
X128085229Y-95416606D01*
X127952923Y-95361803D01*
X127812468Y-95333865D01*
X127669262Y-95333865D01*
X127528807Y-95361803D01*
X127396501Y-95416606D01*
X127277429Y-95496167D01*
X127176167Y-95597429D01*
X127096606Y-95716501D01*
X127041803Y-95848807D01*
X127013865Y-95989262D01*
X122735268Y-95989262D01*
X122864236Y-95860294D01*
X122993044Y-95667519D01*
X123081769Y-95453318D01*
X123127000Y-95225924D01*
X123127000Y-95034076D01*
X137143000Y-95034076D01*
X137143000Y-95265924D01*
X137188231Y-95493318D01*
X137276956Y-95707519D01*
X137405764Y-95900294D01*
X137569706Y-96064236D01*
X137762481Y-96193044D01*
X137976682Y-96281769D01*
X138204076Y-96327000D01*
X138435924Y-96327000D01*
X138663318Y-96281769D01*
X138877519Y-96193044D01*
X139070294Y-96064236D01*
X139234236Y-95900294D01*
X139363044Y-95707519D01*
X139451769Y-95493318D01*
X139497000Y-95265924D01*
X139497000Y-95034076D01*
X139451769Y-94806682D01*
X139363044Y-94592481D01*
X139234236Y-94399706D01*
X139070294Y-94235764D01*
X138877519Y-94106956D01*
X138663318Y-94018231D01*
X138435924Y-93973000D01*
X138204076Y-93973000D01*
X137976682Y-94018231D01*
X137762481Y-94106956D01*
X137569706Y-94235764D01*
X137405764Y-94399706D01*
X137276956Y-94592481D01*
X137188231Y-94806682D01*
X137143000Y-95034076D01*
X123127000Y-95034076D01*
X123127000Y-94994076D01*
X123081769Y-94766682D01*
X122993044Y-94552481D01*
X122864236Y-94359706D01*
X122700294Y-94195764D01*
X122507519Y-94066956D01*
X122293318Y-93978231D01*
X122065924Y-93933000D01*
X121834076Y-93933000D01*
X121606682Y-93978231D01*
X121392481Y-94066956D01*
X121199706Y-94195764D01*
X121035764Y-94359706D01*
X120906956Y-94552481D01*
X120818231Y-94766682D01*
X120773000Y-94994076D01*
X120343841Y-94994076D01*
X120343016Y-93916297D01*
X127802417Y-93916297D01*
X127802417Y-94059503D01*
X127830355Y-94199958D01*
X127885158Y-94332264D01*
X127964719Y-94451336D01*
X128065981Y-94552598D01*
X128185053Y-94632159D01*
X128317359Y-94686962D01*
X128457814Y-94714900D01*
X128601020Y-94714900D01*
X128741475Y-94686962D01*
X128873781Y-94632159D01*
X128992853Y-94552598D01*
X129094115Y-94451336D01*
X129173676Y-94332264D01*
X129228479Y-94199958D01*
X129256417Y-94059503D01*
X129256417Y-93916297D01*
X129228479Y-93775842D01*
X129173676Y-93643536D01*
X129094115Y-93524464D01*
X128992853Y-93423202D01*
X128873781Y-93343641D01*
X128741475Y-93288838D01*
X128601020Y-93260900D01*
X128457814Y-93260900D01*
X128317359Y-93288838D01*
X128185053Y-93343641D01*
X128065981Y-93423202D01*
X127964719Y-93524464D01*
X127885158Y-93643536D01*
X127830355Y-93775842D01*
X127802417Y-93916297D01*
X120343016Y-93916297D01*
X120341895Y-92454076D01*
X120773000Y-92454076D01*
X120773000Y-92685924D01*
X120818231Y-92913318D01*
X120906956Y-93127519D01*
X121035764Y-93320294D01*
X121199706Y-93484236D01*
X121392481Y-93613044D01*
X121606682Y-93701769D01*
X121834076Y-93747000D01*
X122065924Y-93747000D01*
X122293318Y-93701769D01*
X122507519Y-93613044D01*
X122700294Y-93484236D01*
X122864236Y-93320294D01*
X122993044Y-93127519D01*
X123081769Y-92913318D01*
X123110595Y-92768397D01*
X129943000Y-92768397D01*
X129943000Y-92911603D01*
X129970938Y-93052058D01*
X130025741Y-93184364D01*
X130105302Y-93303436D01*
X130206564Y-93404698D01*
X130325636Y-93484259D01*
X130457942Y-93539062D01*
X130598397Y-93567000D01*
X130741603Y-93567000D01*
X130882058Y-93539062D01*
X131014364Y-93484259D01*
X131133436Y-93404698D01*
X131234698Y-93303436D01*
X131314259Y-93184364D01*
X131369062Y-93052058D01*
X131379222Y-93000976D01*
X134640898Y-93000976D01*
X134640898Y-93144182D01*
X134668836Y-93284637D01*
X134723639Y-93416943D01*
X134803200Y-93536015D01*
X134904462Y-93637277D01*
X135023534Y-93716838D01*
X135155840Y-93771641D01*
X135296295Y-93799579D01*
X135439501Y-93799579D01*
X135579956Y-93771641D01*
X135712262Y-93716838D01*
X135831334Y-93637277D01*
X135932596Y-93536015D01*
X136012157Y-93416943D01*
X136066960Y-93284637D01*
X136094898Y-93144182D01*
X136094898Y-93000976D01*
X136066960Y-92860521D01*
X136012157Y-92728215D01*
X135932596Y-92609143D01*
X135831334Y-92507881D01*
X135810674Y-92494076D01*
X137143000Y-92494076D01*
X137143000Y-92725924D01*
X137188231Y-92953318D01*
X137276956Y-93167519D01*
X137405764Y-93360294D01*
X137569706Y-93524236D01*
X137762481Y-93653044D01*
X137976682Y-93741769D01*
X138204076Y-93787000D01*
X138435924Y-93787000D01*
X138663318Y-93741769D01*
X138877519Y-93653044D01*
X139070294Y-93524236D01*
X139234236Y-93360294D01*
X139363044Y-93167519D01*
X139451769Y-92953318D01*
X139497000Y-92725924D01*
X139497000Y-92494076D01*
X139451769Y-92266682D01*
X139363044Y-92052481D01*
X139234236Y-91859706D01*
X139070294Y-91695764D01*
X138877519Y-91566956D01*
X138663318Y-91478231D01*
X138435924Y-91433000D01*
X138204076Y-91433000D01*
X137976682Y-91478231D01*
X137762481Y-91566956D01*
X137569706Y-91695764D01*
X137405764Y-91859706D01*
X137276956Y-92052481D01*
X137188231Y-92266682D01*
X137143000Y-92494076D01*
X135810674Y-92494076D01*
X135712262Y-92428320D01*
X135579956Y-92373517D01*
X135439501Y-92345579D01*
X135296295Y-92345579D01*
X135155840Y-92373517D01*
X135023534Y-92428320D01*
X134904462Y-92507881D01*
X134803200Y-92609143D01*
X134723639Y-92728215D01*
X134668836Y-92860521D01*
X134640898Y-93000976D01*
X131379222Y-93000976D01*
X131397000Y-92911603D01*
X131397000Y-92768397D01*
X131369062Y-92627942D01*
X131314259Y-92495636D01*
X131234698Y-92376564D01*
X131133436Y-92275302D01*
X131014364Y-92195741D01*
X130882058Y-92140938D01*
X130741603Y-92113000D01*
X130598397Y-92113000D01*
X130457942Y-92140938D01*
X130325636Y-92195741D01*
X130206564Y-92275302D01*
X130105302Y-92376564D01*
X130025741Y-92495636D01*
X129970938Y-92627942D01*
X129943000Y-92768397D01*
X123110595Y-92768397D01*
X123127000Y-92685924D01*
X123127000Y-92454076D01*
X123081769Y-92226682D01*
X122993044Y-92012481D01*
X122864236Y-91819706D01*
X122700294Y-91655764D01*
X122507519Y-91526956D01*
X122293318Y-91438231D01*
X122065924Y-91393000D01*
X121834076Y-91393000D01*
X121606682Y-91438231D01*
X121392481Y-91526956D01*
X121199706Y-91655764D01*
X121035764Y-91819706D01*
X120906956Y-92012481D01*
X120818231Y-92226682D01*
X120773000Y-92454076D01*
X120341895Y-92454076D01*
X120339949Y-89914076D01*
X120773000Y-89914076D01*
X120773000Y-90145924D01*
X120818231Y-90373318D01*
X120906956Y-90587519D01*
X121035764Y-90780294D01*
X121199706Y-90944236D01*
X121392481Y-91073044D01*
X121606682Y-91161769D01*
X121834076Y-91207000D01*
X122065924Y-91207000D01*
X122293318Y-91161769D01*
X122507519Y-91073044D01*
X122653149Y-90975737D01*
X133855660Y-90975737D01*
X133855660Y-91118943D01*
X133883598Y-91259398D01*
X133938401Y-91391704D01*
X134017962Y-91510776D01*
X134119224Y-91612038D01*
X134238296Y-91691599D01*
X134370602Y-91746402D01*
X134511057Y-91774340D01*
X134654263Y-91774340D01*
X134794718Y-91746402D01*
X134927024Y-91691599D01*
X135046096Y-91612038D01*
X135147358Y-91510776D01*
X135226919Y-91391704D01*
X135281722Y-91259398D01*
X135309660Y-91118943D01*
X135309660Y-90975737D01*
X135281722Y-90835282D01*
X135226919Y-90702976D01*
X135147358Y-90583904D01*
X135046096Y-90482642D01*
X134927024Y-90403081D01*
X134794718Y-90348278D01*
X134654263Y-90320340D01*
X134511057Y-90320340D01*
X134370602Y-90348278D01*
X134238296Y-90403081D01*
X134119224Y-90482642D01*
X134017962Y-90583904D01*
X133938401Y-90702976D01*
X133883598Y-90835282D01*
X133855660Y-90975737D01*
X122653149Y-90975737D01*
X122700294Y-90944236D01*
X122864236Y-90780294D01*
X122993044Y-90587519D01*
X123081769Y-90373318D01*
X123127000Y-90145924D01*
X123127000Y-89954076D01*
X137143000Y-89954076D01*
X137143000Y-90185924D01*
X137188231Y-90413318D01*
X137276956Y-90627519D01*
X137405764Y-90820294D01*
X137569706Y-90984236D01*
X137762481Y-91113044D01*
X137976682Y-91201769D01*
X138204076Y-91247000D01*
X138435924Y-91247000D01*
X138663318Y-91201769D01*
X138877519Y-91113044D01*
X139070294Y-90984236D01*
X139234236Y-90820294D01*
X139363044Y-90627519D01*
X139451769Y-90413318D01*
X139497000Y-90185924D01*
X139497000Y-89954076D01*
X139451769Y-89726682D01*
X139363044Y-89512481D01*
X139234236Y-89319706D01*
X139070294Y-89155764D01*
X138877519Y-89026956D01*
X138663318Y-88938231D01*
X138435924Y-88893000D01*
X138204076Y-88893000D01*
X137976682Y-88938231D01*
X137762481Y-89026956D01*
X137569706Y-89155764D01*
X137405764Y-89319706D01*
X137276956Y-89512481D01*
X137188231Y-89726682D01*
X137143000Y-89954076D01*
X123127000Y-89954076D01*
X123127000Y-89914076D01*
X123081769Y-89686682D01*
X122993044Y-89472481D01*
X122864236Y-89279706D01*
X122700294Y-89115764D01*
X122507519Y-88986956D01*
X122293318Y-88898231D01*
X122065924Y-88853000D01*
X121834076Y-88853000D01*
X121606682Y-88898231D01*
X121392481Y-88986956D01*
X121199706Y-89115764D01*
X121035764Y-89279706D01*
X120906956Y-89472481D01*
X120818231Y-89686682D01*
X120773000Y-89914076D01*
X120339949Y-89914076D01*
X120338003Y-87374076D01*
X120773000Y-87374076D01*
X120773000Y-87605924D01*
X120818231Y-87833318D01*
X120906956Y-88047519D01*
X121035764Y-88240294D01*
X121199706Y-88404236D01*
X121392481Y-88533044D01*
X121606682Y-88621769D01*
X121834076Y-88667000D01*
X122065924Y-88667000D01*
X122293318Y-88621769D01*
X122446311Y-88558397D01*
X123283000Y-88558397D01*
X123283000Y-88701603D01*
X123310938Y-88842058D01*
X123365741Y-88974364D01*
X123445302Y-89093436D01*
X123546564Y-89194698D01*
X123665636Y-89274259D01*
X123797942Y-89329062D01*
X123938397Y-89357000D01*
X124081603Y-89357000D01*
X124222058Y-89329062D01*
X124354364Y-89274259D01*
X124473436Y-89194698D01*
X124574698Y-89093436D01*
X124654259Y-88974364D01*
X124709062Y-88842058D01*
X124737000Y-88701603D01*
X124737000Y-88558397D01*
X124709062Y-88417942D01*
X124696825Y-88388397D01*
X127073000Y-88388397D01*
X127073000Y-88531603D01*
X127100938Y-88672058D01*
X127155741Y-88804364D01*
X127235302Y-88923436D01*
X127336564Y-89024698D01*
X127455636Y-89104259D01*
X127587942Y-89159062D01*
X127728397Y-89187000D01*
X127871603Y-89187000D01*
X128012058Y-89159062D01*
X128144364Y-89104259D01*
X128263436Y-89024698D01*
X128364698Y-88923436D01*
X128444259Y-88804364D01*
X128499062Y-88672058D01*
X128527000Y-88531603D01*
X128527000Y-88388397D01*
X128499062Y-88247942D01*
X128444259Y-88115636D01*
X128364698Y-87996564D01*
X128263436Y-87895302D01*
X128144364Y-87815741D01*
X128012058Y-87760938D01*
X127871603Y-87733000D01*
X127728397Y-87733000D01*
X127587942Y-87760938D01*
X127455636Y-87815741D01*
X127336564Y-87895302D01*
X127235302Y-87996564D01*
X127155741Y-88115636D01*
X127100938Y-88247942D01*
X127073000Y-88388397D01*
X124696825Y-88388397D01*
X124654259Y-88285636D01*
X124574698Y-88166564D01*
X124473436Y-88065302D01*
X124354364Y-87985741D01*
X124222058Y-87930938D01*
X124081603Y-87903000D01*
X123938397Y-87903000D01*
X123797942Y-87930938D01*
X123665636Y-87985741D01*
X123546564Y-88065302D01*
X123445302Y-88166564D01*
X123365741Y-88285636D01*
X123310938Y-88417942D01*
X123283000Y-88558397D01*
X122446311Y-88558397D01*
X122507519Y-88533044D01*
X122700294Y-88404236D01*
X122864236Y-88240294D01*
X122993044Y-88047519D01*
X123081769Y-87833318D01*
X123127000Y-87605924D01*
X123127000Y-87414076D01*
X137143000Y-87414076D01*
X137143000Y-87645924D01*
X137188231Y-87873318D01*
X137276956Y-88087519D01*
X137405764Y-88280294D01*
X137569706Y-88444236D01*
X137762481Y-88573044D01*
X137976682Y-88661769D01*
X138204076Y-88707000D01*
X138435924Y-88707000D01*
X138663318Y-88661769D01*
X138877519Y-88573044D01*
X139070294Y-88444236D01*
X139234236Y-88280294D01*
X139363044Y-88087519D01*
X139451769Y-87873318D01*
X139497000Y-87645924D01*
X139497000Y-87414076D01*
X139451769Y-87186682D01*
X139363044Y-86972481D01*
X139234236Y-86779706D01*
X139070294Y-86615764D01*
X138877519Y-86486956D01*
X138663318Y-86398231D01*
X138435924Y-86353000D01*
X138204076Y-86353000D01*
X137976682Y-86398231D01*
X137762481Y-86486956D01*
X137569706Y-86615764D01*
X137405764Y-86779706D01*
X137276956Y-86972481D01*
X137188231Y-87186682D01*
X137143000Y-87414076D01*
X123127000Y-87414076D01*
X123127000Y-87374076D01*
X123081769Y-87146682D01*
X122993044Y-86932481D01*
X122864236Y-86739706D01*
X122700294Y-86575764D01*
X122507519Y-86446956D01*
X122293318Y-86358231D01*
X122065924Y-86313000D01*
X121834076Y-86313000D01*
X121606682Y-86358231D01*
X121392481Y-86446956D01*
X121199706Y-86575764D01*
X121035764Y-86739706D01*
X120906956Y-86932481D01*
X120818231Y-87146682D01*
X120773000Y-87374076D01*
X120338003Y-87374076D01*
X120337108Y-86205182D01*
X123508587Y-86205182D01*
X123508587Y-86348388D01*
X123536525Y-86488843D01*
X123591328Y-86621149D01*
X123670889Y-86740221D01*
X123772151Y-86841483D01*
X123891223Y-86921044D01*
X124023529Y-86975847D01*
X124163984Y-87003785D01*
X124307190Y-87003785D01*
X124447645Y-86975847D01*
X124579951Y-86921044D01*
X124699023Y-86841483D01*
X124800285Y-86740221D01*
X124879846Y-86621149D01*
X124934649Y-86488843D01*
X124962587Y-86348388D01*
X124962587Y-86205182D01*
X124934649Y-86064727D01*
X124879846Y-85932421D01*
X124800285Y-85813349D01*
X124699023Y-85712087D01*
X124579951Y-85632526D01*
X124447645Y-85577723D01*
X124307190Y-85549785D01*
X124163984Y-85549785D01*
X124023529Y-85577723D01*
X123891223Y-85632526D01*
X123772151Y-85712087D01*
X123670889Y-85813349D01*
X123591328Y-85932421D01*
X123536525Y-86064727D01*
X123508587Y-86205182D01*
X120337108Y-86205182D01*
X120336057Y-84834076D01*
X120773000Y-84834076D01*
X120773000Y-85065924D01*
X120818231Y-85293318D01*
X120906956Y-85507519D01*
X121035764Y-85700294D01*
X121199706Y-85864236D01*
X121392481Y-85993044D01*
X121606682Y-86081769D01*
X121834076Y-86127000D01*
X122065924Y-86127000D01*
X122293318Y-86081769D01*
X122507519Y-85993044D01*
X122700294Y-85864236D01*
X122864236Y-85700294D01*
X122993044Y-85507519D01*
X123081769Y-85293318D01*
X123127000Y-85065924D01*
X123127000Y-85048397D01*
X131123000Y-85048397D01*
X131123000Y-85191603D01*
X131150938Y-85332058D01*
X131205741Y-85464364D01*
X131285302Y-85583436D01*
X131386564Y-85684698D01*
X131505636Y-85764259D01*
X131637942Y-85819062D01*
X131778397Y-85847000D01*
X131921603Y-85847000D01*
X132062058Y-85819062D01*
X132194364Y-85764259D01*
X132313436Y-85684698D01*
X132414698Y-85583436D01*
X132494259Y-85464364D01*
X132549062Y-85332058D01*
X132577000Y-85191603D01*
X132577000Y-85048397D01*
X132549062Y-84907942D01*
X132535035Y-84874076D01*
X137143000Y-84874076D01*
X137143000Y-85105924D01*
X137188231Y-85333318D01*
X137276956Y-85547519D01*
X137405764Y-85740294D01*
X137569706Y-85904236D01*
X137762481Y-86033044D01*
X137976682Y-86121769D01*
X138204076Y-86167000D01*
X138435924Y-86167000D01*
X138663318Y-86121769D01*
X138877519Y-86033044D01*
X139070294Y-85904236D01*
X139234236Y-85740294D01*
X139363044Y-85547519D01*
X139451769Y-85333318D01*
X139497000Y-85105924D01*
X139497000Y-84874076D01*
X139451769Y-84646682D01*
X139363044Y-84432481D01*
X139234236Y-84239706D01*
X139070294Y-84075764D01*
X138877519Y-83946956D01*
X138663318Y-83858231D01*
X138435924Y-83813000D01*
X138204076Y-83813000D01*
X137976682Y-83858231D01*
X137762481Y-83946956D01*
X137569706Y-84075764D01*
X137405764Y-84239706D01*
X137276956Y-84432481D01*
X137188231Y-84646682D01*
X137143000Y-84874076D01*
X132535035Y-84874076D01*
X132494259Y-84775636D01*
X132414698Y-84656564D01*
X132313436Y-84555302D01*
X132194364Y-84475741D01*
X132062058Y-84420938D01*
X131921603Y-84393000D01*
X131778397Y-84393000D01*
X131637942Y-84420938D01*
X131505636Y-84475741D01*
X131386564Y-84555302D01*
X131285302Y-84656564D01*
X131205741Y-84775636D01*
X131150938Y-84907942D01*
X131123000Y-85048397D01*
X123127000Y-85048397D01*
X123127000Y-84834076D01*
X123081769Y-84606682D01*
X122993044Y-84392481D01*
X122864236Y-84199706D01*
X122700294Y-84035764D01*
X122507519Y-83906956D01*
X122293318Y-83818231D01*
X122065924Y-83773000D01*
X121834076Y-83773000D01*
X121606682Y-83818231D01*
X121392481Y-83906956D01*
X121199706Y-84035764D01*
X121035764Y-84199706D01*
X120906956Y-84392481D01*
X120818231Y-84606682D01*
X120773000Y-84834076D01*
X120336057Y-84834076D01*
X120334111Y-82294076D01*
X120773000Y-82294076D01*
X120773000Y-82525924D01*
X120818231Y-82753318D01*
X120906956Y-82967519D01*
X121035764Y-83160294D01*
X121199706Y-83324236D01*
X121392481Y-83453044D01*
X121606682Y-83541769D01*
X121834076Y-83587000D01*
X122065924Y-83587000D01*
X122293318Y-83541769D01*
X122507519Y-83453044D01*
X122700294Y-83324236D01*
X122864236Y-83160294D01*
X122993044Y-82967519D01*
X123081769Y-82753318D01*
X123127000Y-82525924D01*
X123127000Y-82334076D01*
X137143000Y-82334076D01*
X137143000Y-82565924D01*
X137188231Y-82793318D01*
X137276956Y-83007519D01*
X137405764Y-83200294D01*
X137569706Y-83364236D01*
X137762481Y-83493044D01*
X137976682Y-83581769D01*
X138204076Y-83627000D01*
X138435924Y-83627000D01*
X138663318Y-83581769D01*
X138877519Y-83493044D01*
X139070294Y-83364236D01*
X139234236Y-83200294D01*
X139363044Y-83007519D01*
X139451769Y-82793318D01*
X139497000Y-82565924D01*
X139497000Y-82334076D01*
X139451769Y-82106682D01*
X139363044Y-81892481D01*
X139234236Y-81699706D01*
X139070294Y-81535764D01*
X138877519Y-81406956D01*
X138663318Y-81318231D01*
X138435924Y-81273000D01*
X138204076Y-81273000D01*
X137976682Y-81318231D01*
X137762481Y-81406956D01*
X137569706Y-81535764D01*
X137405764Y-81699706D01*
X137276956Y-81892481D01*
X137188231Y-82106682D01*
X137143000Y-82334076D01*
X123127000Y-82334076D01*
X123127000Y-82294076D01*
X123081769Y-82066682D01*
X122993044Y-81852481D01*
X122864236Y-81659706D01*
X122700294Y-81495764D01*
X122507519Y-81366956D01*
X122293318Y-81278231D01*
X122065924Y-81233000D01*
X121834076Y-81233000D01*
X121606682Y-81278231D01*
X121392481Y-81366956D01*
X121199706Y-81495764D01*
X121035764Y-81659706D01*
X120906956Y-81852481D01*
X120818231Y-82066682D01*
X120773000Y-82294076D01*
X120334111Y-82294076D01*
X120332165Y-79754076D01*
X120773000Y-79754076D01*
X120773000Y-79985924D01*
X120818231Y-80213318D01*
X120906956Y-80427519D01*
X121035764Y-80620294D01*
X121199706Y-80784236D01*
X121392481Y-80913044D01*
X121606682Y-81001769D01*
X121834076Y-81047000D01*
X122065924Y-81047000D01*
X122293318Y-81001769D01*
X122507519Y-80913044D01*
X122700294Y-80784236D01*
X122864236Y-80620294D01*
X122993044Y-80427519D01*
X123081769Y-80213318D01*
X123127000Y-79985924D01*
X123127000Y-79754076D01*
X123081769Y-79526682D01*
X122993044Y-79312481D01*
X122990316Y-79308397D01*
X128703000Y-79308397D01*
X128703000Y-79451603D01*
X128730938Y-79592058D01*
X128785741Y-79724364D01*
X128865302Y-79843436D01*
X128966564Y-79944698D01*
X129085636Y-80024259D01*
X129217942Y-80079062D01*
X129358397Y-80107000D01*
X129501603Y-80107000D01*
X129642058Y-80079062D01*
X129774364Y-80024259D01*
X129893436Y-79944698D01*
X129949737Y-79888397D01*
X132583000Y-79888397D01*
X132583000Y-80031603D01*
X132610938Y-80172058D01*
X132665741Y-80304364D01*
X132745302Y-80423436D01*
X132846564Y-80524698D01*
X132965636Y-80604259D01*
X133097942Y-80659062D01*
X133238397Y-80687000D01*
X133381603Y-80687000D01*
X133522058Y-80659062D01*
X133654364Y-80604259D01*
X133773436Y-80524698D01*
X133874698Y-80423436D01*
X133954259Y-80304364D01*
X134009062Y-80172058D01*
X134037000Y-80031603D01*
X134037000Y-79888397D01*
X134018239Y-79794076D01*
X137143000Y-79794076D01*
X137143000Y-80025924D01*
X137188231Y-80253318D01*
X137276956Y-80467519D01*
X137405764Y-80660294D01*
X137569706Y-80824236D01*
X137762481Y-80953044D01*
X137976682Y-81041769D01*
X138204076Y-81087000D01*
X138435924Y-81087000D01*
X138663318Y-81041769D01*
X138877519Y-80953044D01*
X139070294Y-80824236D01*
X139234236Y-80660294D01*
X139363044Y-80467519D01*
X139451769Y-80253318D01*
X139497000Y-80025924D01*
X139497000Y-79794076D01*
X139451769Y-79566682D01*
X139363044Y-79352481D01*
X139234236Y-79159706D01*
X139070294Y-78995764D01*
X138877519Y-78866956D01*
X138663318Y-78778231D01*
X138435924Y-78733000D01*
X138204076Y-78733000D01*
X137976682Y-78778231D01*
X137762481Y-78866956D01*
X137569706Y-78995764D01*
X137405764Y-79159706D01*
X137276956Y-79352481D01*
X137188231Y-79566682D01*
X137143000Y-79794076D01*
X134018239Y-79794076D01*
X134009062Y-79747942D01*
X133954259Y-79615636D01*
X133874698Y-79496564D01*
X133773436Y-79395302D01*
X133654364Y-79315741D01*
X133522058Y-79260938D01*
X133381603Y-79233000D01*
X133238397Y-79233000D01*
X133097942Y-79260938D01*
X132965636Y-79315741D01*
X132846564Y-79395302D01*
X132745302Y-79496564D01*
X132665741Y-79615636D01*
X132610938Y-79747942D01*
X132583000Y-79888397D01*
X129949737Y-79888397D01*
X129994698Y-79843436D01*
X130074259Y-79724364D01*
X130129062Y-79592058D01*
X130157000Y-79451603D01*
X130157000Y-79308397D01*
X130129062Y-79167942D01*
X130074259Y-79035636D01*
X129994698Y-78916564D01*
X129893436Y-78815302D01*
X129774364Y-78735741D01*
X129642058Y-78680938D01*
X129501603Y-78653000D01*
X129358397Y-78653000D01*
X129217942Y-78680938D01*
X129085636Y-78735741D01*
X128966564Y-78815302D01*
X128865302Y-78916564D01*
X128785741Y-79035636D01*
X128730938Y-79167942D01*
X128703000Y-79308397D01*
X122990316Y-79308397D01*
X122864236Y-79119706D01*
X122700294Y-78955764D01*
X122507519Y-78826956D01*
X122293318Y-78738231D01*
X122065924Y-78693000D01*
X121834076Y-78693000D01*
X121606682Y-78738231D01*
X121392481Y-78826956D01*
X121199706Y-78955764D01*
X121035764Y-79119706D01*
X120906956Y-79312481D01*
X120818231Y-79526682D01*
X120773000Y-79754076D01*
X120332165Y-79754076D01*
X120330218Y-77214076D01*
X120773000Y-77214076D01*
X120773000Y-77445924D01*
X120818231Y-77673318D01*
X120906956Y-77887519D01*
X121035764Y-78080294D01*
X121199706Y-78244236D01*
X121392481Y-78373044D01*
X121606682Y-78461769D01*
X121834076Y-78507000D01*
X122065924Y-78507000D01*
X122293318Y-78461769D01*
X122405023Y-78415499D01*
X132757990Y-78415499D01*
X132757990Y-78558705D01*
X132785928Y-78699160D01*
X132840731Y-78831466D01*
X132920292Y-78950538D01*
X133021554Y-79051800D01*
X133140626Y-79131361D01*
X133272932Y-79186164D01*
X133413387Y-79214102D01*
X133556593Y-79214102D01*
X133697048Y-79186164D01*
X133829354Y-79131361D01*
X133948426Y-79051800D01*
X134049688Y-78950538D01*
X134129249Y-78831466D01*
X134184052Y-78699160D01*
X134211990Y-78558705D01*
X134211990Y-78415499D01*
X134184052Y-78275044D01*
X134129249Y-78142738D01*
X134049688Y-78023666D01*
X133948426Y-77922404D01*
X133829354Y-77842843D01*
X133697048Y-77788040D01*
X133556593Y-77760102D01*
X133413387Y-77760102D01*
X133272932Y-77788040D01*
X133140626Y-77842843D01*
X133021554Y-77922404D01*
X132920292Y-78023666D01*
X132840731Y-78142738D01*
X132785928Y-78275044D01*
X132757990Y-78415499D01*
X122405023Y-78415499D01*
X122507519Y-78373044D01*
X122700294Y-78244236D01*
X122864236Y-78080294D01*
X122993044Y-77887519D01*
X123081769Y-77673318D01*
X123095788Y-77602834D01*
X127695379Y-77602834D01*
X127695379Y-77746040D01*
X127723317Y-77886495D01*
X127778120Y-78018801D01*
X127857681Y-78137873D01*
X127958943Y-78239135D01*
X128078015Y-78318696D01*
X128210321Y-78373499D01*
X128350776Y-78401437D01*
X128493982Y-78401437D01*
X128634437Y-78373499D01*
X128766743Y-78318696D01*
X128885815Y-78239135D01*
X128987077Y-78137873D01*
X129066638Y-78018801D01*
X129121441Y-77886495D01*
X129149379Y-77746040D01*
X129149379Y-77602834D01*
X129121441Y-77462379D01*
X129066638Y-77330073D01*
X129015859Y-77254076D01*
X137143000Y-77254076D01*
X137143000Y-77485924D01*
X137188231Y-77713318D01*
X137276956Y-77927519D01*
X137405764Y-78120294D01*
X137569706Y-78284236D01*
X137762481Y-78413044D01*
X137976682Y-78501769D01*
X138204076Y-78547000D01*
X138435924Y-78547000D01*
X138663318Y-78501769D01*
X138877519Y-78413044D01*
X139070294Y-78284236D01*
X139234236Y-78120294D01*
X139363044Y-77927519D01*
X139451769Y-77713318D01*
X139497000Y-77485924D01*
X139497000Y-77254076D01*
X139451769Y-77026682D01*
X139363044Y-76812481D01*
X139234236Y-76619706D01*
X139070294Y-76455764D01*
X138877519Y-76326956D01*
X138663318Y-76238231D01*
X138435924Y-76193000D01*
X138204076Y-76193000D01*
X137976682Y-76238231D01*
X137762481Y-76326956D01*
X137569706Y-76455764D01*
X137405764Y-76619706D01*
X137276956Y-76812481D01*
X137188231Y-77026682D01*
X137143000Y-77254076D01*
X129015859Y-77254076D01*
X128987077Y-77211001D01*
X128885815Y-77109739D01*
X128766743Y-77030178D01*
X128634437Y-76975375D01*
X128493982Y-76947437D01*
X128350776Y-76947437D01*
X128210321Y-76975375D01*
X128078015Y-77030178D01*
X127958943Y-77109739D01*
X127857681Y-77211001D01*
X127778120Y-77330073D01*
X127723317Y-77462379D01*
X127695379Y-77602834D01*
X123095788Y-77602834D01*
X123127000Y-77445924D01*
X123127000Y-77214076D01*
X123081769Y-76986682D01*
X122993044Y-76772481D01*
X122864236Y-76579706D01*
X122700294Y-76415764D01*
X122507519Y-76286956D01*
X122293318Y-76198231D01*
X122065924Y-76153000D01*
X121834076Y-76153000D01*
X121606682Y-76198231D01*
X121392481Y-76286956D01*
X121199706Y-76415764D01*
X121035764Y-76579706D01*
X120906956Y-76772481D01*
X120818231Y-76986682D01*
X120773000Y-77214076D01*
X120330218Y-77214076D01*
X120328271Y-74674076D01*
X120773000Y-74674076D01*
X120773000Y-74905924D01*
X120818231Y-75133318D01*
X120906956Y-75347519D01*
X121035764Y-75540294D01*
X121199706Y-75704236D01*
X121392481Y-75833044D01*
X121606682Y-75921769D01*
X121834076Y-75967000D01*
X122065924Y-75967000D01*
X122293318Y-75921769D01*
X122507519Y-75833044D01*
X122700294Y-75704236D01*
X122736133Y-75668397D01*
X128903000Y-75668397D01*
X128903000Y-75811603D01*
X128930938Y-75952058D01*
X128985741Y-76084364D01*
X129065302Y-76203436D01*
X129166564Y-76304698D01*
X129285636Y-76384259D01*
X129417942Y-76439062D01*
X129558397Y-76467000D01*
X129701603Y-76467000D01*
X129842058Y-76439062D01*
X129974364Y-76384259D01*
X130093436Y-76304698D01*
X130194698Y-76203436D01*
X130274259Y-76084364D01*
X130329062Y-75952058D01*
X130357000Y-75811603D01*
X130357000Y-75668397D01*
X130329062Y-75527942D01*
X130274259Y-75395636D01*
X130194698Y-75276564D01*
X130093436Y-75175302D01*
X129974364Y-75095741D01*
X129842058Y-75040938D01*
X129701603Y-75013000D01*
X129558397Y-75013000D01*
X129417942Y-75040938D01*
X129285636Y-75095741D01*
X129166564Y-75175302D01*
X129065302Y-75276564D01*
X128985741Y-75395636D01*
X128930938Y-75527942D01*
X128903000Y-75668397D01*
X122736133Y-75668397D01*
X122864236Y-75540294D01*
X122993044Y-75347519D01*
X123081769Y-75133318D01*
X123127000Y-74905924D01*
X123127000Y-74674076D01*
X123115626Y-74616890D01*
X130228524Y-74616890D01*
X130273175Y-74764099D01*
X130398359Y-75026920D01*
X130572412Y-75260269D01*
X130788645Y-75455178D01*
X131038748Y-75604157D01*
X131313109Y-75701481D01*
X131543000Y-75580814D01*
X131543000Y-74387000D01*
X131797000Y-74387000D01*
X131797000Y-75580814D01*
X132026891Y-75701481D01*
X132301252Y-75604157D01*
X132551355Y-75455178D01*
X132767588Y-75260269D01*
X132940000Y-75029120D01*
X133112412Y-75260269D01*
X133328645Y-75455178D01*
X133578748Y-75604157D01*
X133853109Y-75701481D01*
X134083000Y-75580814D01*
X134083000Y-74387000D01*
X134337000Y-74387000D01*
X134337000Y-75580814D01*
X134566891Y-75701481D01*
X134841252Y-75604157D01*
X135091355Y-75455178D01*
X135307588Y-75260269D01*
X135481641Y-75026920D01*
X135606825Y-74764099D01*
X135621997Y-74714076D01*
X137143000Y-74714076D01*
X137143000Y-74945924D01*
X137188231Y-75173318D01*
X137276956Y-75387519D01*
X137405764Y-75580294D01*
X137569706Y-75744236D01*
X137762481Y-75873044D01*
X137976682Y-75961769D01*
X138204076Y-76007000D01*
X138435924Y-76007000D01*
X138663318Y-75961769D01*
X138877519Y-75873044D01*
X139070294Y-75744236D01*
X139234236Y-75580294D01*
X139363044Y-75387519D01*
X139451769Y-75173318D01*
X139497000Y-74945924D01*
X139497000Y-74714076D01*
X139451769Y-74486682D01*
X139363044Y-74272481D01*
X139234236Y-74079706D01*
X139070294Y-73915764D01*
X138877519Y-73786956D01*
X138663318Y-73698231D01*
X138435924Y-73653000D01*
X138204076Y-73653000D01*
X137976682Y-73698231D01*
X137762481Y-73786956D01*
X137569706Y-73915764D01*
X137405764Y-74079706D01*
X137276956Y-74272481D01*
X137188231Y-74486682D01*
X137143000Y-74714076D01*
X135621997Y-74714076D01*
X135651476Y-74616890D01*
X135530155Y-74387000D01*
X134337000Y-74387000D01*
X134083000Y-74387000D01*
X131797000Y-74387000D01*
X131543000Y-74387000D01*
X130349845Y-74387000D01*
X130228524Y-74616890D01*
X123115626Y-74616890D01*
X123081769Y-74446682D01*
X122993044Y-74232481D01*
X122864236Y-74039706D01*
X122700294Y-73875764D01*
X122507519Y-73746956D01*
X122293318Y-73658231D01*
X122065924Y-73613000D01*
X121834076Y-73613000D01*
X121606682Y-73658231D01*
X121392481Y-73746956D01*
X121199706Y-73875764D01*
X121035764Y-74039706D01*
X120906956Y-74232481D01*
X120818231Y-74446682D01*
X120773000Y-74674076D01*
X120328271Y-74674076D01*
X120326324Y-72134076D01*
X120773000Y-72134076D01*
X120773000Y-72365924D01*
X120818231Y-72593318D01*
X120906956Y-72807519D01*
X121035764Y-73000294D01*
X121199706Y-73164236D01*
X121392481Y-73293044D01*
X121606682Y-73381769D01*
X121834076Y-73427000D01*
X122065924Y-73427000D01*
X122293318Y-73381769D01*
X122507519Y-73293044D01*
X122700294Y-73164236D01*
X122742987Y-73121543D01*
X125016463Y-73121543D01*
X125016463Y-73264749D01*
X125044401Y-73405204D01*
X125099204Y-73537510D01*
X125178765Y-73656582D01*
X125280027Y-73757844D01*
X125399099Y-73837405D01*
X125531405Y-73892208D01*
X125671860Y-73920146D01*
X125815066Y-73920146D01*
X125900712Y-73903110D01*
X130228524Y-73903110D01*
X130349845Y-74133000D01*
X131543000Y-74133000D01*
X131543000Y-74113000D01*
X131797000Y-74113000D01*
X131797000Y-74133000D01*
X134083000Y-74133000D01*
X134083000Y-74113000D01*
X134337000Y-74113000D01*
X134337000Y-74133000D01*
X135530155Y-74133000D01*
X135651476Y-73903110D01*
X135606825Y-73755901D01*
X135481641Y-73493080D01*
X135307588Y-73259731D01*
X135091355Y-73064822D01*
X134841252Y-72915843D01*
X134602821Y-72831264D01*
X134767519Y-72763044D01*
X134960294Y-72634236D01*
X135124236Y-72470294D01*
X135253044Y-72277519D01*
X135295891Y-72174076D01*
X137143000Y-72174076D01*
X137143000Y-72405924D01*
X137188231Y-72633318D01*
X137276956Y-72847519D01*
X137405764Y-73040294D01*
X137569706Y-73204236D01*
X137762481Y-73333044D01*
X137976682Y-73421769D01*
X138204076Y-73467000D01*
X138435924Y-73467000D01*
X138663318Y-73421769D01*
X138877519Y-73333044D01*
X139070294Y-73204236D01*
X139234236Y-73040294D01*
X139363044Y-72847519D01*
X139451769Y-72633318D01*
X139497000Y-72405924D01*
X139497000Y-72174076D01*
X139451769Y-71946682D01*
X139363044Y-71732481D01*
X139234236Y-71539706D01*
X139070294Y-71375764D01*
X138877519Y-71246956D01*
X138663318Y-71158231D01*
X138435924Y-71113000D01*
X138204076Y-71113000D01*
X137976682Y-71158231D01*
X137762481Y-71246956D01*
X137569706Y-71375764D01*
X137405764Y-71539706D01*
X137276956Y-71732481D01*
X137188231Y-71946682D01*
X137143000Y-72174076D01*
X135295891Y-72174076D01*
X135341769Y-72063318D01*
X135387000Y-71835924D01*
X135387000Y-71604076D01*
X135341769Y-71376682D01*
X135253044Y-71162481D01*
X135124236Y-70969706D01*
X134960294Y-70805764D01*
X134767519Y-70676956D01*
X134553318Y-70588231D01*
X134325924Y-70543000D01*
X134094076Y-70543000D01*
X133866682Y-70588231D01*
X133652481Y-70676956D01*
X133459706Y-70805764D01*
X133295764Y-70969706D01*
X133166956Y-71162481D01*
X133078231Y-71376682D01*
X133033000Y-71604076D01*
X133033000Y-71835924D01*
X133078231Y-72063318D01*
X133166956Y-72277519D01*
X133295764Y-72470294D01*
X133459706Y-72634236D01*
X133652481Y-72763044D01*
X133817179Y-72831264D01*
X133578748Y-72915843D01*
X133328645Y-73064822D01*
X133112412Y-73259731D01*
X132940000Y-73490880D01*
X132767588Y-73259731D01*
X132551355Y-73064822D01*
X132301252Y-72915843D01*
X132062821Y-72831264D01*
X132227519Y-72763044D01*
X132420294Y-72634236D01*
X132584236Y-72470294D01*
X132713044Y-72277519D01*
X132801769Y-72063318D01*
X132847000Y-71835924D01*
X132847000Y-71604076D01*
X132801769Y-71376682D01*
X132713044Y-71162481D01*
X132584236Y-70969706D01*
X132420294Y-70805764D01*
X132227519Y-70676956D01*
X132013318Y-70588231D01*
X131785924Y-70543000D01*
X131554076Y-70543000D01*
X131326682Y-70588231D01*
X131112481Y-70676956D01*
X130919706Y-70805764D01*
X130755764Y-70969706D01*
X130626956Y-71162481D01*
X130538231Y-71376682D01*
X130493000Y-71604076D01*
X130493000Y-71835924D01*
X130538231Y-72063318D01*
X130626956Y-72277519D01*
X130755764Y-72470294D01*
X130919706Y-72634236D01*
X131112481Y-72763044D01*
X131277179Y-72831264D01*
X131038748Y-72915843D01*
X130788645Y-73064822D01*
X130572412Y-73259731D01*
X130398359Y-73493080D01*
X130273175Y-73755901D01*
X130228524Y-73903110D01*
X125900712Y-73903110D01*
X125955521Y-73892208D01*
X126087827Y-73837405D01*
X126206899Y-73757844D01*
X126308161Y-73656582D01*
X126387722Y-73537510D01*
X126442525Y-73405204D01*
X126470463Y-73264749D01*
X126470463Y-73121543D01*
X126442525Y-72981088D01*
X126387722Y-72848782D01*
X126308161Y-72729710D01*
X126206899Y-72628448D01*
X126087827Y-72548887D01*
X125955521Y-72494084D01*
X125815066Y-72466146D01*
X125671860Y-72466146D01*
X125531405Y-72494084D01*
X125399099Y-72548887D01*
X125280027Y-72628448D01*
X125178765Y-72729710D01*
X125099204Y-72848782D01*
X125044401Y-72981088D01*
X125016463Y-73121543D01*
X122742987Y-73121543D01*
X122864236Y-73000294D01*
X122993044Y-72807519D01*
X123081769Y-72593318D01*
X123127000Y-72365924D01*
X123127000Y-72134076D01*
X123081769Y-71906682D01*
X122993044Y-71692481D01*
X122864236Y-71499706D01*
X122700294Y-71335764D01*
X122507519Y-71206956D01*
X122293318Y-71118231D01*
X122065924Y-71073000D01*
X121834076Y-71073000D01*
X121606682Y-71118231D01*
X121392481Y-71206956D01*
X121199706Y-71335764D01*
X121035764Y-71499706D01*
X120906956Y-71692481D01*
X120818231Y-71906682D01*
X120773000Y-72134076D01*
X120326324Y-72134076D01*
X120324377Y-69594076D01*
X120773000Y-69594076D01*
X120773000Y-69825924D01*
X120818231Y-70053318D01*
X120906956Y-70267519D01*
X121035764Y-70460294D01*
X121199706Y-70624236D01*
X121392481Y-70753044D01*
X121606682Y-70841769D01*
X121834076Y-70887000D01*
X122065924Y-70887000D01*
X122293318Y-70841769D01*
X122507519Y-70753044D01*
X122700294Y-70624236D01*
X122864236Y-70460294D01*
X122993044Y-70267519D01*
X123081769Y-70053318D01*
X123127000Y-69825924D01*
X123127000Y-69594076D01*
X123081769Y-69366682D01*
X122993044Y-69152481D01*
X122864236Y-68959706D01*
X122700294Y-68795764D01*
X122507519Y-68666956D01*
X122293318Y-68578231D01*
X122065924Y-68533000D01*
X121834076Y-68533000D01*
X121606682Y-68578231D01*
X121392481Y-68666956D01*
X121199706Y-68795764D01*
X121035764Y-68959706D01*
X120906956Y-69152481D01*
X120818231Y-69366682D01*
X120773000Y-69594076D01*
X120324377Y-69594076D01*
X120322430Y-67054076D01*
X120773000Y-67054076D01*
X120773000Y-67285924D01*
X120818231Y-67513318D01*
X120906956Y-67727519D01*
X121035764Y-67920294D01*
X121199706Y-68084236D01*
X121392481Y-68213044D01*
X121606682Y-68301769D01*
X121834076Y-68347000D01*
X122065924Y-68347000D01*
X122151389Y-68330000D01*
X130491418Y-68330000D01*
X130491418Y-70030000D01*
X130497732Y-70094103D01*
X130516430Y-70155743D01*
X130546794Y-70212550D01*
X130587657Y-70262343D01*
X130637450Y-70303206D01*
X130694257Y-70333570D01*
X130755897Y-70352268D01*
X130820000Y-70358582D01*
X132520000Y-70358582D01*
X132584103Y-70352268D01*
X132645743Y-70333570D01*
X132702550Y-70303206D01*
X132752343Y-70262343D01*
X132793206Y-70212550D01*
X132823570Y-70155743D01*
X132842268Y-70094103D01*
X132848582Y-70030000D01*
X132848582Y-69064076D01*
X133033000Y-69064076D01*
X133033000Y-69295924D01*
X133078231Y-69523318D01*
X133166956Y-69737519D01*
X133295764Y-69930294D01*
X133459706Y-70094236D01*
X133652481Y-70223044D01*
X133866682Y-70311769D01*
X134094076Y-70357000D01*
X134325924Y-70357000D01*
X134553318Y-70311769D01*
X134767519Y-70223044D01*
X134960294Y-70094236D01*
X135124236Y-69930294D01*
X135253044Y-69737519D01*
X135295891Y-69634076D01*
X137143000Y-69634076D01*
X137143000Y-69865924D01*
X137188231Y-70093318D01*
X137276956Y-70307519D01*
X137405764Y-70500294D01*
X137569706Y-70664236D01*
X137762481Y-70793044D01*
X137976682Y-70881769D01*
X138204076Y-70927000D01*
X138435924Y-70927000D01*
X138663318Y-70881769D01*
X138877519Y-70793044D01*
X139070294Y-70664236D01*
X139234236Y-70500294D01*
X139363044Y-70307519D01*
X139451769Y-70093318D01*
X139497000Y-69865924D01*
X139497000Y-69634076D01*
X139451769Y-69406682D01*
X139363044Y-69192481D01*
X139234236Y-68999706D01*
X139070294Y-68835764D01*
X138877519Y-68706956D01*
X138663318Y-68618231D01*
X138435924Y-68573000D01*
X138204076Y-68573000D01*
X137976682Y-68618231D01*
X137762481Y-68706956D01*
X137569706Y-68835764D01*
X137405764Y-68999706D01*
X137276956Y-69192481D01*
X137188231Y-69406682D01*
X137143000Y-69634076D01*
X135295891Y-69634076D01*
X135341769Y-69523318D01*
X135387000Y-69295924D01*
X135387000Y-69064076D01*
X135341769Y-68836682D01*
X135253044Y-68622481D01*
X135124236Y-68429706D01*
X134960294Y-68265764D01*
X134767519Y-68136956D01*
X134553318Y-68048231D01*
X134325924Y-68003000D01*
X134094076Y-68003000D01*
X133866682Y-68048231D01*
X133652481Y-68136956D01*
X133459706Y-68265764D01*
X133295764Y-68429706D01*
X133166956Y-68622481D01*
X133078231Y-68836682D01*
X133033000Y-69064076D01*
X132848582Y-69064076D01*
X132848582Y-68330000D01*
X132842268Y-68265897D01*
X132823570Y-68204257D01*
X132793206Y-68147450D01*
X132752343Y-68097657D01*
X132702550Y-68056794D01*
X132645743Y-68026430D01*
X132584103Y-68007732D01*
X132520000Y-68001418D01*
X130820000Y-68001418D01*
X130755897Y-68007732D01*
X130694257Y-68026430D01*
X130637450Y-68056794D01*
X130587657Y-68097657D01*
X130546794Y-68147450D01*
X130516430Y-68204257D01*
X130497732Y-68265897D01*
X130491418Y-68330000D01*
X122151389Y-68330000D01*
X122293318Y-68301769D01*
X122507519Y-68213044D01*
X122700294Y-68084236D01*
X122864236Y-67920294D01*
X122993044Y-67727519D01*
X123081769Y-67513318D01*
X123127000Y-67285924D01*
X123127000Y-67054076D01*
X123083778Y-66836778D01*
X129279683Y-66836778D01*
X129279683Y-66979984D01*
X129307621Y-67120439D01*
X129362424Y-67252745D01*
X129441985Y-67371817D01*
X129543247Y-67473079D01*
X129662319Y-67552640D01*
X129794625Y-67607443D01*
X129935080Y-67635381D01*
X130078286Y-67635381D01*
X130218741Y-67607443D01*
X130351047Y-67552640D01*
X130470119Y-67473079D01*
X130535027Y-67408171D01*
X130541554Y-67414698D01*
X130660626Y-67494259D01*
X130792932Y-67549062D01*
X130933387Y-67577000D01*
X131076593Y-67577000D01*
X131217048Y-67549062D01*
X131349354Y-67494259D01*
X131468426Y-67414698D01*
X131569688Y-67313436D01*
X131649249Y-67194364D01*
X131704052Y-67062058D01*
X131731990Y-66921603D01*
X131731990Y-66778397D01*
X131704052Y-66637942D01*
X131649249Y-66505636D01*
X131569688Y-66386564D01*
X131468426Y-66285302D01*
X131349354Y-66205741D01*
X131217048Y-66150938D01*
X131076593Y-66123000D01*
X130933387Y-66123000D01*
X130792932Y-66150938D01*
X130660626Y-66205741D01*
X130541554Y-66285302D01*
X130476646Y-66350210D01*
X130470119Y-66343683D01*
X130351047Y-66264122D01*
X130218741Y-66209319D01*
X130078286Y-66181381D01*
X129935080Y-66181381D01*
X129794625Y-66209319D01*
X129662319Y-66264122D01*
X129543247Y-66343683D01*
X129441985Y-66444945D01*
X129362424Y-66564017D01*
X129307621Y-66696323D01*
X129279683Y-66836778D01*
X123083778Y-66836778D01*
X123081769Y-66826682D01*
X122993044Y-66612481D01*
X122864236Y-66419706D01*
X122700294Y-66255764D01*
X122507519Y-66126956D01*
X122293318Y-66038231D01*
X122065924Y-65993000D01*
X121834076Y-65993000D01*
X121606682Y-66038231D01*
X121392481Y-66126956D01*
X121199706Y-66255764D01*
X121035764Y-66419706D01*
X120906956Y-66612481D01*
X120818231Y-66826682D01*
X120773000Y-67054076D01*
X120322430Y-67054076D01*
X120320483Y-64514076D01*
X120773000Y-64514076D01*
X120773000Y-64745924D01*
X120818231Y-64973318D01*
X120906956Y-65187519D01*
X121035764Y-65380294D01*
X121199706Y-65544236D01*
X121392481Y-65673044D01*
X121606682Y-65761769D01*
X121834076Y-65807000D01*
X122065924Y-65807000D01*
X122293318Y-65761769D01*
X122507519Y-65673044D01*
X122700294Y-65544236D01*
X122864236Y-65380294D01*
X122993044Y-65187519D01*
X123059578Y-65026890D01*
X136878524Y-65026890D01*
X136923175Y-65174099D01*
X137048359Y-65436920D01*
X137222412Y-65670269D01*
X137438645Y-65865178D01*
X137688748Y-66014157D01*
X137927179Y-66098736D01*
X137762481Y-66166956D01*
X137569706Y-66295764D01*
X137405764Y-66459706D01*
X137276956Y-66652481D01*
X137188231Y-66866682D01*
X137143000Y-67094076D01*
X137143000Y-67325924D01*
X137188231Y-67553318D01*
X137276956Y-67767519D01*
X137405764Y-67960294D01*
X137569706Y-68124236D01*
X137762481Y-68253044D01*
X137976682Y-68341769D01*
X138204076Y-68387000D01*
X138435924Y-68387000D01*
X138663318Y-68341769D01*
X138877519Y-68253044D01*
X139070294Y-68124236D01*
X139234236Y-67960294D01*
X139363044Y-67767519D01*
X139451769Y-67553318D01*
X139497000Y-67325924D01*
X139497000Y-67094076D01*
X139451769Y-66866682D01*
X139363044Y-66652481D01*
X139234236Y-66459706D01*
X139070294Y-66295764D01*
X138877519Y-66166956D01*
X138712821Y-66098736D01*
X138951252Y-66014157D01*
X139201355Y-65865178D01*
X139417588Y-65670269D01*
X139591641Y-65436920D01*
X139716825Y-65174099D01*
X139761476Y-65026890D01*
X139640155Y-64797000D01*
X138447000Y-64797000D01*
X138447000Y-64817000D01*
X138193000Y-64817000D01*
X138193000Y-64797000D01*
X136999845Y-64797000D01*
X136878524Y-65026890D01*
X123059578Y-65026890D01*
X123081769Y-64973318D01*
X123127000Y-64745924D01*
X123127000Y-64514076D01*
X123081769Y-64286682D01*
X122993044Y-64072481D01*
X122864236Y-63879706D01*
X122700294Y-63715764D01*
X122507519Y-63586956D01*
X122293318Y-63498231D01*
X122065924Y-63453000D01*
X121834076Y-63453000D01*
X121606682Y-63498231D01*
X121392481Y-63586956D01*
X121199706Y-63715764D01*
X121035764Y-63879706D01*
X120906956Y-64072481D01*
X120818231Y-64286682D01*
X120773000Y-64514076D01*
X120320483Y-64514076D01*
X120318536Y-61974076D01*
X120773000Y-61974076D01*
X120773000Y-62205924D01*
X120818231Y-62433318D01*
X120906956Y-62647519D01*
X121035764Y-62840294D01*
X121199706Y-63004236D01*
X121392481Y-63133044D01*
X121606682Y-63221769D01*
X121834076Y-63267000D01*
X122065924Y-63267000D01*
X122293318Y-63221769D01*
X122507519Y-63133044D01*
X122700294Y-63004236D01*
X122864236Y-62840294D01*
X122993044Y-62647519D01*
X123059578Y-62486890D01*
X136878524Y-62486890D01*
X136923175Y-62634099D01*
X137048359Y-62896920D01*
X137222412Y-63130269D01*
X137438645Y-63325178D01*
X137564255Y-63400000D01*
X137438645Y-63474822D01*
X137222412Y-63669731D01*
X137048359Y-63903080D01*
X136923175Y-64165901D01*
X136878524Y-64313110D01*
X136999845Y-64543000D01*
X138193000Y-64543000D01*
X138193000Y-62257000D01*
X138447000Y-62257000D01*
X138447000Y-64543000D01*
X139640155Y-64543000D01*
X139761476Y-64313110D01*
X139716825Y-64165901D01*
X139591641Y-63903080D01*
X139417588Y-63669731D01*
X139201355Y-63474822D01*
X139075745Y-63400000D01*
X139201355Y-63325178D01*
X139417588Y-63130269D01*
X139591641Y-62896920D01*
X139716825Y-62634099D01*
X139761476Y-62486890D01*
X139640155Y-62257000D01*
X138447000Y-62257000D01*
X138193000Y-62257000D01*
X136999845Y-62257000D01*
X136878524Y-62486890D01*
X123059578Y-62486890D01*
X123081769Y-62433318D01*
X123127000Y-62205924D01*
X123127000Y-61974076D01*
X123087026Y-61773110D01*
X136878524Y-61773110D01*
X136999845Y-62003000D01*
X138193000Y-62003000D01*
X138193000Y-60809186D01*
X138447000Y-60809186D01*
X138447000Y-62003000D01*
X139640155Y-62003000D01*
X139761476Y-61773110D01*
X139716825Y-61625901D01*
X139591641Y-61363080D01*
X139417588Y-61129731D01*
X139201355Y-60934822D01*
X138951252Y-60785843D01*
X138676891Y-60688519D01*
X138447000Y-60809186D01*
X138193000Y-60809186D01*
X137963109Y-60688519D01*
X137688748Y-60785843D01*
X137438645Y-60934822D01*
X137222412Y-61129731D01*
X137048359Y-61363080D01*
X136923175Y-61625901D01*
X136878524Y-61773110D01*
X123087026Y-61773110D01*
X123081769Y-61746682D01*
X122993044Y-61532481D01*
X122864236Y-61339706D01*
X122700294Y-61175764D01*
X122507519Y-61046956D01*
X122293318Y-60958231D01*
X122065924Y-60913000D01*
X121834076Y-60913000D01*
X121606682Y-60958231D01*
X121392481Y-61046956D01*
X121199706Y-61175764D01*
X121035764Y-61339706D01*
X120906956Y-61532481D01*
X120818231Y-61746682D01*
X120773000Y-61974076D01*
X120318536Y-61974076D01*
X120317290Y-60349033D01*
X140032568Y-60454977D01*
%TD*%
M02*
