%TF.GenerationSoftware,KiCad,Pcbnew,(5.1.6)-1*%
%TF.CreationDate,2020-09-14T17:11:37+02:00*%
%TF.ProjectId,STM32_blue_pill_4_layers,53544d33-325f-4626-9c75-655f70696c6c,rev?*%
%TF.SameCoordinates,Original*%
%TF.FileFunction,Legend,Top*%
%TF.FilePolarity,Positive*%
%FSLAX46Y46*%
G04 Gerber Fmt 4.6, Leading zero omitted, Abs format (unit mm)*
G04 Created by KiCad (PCBNEW (5.1.6)-1) date 2020-09-14 17:11:37*
%MOMM*%
%LPD*%
G01*
G04 APERTURE LIST*
%ADD10C,0.150000*%
%ADD11C,0.120000*%
G04 APERTURE END LIST*
D10*
X127569761Y-105108095D02*
X125569761Y-105108095D01*
X127569761Y-103965238D02*
X126426904Y-104822380D01*
X125569761Y-103965238D02*
X126712619Y-105108095D01*
X127474523Y-103203333D02*
X127569761Y-102917619D01*
X127569761Y-102441428D01*
X127474523Y-102250952D01*
X127379285Y-102155714D01*
X127188809Y-102060476D01*
X126998333Y-102060476D01*
X126807857Y-102155714D01*
X126712619Y-102250952D01*
X126617380Y-102441428D01*
X126522142Y-102822380D01*
X126426904Y-103012857D01*
X126331666Y-103108095D01*
X126141190Y-103203333D01*
X125950714Y-103203333D01*
X125760238Y-103108095D01*
X125665000Y-103012857D01*
X125569761Y-102822380D01*
X125569761Y-102346190D01*
X125665000Y-102060476D01*
X127474523Y-99774761D02*
X127569761Y-99489047D01*
X127569761Y-99012857D01*
X127474523Y-98822380D01*
X127379285Y-98727142D01*
X127188809Y-98631904D01*
X126998333Y-98631904D01*
X126807857Y-98727142D01*
X126712619Y-98822380D01*
X126617380Y-99012857D01*
X126522142Y-99393809D01*
X126426904Y-99584285D01*
X126331666Y-99679523D01*
X126141190Y-99774761D01*
X125950714Y-99774761D01*
X125760238Y-99679523D01*
X125665000Y-99584285D01*
X125569761Y-99393809D01*
X125569761Y-98917619D01*
X125665000Y-98631904D01*
X125569761Y-98060476D02*
X125569761Y-96917619D01*
X127569761Y-97489047D02*
X125569761Y-97489047D01*
X127569761Y-96250952D02*
X125569761Y-96250952D01*
X126998333Y-95584285D01*
X125569761Y-94917619D01*
X127569761Y-94917619D01*
X125569761Y-94155714D02*
X125569761Y-92917619D01*
X126331666Y-93584285D01*
X126331666Y-93298571D01*
X126426904Y-93108095D01*
X126522142Y-93012857D01*
X126712619Y-92917619D01*
X127188809Y-92917619D01*
X127379285Y-93012857D01*
X127474523Y-93108095D01*
X127569761Y-93298571D01*
X127569761Y-93870000D01*
X127474523Y-94060476D01*
X127379285Y-94155714D01*
X125760238Y-92155714D02*
X125665000Y-92060476D01*
X125569761Y-91870000D01*
X125569761Y-91393809D01*
X125665000Y-91203333D01*
X125760238Y-91108095D01*
X125950714Y-91012857D01*
X126141190Y-91012857D01*
X126426904Y-91108095D01*
X127569761Y-92250952D01*
X127569761Y-91012857D01*
X126522142Y-87965238D02*
X126617380Y-87679523D01*
X126712619Y-87584285D01*
X126903095Y-87489047D01*
X127188809Y-87489047D01*
X127379285Y-87584285D01*
X127474523Y-87679523D01*
X127569761Y-87870000D01*
X127569761Y-88631904D01*
X125569761Y-88631904D01*
X125569761Y-87965238D01*
X125665000Y-87774761D01*
X125760238Y-87679523D01*
X125950714Y-87584285D01*
X126141190Y-87584285D01*
X126331666Y-87679523D01*
X126426904Y-87774761D01*
X126522142Y-87965238D01*
X126522142Y-88631904D01*
X127569761Y-86346190D02*
X127474523Y-86536666D01*
X127284047Y-86631904D01*
X125569761Y-86631904D01*
X126236428Y-84727142D02*
X127569761Y-84727142D01*
X126236428Y-85584285D02*
X127284047Y-85584285D01*
X127474523Y-85489047D01*
X127569761Y-85298571D01*
X127569761Y-85012857D01*
X127474523Y-84822380D01*
X127379285Y-84727142D01*
X127474523Y-83012857D02*
X127569761Y-83203333D01*
X127569761Y-83584285D01*
X127474523Y-83774761D01*
X127284047Y-83870000D01*
X126522142Y-83870000D01*
X126331666Y-83774761D01*
X126236428Y-83584285D01*
X126236428Y-83203333D01*
X126331666Y-83012857D01*
X126522142Y-82917619D01*
X126712619Y-82917619D01*
X126903095Y-83870000D01*
X127569761Y-80536666D02*
X125569761Y-80536666D01*
X125569761Y-79774761D01*
X125665000Y-79584285D01*
X125760238Y-79489047D01*
X125950714Y-79393809D01*
X126236428Y-79393809D01*
X126426904Y-79489047D01*
X126522142Y-79584285D01*
X126617380Y-79774761D01*
X126617380Y-80536666D01*
X127569761Y-78536666D02*
X126236428Y-78536666D01*
X125569761Y-78536666D02*
X125665000Y-78631904D01*
X125760238Y-78536666D01*
X125665000Y-78441428D01*
X125569761Y-78536666D01*
X125760238Y-78536666D01*
X127569761Y-77298571D02*
X127474523Y-77489047D01*
X127284047Y-77584285D01*
X125569761Y-77584285D01*
X127569761Y-76250952D02*
X127474523Y-76441428D01*
X127284047Y-76536666D01*
X125569761Y-76536666D01*
X126236428Y-74155714D02*
X127569761Y-73679523D01*
X126236428Y-73203333D01*
X127569761Y-71393809D02*
X127569761Y-72536666D01*
X127569761Y-71965238D02*
X125569761Y-71965238D01*
X125855476Y-72155714D01*
X126045952Y-72346190D01*
X126141190Y-72536666D01*
X127379285Y-70536666D02*
X127474523Y-70441428D01*
X127569761Y-70536666D01*
X127474523Y-70631904D01*
X127379285Y-70536666D01*
X127569761Y-70536666D01*
X125569761Y-69203333D02*
X125569761Y-69012857D01*
X125665000Y-68822380D01*
X125760238Y-68727142D01*
X125950714Y-68631904D01*
X126331666Y-68536666D01*
X126807857Y-68536666D01*
X127188809Y-68631904D01*
X127379285Y-68727142D01*
X127474523Y-68822380D01*
X127569761Y-69012857D01*
X127569761Y-69203333D01*
X127474523Y-69393809D01*
X127379285Y-69489047D01*
X127188809Y-69584285D01*
X126807857Y-69679523D01*
X126331666Y-69679523D01*
X125950714Y-69584285D01*
X125760238Y-69489047D01*
X125665000Y-69393809D01*
X125569761Y-69203333D01*
X129386428Y-92012857D02*
X130719761Y-92012857D01*
X128624523Y-92489047D02*
X130053095Y-92965238D01*
X130053095Y-91727142D01*
X130719761Y-88489047D02*
X130719761Y-89441428D01*
X128719761Y-89441428D01*
X130719761Y-86965238D02*
X129672142Y-86965238D01*
X129481666Y-87060476D01*
X129386428Y-87250952D01*
X129386428Y-87631904D01*
X129481666Y-87822380D01*
X130624523Y-86965238D02*
X130719761Y-87155714D01*
X130719761Y-87631904D01*
X130624523Y-87822380D01*
X130434047Y-87917619D01*
X130243571Y-87917619D01*
X130053095Y-87822380D01*
X129957857Y-87631904D01*
X129957857Y-87155714D01*
X129862619Y-86965238D01*
X129386428Y-86203333D02*
X130719761Y-85727142D01*
X129386428Y-85250952D02*
X130719761Y-85727142D01*
X131195952Y-85917619D01*
X131291190Y-86012857D01*
X131386428Y-86203333D01*
X130624523Y-83727142D02*
X130719761Y-83917619D01*
X130719761Y-84298571D01*
X130624523Y-84489047D01*
X130434047Y-84584285D01*
X129672142Y-84584285D01*
X129481666Y-84489047D01*
X129386428Y-84298571D01*
X129386428Y-83917619D01*
X129481666Y-83727142D01*
X129672142Y-83631904D01*
X129862619Y-83631904D01*
X130053095Y-84584285D01*
X130719761Y-82774761D02*
X129386428Y-82774761D01*
X129767380Y-82774761D02*
X129576904Y-82679523D01*
X129481666Y-82584285D01*
X129386428Y-82393809D01*
X129386428Y-82203333D01*
X130624523Y-81631904D02*
X130719761Y-81441428D01*
X130719761Y-81060476D01*
X130624523Y-80870000D01*
X130434047Y-80774761D01*
X130338809Y-80774761D01*
X130148333Y-80870000D01*
X130053095Y-81060476D01*
X130053095Y-81346190D01*
X129957857Y-81536666D01*
X129767380Y-81631904D01*
X129672142Y-81631904D01*
X129481666Y-81536666D01*
X129386428Y-81346190D01*
X129386428Y-81060476D01*
X129481666Y-80870000D01*
D11*
%TO.C,J3*%
X134240000Y-61010000D02*
X134240000Y-61270000D01*
X134240000Y-63550000D02*
X134240000Y-65320000D01*
X134240000Y-65320000D02*
X133860000Y-65320000D01*
X126620000Y-65320000D02*
X126620000Y-63550000D01*
X126620000Y-61270000D02*
X126620000Y-61010000D01*
X126620000Y-65320000D02*
X127000000Y-65320000D01*
%TO.C,SW1*%
X128250000Y-74490000D02*
X128150000Y-74490000D01*
X126650000Y-70090000D02*
X126650000Y-74490000D01*
X129750000Y-74490000D02*
X129750000Y-70090000D01*
X128250000Y-70090000D02*
X128150000Y-70090000D01*
%TO.C,Y2*%
X134060000Y-107385000D02*
X134060000Y-104535000D01*
X132460000Y-107385000D02*
X134060000Y-107385000D01*
X132460000Y-104535000D02*
X132460000Y-107385000D01*
%TO.C,Y1*%
X133860000Y-95420000D02*
X127310000Y-95420000D01*
X133860000Y-99320000D02*
X133860000Y-95420000D01*
X127310000Y-99320000D02*
X133860000Y-99320000D01*
%TO.C,U1*%
X130289410Y-91669237D02*
X131201578Y-92581405D01*
X129971212Y-91987435D02*
X130289410Y-91669237D01*
X129653014Y-91669237D02*
X129971212Y-91987435D01*
X124865901Y-86882124D02*
X125184099Y-86563926D01*
X125184099Y-87200322D02*
X124865901Y-86882124D01*
X135076523Y-86882124D02*
X134758325Y-87200322D01*
X134758325Y-86563926D02*
X135076523Y-86882124D01*
X129971212Y-81776813D02*
X129653014Y-82095011D01*
X130289410Y-82095011D02*
X129971212Y-81776813D01*
%TO.C,J5*%
X135440000Y-108900000D02*
X135440000Y-110170000D01*
X134170000Y-108900000D02*
X135440000Y-108900000D01*
X126170000Y-111212929D02*
X126170000Y-111610000D01*
X126930000Y-111212929D02*
X126930000Y-111610000D01*
X126170000Y-120270000D02*
X126170000Y-114270000D01*
X126930000Y-120270000D02*
X126170000Y-120270000D01*
X126930000Y-114270000D02*
X126930000Y-120270000D01*
X127820000Y-111610000D02*
X127820000Y-114270000D01*
X128710000Y-111212929D02*
X128710000Y-111610000D01*
X129470000Y-111212929D02*
X129470000Y-111610000D01*
X128710000Y-120270000D02*
X128710000Y-114270000D01*
X129470000Y-120270000D02*
X128710000Y-120270000D01*
X129470000Y-114270000D02*
X129470000Y-120270000D01*
X130360000Y-111610000D02*
X130360000Y-114270000D01*
X131250000Y-111212929D02*
X131250000Y-111610000D01*
X132010000Y-111212929D02*
X132010000Y-111610000D01*
X131250000Y-120270000D02*
X131250000Y-114270000D01*
X132010000Y-120270000D02*
X131250000Y-120270000D01*
X132010000Y-114270000D02*
X132010000Y-120270000D01*
X132900000Y-111610000D02*
X132900000Y-114270000D01*
X133790000Y-111280000D02*
X133790000Y-111610000D01*
X134550000Y-111280000D02*
X134550000Y-111610000D01*
X133890000Y-114270000D02*
X133890000Y-120270000D01*
X134010000Y-114270000D02*
X134010000Y-120270000D01*
X134130000Y-114270000D02*
X134130000Y-120270000D01*
X134250000Y-114270000D02*
X134250000Y-120270000D01*
X134370000Y-114270000D02*
X134370000Y-120270000D01*
X134490000Y-114270000D02*
X134490000Y-120270000D01*
X133790000Y-120270000D02*
X133790000Y-114270000D01*
X134550000Y-120270000D02*
X133790000Y-120270000D01*
X134550000Y-114270000D02*
X134550000Y-120270000D01*
X135500000Y-114270000D02*
X135500000Y-111610000D01*
X125220000Y-114270000D02*
X135500000Y-114270000D01*
X125220000Y-111610000D02*
X125220000Y-114270000D01*
X135500000Y-111610000D02*
X125220000Y-111610000D01*
%TO.C,J4*%
X130340000Y-67850000D02*
X131670000Y-67850000D01*
X130340000Y-69180000D02*
X130340000Y-67850000D01*
X132940000Y-67850000D02*
X135540000Y-67850000D01*
X132940000Y-70450000D02*
X132940000Y-67850000D01*
X130340000Y-70450000D02*
X132940000Y-70450000D01*
X135540000Y-67850000D02*
X135540000Y-75590000D01*
X130340000Y-70450000D02*
X130340000Y-75590000D01*
X130340000Y-75590000D02*
X135540000Y-75590000D01*
%TO.C,D2*%
X127520000Y-100345000D02*
X127520000Y-103030000D01*
X129440000Y-100345000D02*
X127520000Y-100345000D01*
X129440000Y-103030000D02*
X129440000Y-100345000D01*
%TO.C,D1*%
X129600000Y-100342500D02*
X129600000Y-103027500D01*
X131520000Y-100342500D02*
X129600000Y-100342500D01*
X131520000Y-103027500D02*
X131520000Y-100342500D01*
%TO.C,J3*%
D10*
X130096666Y-66362380D02*
X130096666Y-67076666D01*
X130049047Y-67219523D01*
X129953809Y-67314761D01*
X129810952Y-67362380D01*
X129715714Y-67362380D01*
X130477619Y-66362380D02*
X131096666Y-66362380D01*
X130763333Y-66743333D01*
X130906190Y-66743333D01*
X131001428Y-66790952D01*
X131049047Y-66838571D01*
X131096666Y-66933809D01*
X131096666Y-67171904D01*
X131049047Y-67267142D01*
X131001428Y-67314761D01*
X130906190Y-67362380D01*
X130620476Y-67362380D01*
X130525238Y-67314761D01*
X130477619Y-67267142D01*
%TO.C,SW1*%
X126154761Y-73623333D02*
X126202380Y-73480476D01*
X126202380Y-73242380D01*
X126154761Y-73147142D01*
X126107142Y-73099523D01*
X126011904Y-73051904D01*
X125916666Y-73051904D01*
X125821428Y-73099523D01*
X125773809Y-73147142D01*
X125726190Y-73242380D01*
X125678571Y-73432857D01*
X125630952Y-73528095D01*
X125583333Y-73575714D01*
X125488095Y-73623333D01*
X125392857Y-73623333D01*
X125297619Y-73575714D01*
X125250000Y-73528095D01*
X125202380Y-73432857D01*
X125202380Y-73194761D01*
X125250000Y-73051904D01*
X125202380Y-72718571D02*
X126202380Y-72480476D01*
X125488095Y-72290000D01*
X126202380Y-72099523D01*
X125202380Y-71861428D01*
X126202380Y-70956666D02*
X126202380Y-71528095D01*
X126202380Y-71242380D02*
X125202380Y-71242380D01*
X125345238Y-71337619D01*
X125440476Y-71432857D01*
X125488095Y-71528095D01*
%TO.C,Y2*%
X131436190Y-106211190D02*
X131912380Y-106211190D01*
X130912380Y-106544523D02*
X131436190Y-106211190D01*
X130912380Y-105877857D01*
X131007619Y-105592142D02*
X130960000Y-105544523D01*
X130912380Y-105449285D01*
X130912380Y-105211190D01*
X130960000Y-105115952D01*
X131007619Y-105068333D01*
X131102857Y-105020714D01*
X131198095Y-105020714D01*
X131340952Y-105068333D01*
X131912380Y-105639761D01*
X131912380Y-105020714D01*
%TO.C,Y1*%
X130033809Y-100296190D02*
X130033809Y-100772380D01*
X129700476Y-99772380D02*
X130033809Y-100296190D01*
X130367142Y-99772380D01*
X131224285Y-100772380D02*
X130652857Y-100772380D01*
X130938571Y-100772380D02*
X130938571Y-99772380D01*
X130843333Y-99915238D01*
X130748095Y-100010476D01*
X130652857Y-100058095D01*
%TO.C,U1*%
X125683114Y-90092725D02*
X125110694Y-90665145D01*
X125077022Y-90766160D01*
X125077022Y-90833504D01*
X125110694Y-90934519D01*
X125245381Y-91069206D01*
X125346396Y-91102878D01*
X125413740Y-91102878D01*
X125514755Y-91069206D01*
X126087175Y-90496786D01*
X126087175Y-91911000D02*
X125683114Y-91506939D01*
X125885144Y-91708969D02*
X126592251Y-91001863D01*
X126423892Y-91035534D01*
X126289205Y-91035534D01*
X126188190Y-91001863D01*
%TO.C,J5*%
X135892380Y-114888333D02*
X136606666Y-114888333D01*
X136749523Y-114935952D01*
X136844761Y-115031190D01*
X136892380Y-115174047D01*
X136892380Y-115269285D01*
X135892380Y-113935952D02*
X135892380Y-114412142D01*
X136368571Y-114459761D01*
X136320952Y-114412142D01*
X136273333Y-114316904D01*
X136273333Y-114078809D01*
X136320952Y-113983571D01*
X136368571Y-113935952D01*
X136463809Y-113888333D01*
X136701904Y-113888333D01*
X136797142Y-113935952D01*
X136844761Y-113983571D01*
X136892380Y-114078809D01*
X136892380Y-114316904D01*
X136844761Y-114412142D01*
X136797142Y-114459761D01*
%TO.C,J4*%
X132606666Y-66302380D02*
X132606666Y-67016666D01*
X132559047Y-67159523D01*
X132463809Y-67254761D01*
X132320952Y-67302380D01*
X132225714Y-67302380D01*
X133511428Y-66635714D02*
X133511428Y-67302380D01*
X133273333Y-66254761D02*
X133035238Y-66969047D01*
X133654285Y-66969047D01*
%TO.C,D2*%
X130582380Y-102768095D02*
X129582380Y-102768095D01*
X129582380Y-102530000D01*
X129630000Y-102387142D01*
X129725238Y-102291904D01*
X129820476Y-102244285D01*
X130010952Y-102196666D01*
X130153809Y-102196666D01*
X130344285Y-102244285D01*
X130439523Y-102291904D01*
X130534761Y-102387142D01*
X130582380Y-102530000D01*
X130582380Y-102768095D01*
X129677619Y-101815714D02*
X129630000Y-101768095D01*
X129582380Y-101672857D01*
X129582380Y-101434761D01*
X129630000Y-101339523D01*
X129677619Y-101291904D01*
X129772857Y-101244285D01*
X129868095Y-101244285D01*
X130010952Y-101291904D01*
X130582380Y-101863333D01*
X130582380Y-101244285D01*
%TO.C,D1*%
X132662380Y-102765595D02*
X131662380Y-102765595D01*
X131662380Y-102527500D01*
X131710000Y-102384642D01*
X131805238Y-102289404D01*
X131900476Y-102241785D01*
X132090952Y-102194166D01*
X132233809Y-102194166D01*
X132424285Y-102241785D01*
X132519523Y-102289404D01*
X132614761Y-102384642D01*
X132662380Y-102527500D01*
X132662380Y-102765595D01*
X132662380Y-101241785D02*
X132662380Y-101813214D01*
X132662380Y-101527500D02*
X131662380Y-101527500D01*
X131805238Y-101622738D01*
X131900476Y-101717976D01*
X131948095Y-101813214D01*
%TD*%
M02*
