%TF.GenerationSoftware,KiCad,Pcbnew,(5.1.6)-1*%
%TF.CreationDate,2020-09-14T17:11:37+02:00*%
%TF.ProjectId,STM32_blue_pill_4_layers,53544d33-325f-4626-9c75-655f70696c6c,rev?*%
%TF.SameCoordinates,Original*%
%TF.FileFunction,Soldermask,Bot*%
%TF.FilePolarity,Negative*%
%FSLAX46Y46*%
G04 Gerber Fmt 4.6, Leading zero omitted, Abs format (unit mm)*
G04 Created by KiCad (PCBNEW (5.1.6)-1) date 2020-09-14 17:11:37*
%MOMM*%
%LPD*%
G01*
G04 APERTURE LIST*
%ADD10R,0.770000X1.270000*%
%ADD11O,1.800000X1.800000*%
%ADD12R,1.800000X1.800000*%
G04 APERTURE END LIST*
D10*
%TO.C,U2*%
X130620000Y-87210000D03*
X129680000Y-87210000D03*
X128740000Y-87210000D03*
X128740000Y-84770000D03*
X130620000Y-84770000D03*
%TD*%
%TO.C,R9*%
G36*
G01*
X132828750Y-82260000D02*
X133791250Y-82260000D01*
G75*
G02*
X134060000Y-82528750I0J-268750D01*
G01*
X134060000Y-83066250D01*
G75*
G02*
X133791250Y-83335000I-268750J0D01*
G01*
X132828750Y-83335000D01*
G75*
G02*
X132560000Y-83066250I0J268750D01*
G01*
X132560000Y-82528750D01*
G75*
G02*
X132828750Y-82260000I268750J0D01*
G01*
G37*
G36*
G01*
X132828750Y-80385000D02*
X133791250Y-80385000D01*
G75*
G02*
X134060000Y-80653750I0J-268750D01*
G01*
X134060000Y-81191250D01*
G75*
G02*
X133791250Y-81460000I-268750J0D01*
G01*
X132828750Y-81460000D01*
G75*
G02*
X132560000Y-81191250I0J268750D01*
G01*
X132560000Y-80653750D01*
G75*
G02*
X132828750Y-80385000I268750J0D01*
G01*
G37*
%TD*%
%TO.C,R8*%
G36*
G01*
X129871250Y-72180000D02*
X128908750Y-72180000D01*
G75*
G02*
X128640000Y-71911250I0J268750D01*
G01*
X128640000Y-71373750D01*
G75*
G02*
X128908750Y-71105000I268750J0D01*
G01*
X129871250Y-71105000D01*
G75*
G02*
X130140000Y-71373750I0J-268750D01*
G01*
X130140000Y-71911250D01*
G75*
G02*
X129871250Y-72180000I-268750J0D01*
G01*
G37*
G36*
G01*
X129871250Y-74055000D02*
X128908750Y-74055000D01*
G75*
G02*
X128640000Y-73786250I0J268750D01*
G01*
X128640000Y-73248750D01*
G75*
G02*
X128908750Y-72980000I268750J0D01*
G01*
X129871250Y-72980000D01*
G75*
G02*
X130140000Y-73248750I0J-268750D01*
G01*
X130140000Y-73786250D01*
G75*
G02*
X129871250Y-74055000I-268750J0D01*
G01*
G37*
%TD*%
%TO.C,R7*%
G36*
G01*
X124328750Y-82152500D02*
X125291250Y-82152500D01*
G75*
G02*
X125560000Y-82421250I0J-268750D01*
G01*
X125560000Y-82958750D01*
G75*
G02*
X125291250Y-83227500I-268750J0D01*
G01*
X124328750Y-83227500D01*
G75*
G02*
X124060000Y-82958750I0J268750D01*
G01*
X124060000Y-82421250D01*
G75*
G02*
X124328750Y-82152500I268750J0D01*
G01*
G37*
G36*
G01*
X124328750Y-80277500D02*
X125291250Y-80277500D01*
G75*
G02*
X125560000Y-80546250I0J-268750D01*
G01*
X125560000Y-81083750D01*
G75*
G02*
X125291250Y-81352500I-268750J0D01*
G01*
X124328750Y-81352500D01*
G75*
G02*
X124060000Y-81083750I0J268750D01*
G01*
X124060000Y-80546250D01*
G75*
G02*
X124328750Y-80277500I268750J0D01*
G01*
G37*
%TD*%
%TO.C,R6*%
G36*
G01*
X126818750Y-63690000D02*
X127781250Y-63690000D01*
G75*
G02*
X128050000Y-63958750I0J-268750D01*
G01*
X128050000Y-64496250D01*
G75*
G02*
X127781250Y-64765000I-268750J0D01*
G01*
X126818750Y-64765000D01*
G75*
G02*
X126550000Y-64496250I0J268750D01*
G01*
X126550000Y-63958750D01*
G75*
G02*
X126818750Y-63690000I268750J0D01*
G01*
G37*
G36*
G01*
X126818750Y-61815000D02*
X127781250Y-61815000D01*
G75*
G02*
X128050000Y-62083750I0J-268750D01*
G01*
X128050000Y-62621250D01*
G75*
G02*
X127781250Y-62890000I-268750J0D01*
G01*
X126818750Y-62890000D01*
G75*
G02*
X126550000Y-62621250I0J268750D01*
G01*
X126550000Y-62083750D01*
G75*
G02*
X126818750Y-61815000I268750J0D01*
G01*
G37*
%TD*%
%TO.C,R5*%
G36*
G01*
X124398750Y-63687500D02*
X125361250Y-63687500D01*
G75*
G02*
X125630000Y-63956250I0J-268750D01*
G01*
X125630000Y-64493750D01*
G75*
G02*
X125361250Y-64762500I-268750J0D01*
G01*
X124398750Y-64762500D01*
G75*
G02*
X124130000Y-64493750I0J268750D01*
G01*
X124130000Y-63956250D01*
G75*
G02*
X124398750Y-63687500I268750J0D01*
G01*
G37*
G36*
G01*
X124398750Y-61812500D02*
X125361250Y-61812500D01*
G75*
G02*
X125630000Y-62081250I0J-268750D01*
G01*
X125630000Y-62618750D01*
G75*
G02*
X125361250Y-62887500I-268750J0D01*
G01*
X124398750Y-62887500D01*
G75*
G02*
X124130000Y-62618750I0J268750D01*
G01*
X124130000Y-62081250D01*
G75*
G02*
X124398750Y-61812500I268750J0D01*
G01*
G37*
%TD*%
%TO.C,R4*%
G36*
G01*
X134971250Y-106672500D02*
X134008750Y-106672500D01*
G75*
G02*
X133740000Y-106403750I0J268750D01*
G01*
X133740000Y-105866250D01*
G75*
G02*
X134008750Y-105597500I268750J0D01*
G01*
X134971250Y-105597500D01*
G75*
G02*
X135240000Y-105866250I0J-268750D01*
G01*
X135240000Y-106403750D01*
G75*
G02*
X134971250Y-106672500I-268750J0D01*
G01*
G37*
G36*
G01*
X134971250Y-108547500D02*
X134008750Y-108547500D01*
G75*
G02*
X133740000Y-108278750I0J268750D01*
G01*
X133740000Y-107741250D01*
G75*
G02*
X134008750Y-107472500I268750J0D01*
G01*
X134971250Y-107472500D01*
G75*
G02*
X135240000Y-107741250I0J-268750D01*
G01*
X135240000Y-108278750D01*
G75*
G02*
X134971250Y-108547500I-268750J0D01*
G01*
G37*
%TD*%
%TO.C,R3*%
G36*
G01*
X132098750Y-100927500D02*
X133061250Y-100927500D01*
G75*
G02*
X133330000Y-101196250I0J-268750D01*
G01*
X133330000Y-101733750D01*
G75*
G02*
X133061250Y-102002500I-268750J0D01*
G01*
X132098750Y-102002500D01*
G75*
G02*
X131830000Y-101733750I0J268750D01*
G01*
X131830000Y-101196250D01*
G75*
G02*
X132098750Y-100927500I268750J0D01*
G01*
G37*
G36*
G01*
X132098750Y-99052500D02*
X133061250Y-99052500D01*
G75*
G02*
X133330000Y-99321250I0J-268750D01*
G01*
X133330000Y-99858750D01*
G75*
G02*
X133061250Y-100127500I-268750J0D01*
G01*
X132098750Y-100127500D01*
G75*
G02*
X131830000Y-99858750I0J268750D01*
G01*
X131830000Y-99321250D01*
G75*
G02*
X132098750Y-99052500I268750J0D01*
G01*
G37*
%TD*%
%TO.C,R2*%
G36*
G01*
X129651250Y-91052500D02*
X128688750Y-91052500D01*
G75*
G02*
X128420000Y-90783750I0J268750D01*
G01*
X128420000Y-90246250D01*
G75*
G02*
X128688750Y-89977500I268750J0D01*
G01*
X129651250Y-89977500D01*
G75*
G02*
X129920000Y-90246250I0J-268750D01*
G01*
X129920000Y-90783750D01*
G75*
G02*
X129651250Y-91052500I-268750J0D01*
G01*
G37*
G36*
G01*
X129651250Y-92927500D02*
X128688750Y-92927500D01*
G75*
G02*
X128420000Y-92658750I0J268750D01*
G01*
X128420000Y-92121250D01*
G75*
G02*
X128688750Y-91852500I268750J0D01*
G01*
X129651250Y-91852500D01*
G75*
G02*
X129920000Y-92121250I0J-268750D01*
G01*
X129920000Y-92658750D01*
G75*
G02*
X129651250Y-92927500I-268750J0D01*
G01*
G37*
%TD*%
%TO.C,R1*%
G36*
G01*
X135911250Y-81440000D02*
X134948750Y-81440000D01*
G75*
G02*
X134680000Y-81171250I0J268750D01*
G01*
X134680000Y-80633750D01*
G75*
G02*
X134948750Y-80365000I268750J0D01*
G01*
X135911250Y-80365000D01*
G75*
G02*
X136180000Y-80633750I0J-268750D01*
G01*
X136180000Y-81171250D01*
G75*
G02*
X135911250Y-81440000I-268750J0D01*
G01*
G37*
G36*
G01*
X135911250Y-83315000D02*
X134948750Y-83315000D01*
G75*
G02*
X134680000Y-83046250I0J268750D01*
G01*
X134680000Y-82508750D01*
G75*
G02*
X134948750Y-82240000I268750J0D01*
G01*
X135911250Y-82240000D01*
G75*
G02*
X136180000Y-82508750I0J-268750D01*
G01*
X136180000Y-83046250D01*
G75*
G02*
X135911250Y-83315000I-268750J0D01*
G01*
G37*
%TD*%
D11*
%TO.C,J5*%
X126550000Y-110170000D03*
X129090000Y-110170000D03*
X131630000Y-110170000D03*
D12*
X134170000Y-110170000D03*
%TD*%
D11*
%TO.C,J4*%
X134210000Y-74260000D03*
X131670000Y-74260000D03*
X134210000Y-71720000D03*
X131670000Y-71720000D03*
X134210000Y-69180000D03*
D12*
X131670000Y-69180000D03*
%TD*%
D11*
%TO.C,J2*%
X121950000Y-62090000D03*
X121950000Y-64630000D03*
X121950000Y-67170000D03*
X121950000Y-69710000D03*
X121950000Y-72250000D03*
X121950000Y-74790000D03*
X121950000Y-77330000D03*
X121950000Y-79870000D03*
X121950000Y-82410000D03*
X121950000Y-84950000D03*
X121950000Y-87490000D03*
X121950000Y-90030000D03*
X121950000Y-92570000D03*
X121950000Y-95110000D03*
X121950000Y-97650000D03*
X121950000Y-100190000D03*
X121950000Y-102730000D03*
X121950000Y-105270000D03*
X121950000Y-107810000D03*
D12*
X121950000Y-110350000D03*
%TD*%
D11*
%TO.C,J1*%
X138320000Y-62130000D03*
X138320000Y-64670000D03*
X138320000Y-67210000D03*
X138320000Y-69750000D03*
X138320000Y-72290000D03*
X138320000Y-74830000D03*
X138320000Y-77370000D03*
X138320000Y-79910000D03*
X138320000Y-82450000D03*
X138320000Y-84990000D03*
X138320000Y-87530000D03*
X138320000Y-90070000D03*
X138320000Y-92610000D03*
X138320000Y-95150000D03*
X138320000Y-97690000D03*
X138320000Y-100230000D03*
X138320000Y-102770000D03*
X138320000Y-105310000D03*
X138320000Y-107850000D03*
D12*
X138320000Y-110390000D03*
%TD*%
%TO.C,C15*%
G36*
G01*
X129041250Y-100082500D02*
X128078750Y-100082500D01*
G75*
G02*
X127810000Y-99813750I0J268750D01*
G01*
X127810000Y-99276250D01*
G75*
G02*
X128078750Y-99007500I268750J0D01*
G01*
X129041250Y-99007500D01*
G75*
G02*
X129310000Y-99276250I0J-268750D01*
G01*
X129310000Y-99813750D01*
G75*
G02*
X129041250Y-100082500I-268750J0D01*
G01*
G37*
G36*
G01*
X129041250Y-101957500D02*
X128078750Y-101957500D01*
G75*
G02*
X127810000Y-101688750I0J268750D01*
G01*
X127810000Y-101151250D01*
G75*
G02*
X128078750Y-100882500I268750J0D01*
G01*
X129041250Y-100882500D01*
G75*
G02*
X129310000Y-101151250I0J-268750D01*
G01*
X129310000Y-101688750D01*
G75*
G02*
X129041250Y-101957500I-268750J0D01*
G01*
G37*
%TD*%
%TO.C,C14*%
G36*
G01*
X125131250Y-72247500D02*
X124168750Y-72247500D01*
G75*
G02*
X123900000Y-71978750I0J268750D01*
G01*
X123900000Y-71441250D01*
G75*
G02*
X124168750Y-71172500I268750J0D01*
G01*
X125131250Y-71172500D01*
G75*
G02*
X125400000Y-71441250I0J-268750D01*
G01*
X125400000Y-71978750D01*
G75*
G02*
X125131250Y-72247500I-268750J0D01*
G01*
G37*
G36*
G01*
X125131250Y-74122500D02*
X124168750Y-74122500D01*
G75*
G02*
X123900000Y-73853750I0J268750D01*
G01*
X123900000Y-73316250D01*
G75*
G02*
X124168750Y-73047500I268750J0D01*
G01*
X125131250Y-73047500D01*
G75*
G02*
X125400000Y-73316250I0J-268750D01*
G01*
X125400000Y-73853750D01*
G75*
G02*
X125131250Y-74122500I-268750J0D01*
G01*
G37*
%TD*%
%TO.C,C13*%
G36*
G01*
X136071250Y-77407500D02*
X135108750Y-77407500D01*
G75*
G02*
X134840000Y-77138750I0J268750D01*
G01*
X134840000Y-76601250D01*
G75*
G02*
X135108750Y-76332500I268750J0D01*
G01*
X136071250Y-76332500D01*
G75*
G02*
X136340000Y-76601250I0J-268750D01*
G01*
X136340000Y-77138750D01*
G75*
G02*
X136071250Y-77407500I-268750J0D01*
G01*
G37*
G36*
G01*
X136071250Y-79282500D02*
X135108750Y-79282500D01*
G75*
G02*
X134840000Y-79013750I0J268750D01*
G01*
X134840000Y-78476250D01*
G75*
G02*
X135108750Y-78207500I268750J0D01*
G01*
X136071250Y-78207500D01*
G75*
G02*
X136340000Y-78476250I0J-268750D01*
G01*
X136340000Y-79013750D01*
G75*
G02*
X136071250Y-79282500I-268750J0D01*
G01*
G37*
%TD*%
%TO.C,C12*%
G36*
G01*
X127511250Y-72247500D02*
X126548750Y-72247500D01*
G75*
G02*
X126280000Y-71978750I0J268750D01*
G01*
X126280000Y-71441250D01*
G75*
G02*
X126548750Y-71172500I268750J0D01*
G01*
X127511250Y-71172500D01*
G75*
G02*
X127780000Y-71441250I0J-268750D01*
G01*
X127780000Y-71978750D01*
G75*
G02*
X127511250Y-72247500I-268750J0D01*
G01*
G37*
G36*
G01*
X127511250Y-74122500D02*
X126548750Y-74122500D01*
G75*
G02*
X126280000Y-73853750I0J268750D01*
G01*
X126280000Y-73316250D01*
G75*
G02*
X126548750Y-73047500I268750J0D01*
G01*
X127511250Y-73047500D01*
G75*
G02*
X127780000Y-73316250I0J-268750D01*
G01*
X127780000Y-73853750D01*
G75*
G02*
X127511250Y-74122500I-268750J0D01*
G01*
G37*
%TD*%
%TO.C,C11*%
G36*
G01*
X135881250Y-85752500D02*
X134918750Y-85752500D01*
G75*
G02*
X134650000Y-85483750I0J268750D01*
G01*
X134650000Y-84946250D01*
G75*
G02*
X134918750Y-84677500I268750J0D01*
G01*
X135881250Y-84677500D01*
G75*
G02*
X136150000Y-84946250I0J-268750D01*
G01*
X136150000Y-85483750D01*
G75*
G02*
X135881250Y-85752500I-268750J0D01*
G01*
G37*
G36*
G01*
X135881250Y-87627500D02*
X134918750Y-87627500D01*
G75*
G02*
X134650000Y-87358750I0J268750D01*
G01*
X134650000Y-86821250D01*
G75*
G02*
X134918750Y-86552500I268750J0D01*
G01*
X135881250Y-86552500D01*
G75*
G02*
X136150000Y-86821250I0J-268750D01*
G01*
X136150000Y-87358750D01*
G75*
G02*
X135881250Y-87627500I-268750J0D01*
G01*
G37*
%TD*%
%TO.C,C10*%
G36*
G01*
X124878750Y-96712500D02*
X125841250Y-96712500D01*
G75*
G02*
X126110000Y-96981250I0J-268750D01*
G01*
X126110000Y-97518750D01*
G75*
G02*
X125841250Y-97787500I-268750J0D01*
G01*
X124878750Y-97787500D01*
G75*
G02*
X124610000Y-97518750I0J268750D01*
G01*
X124610000Y-96981250D01*
G75*
G02*
X124878750Y-96712500I268750J0D01*
G01*
G37*
G36*
G01*
X124878750Y-94837500D02*
X125841250Y-94837500D01*
G75*
G02*
X126110000Y-95106250I0J-268750D01*
G01*
X126110000Y-95643750D01*
G75*
G02*
X125841250Y-95912500I-268750J0D01*
G01*
X124878750Y-95912500D01*
G75*
G02*
X124610000Y-95643750I0J268750D01*
G01*
X124610000Y-95106250D01*
G75*
G02*
X124878750Y-94837500I268750J0D01*
G01*
G37*
%TD*%
%TO.C,C9*%
G36*
G01*
X134071250Y-77407500D02*
X133108750Y-77407500D01*
G75*
G02*
X132840000Y-77138750I0J268750D01*
G01*
X132840000Y-76601250D01*
G75*
G02*
X133108750Y-76332500I268750J0D01*
G01*
X134071250Y-76332500D01*
G75*
G02*
X134340000Y-76601250I0J-268750D01*
G01*
X134340000Y-77138750D01*
G75*
G02*
X134071250Y-77407500I-268750J0D01*
G01*
G37*
G36*
G01*
X134071250Y-79282500D02*
X133108750Y-79282500D01*
G75*
G02*
X132840000Y-79013750I0J268750D01*
G01*
X132840000Y-78476250D01*
G75*
G02*
X133108750Y-78207500I268750J0D01*
G01*
X134071250Y-78207500D01*
G75*
G02*
X134340000Y-78476250I0J-268750D01*
G01*
X134340000Y-79013750D01*
G75*
G02*
X134071250Y-79282500I-268750J0D01*
G01*
G37*
%TD*%
%TO.C,C8*%
G36*
G01*
X126541250Y-76910000D02*
X125578750Y-76910000D01*
G75*
G02*
X125310000Y-76641250I0J268750D01*
G01*
X125310000Y-76103750D01*
G75*
G02*
X125578750Y-75835000I268750J0D01*
G01*
X126541250Y-75835000D01*
G75*
G02*
X126810000Y-76103750I0J-268750D01*
G01*
X126810000Y-76641250D01*
G75*
G02*
X126541250Y-76910000I-268750J0D01*
G01*
G37*
G36*
G01*
X126541250Y-78785000D02*
X125578750Y-78785000D01*
G75*
G02*
X125310000Y-78516250I0J268750D01*
G01*
X125310000Y-77978750D01*
G75*
G02*
X125578750Y-77710000I268750J0D01*
G01*
X126541250Y-77710000D01*
G75*
G02*
X126810000Y-77978750I0J-268750D01*
G01*
X126810000Y-78516250D01*
G75*
G02*
X126541250Y-78785000I-268750J0D01*
G01*
G37*
%TD*%
%TO.C,C7*%
G36*
G01*
X131091250Y-100097500D02*
X130128750Y-100097500D01*
G75*
G02*
X129860000Y-99828750I0J268750D01*
G01*
X129860000Y-99291250D01*
G75*
G02*
X130128750Y-99022500I268750J0D01*
G01*
X131091250Y-99022500D01*
G75*
G02*
X131360000Y-99291250I0J-268750D01*
G01*
X131360000Y-99828750D01*
G75*
G02*
X131091250Y-100097500I-268750J0D01*
G01*
G37*
G36*
G01*
X131091250Y-101972500D02*
X130128750Y-101972500D01*
G75*
G02*
X129860000Y-101703750I0J268750D01*
G01*
X129860000Y-101166250D01*
G75*
G02*
X130128750Y-100897500I268750J0D01*
G01*
X131091250Y-100897500D01*
G75*
G02*
X131360000Y-101166250I0J-268750D01*
G01*
X131360000Y-101703750D01*
G75*
G02*
X131091250Y-101972500I-268750J0D01*
G01*
G37*
%TD*%
%TO.C,C6*%
G36*
G01*
X127048750Y-107342500D02*
X128011250Y-107342500D01*
G75*
G02*
X128280000Y-107611250I0J-268750D01*
G01*
X128280000Y-108148750D01*
G75*
G02*
X128011250Y-108417500I-268750J0D01*
G01*
X127048750Y-108417500D01*
G75*
G02*
X126780000Y-108148750I0J268750D01*
G01*
X126780000Y-107611250D01*
G75*
G02*
X127048750Y-107342500I268750J0D01*
G01*
G37*
G36*
G01*
X127048750Y-105467500D02*
X128011250Y-105467500D01*
G75*
G02*
X128280000Y-105736250I0J-268750D01*
G01*
X128280000Y-106273750D01*
G75*
G02*
X128011250Y-106542500I-268750J0D01*
G01*
X127048750Y-106542500D01*
G75*
G02*
X126780000Y-106273750I0J268750D01*
G01*
X126780000Y-105736250D01*
G75*
G02*
X127048750Y-105467500I268750J0D01*
G01*
G37*
%TD*%
%TO.C,C5*%
G36*
G01*
X136521250Y-95762500D02*
X135558750Y-95762500D01*
G75*
G02*
X135290000Y-95493750I0J268750D01*
G01*
X135290000Y-94956250D01*
G75*
G02*
X135558750Y-94687500I268750J0D01*
G01*
X136521250Y-94687500D01*
G75*
G02*
X136790000Y-94956250I0J-268750D01*
G01*
X136790000Y-95493750D01*
G75*
G02*
X136521250Y-95762500I-268750J0D01*
G01*
G37*
G36*
G01*
X136521250Y-97637500D02*
X135558750Y-97637500D01*
G75*
G02*
X135290000Y-97368750I0J268750D01*
G01*
X135290000Y-96831250D01*
G75*
G02*
X135558750Y-96562500I268750J0D01*
G01*
X136521250Y-96562500D01*
G75*
G02*
X136790000Y-96831250I0J-268750D01*
G01*
X136790000Y-97368750D01*
G75*
G02*
X136521250Y-97637500I-268750J0D01*
G01*
G37*
%TD*%
%TO.C,C4*%
G36*
G01*
X126628750Y-91882500D02*
X127591250Y-91882500D01*
G75*
G02*
X127860000Y-92151250I0J-268750D01*
G01*
X127860000Y-92688750D01*
G75*
G02*
X127591250Y-92957500I-268750J0D01*
G01*
X126628750Y-92957500D01*
G75*
G02*
X126360000Y-92688750I0J268750D01*
G01*
X126360000Y-92151250D01*
G75*
G02*
X126628750Y-91882500I268750J0D01*
G01*
G37*
G36*
G01*
X126628750Y-90007500D02*
X127591250Y-90007500D01*
G75*
G02*
X127860000Y-90276250I0J-268750D01*
G01*
X127860000Y-90813750D01*
G75*
G02*
X127591250Y-91082500I-268750J0D01*
G01*
X126628750Y-91082500D01*
G75*
G02*
X126360000Y-90813750I0J268750D01*
G01*
X126360000Y-90276250D01*
G75*
G02*
X126628750Y-90007500I268750J0D01*
G01*
G37*
%TD*%
%TO.C,C3*%
G36*
G01*
X131741250Y-91082500D02*
X130778750Y-91082500D01*
G75*
G02*
X130510000Y-90813750I0J268750D01*
G01*
X130510000Y-90276250D01*
G75*
G02*
X130778750Y-90007500I268750J0D01*
G01*
X131741250Y-90007500D01*
G75*
G02*
X132010000Y-90276250I0J-268750D01*
G01*
X132010000Y-90813750D01*
G75*
G02*
X131741250Y-91082500I-268750J0D01*
G01*
G37*
G36*
G01*
X131741250Y-92957500D02*
X130778750Y-92957500D01*
G75*
G02*
X130510000Y-92688750I0J268750D01*
G01*
X130510000Y-92151250D01*
G75*
G02*
X130778750Y-91882500I268750J0D01*
G01*
X131741250Y-91882500D01*
G75*
G02*
X132010000Y-92151250I0J-268750D01*
G01*
X132010000Y-92688750D01*
G75*
G02*
X131741250Y-92957500I-268750J0D01*
G01*
G37*
%TD*%
%TO.C,C2*%
G36*
G01*
X125101250Y-106627500D02*
X124138750Y-106627500D01*
G75*
G02*
X123870000Y-106358750I0J268750D01*
G01*
X123870000Y-105821250D01*
G75*
G02*
X124138750Y-105552500I268750J0D01*
G01*
X125101250Y-105552500D01*
G75*
G02*
X125370000Y-105821250I0J-268750D01*
G01*
X125370000Y-106358750D01*
G75*
G02*
X125101250Y-106627500I-268750J0D01*
G01*
G37*
G36*
G01*
X125101250Y-108502500D02*
X124138750Y-108502500D01*
G75*
G02*
X123870000Y-108233750I0J268750D01*
G01*
X123870000Y-107696250D01*
G75*
G02*
X124138750Y-107427500I268750J0D01*
G01*
X125101250Y-107427500D01*
G75*
G02*
X125370000Y-107696250I0J-268750D01*
G01*
X125370000Y-108233750D01*
G75*
G02*
X125101250Y-108502500I-268750J0D01*
G01*
G37*
%TD*%
%TO.C,C1*%
G36*
G01*
X132041250Y-77430000D02*
X131078750Y-77430000D01*
G75*
G02*
X130810000Y-77161250I0J268750D01*
G01*
X130810000Y-76623750D01*
G75*
G02*
X131078750Y-76355000I268750J0D01*
G01*
X132041250Y-76355000D01*
G75*
G02*
X132310000Y-76623750I0J-268750D01*
G01*
X132310000Y-77161250D01*
G75*
G02*
X132041250Y-77430000I-268750J0D01*
G01*
G37*
G36*
G01*
X132041250Y-79305000D02*
X131078750Y-79305000D01*
G75*
G02*
X130810000Y-79036250I0J268750D01*
G01*
X130810000Y-78498750D01*
G75*
G02*
X131078750Y-78230000I268750J0D01*
G01*
X132041250Y-78230000D01*
G75*
G02*
X132310000Y-78498750I0J-268750D01*
G01*
X132310000Y-79036250D01*
G75*
G02*
X132041250Y-79305000I-268750J0D01*
G01*
G37*
%TD*%
M02*
